<svg width="1100" height="1100" viewBox="0 0 1100 1100" fill="none" xmlns="http://www.w3.org/2000/svg">
<mask id="mask0_1951_31667" style="mask-type:alpha" maskUnits="userSpaceOnUse" x="0" y="0" width="1100" height="1100">
<rect width="1100" height="1100" fill="#D9D9D9"/>
</mask>
<g mask="url(#mask0_1951_31667)">
<path d="M8.28435 551.739C7.89427 556.499 7.91632 560.936 8.28435 564.984V551.739C12.8321 496.24 73.3959 396.763 294.794 356.217C369.625 339.329 580.256 315.686 824.139 356.217C912.726 377.675 1082.68 444.521 1092.31 546.732V564.984C1092.88 558.781 1092.87 552.696 1092.31 546.732V312.541C1090.85 280.804 1039.2 202.654 844.23 143.955C746.106 118.332 490.809 82.4599 254.613 143.955C183.277 160.551 34.1397 217.679 8.28435 313.415V551.739Z" fill="#723A19"/>
<path d="M8.28435 564.984C3.62566 513.739 54.4054 400.241 294.794 356.217C369.625 339.329 580.256 315.686 824.139 356.217C917.895 378.928 1102.79 452.477 1092.31 564.984V312.541C1090.85 280.804 1039.2 202.654 844.23 143.955C746.106 118.332 490.809 82.4599 254.613 143.955C183.277 160.551 34.1397 217.679 8.28435 313.415V564.984Z" stroke="black" stroke-width="10"/>
<path d="M8.28435 350.357C7.89427 345.597 7.91632 341.16 8.28435 337.112V350.357C12.8321 405.856 73.3959 505.333 294.794 545.88C369.625 562.767 580.256 586.41 824.139 545.88C912.726 524.421 1082.68 457.575 1092.31 355.365V337.112C1092.88 343.315 1092.87 349.4 1092.31 355.365V589.555C1090.85 621.292 1039.2 699.442 844.23 758.141C746.106 783.764 490.809 819.636 254.613 758.141C183.277 741.545 34.1397 684.418 8.28435 588.681V350.357Z" fill="#A55728"/>
<path d="M8.28435 337.112C3.62566 388.357 54.4054 501.855 294.794 545.88C369.625 562.767 580.256 586.41 824.139 545.88C917.895 523.168 1102.79 449.619 1092.31 337.112V589.555C1090.85 621.292 1039.2 699.442 844.23 758.141C746.106 783.764 490.809 819.636 254.613 758.141C183.277 741.545 34.1397 684.418 8.28435 588.681V337.112Z" stroke="black" stroke-width="10"/>
<path fill-rule="evenodd" clip-rule="evenodd" d="M550.45 952.059C581.807 952.059 607.228 926.638 607.228 895.281C607.228 863.923 581.807 838.503 550.45 838.503C519.092 838.503 493.672 863.923 493.672 895.281C493.672 926.638 519.092 952.059 550.45 952.059ZM550.449 939.829C575.053 939.829 594.998 919.884 594.998 895.28C594.998 870.677 575.053 850.732 550.449 850.732C525.846 850.732 505.901 870.677 505.901 895.28C505.901 919.884 525.846 939.829 550.449 939.829Z" fill="black"/>
<path d="M474.453 824.527V782.599H623.823V826.274C624.521 843.045 612.467 846.656 606.352 846.365H495.417C478.646 845.666 474.453 831.515 474.453 824.527Z" fill="#E4AD3E" stroke="black" stroke-width="10"/>
<path fill-rule="evenodd" clip-rule="evenodd" d="M729.923 837.053C700.598 833.269 670.406 866.614 658.975 883.76V884.055H440.168C428.738 866.909 398.546 833.564 369.221 837.348C341.217 840.459 295.711 859.882 334.506 912.66C294.75 965.989 340.546 985.577 368.679 988.703C398.004 992.487 428.196 959.142 439.627 941.996H658.532C670.109 959.226 700.124 992.17 729.282 988.408C757.274 985.298 802.752 965.89 764.046 913.163C803.891 859.783 758.068 840.18 729.923 837.053Z" fill="#D9D9D9"/>
<path d="M658.975 883.76L650.655 878.213L648.975 880.732V883.76H658.975ZM729.923 837.053L728.643 846.97L728.731 846.982L728.819 846.991L729.923 837.053ZM658.975 884.055V894.055H668.975V884.055H658.975ZM440.168 884.055L431.848 889.602L434.817 894.055H440.168V884.055ZM369.221 837.348L370.325 847.287L370.413 847.277L370.5 847.266L369.221 837.348ZM334.506 912.66L342.523 918.636L346.948 912.701L342.563 906.737L334.506 912.66ZM368.679 988.703L369.958 978.786L369.871 978.774L369.783 978.764L368.679 988.703ZM439.627 941.996V931.996H434.275L431.306 936.449L439.627 941.996ZM658.532 941.996L666.832 936.419L663.86 931.996H658.532V941.996ZM729.282 988.408L728.178 978.469L728.09 978.479L728.002 978.49L729.282 988.408ZM764.046 913.163L756.032 907.182L751.604 913.114L755.985 919.081L764.046 913.163ZM667.296 889.307C672.55 881.425 682.277 869.634 693.945 860.399C705.896 850.94 718.034 845.601 728.643 846.97L731.203 827.135C712.487 824.72 694.867 834.162 681.532 844.717C667.916 855.494 656.83 868.949 650.655 878.213L667.296 889.307ZM668.975 884.055V883.76H648.975V884.055H668.975ZM440.168 894.055H658.975V874.055H440.168V894.055ZM370.5 847.266C381.11 845.897 393.248 851.235 405.199 860.694C416.867 869.929 426.593 881.72 431.848 889.602L448.489 878.508C442.313 869.244 431.228 855.789 417.611 845.012C404.277 834.458 386.656 825.015 367.941 827.43L370.5 847.266ZM342.563 906.737C333.513 894.425 330.144 885.065 329.593 878.258C329.069 871.782 331.021 866.885 334.445 862.841C341.985 853.938 357.19 848.746 370.325 847.287L368.116 827.409C353.247 829.061 331.698 835.137 319.182 849.917C312.579 857.715 308.679 867.764 309.658 879.871C310.611 891.646 316.102 904.506 326.449 918.582L342.563 906.737ZM369.783 978.764C356.577 977.297 341.305 972.062 333.805 963.093C330.406 959.028 328.475 954.084 329.076 947.511C329.708 940.597 333.229 931.104 342.523 918.636L326.489 906.683C315.905 920.88 310.242 933.834 309.159 945.69C308.044 957.886 311.866 968.034 318.463 975.923C330.955 990.862 352.648 996.984 367.574 998.642L369.783 978.764ZM431.306 936.449C426.051 944.331 416.325 956.122 404.657 965.357C392.706 974.816 380.568 980.155 369.958 978.786L367.399 998.621C386.114 1001.04 403.735 991.593 417.069 981.039C430.686 970.262 441.771 956.807 447.947 947.543L431.306 936.449ZM658.532 931.996H439.627V951.996H658.532V931.996ZM728.002 978.49C717.456 979.851 705.397 974.586 693.501 965.218C681.884 956.069 672.165 944.355 666.832 936.419L650.231 947.573C656.476 956.867 667.553 970.24 681.127 980.93C694.423 991.402 711.95 1000.73 730.562 998.326L728.002 978.49ZM755.985 919.081C765.013 931.379 768.368 940.727 768.911 947.524C769.428 953.991 767.474 958.884 764.048 962.925C756.505 971.823 741.306 977.01 728.178 978.469L730.386 998.347C745.25 996.695 766.786 990.624 779.304 975.858C785.908 968.068 789.815 958.029 788.848 945.93C787.907 934.162 782.432 921.311 772.107 907.246L755.985 919.081ZM728.819 846.991C742.032 848.459 757.309 853.698 764.806 862.674C768.203 866.741 770.132 871.689 769.524 878.271C768.884 885.195 765.349 894.7 756.032 907.182L772.059 919.145C782.665 904.937 788.343 891.974 789.439 880.111C790.566 867.907 786.751 857.749 780.156 849.853C767.666 834.899 745.959 828.773 731.027 827.114L728.819 846.991Z" fill="black"/>
<path fill-rule="evenodd" clip-rule="evenodd" d="M730.465 837.053C701.14 833.269 670.947 866.614 659.517 883.76V884.055H440.168C428.738 866.909 398.546 833.564 369.221 837.348C341.217 840.459 295.711 859.882 334.506 912.66C294.75 965.989 340.546 985.577 368.679 988.703C398.004 992.487 428.196 959.142 439.627 941.996H659.077C670.655 959.226 700.67 992.17 729.828 988.408C757.82 985.298 803.3 965.889 764.59 913.161C804.431 859.782 758.609 840.18 730.465 837.053Z" fill="white"/>
<path d="M779.428 599.163C598.438 632.706 405.859 613.139 332.194 599.163C225.975 645.983 287.936 706.022 332.194 730.189C543.931 770.021 718.574 746.786 779.428 730.189C861.887 666.598 813.786 616.342 779.428 599.163Z" fill="#FFC146" stroke="black" stroke-width="10"/>
</g>
</svg>
