<svg width="1100" height="1100" viewBox="0 0 1100 1100" fill="none" xmlns="http://www.w3.org/2000/svg">
<mask id="mask0_1951_31662" style="mask-type:alpha" maskUnits="userSpaceOnUse" x="0" y="0" width="1100" height="1100">
<rect width="1100" height="1100" fill="#D9D9D9"/>
</mask>
<g mask="url(#mask0_1951_31662)">
<path d="M898.447 140.762C747.204 -124.889 240.472 73.3855 157.677 154.899C74.8807 236.412 22.9992 312.626 23 473.011C23.001 662.032 68.2602 799.961 138.91 891.639C209.56 983.318 305.42 1033.82 419.302 1069.47C615.373 1118.33 737.1 1090.73 859.81 1039.87C1028.03 971.085 1084.96 825.365 1075.07 737.225C1065.18 649.084 960.314 636.927 911.695 550.551C863.077 464.174 977.655 279.888 898.447 140.762Z" fill="black" stroke="black"/>
<path d="M868.595 169.961C728.195 -76.7826 257.792 107.38 180.932 183.091C104.072 258.803 55.9094 329.592 55.9102 478.562C55.911 654.129 97.9256 782.241 163.511 867.395C229.096 952.548 318.083 999.459 423.801 1032.57C605.816 1077.95 718.816 1052.31 832.729 1005.08C988.888 941.186 1041.74 805.838 1032.56 723.971C1023.38 642.103 926.027 630.812 880.894 550.583C835.761 470.354 942.125 299.184 868.595 169.961Z" fill="#FFE9C8" stroke="black"/>
<ellipse cx="772.206" cy="867.043" rx="83.2456" ry="82.7616" fill="black"/>
<circle cx="773.18" cy="865.591" r="60.0142" fill="#21BB7A"/>
<circle cx="275.156" cy="677.321" r="82.7616" fill="black"/>
<circle cx="276.124" cy="676.353" r="59.5302" fill="#FF656B"/>
<ellipse cx="735.425" cy="234.957" rx="83.2456" ry="82.7616" fill="black"/>
<circle cx="736.397" cy="234.473" r="60.0142" fill="#A5FF33"/>
<circle cx="440.681" cy="234.957" r="82.7616" fill="black"/>
<ellipse cx="441.647" cy="234.473" rx="59.5302" ry="60.0142" fill="#FFDC00"/>
<circle cx="230.631" cy="424.68" r="82.7616" fill="black"/>
<circle cx="232.081" cy="424.196" r="60.0142" fill="#FF9A00"/>
<ellipse cx="474.076" cy="842.843" rx="83.2456" ry="82.7616" fill="black"/>
<ellipse cx="475.042" cy="841.875" rx="60.0142" ry="59.5302" fill="#00DDFF"/>
</g>
</svg>
