<svg width="1100" height="1100" viewBox="0 0 1100 1100" fill="none" xmlns="http://www.w3.org/2000/svg">
<mask id="mask0_1951_31651" style="mask-type:alpha" maskUnits="userSpaceOnUse" x="0" y="0" width="1100" height="1100">
<rect width="1100" height="1100" fill="#D9D9D9"/>
</mask>
<g mask="url(#mask0_1951_31651)">
<path fill-rule="evenodd" clip-rule="evenodd" d="M890.875 1102.22C888.555 1080.67 887.126 1058.98 886.306 1037.32C885.487 1015.69 886.558 993.792 887.029 972.153C887.988 928.133 889.546 884.01 886.042 840.057C882.732 798.518 875.13 757.269 863.136 717.357C857.295 697.92 851.139 677.7 841.532 659.739C831.872 641.682 816.57 629.657 799.762 618.629C781.867 606.888 764.115 594.925 746.29 583.075C731.327 573.128 704.399 561.551 692.122 548.253C679.204 534.261 676.776 499.577 668.173 483.002C659.795 466.857 636.078 456.325 617.818 456.325C587.592 456.325 564.69 454.78 539.836 482.75C527.436 496.706 537.302 510.814 524.304 524.209C512.355 536.523 481.794 549.179 466.392 556.325C447.945 564.884 429.033 572.44 409.846 579.17C390.274 586.037 370.209 591.154 350.527 597.634C331.662 603.846 307.027 629.448 292.382 642.995C278.765 655.59 275.386 654.179 265.035 669.48C242.317 703.058 219.574 737.022 201.482 773.377C192.471 791.486 183.746 810.536 180.476 830.648C176.989 852.098 180.447 872.828 186.102 893.597C191.859 914.733 210.141 934.857 216.097 955.939C218.841 965.655 209.42 976.258 213.754 985.414C215.918 989.986 218.643 994.057 221.747 998.041C224.137 1001.11 233.462 1000.43 234.668 1004.19C235.887 1007.98 229.141 1015.86 229.041 1019.79C228.898 1025.41 228.675 1031.03 228.49 1036.65L227.4 1069.88C226.684 1091.71 225.968 1113.55 225.252 1135.38C225.018 1142.51 224.677 1149.47 226.385 1156.24C225.768 1155.66 225.182 1155.04 224.647 1154.34C223.08 1152.3 219.757 1154.03 221.087 1156.43C223.307 1160.42 226.499 1163.23 230.249 1165.25C234.607 1171.68 894.646 1186.04 897.894 1167.24C899.716 1156.7 896.399 1145.41 895.073 1134.94C893.693 1124.03 892.052 1113.16 890.875 1102.22Z" fill="#D08B5B"/>
<path fill-rule="evenodd" clip-rule="evenodd" d="M203.031 788.59L884.743 825.876C885.232 830.599 885.665 835.326 886.042 840.057C889.545 884.01 887.987 928.134 887.028 972.153C886.901 977.988 886.731 983.842 886.565 989.704L819.314 1000.81L341.233 1012.3L221.746 998.041L216.787 989.441L213.351 974.47C214.825 968.323 217.797 961.961 216.096 955.94C215.6 954.184 215.019 952.436 214.367 950.693L214.984 938.679L203.031 788.59Z" fill="#FDEA6B"/>
<path fill-rule="evenodd" clip-rule="evenodd" d="M220.401 830.685C222.015 826.059 229.401 828.061 227.775 832.719C219.416 856.671 225.346 882.736 234.383 905.602C236.197 910.189 228.797 912.16 227.009 907.635C217.502 883.583 211.621 855.84 220.401 830.685M276.45 967.502C300.024 970.819 323.618 972.866 347.355 974.52C348.417 974.597 349.334 974.435 350.128 974.09C349.42 984.964 348.847 995.847 348.397 1006.73C341.925 1006.55 335.319 1006.98 328.905 1006.81C320.521 1006.58 312.146 1006.16 303.781 1005.52C287.587 1004.29 271.421 1002.34 255.408 999.644C249.424 998.639 241.824 998.027 235.007 996.038C228.564 994.155 222.828 991.036 219.817 985.165C217.255 980.192 216.786 974.101 216.786 968.602C216.786 964.814 217.436 960.969 217.828 957.153C218.316 956.81 218.756 956.398 219.109 955.94C226.222 958.186 233.602 959.765 240.829 961.294C252.598 963.8 264.538 965.828 276.45 967.502M263.154 879.075C263.284 886.385 265.306 893.025 269.24 899.179C271.901 903.344 265.279 907.176 262.636 903.04C258.005 895.794 255.659 887.661 255.506 879.075C255.418 874.142 263.066 874.158 263.154 879.075M867.462 958.817C870.654 958.996 873.866 959.105 877.068 959.275C879.892 961.691 883.802 962.93 887.372 962.161C887.496 962.47 887.607 962.817 887.71 963.216C888.341 965.674 888.656 968.314 889.019 970.819C889.383 973.287 889.66 975.774 889.851 978.261C889.947 979.513 890.549 982.343 889.784 983.435C889.096 984.419 887.576 984.333 886.524 984.457C883.695 984.763 880.827 984.907 877.978 985.146C872.596 985.614 867.213 986.083 861.841 986.551C856.573 987.011 850.789 986.868 845.637 988.254C844.757 977.915 843.954 967.578 843.208 957.23C851.191 958.407 859.537 958.377 867.462 958.817M198.154 941.671C201.366 947.877 204.33 953.978 210.477 957.708C211.28 958.186 212.178 958.444 213.096 958.511C212.408 961.466 211.978 964.488 211.595 967.281C210.754 973.431 210.572 979.79 212.111 985.853C213.612 991.754 216.098 997.024 220.973 1000.8C223.239 1002.56 225.715 1003.9 228.315 1004.96C227.876 1006.19 227.618 1007.42 227.751 1008.77C227.13 1011.89 226.719 1015.08 226.27 1018.13C225.285 1024.9 224.3 1031.68 223.526 1038.49C221.977 1052.03 220.763 1065.57 219.74 1079.16C218.717 1092.71 217.981 1106.29 217.369 1119.87C217.054 1126.81 216.777 1133.75 216.519 1140.7C216.26 1147.85 215.104 1155.15 218.258 1161.78C220.801 1167.14 229.396 1166.83 232.034 1161.78C235.38 1155.37 234.396 1147.74 234.482 1140.7C234.568 1134.08 234.682 1127.44 234.826 1120.81C235.113 1107.24 235.533 1093.68 235.868 1080.11C236.193 1066.87 236.594 1053.63 236.862 1040.38C236.996 1033.45 237.005 1026.52 237.044 1019.58C237.063 1015.74 237.225 1011.64 236.939 1007.63C239.328 1008.19 241.738 1008.67 244.118 1009.16C262.291 1012.89 280.656 1015.6 299.135 1017.29C308.418 1018.13 317.729 1018.72 327.041 1019.06C333.885 1019.31 340.979 1019.78 347.929 1019.53C347.384 1036.13 347.136 1052.74 347.164 1069.35C347.183 1081.33 347.346 1093.32 347.642 1105.3C347.805 1111.6 347.939 1117.91 348.13 1124.21C348.216 1127.04 348.216 1129.9 348.407 1132.72C348.464 1133.6 348.589 1134.45 348.751 1135.29C348.12 1137.08 347.594 1138.85 347.164 1140.5C345.061 1148.54 345.061 1156.26 345.998 1164.44C346.801 1171.38 352.642 1177.82 360.357 1175.38C361.609 1174.99 362.862 1174.58 364.104 1174.16C375.462 1175.45 386.886 1175.75 398.405 1175.96C415.24 1176.29 432.085 1176.4 448.929 1176.48C481.968 1176.65 515.017 1176.74 548.066 1176.83C614.478 1177.03 680.891 1177.21 747.304 1177.4C765.735 1177.46 784.166 1177.5 802.598 1177.56C812.139 1177.59 821.66 1177.6 831.192 1177.96C835.637 1178.14 840.092 1178.38 844.537 1178.44C849.69 1178.53 854.25 1177.05 859.173 1175.7C861.955 1174.92 863.055 1172.13 862.462 1169.77C866.917 1170.83 872.318 1168.57 873.838 1163.55C874.947 1159.91 874.536 1155.96 872.882 1152.58V1152.57C869.689 1132.4 865.636 1112.33 862.453 1092.15C858.963 1070.05 855.608 1047.9 852.654 1025.71C850.436 1008.96 848.61 1020.84 847.032 1004C853.906 1004.54 861.678 1002.45 868.485 1001.56C873.37 1000.93 878.293 1000.42 883.188 999.749C882.825 1004.68 882.93 1009.71 882.796 1014.45C882.538 1023.85 882.653 1033.21 882.892 1042.61C883.35 1060.75 884.373 1050.2 886.008 1068.26C887.662 1086.46 889.689 1104.59 892.146 1122.71C893.407 1132.03 894.755 1141.35 896.18 1150.65C896.84 1154.99 897.518 1159.33 898.216 1163.67C899.048 1168.78 899.315 1173.63 903.149 1177.48C906.065 1180.39 912.021 1180.14 913.952 1176.08C916.399 1170.94 915.29 1166.54 914.382 1161.15C913.646 1156.82 912.938 1152.49 912.24 1148.16C910.749 1138.87 909.334 1129.57 908.005 1120.27C905.443 1102.34 903.025 1084.38 900.864 1066.4C898.685 1048.27 896.428 1058.86 894.287 1040.74C893.207 1031.6 892.126 1022.47 890.865 1013.36C890.224 1008.67 889.823 1003.68 888.981 998.85C889.249 998.813 889.517 998.764 889.784 998.716C895.597 997.654 900.558 994.374 902.021 988.387C903.417 982.659 901.753 976.07 900.577 970.447C899.574 965.658 898.666 959.544 895.584 955.44C906.444 941.602 913.508 924.189 918.014 907.448C922.922 889.21 924.976 870.172 925.411 851.324C925.916 829.489 924.271 807.78 920.53 786.431C920.442 781.906 920.234 777.384 919.898 772.866C916.609 728.531 902.805 676.056 859.04 655.341C858.868 655.256 858.686 655.178 858.504 655.102C855.072 650.999 850.789 647.307 847.329 643.856C841.201 637.734 834.796 631.882 828.008 626.488C814.567 615.806 799.826 607.276 784.501 599.595C769.004 591.82 753.278 584.524 738.136 576.041C724.943 568.639 713.069 559.725 701.798 549.665C689.131 538.351 680.116 523.097 676.579 506.448C676.398 505.578 675.107 505.817 675.088 506.648C674.161 537.165 694.753 564.134 718.452 581.195C746.787 601.576 781.002 611.225 809.739 630.984C816.88 635.89 823.563 641.427 829.92 647.307C820.179 646.313 810.265 646.944 801.135 649.641C797.541 649.421 793.927 649.355 790.323 649.182C782.082 648.771 773.832 648.389 765.582 648.025C748.766 647.28 731.941 646.601 715.115 646.008C682.105 644.84 649.085 643.96 616.065 643.378C549.71 642.201 483.269 641.971 416.923 643.894C398.931 644.411 304.326 640.824 295.569 641.837C308.447 630.686 322.576 621.583 338.111 614.094C357.546 604.75 377.632 598.515 398.386 592.815C441.128 581.081 485.515 569.767 519.72 539.958C528.219 532.546 535.772 524.026 541.957 514.587C547.865 505.578 554.432 494.044 554.595 483.055C554.71 475.253 543.85 472.411 539.987 479.096C537.588 483.237 536.402 487.78 534.443 492.122C532.492 496.425 530.179 500.576 527.607 504.545C522.55 512.349 516.279 519.31 509.453 525.594C494.903 539.001 477.274 548.823 459.034 556.254C417.621 573.114 372.326 580.229 333.082 602.456C315.913 612.181 299.479 625.599 289.164 642.717C287.501 642.976 285.847 643.281 284.193 643.625C285.426 642.067 286.669 640.509 287.921 638.959C288.744 637.945 287.472 636.607 286.468 637.505C266.957 654.872 248.984 673.626 232.694 694.073C217.111 713.639 202.58 734.144 192.294 757.058C173.805 798.219 169.732 845.299 179.283 889.311C181.883 901.303 185.554 913.047 190.229 924.398C192.638 930.261 195.248 936.037 198.154 941.671" fill="black"/>
<path fill-rule="evenodd" clip-rule="evenodd" d="M790.68 125.186C755.109 76.1349 689.615 62.029 632.818 73.959C521.781 94.2381 415.696 179.112 396.077 294.54C365.468 364.371 385.014 474.362 474.034 482.58C486.707 483.296 499.261 480.373 511.957 481.951C589.444 494.352 681.009 547.436 749.6 484.834C753.038 487.301 757.567 488.494 761.421 487.001C790.616 475.697 791.988 442.997 794.477 416.117C797.692 381.385 800.708 346.633 803.52 311.868C804.525 251.913 828.245 176.992 790.68 125.186V125.186Z" fill="#D08B5B"/>
<path fill-rule="evenodd" clip-rule="evenodd" d="M575.404 0.197177C622.153 -2.29294 708.291 19.16 749.075 44.3114C815.526 85.2905 820.677 167.035 817.967 181.17C816.937 186.564 813.647 191.556 808.499 189.897C812.866 227.034 812.523 248.261 813.256 285.612L813.761 310.549C814.088 327.175 814.369 343.802 814.44 360.433C816.121 359.806 817.778 360.576 818.393 362.189C818.547 362.581 818.014 362.794 817.754 362.569C814.795 359.983 816.902 365.876 817.92 367.075C819.328 368.723 821.671 370.276 823.316 371.687L827.784 375.563V375.563L832.252 379.431C838.024 384.42 843.606 389.419 848.991 394.793L850.455 396.269C860.266 406.253 872.563 415.916 878.67 428.83C884.504 441.161 882.705 455.141 873.012 464.971C869.486 468.54 865.367 471.269 860.893 473.332C868.858 486.47 870.018 503.842 861.71 517.358C853.39 530.925 837.388 538.027 821.979 536.937C821.506 538.869 820.772 540.755 819.801 542.544C813.691 553.794 801.537 555.255 790.011 554.653L789.562 554.628C763.62 553.133 738.659 546.624 715.936 533.972C708.053 534.506 701.023 528.018 699.485 520.904C695.342 520.751 691.176 520.406 686.927 519.92C674.323 518.462 661.399 515.747 650.286 509.332C648.581 508.348 649.374 505.751 651.268 505.702C664.807 505.394 678.359 506.332 691.875 504.861C704.278 503.52 717.498 500.095 729.061 495.435C749.843 487.039 767.667 472.798 777.502 453.066C790.237 427.524 789.077 396.85 790.462 369.102C791.996 338.389 793.884 307.704 795.903 277.021L796.883 262.314C798.844 233.647 800.467 218.312 805.433 188.557C790.462 189.897 728.269 167.47 708.929 130.785C672.222 208.826 486.248 176.887 478.001 297.031C477.931 298.05 476.32 297.766 476.261 296.793L476.107 294.055C476.033 292.702 475.966 291.37 475.92 290.049L475.882 288.731L472.959 288.766C472.959 289.133 472.438 289.265 472.308 288.873C469.55 281.034 456.413 283.56 450.697 285.423C445.548 287.105 440.696 289.69 436.341 292.881C427.594 299.284 420.813 307.905 418.564 318.682C414.292 339.15 427.299 359.996 444.566 369.873C455.454 376.099 467.384 380.118 477.823 387.174C487.043 393.399 495.635 400.691 503.079 408.98C532.573 441.814 549.923 491.616 535.969 534.956C534.904 538.265 532.087 542.046 528.359 542.581C522.193 543.47 516.027 542.569 512.571 536.688C511.222 534.387 510.583 531.767 510.725 529.182C508.334 537.41 500.582 545.545 493.434 548.605C483.693 552.778 472.722 551.532 464.13 546.149L463.044 546.953C449.071 557.258 433.461 566.65 415.558 564.755C402.587 563.379 389.852 556.763 382.68 546.328C373.141 551.699 362.951 555.979 352.441 558.896L351.322 559.204C336.863 563.148 318.419 566.764 304.922 558.754C291.963 551.058 287.655 534.256 290.697 520.228C291.063 518.557 291.525 516.933 292.093 515.356C282.341 515.876 272.601 514.941 263.345 512.071C253.889 509.141 244.871 503.509 240.338 494.379C235.225 484.05 236.586 472.312 240.397 461.794C246.492 444.92 256.292 429.908 268.494 416.83C280.228 404.243 294.382 393.564 309.092 384.662L311.572 383.176C324.814 375.263 340.783 365.99 356.429 366.601C356.382 366.399 356.346 366.208 356.323 366.008C353.956 348.541 354.228 330.731 353.672 313.122C353.163 296.925 352.583 280.727 352.204 264.517C351.589 236.959 351.79 209.284 355.376 181.917C358.56 157.632 364.288 133.951 374.738 111.718C385.71 88.3593 402.232 68.4265 422.635 52.7506C465.455 19.8454 522.016 3.04303 575.404 0.197177ZM429.961 323.877C434.624 315.066 445.241 312.292 454.555 313.881C467.609 316.11 476.486 327.542 484.107 337.372C492.108 347.675 475.42 357.387 471.124 347.404L470.106 345.045C466.659 337.128 462.586 328.779 455.549 323.616C448.069 318.138 437.512 317.331 430.908 324.612C430.435 325.145 429.642 324.458 429.961 323.877Z" fill="black"/>
<path fill-rule="evenodd" clip-rule="evenodd" d="M673.483 426.974C665.481 423.708 658.342 418.259 653.122 411.298C651.308 408.879 650.837 406.324 651.218 403.987C651.646 401.359 653.2 398.977 655.318 397.379C657.444 395.777 660.102 394.987 662.672 395.39C664.906 395.74 667.129 396.963 668.888 399.501L669.256 400.009C672.359 404.21 676.403 407.657 681.01 409.878C685.451 412.02 690.418 413.019 695.558 412.438C705.347 411.331 712.094 406.034 719.265 398.84C720.154 397.932 721.043 396.995 721.937 396.043C722.502 395.18 723.285 394.626 724.155 394.335C725.12 394.012 726.213 394.03 727.213 394.379C728.178 394.716 729.041 395.355 729.619 396.205C730.169 397.013 730.481 398.011 730.38 399.158C729.723 406.614 725.828 413.267 720.295 418.492C714.15 424.294 706.005 428.309 698.336 429.717C689.887 431.267 681.278 430.156 673.483 426.974V426.974ZM702.322 311.96C711.31 317.427 725.006 330.176 715.336 343.73C703.954 355.681 687.567 341.978 679.491 335.781C672.003 330.978 663.59 343.331 670.538 348.939C728.891 392.171 752.572 313.389 706.868 305.531C701.836 304.665 699.967 310.268 702.322 311.96ZM597.752 261.669C598.745 249.334 617.519 246.532 619.387 258.739C621.059 269.674 619.09 279.718 614.168 289.563C609.465 298.968 597.645 294.58 596.751 286.016C595.553 274.536 597.134 269.343 597.752 261.669ZM740.665 256.208C743.282 252.778 747.061 250.436 751.589 251.759C765.736 255.896 761.567 275.994 756.598 285.777C753.899 291.089 745.172 292.436 741.229 287.759C734.801 280.131 731.723 264.897 739.895 257.384C740.116 256.995 740.362 256.604 740.665 256.208ZM613.969 207.692L616.204 207.301C623.117 206.105 631.712 204.955 636.603 210.517C639.197 213.466 640.089 218.947 636.603 221.77C630.47 226.737 623.69 224.812 616.341 225.233C610.285 225.581 604.464 226.584 598.631 228.252C585.832 231.913 575.404 238.595 564.474 245.932C563.039 246.895 561.575 245.059 562.26 243.717C568.569 231.349 580.797 221.19 593.046 214.998C599.583 211.692 606.737 208.95 613.969 207.692ZM727.769 202.152L729.479 202.503C748.092 206.396 772.275 214.173 781.089 232.468C781.425 235.055 781.07 235.61 780.782 235.972L780.686 236.092C780.448 236.402 780.258 236.828 779.138 237.18C778.827 237.106 778.513 237.028 778.195 236.944C774.155 235.885 770.958 234.425 767.864 232.911L764.508 231.256C760.615 229.346 756.688 227.506 752.526 226.147C743.644 223.248 734.507 221.205 725.23 220.115C723.219 219.879 721.282 219.2 719.755 218.036C718.305 216.931 717.197 215.401 716.692 213.368C716.037 210.737 716.226 208.745 717.636 206.371C718.697 204.588 720.215 203.353 721.958 202.643C723.735 201.92 725.758 201.749 727.769 202.152Z" fill="black"/>
</g>
</svg>
