<svg width="210" height="92" viewBox="0 0 210 92" fill="none" xmlns="http://www.w3.org/2000/svg">
<rect width="194" height="70" rx="35" fill="#00715D"/>
<path d="M67.7882 42.3C66.8215 42.3 65.9549 42.1667 65.1882 41.9C64.4215 41.6333 63.7715 41.2583 63.2382 40.775C62.7049 40.2917 62.2965 39.7 62.0132 39C61.7299 38.3 61.5882 37.525 61.5882 36.675V28.15H65.2882V36.5C65.2882 37.4167 65.5049 38.125 65.9382 38.625C66.3882 39.125 67.0049 39.375 67.7882 39.375C68.5715 39.375 69.1799 39.125 69.6132 38.625C70.0465 38.125 70.2632 37.4167 70.2632 36.5V28.15H73.9632V36.675C73.9632 37.525 73.8215 38.3 73.5382 39C73.2549 39.7 72.8465 40.2917 72.3132 40.775C71.7799 41.2583 71.1299 41.6333 70.3632 41.9C69.5965 42.1667 68.7382 42.3 67.7882 42.3ZM82.3905 42.3C81.0572 42.3 79.9239 42.0833 78.9905 41.65C78.0739 41.2167 77.2655 40.6083 76.5655 39.825L78.7905 37.675C79.2739 38.2083 79.8239 38.6417 80.4405 38.975C81.0739 39.2917 81.7822 39.45 82.5655 39.45C83.3322 39.45 83.8905 39.325 84.2405 39.075C84.5905 38.825 84.7655 38.5 84.7655 38.1C84.7655 37.6667 84.6239 37.3583 84.3405 37.175C84.0572 36.975 83.6739 36.8417 83.1905 36.775L81.7655 36.6C80.2489 36.4167 79.0822 35.975 78.2655 35.275C77.4655 34.575 77.0655 33.6 77.0655 32.35C77.0655 31.65 77.1905 31.025 77.4405 30.475C77.7072 29.925 78.0739 29.4583 78.5405 29.075C79.0239 28.675 79.5905 28.375 80.2405 28.175C80.9072 27.9583 81.6405 27.85 82.4405 27.85C83.1072 27.85 83.7072 27.9 84.2405 28C84.7739 28.0833 85.2572 28.2167 85.6905 28.4C86.1405 28.5833 86.5489 28.8083 86.9155 29.075C87.2822 29.3417 87.6405 29.65 87.9905 30L85.8155 32.15C85.4155 31.7167 84.9239 31.3667 84.3405 31.1C83.7572 30.8333 83.1489 30.7 82.5155 30.7C81.8322 30.7 81.3322 30.825 81.0155 31.075C80.6989 31.325 80.5405 31.65 80.5405 32.05C80.5405 32.45 80.6655 32.775 80.9155 33.025C81.1822 33.2583 81.6322 33.4167 82.2655 33.5L83.6905 33.7C84.4072 33.8 85.0405 33.95 85.5905 34.15C86.1572 34.35 86.6322 34.6167 87.0155 34.95C87.4155 35.2667 87.7155 35.6583 87.9155 36.125C88.1322 36.5917 88.2405 37.15 88.2405 37.8C88.2405 38.45 88.0989 39.05 87.8155 39.6C87.5322 40.15 87.1322 40.625 86.6155 41.025C86.1155 41.425 85.4989 41.7417 84.7655 41.975C84.0489 42.1917 83.2572 42.3 82.3905 42.3ZM76.5638 23.325H88.1138V26.025H76.5638V23.325ZM92.1095 36.9H90.7845V34.025H92.6845C93.3178 34.025 93.8095 34.15 94.1595 34.4C94.5095 34.65 94.7845 35.0583 94.9845 35.625L96.2595 39.25H96.9345C97.4511 39.25 97.8678 38.9833 98.1845 38.45C98.5011 37.9 98.6595 37.1333 98.6595 36.15V33.85C98.6595 32.8833 98.3845 32.1333 97.8345 31.6C97.3011 31.05 96.5428 30.775 95.5595 30.775C95.0261 30.775 94.5511 30.85 94.1345 31C93.7345 31.15 93.3761 31.3333 93.0595 31.55C92.7428 31.75 92.4761 31.975 92.2595 32.225C92.0428 32.475 91.8678 32.7 91.7345 32.9L89.4845 30.9C89.7511 30.5 90.0678 30.1167 90.4345 29.75C90.8178 29.3833 91.2595 29.0583 91.7595 28.775C92.2761 28.4917 92.8595 28.2667 93.5095 28.1C94.1595 27.9333 94.9011 27.85 95.7345 27.85C96.7845 27.85 97.7261 28.0167 98.5595 28.35C99.4095 28.6667 100.126 29.1333 100.709 29.75C101.293 30.3667 101.734 31.1167 102.034 32C102.351 32.8833 102.509 33.8833 102.509 35C102.509 36.1 102.376 37.0833 102.109 37.95C101.843 38.8167 101.459 39.55 100.959 40.15C100.476 40.75 99.8845 41.2083 99.1845 41.525C98.5011 41.8417 97.7261 42 96.8595 42H93.9845L92.1095 36.9ZM110.975 32.825C110.975 32.1917 110.808 31.6917 110.475 31.325C110.158 30.9583 109.625 30.775 108.875 30.775C108.158 30.775 107.592 30.9333 107.175 31.25C106.758 31.55 106.408 31.9 106.125 32.3L103.925 30.35C104.458 29.5667 105.117 28.9583 105.9 28.525C106.7 28.075 107.783 27.85 109.15 27.85C110.967 27.85 112.342 28.2583 113.275 29.075C114.208 29.8917 114.675 31.0833 114.675 32.65V42H110.975V32.825ZM117.814 33.725C117.814 32.825 117.972 32.0167 118.289 31.3C118.605 30.5833 119.055 29.9667 119.639 29.45C120.222 28.9333 120.93 28.5417 121.764 28.275C122.614 27.9917 123.564 27.85 124.614 27.85C125.664 27.85 126.605 27.9917 127.439 28.275C128.289 28.5417 129.005 28.9333 129.589 29.45C130.172 29.9667 130.622 30.5833 130.939 31.3C131.255 32.0167 131.414 32.825 131.414 33.725V42H127.714V33.9C127.714 32.9 127.439 32.1333 126.889 31.6C126.339 31.05 125.58 30.775 124.614 30.775C123.647 30.775 122.889 31.05 122.339 31.6C121.789 32.1333 121.514 32.9 121.514 33.9V36.875H121.639C121.705 36.5083 121.822 36.1583 121.989 35.825C122.155 35.475 122.372 35.1667 122.639 34.9C122.922 34.6333 123.255 34.425 123.639 34.275C124.022 34.1083 124.472 34.025 124.989 34.025H125.639V37.475H124.714C123.63 37.475 122.822 37.6167 122.289 37.9C121.772 38.1833 121.514 38.7083 121.514 39.475V42H117.814V33.725Z" fill="white"/>
<path d="M205.243 58.453L169.352 47.8044C165.853 46.7662 165.22 49.5522 165.341 51.075L176.865 87.7309C178.766 91.0338 181.319 89.9065 182.359 88.93L192.117 72.8617L205.281 64.9466C210.014 62.4107 207.228 59.5609 205.243 58.453Z" fill="white"/>
<path d="M205.243 58.453L169.352 47.8044C165.853 46.7662 165.22 49.5522 165.341 51.075L176.865 87.7309C178.766 91.0338 181.319 89.9065 182.359 88.93L192.117 72.8617L205.281 64.9466C210.014 62.4107 207.228 59.5609 205.243 58.453Z" fill="white" stroke="#D45343" stroke-width="4"/>
<rect x="162.885" y="46.3711" width="8.95689" height="2.68707" rx="1.34353" transform="rotate(-135 162.885 46.3711)" fill="#FDD65B"/>
<rect x="167.363" y="43.5654" width="8.95689" height="2.68707" rx="1.34353" transform="rotate(-90 167.363 43.5654)" fill="#FDD65B"/>
<rect x="152.986" y="48.9854" width="8.95689" height="2.68707" rx="1.34353" fill="#FDD65B"/>
<rect x="172.859" y="43.3623" width="8.95689" height="2.68707" rx="1.34353" transform="rotate(-45 172.859 43.3623)" fill="#FDD65B"/>
<rect x="155.602" y="60.6211" width="8.95689" height="2.68707" rx="1.34353" transform="rotate(-45 155.602 60.6211)" fill="#FDD65B"/>
</svg>
