<svg width="38" height="38" viewBox="0 0 38 38" fill="none" xmlns="http://www.w3.org/2000/svg">
<path fill-rule="evenodd" clip-rule="evenodd" d="M19 38C29.4934 38 38 29.4934 38 19C38 8.50659 29.4934 0 19 0C8.50659 0 0 8.50659 0 19C0 29.4934 8.50659 38 19 38ZM15.5858 11.5858C15.9609 11.2107 16.4696 11 17 11H23C23.5304 11 24.0391 11.2107 24.4142 11.5858C24.7893 11.9609 25 12.4696 25 13V23C25 23.5304 24.7893 24.0391 24.4142 24.4142C24.0391 24.7893 23.5304 25 23 25H17C16.4696 25 15.9609 24.7893 15.5858 24.4142C15.2107 24.0391 15 23.5304 15 23V13C15 12.4696 15.2107 11.9609 15.5858 11.5858ZM16.2929 12.2929C16.1054 12.4804 16 12.7348 16 13V23C16 23.2652 16.1054 23.5196 16.2929 23.7071C16.4804 23.8946 16.7348 24 17 24H23C23.2652 24 23.5196 23.8946 23.7071 23.7071C23.8946 23.5196 24 23.2652 24 23V13C24 12.7348 23.8946 12.4804 23.7071 12.2929C23.5196 12.1054 23.2652 12 23 12H17C16.7348 12 16.4804 12.1054 16.2929 12.2929ZM13.268 14C13.0924 14.3041 13 14.6489 13 15V23.5C13 24.4283 13.3687 25.3185 14.0251 25.9749C14.6815 26.6313 15.5717 27 16.5 27H21C21.3511 27 21.6959 26.9076 22 26.732C22.304 26.5565 22.5565 26.304 22.732 26H16.5C15.837 26 15.2011 25.7366 14.7322 25.2678C14.2634 24.7989 14 24.163 14 23.5V13.268C13.696 13.4435 13.4435 13.696 13.268 14Z" fill="#A4A4A4"/>
</svg>
