<svg width="1100" height="1100" viewBox="0 0 1100 1100" fill="none" xmlns="http://www.w3.org/2000/svg">
<mask id="mask0_1951_31870" style="mask-type:alpha" maskUnits="userSpaceOnUse" x="0" y="0" width="1100" height="1100">
<rect width="1100" height="1100" fill="#D9D9D9"/>
</mask>
<g mask="url(#mask0_1951_31870)">
<path fill-rule="evenodd" clip-rule="evenodd" d="M962.779 2847.35C912.3 2791.72 837.909 2772.12 774.08 2737.23L775.477 2733.62C771.702 2731.47 767.32 2729.6 763.171 2727.71C762.431 2726.71 759.578 2724.24 758.747 2723.19C821.956 2486.09 799.141 2272.82 833.168 2022.23C862.934 2020.71 897.895 2023.57 926.895 2013.26C967.456 1905.71 962.706 1807.38 951.635 1693.06C951.15 1690.45 951.182 1689.75 953.159 1687.68C978.305 1659.74 991.907 1592.53 993.651 1540.11C993.652 1540.11 993.383 1536.31 993.383 1536.31C996.034 1534.33 999.164 1531.57 1001.62 1529.38C1019.75 1489.47 1013.9 1450.12 1004.16 1405.25L1004.19 1405.24C953.476 1182.07 939.302 934.958 853.87 724.436C830.664 669.78 779.254 644.672 721.01 644.582L717.426 644.571C714.537 640.359 711.261 635.838 708.135 632.052C708.492 631.596 708.757 631.066 708.857 630.443C710.037 623.084 703.035 618.755 697.559 615.424C691.541 611.762 684.846 609.209 678.233 606.93C672.067 604.806 664.02 602.128 657.825 605.654C655.159 607.17 653.87 611.134 650.514 611.043C650.336 611.038 650.154 611.004 649.975 610.987C640.047 590.223 639.992 567.676 623.326 549.712C604.503 531.422 581.657 514.777 553.475 515.952C533.238 517.791 489.148 519.089 478.836 541.097C468.798 552.027 464.327 566.31 462.089 582.975L456.866 582.501C453.716 585.335 447.419 591.298 444.126 594.378L443.751 593.458C433.018 602.964 422.138 613.968 410.037 621.296C404.39 623.157 409.243 630.784 408.904 635.27C384.83 640.395 360.923 646.273 337.874 655.19C282.706 662.825 237.382 682.694 213.134 718.186C137.22 900.069 131.789 1216.05 162.244 1456.86C162.467 1458.67 161.953 1461.6 164.053 1462.39C166.251 1478.49 167.961 1494.97 169.588 1510.86C173.147 1536.38 179.56 1561.76 185.306 1586.46L187.062 1582.51C190.628 1582.86 197.94 1582.85 201.586 1582.82C190.366 1709.34 170.969 1829.41 150.01 1951.6C149.497 1953.91 150.742 1955.23 152.643 1955.26C186.025 1958.42 222.149 1963.96 257.629 1971.13C221.739 2161.59 117.246 2428.87 114.658 2604.01C114.094 2664.96 92.629 2778.22 156.238 2794.12C145.275 2838.49 120.208 2875.94 95.727 2912.89C77.051 2945.25 85.549 2999.47 120.629 3016.14C180.71 3036.57 249.317 3048.43 309.633 3035.32C322.683 3038.36 335.92 3034.37 347.448 3025.83C408.077 2972.06 340.282 2881.84 311.327 2824.64C304.596 2814.21 292.56 2797.91 304.206 2785.02C307.58 2784.98 313.717 2782.99 314.914 2781.44C311.724 2776.61 311.902 2777.71 315.243 2773.27C457.02 2586.22 467.388 2308.32 520.824 2081.26L534.591 2082.27C563.878 2335.75 430.425 2508.13 562.991 2765.61C567.363 2780.64 580.827 2779.9 591.692 2783.91C514.144 2811.79 548.829 2923.91 619.512 2936.47C698.507 2956.66 780.768 2975.69 859.225 2973.88C880.389 2973.91 901.57 2972.84 922.26 2970.97C1012.66 2972.18 1028.82 2907.05 962.779 2847.35" fill="#F17700"/>
<path fill-rule="evenodd" clip-rule="evenodd" d="M315.26 1579.55C323.891 1579.7 334.139 1570.38 342.091 1574.45C344.65 1576.4 365.866 1617.89 380.72 1630.39L381.642 1631.24C396.658 1645.17 409.309 1663 405.81 1684.84C403.413 1693.26 385.034 1688.26 377.92 1689.65C374.28 1726.44 388.443 1755.14 340.736 1760.5L334.455 1761.55C310.881 1765.45 264.788 1772.2 250.737 1759.27C244.614 1752.37 246.439 1742.5 246.028 1733.97C235.848 1715.08 235.959 1692.84 234.366 1671.88C236.255 1661.96 211.904 1579.65 223.262 1585.51C251.413 1577.58 286.346 1582.16 315.26 1579.55ZM977.552 1554.55C979.056 1552.84 981.668 1552.62 983.708 1553.6C984.638 1553.51 985.569 1553.44 986.498 1553.4C988.161 1553.69 986.928 1555.33 985.941 1555.66C989.601 1564.24 965.194 1708.31 949.007 1670.49C948.489 1642.32 943.306 1614.74 939.245 1586.97C933.121 1560.57 959.164 1558.82 977.552 1554.55ZM473.678 530.672C495.295 492.742 568.937 504.921 602.393 519.196C639.075 533.5 635.316 576.543 643.575 608.939C656.24 611.95 668.667 619.853 672.296 633.188C676.693 645.497 680.744 657.938 684.821 670.361L685.072 670.979C687.181 676.238 689.527 684.183 682.723 686.544C628.452 724.92 534.37 710.349 479.163 680.61C468.893 676.158 469.799 650.153 468.893 641.222C468.146 633.296 467.273 625.422 466.182 617.584C462.264 612.123 456.272 585.633 465.554 584.376C468.259 566.462 465.61 547.179 473.678 530.672Z" fill="#D08B5B"/>
<path fill-rule="evenodd" clip-rule="evenodd" d="M456.156 592.362C465.175 625.081 471.292 659.278 475.729 692.916C481.251 734.776 494.657 868.535 498.244 893.478C508.973 968.076 516.9 1043.1 522.44 1118.3C525.504 1131.74 527.164 1145.51 528.008 1159.29L528.102 1160.88C528.698 1171.39 529.333 1182.4 528.981 1193.28C531.817 1213.26 534.083 1233.31 535.901 1253.34C542.719 1328.45 544.22 1404.18 541.921 1479.55C540.772 1517.26 538.858 1554.94 535.62 1592.52C534.176 1609.28 532.522 1626.02 530.66 1642.74L529.034 1657.07C527.489 1670.52 525.768 1684.05 522.576 1697.19C521.826 1710.26 521.713 1723.42 520.942 1736.38C518.088 1784.36 512.636 1832.19 504.874 1879.59C500.979 1903.37 496.532 1927.07 491.731 1950.67C489.701 1960.66 487.574 1970.62 485.348 1980.56L484.227 1985.52C481.643 1996.88 480.125 2010.04 474.794 2020.39C472.948 2023.98 468.387 2023.9 465.872 2021.57C465.803 2021.71 465.739 2021.86 465.662 2021.99C463.344 2026.05 458.687 2026.74 454.787 2024.91C435.567 2015.99 415.988 2007.93 396.165 2000.53C361.265 1987.5 325.463 1977.02 289.12 1969.17C270.801 1965.22 252.344 1961.91 233.794 1959.32C215.257 1956.73 196.557 1955.71 178.037 1953.15C176.678 1952.96 175.604 1952.46 174.768 1951.75C169.769 1951.56 164.907 1950.39 161.711 1946.87L159.806 1946.55C159.488 1946.5 159.171 1946.44 158.855 1946.39C158.234 1946.27 158.464 1945.4 158.993 1945.35C159.481 1945.29 159.971 1945.25 160.461 1945.21C159.721 1944.05 159.111 1942.72 158.688 1941.15C156.669 1933.67 160.29 1925.58 163.676 1919.11C165.464 1915.7 167.54 1912.42 169.827 1909.32C170.648 1904.4 171.461 1899.47 172.21 1894.54C174.139 1881.85 176.033 1869.15 177.892 1856.45C184.478 1811.46 190.534 1766.4 196.324 1721.29C200.581 1688.12 204.313 1654.82 209.731 1621.81C209.386 1614.47 208.944 1607.13 208.459 1599.79C208.022 1593.18 206.3 1592.05 203.522 1586.47C200.604 1586.28 192.794 1588.23 189.932 1587.73C185.084 1588.91 185.274 1579.08 183.414 1572.57C164.693 1507.09 157.708 1438.01 152.736 1370.22C143.941 1250.3 150.466 1130.02 160.719 1010.43L161.031 1006.81C166.006 949.188 169.539 891.176 177.91 833.935C181.576 808.866 186.642 783.725 195.703 760.059L196.638 757.628C198.685 752.345 200.881 746.98 203.522 742.025C206.198 737.008 209.701 732.26 213.033 727.653C220.418 717.442 228.837 708.433 238.641 700.659C238.758 700.565 238.887 700.499 239.019 700.451C243.135 696.479 247.56 692.799 252.233 689.399C283.679 666.513 322.565 660.274 359.7 653.742C368.967 652.111 372.925 644.59 382.133 642.639C382.133 642.639 404.768 637.919 405.243 636.24C405.486 635.382 403.01 623.498 403.43 621.623C405.313 613.205 413.171 614.221 419.203 609.115C427.638 601.976 435.832 596.811 444.454 589.909C446.403 588.35 449.829 581.856 451.53 582.89C451.53 582.89 455.88 591.356 456.156 592.362ZM658.327 611.475C657.602 608.034 659.91 604.126 664.135 605.492C687.131 612.928 705.666 623.422 719.993 642.851C730.726 642.881 741.485 643.763 751.988 646.022C764.145 648.635 775.442 652.283 786.754 657.457C796.754 662.03 806.418 668.139 813.876 676.462C815.945 678.77 817.77 681.234 819.461 683.799C840.036 698.18 853.054 725.121 862.406 748.372C872.018 772.272 878.399 797.611 885.036 822.502C892.518 850.568 899.281 878.838 905.393 907.249C911.23 934.384 916.448 961.657 921.046 989.041L924.69 1010.96C927.842 1029.99 930.882 1049.19 932.763 1068.36C936.831 1082.78 940.698 1097.21 944.002 1111.87C958.322 1175.4 971.717 1239.25 981.889 1303.63C992.023 1367.77 999.617 1432.32 1004.68 1497.09C1004.91 1499.93 1003.56 1501.79 1001.68 1502.67C1001.45 1504.49 1001.12 1506.29 1000.65 1508.06C997.015 1521.9 987.282 1533.31 975.796 1541.06C962.594 1549.97 947.916 1555.75 933.365 1561.87C937.877 1581.61 941.001 1601.67 943.355 1622C950.739 1685.78 952.619 1749.93 949.828 1814.08C948.434 1846.11 945.744 1878.05 941.956 1909.87C940.084 1925.6 938.008 1941.32 935.669 1956.98C934.622 1964 933.513 1971 932.343 1978L931.634 1982.2C930.274 1990.17 929.449 1997.92 925.584 2005.07C922.883 2010.07 917.731 2010.14 914.15 2007.53C908.036 2010.06 899.508 2010.22 894.421 2010.91C881.35 2012.68 868.239 2014.41 855.084 2015.39C842.028 2016.36 828.794 2016.94 815.722 2016C809.192 2015.54 802.725 2014.69 796.278 2013.54L794.578 2013.23C791.73 2012.71 788.829 2012.1 786.117 2011.15C783.073 2010.08 780.299 2008.35 777.259 2007.25C776.274 2006.9 775.972 2005.95 776.37 2005.01C777.099 2003.28 777.887 2001.69 778.793 2000.05C778.955 1999.76 779.404 1999.89 779.405 2000.22C779.409 2001.6 779.35 2002.93 779.254 2004.27C779.629 2004.28 780.006 2004.27 780.383 2004.26C780.499 2000.36 780.037 1996.53 780.408 1992.61L781.117 1985.09C781.236 1983.84 781.357 1982.59 781.48 1981.34C782.22 1973.84 783.547 1966.33 784.723 1958.89C787.231 1943.03 789.303 1927.09 790.94 1911.11C796.716 1854.7 797.114 1797.88 797.963 1741.22L798.115 1731.29C798.506 1706.47 799.006 1681.64 800.246 1656.84C799.96 1652.93 799.69 1649.03 799.411 1645.16C797.94 1624.79 796.909 1604.37 795.666 1583.98C791.298 1512.19 786.7 1440.4 782.965 1368.57C782.37 1357.11 781.828 1345.65 781.35 1334.18C774.61 1300.98 771.395 1267.24 768.02 1233.52C761.379 1167.16 755.34 1100.75 749.805 1034.29C747.037 1001.06 744.395 967.814 741.725 934.573C740.618 920.792 739.544 907.01 738.535 893.221C737.712 888.765 736.886 884.316 736.019 879.886C726.743 832.514 717.434 785.148 708.162 737.774C703.841 715.698 681.037 653.417 676.753 643.62C675.399 640.522 664.487 624.246 659.903 619.73L659.658 619.484C658.102 617.887 655.806 614.91 657.029 612.606C657.344 612.011 657.807 611.635 658.327 611.475ZM343.043 1566.1C329.137 1569.86 314.193 1576.1 300.066 1578.86C281.179 1582.56 262.032 1578.69 242.857 1580.22C233.583 1580.96 215.613 1584.73 216.107 1586.47C216.226 1586.89 216.331 1587.31 216.442 1587.73C216.739 1587.73 217.052 1587.93 217.052 1588.29L217.04 1590.14C219.985 1602.87 220.054 1616.85 220.738 1629.73L220.788 1630.88L222.271 1644.05C224.848 1666.74 227.683 1689.38 232.916 1711.56C237.082 1729.22 242.191 1747.11 249.727 1763.6C250.778 1765.9 251.893 1768.18 253.073 1770.43L257.974 1770.51L260.426 1770.54C270.127 1770.61 279.807 1771 289.511 1770.81C308.42 1770.42 327.344 1768.91 346.049 1766.02C355.057 1764.63 364.02 1762.95 372.924 1760.98C374.267 1750.06 375.62 1739.14 376.982 1728.22L379.034 1711.85C380.357 1701.33 382.637 1692.82 393.087 1688.69C397.758 1686.85 402.587 1686.11 407.465 1685.97L407.707 1683.65C409.006 1670.66 408.396 1658.66 401.767 1647.26C397.09 1639.22 390.739 1632.48 384.263 1625.94L376.508 1618.16C363.866 1605.41 351.809 1592.05 349.571 1573.2C346.327 1570.18 344.733 1570.19 343.043 1566.1ZM429.983 1734.35C431.758 1733.54 431.044 1731.71 430.443 1733.29L430.4 1733.41C430.292 1733.73 430.146 1734.04 429.983 1734.35Z" fill="#F17700"/>
<path fill-rule="evenodd" clip-rule="evenodd" d="M477.238 679.292L486.102 750.689L509.394 977.59L533.43 1190.31L542.927 1484.32V1528.12C542.927 1528.12 563.829 1528.12 576.663 1528.12C589.497 1528.12 693.42 1544.61 693.42 1544.61L791.682 1528.12L761.061 1165.85L734.009 902.733C734.009 902.733 699.6 692.526 693.42 687.5C687.24 682.475 672.178 709.43 613.623 709.43C555.069 709.43 477.238 679.292 477.238 679.292Z" fill="#FFBA05"/>
<path fill-rule="evenodd" clip-rule="evenodd" d="M468.492 535.599C468.89 534.54 470.166 534.569 470.571 535.599C473.598 543.293 472.069 554.38 471.04 562.423C470.017 570.41 465.939 588.676 465.226 589.824L465.105 590.003C464.186 591.259 463.415 592.032 462.461 592.527C467.536 617.024 472.076 641.615 476.177 666.308C476.887 669.966 477.573 673.627 478.239 677.292C480.881 678.621 483.771 679.37 486.639 680.488C491.196 682.265 495.658 684.331 500.173 686.216C509.165 689.966 518.16 693.266 527.47 696.09C545.88 701.67 564.77 705.058 583.963 705.86C603.09 706.66 622.248 705.23 640.992 701.187C649.899 699.266 658.887 696.966 667.429 693.708C671.046 692.33 674.652 690.601 677.726 688.179C680.685 685.847 682.704 682.692 685.735 680.452C685.861 680.359 685.991 680.277 686.123 680.206C684.405 675.134 682.618 670.082 680.762 665.052C678.042 659.05 675.462 652.972 672.648 647.06C669.897 641.28 667.099 635.521 664.27 629.777C663.997 629.747 663.739 629.686 663.508 629.591C652.681 625.137 644.063 616.458 639.472 605.424C636.921 599.293 635.33 592.64 634.983 585.976L634.78 582.417C634.514 577.321 634.457 571.119 636.938 567.365C637.098 567.122 637.426 567.113 637.585 567.365C640.317 571.694 639.874 578.312 640.991 583.309L641.389 585.073C642.534 590.076 643.847 595.122 645.995 599.762C648.658 605.521 652.247 610.921 656.926 615.007L655.227 611.617L653.01 607.208C652.281 605.762 652.543 603.54 654.145 602.765C659.898 599.983 665.45 600.109 670.646 602.826C675.69 602.725 680.703 603.534 685.682 605.561C695.913 609.725 704.269 616.764 711.531 625.125C714.923 629.03 718.08 633.14 721.046 637.404C780.006 637.607 834.586 662.108 860.12 721.241C893.321 789.61 909.4 865.135 924.277 939.488C953.604 1092.75 981.201 1246.36 1010.27 1399.68C1010.77 1399.78 1011.28 1399.87 1011.78 1399.97C1016.96 1401.05 1016.08 1407.88 1012.14 1409.59L1014 1419.43L1014.42 1421.54C1021.24 1456.03 1025.99 1496.66 1008.73 1527.88C1009.57 1529.59 1009.49 1531.7 1007.69 1533.41C1005.42 1535.58 1003.06 1537.64 1000.64 1539.6C1001.06 1545.54 1000.53 1551.41 999.085 1557.15C999.249 1562.38 998.238 1568.05 997.962 1572.42C993.986 1612.84 984.367 1659.82 958.589 1692.22C962.725 1728.28 965.603 1764.47 966.152 1800.81C966.706 1837.48 964.867 1874.14 959.932 1910.48C955.091 1946.13 947.927 1983.39 933.254 2016.25C932.556 2017.82 931.547 2018.87 930.387 2019.48C929.318 2021.26 927.697 2022.61 925.641 2022.91C897.191 2026.98 868.273 2029.31 839.39 2029.4C829.249 2118.87 822.688 2208.83 817.237 2298.61L816.867 2304.73C808.375 2444.19 805.714 2586.26 766.649 2721.15L767.209 2721.7L770.011 2722.96C773.742 2724.64 777.44 2726.39 780.927 2728.58C783.187 2730 783.476 2732.42 782.701 2734.4C797.791 2744.42 815.344 2750.84 832.061 2757.1C882.29 2775.48 928.789 2804.3 967.478 2842.02C1037.1 2906.56 1022.11 2977.94 922.277 2978.15C830.221 2986.75 737.106 2975.92 648.202 2950.59C643.337 2949.22 638.107 2948.18 633.675 2945.58C628.194 2945.46 622.639 2944.53 617.998 2943.47C575.455 2933.63 540 2894.17 540.687 2848.32C540.977 2824.83 550.476 2796.47 572.26 2785.61C564.22 2783.23 559.9 2776.38 556.761 2768.91C553.754 2762.93 550.851 2756.9 548.057 2750.81C530.313 2712.34 517.297 2671.71 508.472 2630.16C473.441 2492.39 516.462 2355.27 532.391 2217.69C532.773 2200.68 532.916 2183.66 532.563 2166.62C532.191 2148.56 531.243 2130.51 529.974 2112.5C529.45 2105.04 528.78 2097.59 528.186 2090.13L527.758 2084.54C527.72 2084.02 527.676 2083.5 527.628 2082.97C471.589 2317.77 468.047 2578.2 320.822 2777.6C325.841 2785.57 315.148 2790.78 308.082 2791.74C301.945 2800.32 313.196 2813.9 317.325 2820.94C324.042 2832.39 330.363 2844.12 336.529 2855.89L340.78 2863.75C368.27 2914.7 404.806 2986.5 351.773 3031.47C340.068 3040.42 324.517 3045.67 309.895 3042.69C293.461 3047.33 276.334 3048.7 259.304 3047.93C225.888 3047.19 192.57 3042.61 159.912 3035.43L154.103 3034.12C141.679 3031.29 129.122 3028.14 117.61 3022.62C78.1774 3002.97 69.1744 2946.57 89.5684 2909.49C96.4044 2896.45 105.884 2885.17 113.744 2872.81C128.246 2850.02 139.709 2824.78 147.523 2798.74C147.158 2798.62 146.796 2798.5 146.437 2798.37C144.863 2798.95 142.987 2798.89 141.025 2797.83C88.9244 2765.64 106.379 2657.99 107.652 2603.63C118.578 2462.42 152.283 2323.99 194.078 2189.31C220.029 2120.33 236.159 2048.93 249.457 1976.81C217.211 1970.46 184.711 1965.53 151.995 1962.41C145.585 1961.79 142.075 1956.89 143.105 1950.44C146.652 1928.24 150.35 1906.06 154.076 1883.88L157.304 1864.68C172.503 1774.02 186.657 1683.38 192.738 1591.5C192.772 1590.98 192.837 1590.48 192.93 1590C192.434 1590 191.938 1589.99 191.442 1589.96C189.156 1595.11 180.466 1596.11 178.76 1589.17C172.872 1565.32 167.697 1541.29 163.192 1517.13L161.944 1504.98C160.691 1492.84 159.398 1480.7 157.82 1468.59L157.52 1466.34C156.404 1465.49 155.721 1464.01 155.611 1462.43C155.144 1462.3 154.627 1462.31 154.121 1462.43C124.428 1259.07 139.542 1051.97 167.149 849.213C177.606 736.233 210.686 667.859 328.11 649.757C352.695 644.835 377.711 641.818 401.802 634.817L401.697 634.031C401.182 630.058 399.485 624.162 400.82 620.187C401.943 616.84 406.726 615.28 409.356 613.396C413.653 610.319 417.797 607.028 421.825 603.591C430.053 596.574 437.799 589.019 446.028 582.012C446.266 581.81 446.644 581.94 446.747 582.181C448.878 580.177 451.031 578.198 453.207 576.246C454.946 574.687 457.935 574.881 459.041 576.996C460.854 571.716 462.384 566.345 463.703 560.883C464.721 556.671 465.672 552.472 466.339 548.184C466.985 544.026 467.015 539.526 468.492 535.599ZM303.544 2792.63C277.066 2798.57 249.841 2796.57 222.973 2795.67C214.57 2811.95 209.252 2829.9 205.16 2847.73C201.101 2874.99 185.519 2866.69 194.565 2843.8C200.218 2826.02 209.908 2810.1 221.164 2795.61C217.442 2795.49 213.712 2795.41 209.98 2795.36C203.739 2796.45 197.42 2797.08 191.128 2797.86C183.09 2798.87 175.027 2800.14 166.935 2800.61C163.996 2800.78 160.843 2800.81 157.674 2800.59C155.345 2801.22 153.026 2801.89 150.725 2802.66C150.272 2845.05 128.773 2881.37 106.434 2915.52C88.3664 2947.32 98.2374 2998.67 136.402 3008.52C189.271 3026.16 245.158 3027.03 300.05 3030.3C301.332 3024.74 307.656 3022.66 312.72 3023.29C326.879 3025.78 341.457 3018.05 349.74 3006.4C383.328 2952.41 325.961 2884.85 309.695 2832.87L309.16 2831.59C304.673 2820.96 295.623 2802.93 303.544 2792.63ZM750.393 2736.11C745.031 2737.23 739.687 2738.42 734.361 2739.67L733.585 2739.92C732.742 2742.08 731.3 2743.93 729.378 2744.96C736.728 2751.8 743.88 2759.25 750.107 2767.23L750.95 2768.32C757.565 2776.97 765.478 2784.54 768.717 2795.32C769.781 2798.86 765.77 2801.69 762.796 2799.99C753.052 2794.42 747.353 2784.19 741.367 2774.94C735.514 2765.9 730.876 2755.87 727.46 2745.67C699.584 2746.83 672.771 2768.94 647.383 2780.34C633.24 2804.91 630.364 2833.62 631.078 2861.57C620.581 2882.37 606.511 2815.41 641.044 2783.4L639.828 2783.91C621.138 2791.65 600.573 2795.61 580.871 2788.4C581.236 2789.14 581.24 2791.79 579.765 2790.74C575.809 2785.86 566.691 2804.73 565.582 2807.2C541.008 2857.82 571.363 2914.17 623.951 2926.1C627.31 2917.53 640.292 2919.36 636.169 2928.93L636.28 2929.12C636.301 2929.16 636.324 2929.19 636.347 2929.23C641.424 2930.73 649.445 2930.81 651.37 2936.53C723.195 2956.24 797.913 2963.53 872.14 2962.93C904.704 2960.08 977.296 2967.96 992.195 2932.14C1003.74 2888.93 955.962 2851.98 927.42 2827.66C908.909 2812.88 888.893 2799.9 867.972 2789.01C849.488 2779.39 828.885 2771.75 810.084 2761.62C809.923 2761.68 809.752 2761.73 809.566 2761.76C795.83 2764.16 783.418 2752.4 772.72 2745.26C767.247 2741.61 761.413 2738.35 755.197 2736.21C754.617 2736.51 754.033 2736.73 753.448 2736.82C754.346 2737.78 752.224 2737.92 753.011 2736.85C752.031 2736.73 751.169 2736.47 750.393 2736.11ZM860.55 2888.37C847.175 2889.35 844.133 2859.57 851.567 2867.77C852.438 2870.9 853.944 2874.16 855.993 2876.7L856.481 2877.28C858.959 2880.13 867.355 2886.24 860.55 2888.37ZM244.762 2807.78C245.029 2807.28 245.829 2807.5 245.811 2808.07C245.599 2814.91 245.108 2820.93 246.78 2827.69C248.384 2834.18 251.402 2839.81 255.021 2845.33C257.654 2849.35 251.484 2852.83 248.789 2849.07C241.013 2838.22 238.213 2819.97 244.762 2807.78ZM697.979 2754.63C698.164 2753.82 699.44 2753.79 699.606 2754.63C703.971 2769.02 705.254 2784.22 708.641 2798.88C709.22 2807.24 723.089 2834.56 710.228 2836.54C698.295 2836.72 697.567 2807.83 695.637 2798.77L695.466 2797.19C693.952 2783.02 693.201 2768.2 697.979 2754.63ZM207.202 2796.95C207.806 2796.95 207.806 2797.91 207.202 2797.91C206.598 2797.91 206.598 2796.95 207.202 2796.95ZM547.201 1528.12L547.127 1531.14C544.852 1622.41 539.95 1713.67 531.032 1804.48C526.706 1848.55 521.527 1892.65 513.543 1936.19L512.327 1942.79C507.571 1968.4 502.043 1994.98 490.623 2018.3L489.982 2019.59C486.547 2026.41 481.732 2034.33 474.913 2037.74C469.938 2040.23 465.175 2037.51 460.342 2035.83C455.933 2034.3 451.519 2032.78 447.101 2031.27C437.54 2028.02 427.96 2024.82 418.355 2021.71C399.772 2015.68 381.105 2009.92 362.346 2004.5C329.252 1994.93 295.827 1986.4 262.118 1979.37C260.551 1989.65 258.935 1999.91 257.259 2010.17C246.07 2079.11 222.414 2144.37 202.222 2210.85C154.603 2374.64 113.986 2545.19 122.189 2717.24C123.271 2730.47 125.549 2743.66 130.065 2756.14C134.205 2767.59 141.492 2777.86 149.038 2787.19C150.498 2789 150.946 2791.05 150.67 2792.92C150.845 2793.44 150.935 2793.99 150.977 2794.55C154.064 2795.21 157.232 2795.52 160.456 2795.59C205.245 2777.65 256.348 2792.55 302.328 2778.73C302.707 2773.95 304.422 2768.67 306.367 2764.28C347.806 2706.76 378.89 2641.92 402.079 2574.6C450.15 2435.98 466.433 2289.01 495.718 2145.66C525.226 2003.1 569.274 1861.79 643.292 1736.59C643.836 1735.66 645.06 1736.47 644.668 1737.41L640.922 1746.62C600.585 1845.95 561.67 1946.33 535.636 2050.72C590.986 2272.88 450.644 2474.65 554.368 2710.25C558.774 2721.23 563.541 2732.06 568.615 2742.73C571.92 2752.08 582.964 2765.73 582.152 2774.85C621.471 2782.99 654.271 2754.55 687.004 2737.25L688.017 2736.8C699.207 2731.81 719.205 2720.81 730.031 2726.93C730.226 2727.06 730.39 2727.21 730.572 2727.35C731.539 2727.14 732.507 2726.95 733.475 2726.75C736.558 2725.86 739.644 2724.98 742.739 2724.12C743.482 2723.92 744.231 2723.7 744.983 2723.48C745.09 2716.54 747.259 2708.41 749.203 2702.9C806.279 2491.88 788.929 2269.61 818.403 2054.13C819.323 2045.81 820.292 2037.48 821.304 2029.16C806.282 2028.71 791.297 2027.62 776.42 2025.83C771.88 2025.28 766.229 2021.73 766.93 2016.1C768.324 2004.91 769.633 1993.71 770.841 1982.5C780.86 1889.51 784.484 1795.91 784.262 1702.39C784.133 1647.88 782.574 1593.42 779.977 1539C764.77 1542.17 749.371 1544.34 733.903 1545.63C701.327 1548.35 668.61 1547.06 636.124 1543.77C619.674 1542.11 603.332 1539.81 587.009 1537.16L584.139 1536.68C572.174 1534.69 560.146 1532.35 548.586 1528.58L547.201 1528.12ZM267.722 2633.56C268.34 2632.42 270.159 2633.2 269.779 2634.45C256.668 2676.88 245.442 2719.91 235.712 2763.28C230.041 2792.9 211.474 2783.95 219.793 2757.78C230.433 2714.48 246.729 2672.66 267.722 2633.56ZM600.342 2646.47C600.288 2645.4 601.797 2645.29 602.092 2646.23C610.452 2673.12 621.732 2699.39 637.568 2722.56C642.504 2729.73 649.409 2736.38 651.838 2745C652.98 2749.05 648.678 2751.69 645.365 2750.1C636.992 2746.07 631.723 2736.28 627.016 2728.48L626.755 2728.05C611.752 2703.43 601.848 2675.57 600.342 2646.47ZM319.68 2703.88C320.79 2702.46 322.797 2704.29 322.035 2705.75L321.686 2706.45C318.161 2713.68 297.386 2757.59 294.549 2740.22C300.03 2726.59 310.775 2715.31 319.68 2703.88ZM763.271 2729.1C763.106 2729.25 762.942 2729.41 762.773 2729.56C764.341 2730.1 765.88 2730.73 767.391 2731.43C766.028 2730.68 764.64 2729.91 763.271 2729.1ZM453.207 586.279L451.236 587.699C440.03 597.131 428.63 606.323 417.312 615.614C416.077 616.755 414.816 617.864 413.524 618.934C412.057 620.149 408.497 624.328 408.497 624.328C409.677 628.688 410.417 633.332 411.527 637.761L411.871 639.083C413.793 646.156 415.339 653.301 416.942 660.457C420.847 677.879 423 695.651 423.049 713.558C423.087 727.57 421.29 741.553 419.956 755.48L418.326 772.481C417.514 780.982 416.711 789.484 415.943 797.99C414.662 812.199 413.408 826.419 412.534 840.661L412.499 841.336C412.357 844.848 413.136 844.452 416.961 845.517L417.194 845.583C420.163 846.431 423.164 847.158 426.187 847.766C432.449 849.024 438.76 849.644 445.133 849.845C449.635 849.988 452.072 856.789 447.57 859.069C439.043 863.387 430.539 867.758 422.074 872.204L416.162 875.319C411.95 877.505 407.438 879.663 406.368 884.843C405.435 889.358 406.608 894.33 407.206 898.818C409.868 918.803 411.258 938.933 413.353 958.984C415.245 977.094 417.688 995.231 422.367 1012.83C427.355 1031.59 435.012 1049.62 440.805 1068.15C450.651 1099.64 459.58 1131.49 468.4 1163.32L474.272 1184.54C485.153 1223.81 494.974 1263.48 501.329 1303.82C504.433 1323.53 506.717 1343.37 507.939 1363.29L508.176 1367.24C509.278 1386.1 509.901 1405.37 506.701 1423.99C505.914 1428.57 499.324 1427.15 499.151 1422.94C498.187 1399.47 499.394 1376.07 497.531 1352.59C495.659 1329.01 492.243 1305.6 487.818 1282.38C480.259 1242.74 469.803 1203.74 458.708 1165L457.782 1161.78C446.622 1122.93 436.497 1083.67 423.17 1045.52L421.985 1042.16C415.795 1024.72 410.569 1007.66 407.602 989.295C405.038 973.42 403.471 957.404 401.991 941.389L401.254 933.382C400.409 924.223 399.549 915.063 398.453 905.931C397.477 897.809 395.024 888.812 397.432 880.739C400.042 871.988 408.195 868.398 415.507 864.55C418.509 862.97 421.515 861.399 424.526 859.836C425.136 859.519 425.495 857.675 424.772 857.537C424.21 857.43 421.192 856.801 421.192 856.801C415.634 855.648 406.926 854.425 403.899 849.056C402.447 846.479 402.709 843.497 402.878 840.661C403.121 836.592 403.425 832.525 403.711 828.458C404.329 819.651 405.009 810.848 405.734 802.048C406.959 787.192 408.302 772.346 409.63 757.498C410.935 742.908 412.777 728.225 412.754 713.558C412.723 694.382 409.899 675.997 405.774 657.423C404.314 650.852 403.136 644.3 402.19 637.656C319.84 677.776 219.612 660.509 192.849 782.802C155.771 1002.68 137.744 1231.17 167.771 1453.21C194.122 1443.16 221.944 1437.74 250.087 1437.02C256.535 1436.85 256.51 1447.1 250.087 1447.27C222.361 1447.98 195.097 1453.53 169.211 1463.56C174.986 1504.23 182.396 1544.67 191.615 1584.8C193.587 1584.37 195.548 1583.89 197.505 1583.39C199.3 1582.31 201.402 1581.8 203.45 1581.84C208.887 1580.42 214.344 1579.07 219.963 1578.44C219.757 1577.5 221.203 1577.26 221.188 1578.25C265.992 1571.5 314.602 1579.39 355.18 1554.71C346.765 1510.3 337.328 1466.07 326.981 1422.06C281.1 1253.21 380.006 1089.14 361.012 920.077C360.9 919.204 362.292 919.052 362.49 919.872C400.454 1092.01 293.13 1263.38 347.562 1435.07C352.52 1456.46 357.819 1477.78 362.215 1499.3L362.428 1500.25C365.021 1512.07 376.954 1575.85 360.567 1570.23C357.407 1572.31 353.861 1573.9 350.332 1575.31C355.466 1595.52 372.545 1609.28 385.59 1623.8L386.049 1624.31L388.408 1626.75C411.978 1645.35 437.596 1711.74 383.255 1695.41C376.154 1703.67 381.314 1717.36 381.953 1727.12C384.659 1749.94 374.164 1768 350.969 1770.92C329.809 1773.78 308.281 1773.65 287.016 1775.48L286.969 1775.96C286.162 1776.11 285.357 1776.26 284.552 1776.42L284.704 1775.62L279.594 1776.02C267.019 1776.93 254.092 1776.9 246.885 1764.22C229.545 1732.53 225.298 1692.88 223.342 1653.75L223.016 1651.13C221.5 1638.96 220.064 1626.8 218.716 1614.61C218.253 1610.43 217.844 1606.25 217.427 1602.07L216.927 1597.12C216.592 1593.94 216.127 1590.56 214.303 1588.26C213.576 1588.31 212.85 1588.37 212.124 1588.44C212.331 1589.36 212.408 1590.38 212.332 1591.5C210.367 1620.24 207.768 1648.94 204.516 1677.56C194.499 1765.75 178.108 1852.89 163.41 1940.33L166.229 1945.05C182.824 1946.98 199.373 1949.32 215.858 1952.06L219.389 1952.66C302.892 1966.84 384.56 1990.91 464.601 2018.85L471.823 2016.81C471.953 2016.61 472.081 2016.41 472.207 2016.21C473.133 2014.76 473.983 2013.25 474.792 2011.72C475.6 2010.19 476.345 2008.63 477.069 2007.06L478.47 2003.99C478.747 2003.35 478.709 2003.35 479.507 2001.28C483.466 1990.96 486.484 1980.27 489.167 1969.54C496.829 1938.9 501.774 1907.54 506.058 1876.24C517.834 1790.18 523.7 1703.19 527.825 1616.43C532.33 1521.69 534.394 1426.82 533 1331.97C532.408 1291.75 531.27 1251.54 528.747 1211.39C524.62 1145.71 516.876 1080.35 508.638 1015.09L506.866 1001.11C502.337 965.469 497.561 929.864 494.092 894.098C490.73 859.428 488.171 824.685 485.17 789.982C483.499 770.662 481.675 751.382 479.552 732.157C476.202 713.341 472.655 694.559 469.564 675.686C465.02 647.944 460.013 620.266 454.722 592.659L453.207 586.279ZM703.174 630.534L702.218 629.405C692.128 617.642 677.963 605.659 662.144 606.738C661.59 606.776 661.417 609.214 661.417 609.214C663.805 613.558 666.141 617.928 668.431 622.323C668.719 622.708 668.948 623.14 669.101 623.613C672.119 629.433 675.058 635.295 677.933 641.2L680.327 646.138C686.451 658.7 693.108 671.336 696.183 685.059C696.236 685.296 696.256 685.521 696.246 685.733C720.467 749.881 730.239 820.078 737.818 887.735C747.585 974.93 756.069 1062.32 764.751 1149.65L766.124 1163.43C775.59 1258.36 784.475 1353.35 791.011 1448.54C797.569 1544.06 802.072 1639.83 802.061 1735.61C802.05 1825.23 797.708 1914.95 787.359 2003.97L788.012 2007.65C831.791 2012.1 875.419 2012.29 919.175 2006.31L920.56 2006.12C922.566 1998.64 924.739 1991.25 926.885 1983.8C946.943 1914.13 951.323 1841.09 948.055 1768.84C944.796 1696.78 934.625 1625.43 923.45 1554.29L922.348 1547.29C910.986 1475.35 900.674 1403.41 892.817 1330.99L892.116 1324.46C881.097 1335.66 867.792 1344.13 853.094 1349.55C847.083 1351.76 844.481 1342.09 850.243 1339.74L850.436 1339.66C866.166 1333.86 879.847 1323.95 890.707 1310.98C883.777 1244.13 877.57 1177.2 871.556 1110.25C870.017 1096.22 868.966 1082.1 867.712 1068.07C866.629 1055.95 865.607 1043.83 864.63 1031.7C859.428 970.812 854.729 909.893 851.096 848.874C850.943 846.303 856.015 845.394 856.438 847.336C858.212 855.488 859.026 863.864 859.968 872.156C861.156 882.608 862.032 893.138 862.876 903.625C864.602 925.059 866.225 946.503 867.832 967.948C873.544 1015.35 878.822 1062.8 884.076 1110.27C892.903 1190.02 900.446 1269.93 909.456 1349.66C917.152 1417.76 927.884 1485.3 938.536 1552.93C959.152 1545.32 977.662 1532.95 992.88 1516.89C1005.62 1492.08 1003.99 1457.42 998.274 1430.65C996.903 1422.93 995.517 1415.2 994.134 1407.48C983.497 1406.26 972.785 1406.05 962.049 1406.83C955.617 1407.3 955.666 1397.05 962.049 1396.58C972.15 1395.85 982.236 1396.01 992.262 1397C976.977 1311.93 961 1226.99 945.39 1141.98C924.092 1030.21 908.057 916.956 876.44 807.575L874.829 802.059C857.285 742.299 833.569 672.972 769.408 653.755C755.255 649.153 740.559 646.333 725.707 644.467C734.14 657.908 741.011 672.516 747.528 686.83C758.826 711.644 771.307 735.957 783.327 760.424L785.443 764.743C798.132 790.723 816.9 833.14 798.385 859.715C798.026 860.23 798.036 862.582 798.573 862.808C808.877 867.153 817.385 876.047 822.263 886.384L822.474 886.838C830.773 904.885 829.901 925.425 829.801 944.925L829.758 960.32C829.543 1035.68 829.011 1111.05 825.776 1186.35C824.063 1226.23 821.624 1266.08 818.112 1305.84L817.675 1310.76C814.3 1348.52 810.368 1386.61 802.305 1423.62C801.469 1427.46 795.269 1426.63 795.584 1422.69C799.001 1380 804.524 1337.52 807.916 1294.82C813.974 1218.53 816.037 1142.02 817.084 1065.51C817.55 1031.48 817.742 997.442 817.877 963.409L817.925 950.646C817.988 932.968 819.519 914.134 813.94 897.114C809.572 883.79 798.422 871.392 783.855 871.733C777.951 871.871 776.349 863.818 780.963 860.787C796.932 850.298 796.218 829.107 792.293 812.291C787.623 792.286 777.792 774.248 768.877 755.988L768.332 754.87C757.051 731.651 745.417 708.582 734.288 685.293L732.245 680.995C723.921 663.409 715.674 645.464 703.174 630.534ZM839.956 1977.17C840.621 1977.17 840.62 1978.22 839.956 1978.22C839.292 1978.22 839.293 1977.17 839.956 1977.17ZM340.736 1578.86C302.581 1590.86 262.063 1586.72 222.734 1587.99L222.907 1588.99C224.477 1591.45 225.565 1594.28 225.979 1596.64C228.311 1609.93 229.702 1623.52 231.23 1636.93C233.898 1660.33 237.082 1683.61 238.161 1707.1C240.375 1718.1 243.163 1728.96 246.82 1739.63L247.297 1740.98C255.024 1762.71 259.616 1768.31 283.501 1764.35C302.477 1762.93 321.467 1761.69 340.438 1760.21L343.039 1760C351.272 1759.28 360.637 1757.93 366.147 1751.22C378.188 1734.82 364.236 1713.03 370.814 1695.21C380.41 1673.54 390.471 1692.58 402.799 1685.89C410.605 1680.47 401.837 1663.19 398.75 1657.25C386.098 1635.63 364.613 1620.91 350.993 1599.78L350.454 1599C346.711 1593.59 341.894 1586.11 340.736 1578.86ZM981.77 1551.94C968.903 1558.62 954.841 1562.76 940.283 1564.03L942.574 1578.64C947.511 1610.21 952.347 1641.87 956.348 1673.63C975.703 1640.64 983.489 1600.46 985.535 1562.22C984.938 1559.95 984.271 1557.71 983.432 1555.56C982.61 1556.12 981.779 1556.65 980.941 1557.17L981.153 1555.7L981.557 1552.76L982.207 1552.79C982.064 1552.51 981.922 1552.22 981.77 1551.94ZM990.007 1535L989.906 1534.48L989.043 1534.58C987.449 1535.96 985.82 1537.3 984.174 1538.61L984.379 1538.8C986.293 1537.6 988.17 1536.33 990.007 1535ZM479.163 682.475L479.501 684.397C490.991 750.464 495.856 817.557 503.103 884.264C512.169 967.722 526.084 1050.56 535.201 1134.02C547.466 1246.3 549.739 1359.2 548.247 1472.09C548.023 1489.06 547.718 1506.03 547.323 1523C562.978 1522.56 578.682 1524.67 594.225 1526.32L599.771 1526.9C659.563 1533.11 720.125 1537.08 779.221 1523.73C777.41 1488.39 775.177 1453.07 772.628 1417.77C765.799 1323.19 756.912 1228.78 747.954 1134.39C739.385 1044.1 733.413 953.478 723.746 863.312C717.457 804.65 707.434 746.737 689.714 691.126C684.229 700.392 669.579 704.868 659.143 707.616L654.151 708.909C621.883 717.346 588.066 718.568 555.275 712.743C538.756 709.808 522.629 705.101 507.276 698.165C499.389 694.602 491.934 690.132 484.514 685.656C482.993 684.739 481.012 683.711 479.163 682.475ZM334.86 1329.82C328.976 1327.17 334.071 1318.34 339.907 1320.97C375.853 1337.17 414.768 1345.72 454.011 1346.31C460.451 1346.41 460.448 1356.66 454.011 1356.57C412.901 1355.95 372.481 1346.78 334.86 1329.82Z" fill="black"/>
<path d="M167.502 954.354C169.626 928.882 364.013 929.854 364.013 954.854C364.013 979.853 361.5 1012.35 361.5 1012.35C341.196 1015.07 160.351 1036.2 160.98 1025.85C164.254 971.989 165.379 979.825 167.502 954.354Z" fill="#FFEE00"/>
<path d="M368 954.354C368 954.354 404 952.854 403.5 954.354C403 955.854 411.073 1009.05 412 1010.35C412.927 1011.66 371 1012.35 370.5 1011.35C370 1010.35 368 954.354 368 954.354Z" fill="#FFEE00"/>
<path d="M412.5 950.354C413.1 950.308 500.501 949.354 500.501 949.354C502.946 972.601 504.928 985.733 507.994 1009.64C508.131 1011.63 423.98 1013.13 421.538 1009.64C419.096 1006.14 411.901 950.399 412.5 950.354Z" fill="#FFEE00"/>
<path d="M744 947.354C774.468 950.54 817.999 947.354 817.999 947.354L817.499 1009.35C791.658 1013.18 777.174 1013.16 750.5 1009.35C751.204 1003.6 746.904 985.228 744 947.354Z" fill="#FFEE00"/>
<path d="M829.5 947.354C836.95 947.823 843.678 948.224 858 947.354L863 1008.35C848.121 1010.08 839.907 1010.07 829.5 1008.85C828.859 992.832 829.006 977.128 829.5 947.354Z" fill="#FFEE00"/>
<path d="M866 946.854C873.45 947.323 895.178 946.224 909.5 945.354L921 1006.85C906.121 1008.58 873.33 1010.35 872.415 1007.85C871.5 1005.35 867.964 989.869 866 946.854Z" fill="#FFEE00"/>
<path fill-rule="evenodd" clip-rule="evenodd" d="M572.382 30.6562C644.256 30.6562 718.597 86.3893 744.944 121.954C767.094 151.855 779.021 287.066 779.021 378.444C779.021 397.555 789.563 433.58 786.487 451.86C775.213 518.847 726.096 575.027 628.883 575.027C531.669 575.027 461.969 536.479 389.712 432.981C354.653 432.981 337.662 406.084 337.416 363.639C337.169 321.194 371.257 305.751 371.257 305.751C371.257 305.751 359.103 138.244 389.712 94.6329C420.322 51.0221 500.507 30.6562 572.382 30.6562Z" fill="#D08B5B"/>
<path fill-rule="evenodd" clip-rule="evenodd" d="M542.134 6.97085C587.514 2.37413 631.982 6.23639 676.704 14.2281C680.122 14.8473 682.058 17.09 682.779 19.7859C703.843 20.7483 724.932 22.2945 745.969 23.4469C753.603 23.8647 757.931 31.4107 754.45 38.2247C753.755 39.5784 753.032 40.8954 752.298 42.2124L753.22 41.9082C759.548 39.8772 766.385 38.8759 772.551 42.0997C780.399 46.2025 783.476 55.2554 781.742 63.5877C781.298 65.7152 780.552 67.7539 779.704 69.7433C781.426 69.6293 783.16 69.6673 784.881 69.8953C794.046 71.1109 800.856 78.139 801.337 87.497C802.046 101.628 792.944 115.964 782.223 126.08C783.779 129.285 784.375 133.059 783.728 136.883C782.437 144.443 776.87 148.97 770.417 151.923C773.108 160.472 774.38 169.41 773.629 178.544C773.379 181.593 770.713 184.112 767.899 184.73C778.388 213.619 783.696 244.636 787.514 274.86C790.236 296.363 791.577 317.991 791.741 339.657C791.821 349.438 791.659 359.231 791.249 369.014L791.084 372.682C790.577 383.257 790.552 394.362 788.653 404.823C795.134 415.851 797.742 429.541 798.843 441.899C800.21 457.196 798.046 472.974 793.222 487.526C775.019 542.508 720.084 577.205 664.905 586.222C613.831 594.567 554.729 583.335 524.881 536.923C524.413 536.189 525.413 535.582 525.995 536.063C547.35 553.436 572.12 561.186 599.033 564.959C645.565 571.47 697.867 560.426 735.209 531.15C753.133 517.094 766.057 496.63 771.742 474.608C774.641 463.352 775.641 451.612 774.5 440.026C773.336 428.275 768.134 418.246 764.856 407.14C763.755 403.39 764.919 399.908 767.21 397.427C767.855 388.41 769.375 379.318 769.956 370.328C770.601 360.108 770.995 349.889 771.134 339.657C771.4 318.433 770.514 297.172 768.729 276.038C765.464 237.339 756.793 199.578 751.704 161.208C749.82 162.898 747.119 163.593 744.288 162.116L743.995 161.955L742.451 161.07C742.362 161.07 742.261 161.083 742.171 161.094C731.603 162.121 720.641 160.652 710.514 157.498C699.918 154.206 690.084 149.141 681.298 142.392C679.628 150.862 678.931 159.422 678.919 168.059C678.907 173.453 673.198 176.253 668.666 173.948C648.577 163.741 629.388 151.978 611.172 138.757C609.045 149.66 606.919 160.562 604.779 171.478C603.957 175.683 598.601 177.38 595.171 175.379C581.527 167.438 569.742 157.043 560.147 144.682C558.231 148.347 556.31 152.011 554.376 155.667L551.464 161.145C548.59 166.526 544.742 172.479 538.451 174.2C531.793 176.024 526.234 171.707 523.995 165.678C523.312 163.805 522.679 161.879 522.096 159.942C516.424 172.897 510.02 185.56 502.78 197.641C491.919 215.761 478.88 231.906 465.881 248.47C461.932 253.498 455.172 248.698 454.628 243.811C454.312 240.936 454.046 238.049 453.817 235.173C446.242 250.465 438.338 265.614 429.727 280.324L430.96 285.157V285.157C434.513 299.439 437.464 313.822 440.671 328.179C441.707 332.811 439.246 339.434 433.836 340.223C427.372 341.165 421.257 344.469 414.637 342.196C407.418 339.716 405.991 333.475 402.584 327.558C401.904 326.38 401.113 325.297 400.262 324.269L400.046 324.55V324.55C399.514 325.247 398.248 324.488 398.565 323.69L398.936 322.768V322.768C396.008 319.659 392.504 317.066 389.282 314.276C381.627 312.986 373.015 314.399 367.741 317.51C355.728 324.6 350.21 339.214 350.096 352.65C349.957 368.378 354.829 386.056 363.057 399.504C366.679 405.418 371.641 410.76 378.196 413.383C384.704 415.99 391.755 415.181 398.375 417.636C402.755 419.271 405.451 424.134 402.805 428.539C402.628 428.845 402.426 429.122 402.234 429.414L404.203 432.029C405.558 433.84 406.97 435.779 408.286 437.796C411.653 441.672 415.198 445.408 418.628 449.22C424.969 456.246 431.122 463.466 437.361 470.594C443.248 477.319 449.476 483.637 455.894 489.854C461.957 495.744 469.527 500.694 475.096 506.976C480.513 513.105 481.982 523.804 473.07 527.351C463.21 531.285 454.481 522.066 447.844 515.92L447.565 515.662C435.398 504.461 424.41 491.661 415.685 477.569C407.042 483.454 394.541 484.017 385.934 478.132C381.405 475.036 377.931 469.833 376.242 464.172C374.65 464.529 373.058 464.738 371.507 464.714C370.708 465.178 369.907 465.628 369.096 466.049C362.677 469.391 354.793 467.898 351.856 460.792C349.182 454.342 351.937 447.017 354.346 440.802L354.843 439.518C356.21 435.974 357.717 432.112 359.59 428.477C354.375 424.552 349.918 419.675 346.147 414.13C333.476 395.452 327.147 368.136 329.945 345.85C331.628 332.402 337.943 318.473 348.285 309.405L347.907 308.417V308.417C345.008 301.061 342.374 293.677 340.666 285.903C338.666 276.811 337.69 267.39 336.805 258.133C334.932 238.581 335.438 218.586 337.932 199.11C342.615 162.45 354.489 126.461 375.565 95.956C369.589 88.8001 364.856 80.3791 367.323 70.693C368.451 66.247 371.019 62.0314 374.894 59.4849C377.032 58.0805 379.577 57.8653 381.717 56.7003L382.36 56.346C383.3 55.7974 382.581 55.8556 382.02 53.3065C379.805 43.1241 381.641 33.2861 392.843 29.9051C403.388 26.7266 413.362 33.4761 419.603 41.5172C435.932 29.9291 457.451 23.8647 476.375 18.7108C497.894 12.8719 519.969 9.22616 542.134 6.97085ZM365.755 348.496C365.678 340.202 373.539 335.086 381.274 336.442C386.468 337.346 390.801 340.447 394.87 343.653L396.854 345.223C401.808 349.114 407.496 353.309 410.45 358.818C414.779 366.948 405.629 377.887 397.084 372.189C391.223 368.259 387.466 361.963 383.622 356.115L383.224 355.511C381.477 352.89 379.945 350.104 377.551 348.002L377.034 347.549C376.248 346.878 375.403 346.266 374.387 345.976C372.427 345.412 368.796 346.202 367.932 348.536L367.855 348.775C367.539 349.954 365.768 349.699 365.755 348.496Z" fill="black"/>
<path fill-rule="evenodd" clip-rule="evenodd" d="M585.013 433.835C594.565 414.723 682.176 423.313 682.176 423.313L689.576 484.066C689.576 484.066 647.304 497.662 622.141 494.813C596.978 491.964 575.461 452.948 585.013 433.835Z" fill="white"/>
<path fill-rule="evenodd" clip-rule="evenodd" d="M591.186 465.745C588.16 459.266 650.792 441.599 670.184 453.672C689.576 465.745 683.512 482.213 683.512 482.213C683.512 482.213 601.951 500.828 591.186 465.745Z" fill="#FF8181"/>
<path fill-rule="evenodd" clip-rule="evenodd" d="M579.581 422.526C594.2 405.528 618.821 404.344 639.217 408.594C652.306 411.322 665.049 415.866 678.343 417.551C684.552 418.338 690.827 418.573 697.082 418.457C703.225 418.344 709.377 417.105 715.499 417.336C716.44 417.37 716.796 418.607 715.98 419.11C707.582 424.271 696.269 425.927 686.348 426.936C686.379 427.671 686.424 428.388 686.525 428.996C686.796 430.617 687.043 432.227 687.243 433.859C687.693 437.539 688.196 441.207 688.699 444.881C689.69 452.11 690.001 459.567 691.743 466.671L692.047 467.852C692.451 469.345 692.543 470.691 692.408 471.905L692.811 471.722L694.086 471.104L694.921 470.71C697.97 469.295 700.879 468.265 704.464 468.609C707.193 468.869 709.484 470.732 709.5 473.647C709.568 486.734 691.944 490.942 681.862 493.447L678.906 494.176C666.073 497.308 652.971 500.053 639.773 500.71C618.593 501.762 594.793 495.916 580.938 478.725C568.011 462.686 565.641 438.733 579.581 422.526ZM675.764 477.508C673.542 457.806 649.346 456.723 642.385 469.217C639.297 451.802 593.604 467.712 597.177 471.174C610.719 484.297 631.27 485.478 648.937 483.051C657.934 481.814 666.939 479.802 675.764 477.508ZM648.912 425.869L642.829 424.993L640.433 424.662C625.352 422.642 608.393 421.598 595.994 431.272C591.467 434.803 588.92 439.41 587.968 444.357C599.7 442.617 611.475 441.29 623.285 440.185L626.507 439.889C633.896 439.222 641.282 438.52 648.665 437.783L653.911 437.251L659.155 436.706C661.001 436.513 673.439 435.876 675.778 436.304C676.027 434.201 676.353 429.651 676.881 427.605C668.044 427.905 659.246 427.248 650.462 426.08L648.912 425.869ZM676.913 337.806C685.928 343.289 699.663 356.074 689.966 369.667C678.551 381.653 662.116 367.911 654.017 361.696C646.507 356.879 638.069 369.267 645.037 374.891C703.56 418.248 727.31 339.24 681.473 331.36C676.426 330.491 674.552 336.11 676.913 337.806ZM693.046 360.905L693.479 360.669L693.625 360.58C693.879 360.416 693.717 360.434 693.141 360.633L692.709 360.789V361.095C692.82 361.027 692.938 360.975 693.046 360.905ZM577.595 312.191L577.594 311.922C577.61 304.305 582.044 286.913 593.003 286.913C599.849 286.913 604.006 298.749 604.725 310.951L604.75 311.449C605.068 319.034 602.988 335.616 593.003 335.616C582.913 335.616 577.699 319.911 577.595 312.191V312.191ZM738.94 309.802L738.941 309.533C738.924 301.916 734.491 284.524 723.532 284.524C716.857 284.524 712.739 295.776 711.87 307.648L711.809 308.562C711.377 315.892 713.323 333.227 723.532 333.227C733.622 333.227 738.836 317.522 738.94 309.802V309.802ZM583.848 234.977C592.792 233.617 604.635 236.202 608.805 245.302C610.662 249.356 608.462 253.839 603.779 254.064C592.461 254.606 582.31 252.086 572.376 259.45C568.1 262.62 564.506 267.009 561.489 271.387L560.348 273.053L559.403 274.425C557.354 277.438 555.415 280.712 555.718 284.348C555.807 285.424 554.708 286.445 553.663 286.402C547.152 286.135 546.452 277.966 547.308 273.061C548.9 263.956 553.304 255.409 559.408 248.525C565.818 241.295 574.281 236.434 583.848 234.977ZM707.032 246.027C713.199 242.06 721.088 240.536 728.312 241.12C742.558 242.268 766.456 254.386 763.31 271.796C762.34 277.166 754.876 279.999 750.478 277.02C745.75 273.817 744.599 268.84 741.08 264.654C738.272 261.31 734.713 258.891 730.903 256.831C727.147 254.798 722.802 253.567 718.539 253.118L717.83 253.05C715.264 252.832 702.31 252.89 704.211 257.729C704.584 258.676 703.175 259.427 702.528 258.71C698.556 254.314 703.054 248.586 707.032 246.027Z" fill="black"/>
</g>
</svg>
