<svg width="190" height="180" viewBox="0 0 190 180" fill="none" xmlns="http://www.w3.org/2000/svg">
<path d="M0 10C0 4.47716 4.47715 0 10 0H180C185.523 0 190 4.47715 190 10V170C190 175.523 185.523 180 180 180H10C4.47715 180 0 175.523 0 170V10Z" fill="white"/>
<rect x="15" y="110" width="160" height="5" rx="2.5" fill="#D45343"/>
<path d="M141.15 103.9C151.506 103.9 159.9 95.5057 159.9 85.1504C159.9 74.7951 151.506 66.4004 141.15 66.4004C130.795 66.4004 122.4 74.7951 122.4 85.1504C122.4 95.5057 130.795 103.9 141.15 103.9Z" fill="#FFF2CB" stroke="#FDD65B" stroke-width="3" stroke-linecap="round" stroke-linejoin="round"/>
<path d="M146.984 78.901C146.606 78.2464 146.058 77.7067 145.397 77.3397C144.737 76.9727 143.989 76.7923 143.234 76.8177H139.067C137.962 76.8177 136.902 77.2567 136.121 78.0381C135.339 78.8195 134.9 79.8793 134.9 80.9844C134.9 82.0894 135.339 83.1493 136.121 83.9307C136.902 84.7121 137.962 85.151 139.067 85.151H143.234C144.339 85.151 145.399 85.59 146.18 86.3714C146.961 87.1528 147.4 88.2126 147.4 89.3177C147.4 90.4228 146.961 91.4826 146.18 92.264C145.399 93.0454 144.339 93.4844 143.234 93.4844H139.067C138.312 93.5098 137.564 93.3294 136.903 92.9624C136.243 92.5954 135.694 92.0557 135.317 91.401M141.15 74.7344V95.5677" stroke="#FDD65B" stroke-width="3" stroke-linecap="round" stroke-linejoin="round"/>
<path d="M95.1504 103.9C105.506 103.9 113.9 95.5057 113.9 85.1504C113.9 74.7951 105.506 66.4004 95.1504 66.4004C84.7951 66.4004 76.4004 74.7951 76.4004 85.1504C76.4004 95.5057 84.7951 103.9 95.1504 103.9Z" fill="#FFF2CB" stroke="#FDD65B" stroke-width="3" stroke-linecap="round" stroke-linejoin="round"/>
<path d="M100.984 78.901C100.606 78.2464 100.058 77.7067 99.3974 77.3397C98.7369 76.9727 97.989 76.7923 97.2337 76.8177H93.0671C91.962 76.8177 90.9022 77.2567 90.1208 78.0381C89.3394 78.8195 88.9004 79.8793 88.9004 80.9844C88.9004 82.0894 89.3394 83.1493 90.1208 83.9307C90.9022 84.7121 91.962 85.151 93.0671 85.151H97.2337C98.3388 85.151 99.3986 85.59 100.18 86.3714C100.961 87.1528 101.4 88.2126 101.4 89.3177C101.4 90.4228 100.961 91.4826 100.18 92.264C99.3986 93.0454 98.3388 93.4844 97.2337 93.4844H93.0671C92.3118 93.5098 91.5639 93.3294 90.9033 92.9624C90.2428 92.5954 89.6945 92.0557 89.3171 91.401M95.1504 74.7344V95.5677" stroke="#FDD65B" stroke-width="3" stroke-linecap="round" stroke-linejoin="round"/>
<g clip-path="url(#clip0_2609_33129)">
<path d="M39.7751 101.388C48.7431 106.566 60.2104 103.493 65.3881 94.5251C70.5657 85.5571 67.4931 74.0898 58.5251 68.9121C49.5571 63.7344 38.0898 66.8071 32.9121 75.7751C27.7344 84.7431 30.8071 96.2104 39.7751 101.388Z" fill="#FFF2CB" stroke="#FDD65B" stroke-width="3" stroke-linecap="round" stroke-linejoin="round"/>
<path d="M57.3265 82.654C57.3269 81.8984 57.1219 81.1568 56.7334 80.5087C56.3448 79.8606 55.7873 79.3304 55.1205 78.9748L51.5121 76.8915C50.5551 76.3389 49.4178 76.1892 48.3503 76.4752C47.2829 76.7612 46.3728 77.4595 45.8203 78.4166C45.2678 79.3736 45.118 80.5109 45.4041 81.5783C45.6901 82.6457 46.3884 83.5558 47.3454 84.1083L50.9539 86.1917C51.9109 86.7442 52.6092 87.6543 52.8952 88.7217C53.1812 89.7891 53.0315 90.9264 52.479 91.8834C51.9264 92.8405 51.0164 93.5388 49.9489 93.8248C48.8815 94.1108 47.7442 93.9611 46.7872 93.4085L43.1788 91.3252C42.512 90.9696 41.9545 90.4394 41.5659 89.7913C41.1773 89.1432 40.9723 88.4016 40.9728 87.646M54.358 76.1289L43.9413 94.1711" stroke="#FDD65B" stroke-width="3" stroke-linecap="round" stroke-linejoin="round"/>
</g>
<path d="M0 10C0 4.47715 4.47715 0 10 0H180C185.523 0 190 4.47715 190 10V40H0V10Z" fill="#00715D"/>
<path d="M36.35 28V10.5H44C45.9 10.5 47.5667 10.8667 49 11.6C50.4333 12.3333 51.55 13.35 52.35 14.65C53.15 15.95 53.55 17.4833 53.55 19.25C53.55 21 53.15 22.5333 52.35 23.85C51.55 25.15 50.4333 26.1667 49 26.9C47.5667 27.6333 45.9 28 44 28H36.35ZM39.6 25.25H43.85C45.1667 25.25 46.3 25 47.25 24.5C48.2167 24 48.9583 23.3 49.475 22.4C50.0083 21.5 50.275 20.45 50.275 19.25C50.275 18.0333 50.0083 16.9833 49.475 16.1C48.9583 15.2 48.2167 14.5 47.25 14C46.3 13.5 45.1667 13.25 43.85 13.25H39.6V25.25ZM62.7043 28.175C61.3376 28.175 60.121 27.8833 59.0543 27.3C57.9876 26.7 57.146 25.8833 56.5293 24.85C55.9126 23.8167 55.6043 22.6417 55.6043 21.325C55.6043 19.9917 55.9126 18.8167 56.5293 17.8C57.146 16.7667 57.9876 15.9583 59.0543 15.375C60.121 14.7917 61.3376 14.5 62.7043 14.5C64.0876 14.5 65.3126 14.7917 66.3793 15.375C67.4626 15.9583 68.3043 16.7583 68.9043 17.775C69.521 18.7917 69.8293 19.975 69.8293 21.325C69.8293 22.6417 69.521 23.8167 68.9043 24.85C68.3043 25.8833 67.4626 26.7 66.3793 27.3C65.3126 27.8833 64.0876 28.175 62.7043 28.175ZM62.7043 25.5C63.471 25.5 64.1543 25.3333 64.7543 25C65.3543 24.6667 65.821 24.1833 66.1543 23.55C66.5043 22.9167 66.6793 22.175 66.6793 21.325C66.6793 20.4583 66.5043 19.7167 66.1543 19.1C65.821 18.4667 65.3543 17.9833 64.7543 17.65C64.1543 17.3167 63.4793 17.15 62.7293 17.15C61.9626 17.15 61.2793 17.3167 60.6793 17.65C60.096 17.9833 59.6293 18.4667 59.2793 19.1C58.9293 19.7167 58.7543 20.4583 58.7543 21.325C58.7543 22.175 58.9293 22.9167 59.2793 23.55C59.6293 24.1833 60.096 24.6667 60.6793 25C61.2793 25.3333 61.9543 25.5 62.7043 25.5ZM80.3926 14.5C81.4592 14.5 82.4092 14.7083 83.2426 15.125C84.0926 15.5417 84.7592 16.1833 85.2426 17.05C85.7259 17.9 85.9676 19 85.9676 20.35V28H82.8426V20.75C82.8426 19.5667 82.5592 18.6833 81.9926 18.1C81.4426 17.5167 80.6676 17.225 79.6676 17.225C78.9342 17.225 78.2842 17.375 77.7176 17.675C77.1509 17.975 76.7092 18.425 76.3926 19.025C76.0926 19.6083 75.9426 20.35 75.9426 21.25V28H72.8176V14.65H75.7926V18.25L75.2676 17.15C75.7342 16.3 76.4092 15.65 77.2926 15.2C78.1926 14.7333 79.2259 14.5 80.3926 14.5ZM98.1568 28V25.3L97.9818 24.725V20C97.9818 19.0833 97.7068 18.375 97.1568 17.875C96.6068 17.3583 95.7735 17.1 94.6568 17.1C93.9068 17.1 93.1652 17.2167 92.4318 17.45C91.7152 17.6833 91.1068 18.0083 90.6068 18.425L89.3818 16.15C90.0985 15.6 90.9485 15.1917 91.9318 14.925C92.9318 14.6417 93.9652 14.5 95.0318 14.5C96.9652 14.5 98.4568 14.9667 99.5068 15.9C100.574 16.8167 101.107 18.2417 101.107 20.175V28H98.1568ZM93.9568 28.175C92.9568 28.175 92.0818 28.0083 91.3318 27.675C90.5818 27.325 89.9985 26.85 89.5818 26.25C89.1818 25.6333 88.9818 24.9417 88.9818 24.175C88.9818 23.425 89.1568 22.75 89.5068 22.15C89.8735 21.55 90.4652 21.075 91.2818 20.725C92.0985 20.375 93.1818 20.2 94.5318 20.2H98.4068V22.275H94.7568C93.6902 22.275 92.9735 22.45 92.6068 22.8C92.2402 23.1333 92.0568 23.55 92.0568 24.05C92.0568 24.6167 92.2818 25.0667 92.7318 25.4C93.1818 25.7333 93.8068 25.9 94.6068 25.9C95.3735 25.9 96.0568 25.725 96.6568 25.375C97.2735 25.025 97.7152 24.5083 97.9818 23.825L98.5068 25.7C98.2068 26.4833 97.6652 27.0917 96.8818 27.525C96.1152 27.9583 95.1402 28.175 93.9568 28.175ZM110.142 28.175C108.676 28.175 107.542 27.8 106.742 27.05C105.942 26.2833 105.542 25.1583 105.542 23.675V11.7H108.667V23.6C108.667 24.2333 108.826 24.725 109.142 25.075C109.476 25.425 109.934 25.6 110.517 25.6C111.217 25.6 111.801 25.4167 112.267 25.05L113.142 27.275C112.776 27.575 112.326 27.8 111.792 27.95C111.259 28.1 110.709 28.175 110.142 28.175ZM103.342 17.25V14.75H112.242V17.25H103.342ZM115.713 28V14.65H118.838V28H115.713ZM117.288 12.45C116.705 12.45 116.221 12.2667 115.838 11.9C115.471 11.5333 115.288 11.0917 115.288 10.575C115.288 10.0417 115.471 9.6 115.838 9.25C116.221 8.88333 116.705 8.7 117.288 8.7C117.871 8.7 118.346 8.875 118.713 9.225C119.096 9.55833 119.288 9.98333 119.288 10.5C119.288 11.05 119.105 11.5167 118.738 11.9C118.371 12.2667 117.888 12.45 117.288 12.45ZM128.94 28.175C127.573 28.175 126.356 27.8833 125.29 27.3C124.223 26.7 123.381 25.8833 122.765 24.85C122.148 23.8167 121.84 22.6417 121.84 21.325C121.84 19.9917 122.148 18.8167 122.765 17.8C123.381 16.7667 124.223 15.9583 125.29 15.375C126.356 14.7917 127.573 14.5 128.94 14.5C130.323 14.5 131.548 14.7917 132.615 15.375C133.698 15.9583 134.54 16.7583 135.14 17.775C135.756 18.7917 136.065 19.975 136.065 21.325C136.065 22.6417 135.756 23.8167 135.14 24.85C134.54 25.8833 133.698 26.7 132.615 27.3C131.548 27.8833 130.323 28.175 128.94 28.175ZM128.94 25.5C129.706 25.5 130.39 25.3333 130.99 25C131.59 24.6667 132.056 24.1833 132.39 23.55C132.74 22.9167 132.915 22.175 132.915 21.325C132.915 20.4583 132.74 19.7167 132.39 19.1C132.056 18.4667 131.59 17.9833 130.99 17.65C130.39 17.3167 129.715 17.15 128.965 17.15C128.198 17.15 127.515 17.3167 126.915 17.65C126.331 17.9833 125.865 18.4667 125.515 19.1C125.165 19.7167 124.99 20.4583 124.99 21.325C124.99 22.175 125.165 22.9167 125.515 23.55C125.865 24.1833 126.331 24.6667 126.915 25C127.515 25.3333 128.19 25.5 128.94 25.5ZM146.628 14.5C147.695 14.5 148.645 14.7083 149.478 15.125C150.328 15.5417 150.995 16.1833 151.478 17.05C151.961 17.9 152.203 19 152.203 20.35V28H149.078V20.75C149.078 19.5667 148.795 18.6833 148.228 18.1C147.678 17.5167 146.903 17.225 145.903 17.225C145.17 17.225 144.52 17.375 143.953 17.675C143.386 17.975 142.945 18.425 142.628 19.025C142.328 19.6083 142.178 20.35 142.178 21.25V28H139.053V14.65H142.028V18.25L141.503 17.15C141.97 16.3 142.645 15.65 143.528 15.2C144.428 14.7333 145.461 14.5 146.628 14.5Z" fill="white"/>
<rect x="43" y="132" width="103" height="32" rx="16" fill="#00715D"/>
<path d="M78.34 152.168C77.8173 152.168 77.346 152.098 76.926 151.958C76.506 151.809 76.1467 151.599 75.848 151.328C75.5587 151.057 75.3347 150.731 75.176 150.348C75.0267 149.965 74.952 149.536 74.952 149.06V144.272H76.744V148.962C76.744 149.522 76.884 149.956 77.164 150.264C77.444 150.572 77.836 150.726 78.34 150.726C78.844 150.726 79.236 150.572 79.516 150.264C79.796 149.956 79.936 149.522 79.936 148.962V144.272H81.728V149.06C81.728 149.536 81.6487 149.965 81.49 150.348C81.3407 150.731 81.1167 151.057 80.818 151.328C80.5287 151.599 80.174 151.809 79.754 151.958C79.334 152.098 78.8627 152.168 78.34 152.168ZM86.5036 152.168C85.7756 152.168 85.155 152.047 84.6416 151.804C84.1376 151.561 83.6943 151.216 83.3116 150.768L84.4176 149.718C84.6883 150.045 85.0056 150.301 85.3696 150.488C85.7336 150.665 86.1443 150.754 86.6016 150.754C87.0776 150.754 87.4183 150.675 87.6236 150.516C87.8383 150.357 87.9456 150.138 87.9456 149.858C87.9456 149.578 87.8616 149.373 87.6936 149.242C87.5256 149.102 87.2736 149.009 86.9376 148.962L86.1816 148.864C85.799 148.817 85.449 148.738 85.1316 148.626C84.8143 148.514 84.539 148.365 84.3056 148.178C84.0816 147.991 83.9043 147.763 83.7736 147.492C83.6523 147.221 83.5916 146.904 83.5916 146.54C83.5916 146.167 83.6616 145.831 83.8016 145.532C83.951 145.224 84.1516 144.967 84.4036 144.762C84.665 144.547 84.973 144.384 85.3276 144.272C85.6916 144.16 86.093 144.104 86.5316 144.104C87.2503 144.104 87.8383 144.211 88.2956 144.426C88.753 144.641 89.1636 144.935 89.5276 145.308L88.4636 146.372C88.249 146.129 87.9736 145.929 87.6376 145.77C87.3016 145.602 86.9376 145.518 86.5456 145.518C86.1256 145.518 85.813 145.602 85.6076 145.77C85.4116 145.929 85.3136 146.143 85.3136 146.414C85.3136 146.685 85.3976 146.895 85.5656 147.044C85.743 147.184 86.0276 147.282 86.4196 147.338L87.1756 147.45C87.941 147.562 88.5476 147.786 88.9956 148.122C89.4436 148.458 89.6676 148.985 89.6676 149.704C89.6676 150.068 89.593 150.404 89.4436 150.712C89.2943 151.011 89.0796 151.267 88.7996 151.482C88.529 151.697 88.1976 151.865 87.8056 151.986C87.4136 152.107 86.9796 152.168 86.5036 152.168ZM83.383 141.64H89.627V142.998H83.383V141.64ZM92.0322 149.046H91.2342V147.604H92.3262C92.6156 147.604 92.8442 147.665 93.0122 147.786C93.1896 147.898 93.3249 148.089 93.4182 148.36L94.2162 150.642H94.6502C94.9862 150.642 95.2569 150.474 95.4622 150.138C95.6769 149.793 95.7842 149.317 95.7842 148.71V147.464C95.7842 146.857 95.6162 146.386 95.2802 146.05C94.9442 145.714 94.4776 145.546 93.8802 145.546C93.5722 145.546 93.2969 145.588 93.0542 145.672C92.8209 145.747 92.6109 145.845 92.4242 145.966C92.2376 146.087 92.0742 146.223 91.9342 146.372C91.8036 146.521 91.6916 146.666 91.5982 146.806L90.4922 145.826C90.6322 145.602 90.8049 145.387 91.0102 145.182C91.2249 144.967 91.4722 144.781 91.7522 144.622C92.0416 144.463 92.3682 144.337 92.7322 144.244C93.0962 144.151 93.5069 144.104 93.9642 144.104C94.5429 144.104 95.0609 144.197 95.5182 144.384C95.9756 144.561 96.3629 144.823 96.6802 145.168C96.9976 145.513 97.2402 145.933 97.4082 146.428C97.5762 146.913 97.6602 147.469 97.6602 148.094C97.6602 148.701 97.5856 149.247 97.4362 149.732C97.2962 150.217 97.0909 150.628 96.8202 150.964C96.5589 151.3 96.2369 151.557 95.8542 151.734C95.4716 151.911 95.0469 152 94.5802 152H93.0822L92.0322 149.046ZM102.54 146.834C102.54 146.423 102.433 146.106 102.218 145.882C102.013 145.658 101.681 145.546 101.224 145.546C100.804 145.546 100.468 145.635 100.216 145.812C99.9732 145.989 99.7679 146.209 99.5999 146.47L98.5359 145.518C98.8065 145.089 99.1565 144.748 99.5859 144.496C100.025 144.235 100.613 144.104 101.35 144.104C102.33 144.104 103.072 144.333 103.576 144.79C104.08 145.238 104.332 145.887 104.332 146.736V152H102.54V146.834ZM106.233 147.324C106.233 146.839 106.317 146.4 106.485 146.008C106.653 145.607 106.896 145.266 107.213 144.986C107.531 144.706 107.913 144.491 108.361 144.342C108.819 144.183 109.332 144.104 109.901 144.104C110.461 144.104 110.965 144.183 111.413 144.342C111.871 144.491 112.258 144.706 112.575 144.986C112.893 145.266 113.135 145.607 113.303 146.008C113.481 146.4 113.569 146.839 113.569 147.324V152H111.777V147.422C111.777 146.825 111.609 146.363 111.273 146.036C110.947 145.709 110.489 145.546 109.901 145.546C109.313 145.546 108.851 145.709 108.515 146.036C108.189 146.363 108.025 146.825 108.025 147.422V149.13H108.095C108.142 148.934 108.212 148.747 108.305 148.57C108.408 148.383 108.539 148.22 108.697 148.08C108.856 147.94 109.043 147.828 109.257 147.744C109.481 147.651 109.738 147.604 110.027 147.604H110.419V149.298H109.859C109.262 149.298 108.805 149.391 108.487 149.578C108.179 149.755 108.025 150.054 108.025 150.474V152H106.233V147.324Z" fill="white"/>
<defs>
<clipPath id="clip0_2609_33129">
<rect width="50" height="50" fill="white" transform="translate(40 51) rotate(30)"/>
</clipPath>
</defs>
</svg>
