<svg width="1100" height="1100" viewBox="0 0 1100 1100" fill="none" xmlns="http://www.w3.org/2000/svg">
<mask id="mask0_1951_31649" style="mask-type:alpha" maskUnits="userSpaceOnUse" x="0" y="0" width="1100" height="1100">
<rect width="1100" height="1100" fill="#D9D9D9"/>
</mask>
<g mask="url(#mask0_1951_31649)">
<path fill-rule="evenodd" clip-rule="evenodd" d="M710.932 692.107C701.798 656.651 693.398 641.619 677.172 629.295C661.994 617.768 639.839 608.087 607.512 601.015C573.842 595.124 572.887 577.61 564.445 549.461C561.982 540.999 549.777 538.747 544.51 544.846C543.767 544.044 542.993 543.31 542.191 542.646C542.909 538.61 537.037 527.042 537.233 523.182C539.281 482.887 526.111 462.653 493.242 455.131C486.093 453.494 437.539 452.531 430.569 454.46C400.099 462.891 370.104 489.66 374.694 521.907C365.129 534.416 355.769 542.051 341.012 546.082C318.033 549.002 329.576 874.82 369.487 1070.02C386.61 1153.77 796.057 1011.22 777.555 969.276C780.178 961.587 775.398 953.137 777.555 945.197C779.117 939.451 783.116 937.074 785.129 931.385C787.961 923.378 784.881 912.637 781.692 904.467C780.385 900.394 784.097 896.012 785.129 891.856C790.022 872.258 778.817 873.986 770.74 860.884C770.86 860.843 772.961 851.49 772.951 851.537C774.188 844.859 771.09 836.304 768.387 830.73C766.56 826.963 762.648 824.605 758.76 825.037C762.675 811.735 767.627 800.666 772.951 787.85C782.368 765.259 791.323 741.627 804.845 721.179C810.383 712.806 805.911 705.104 796.949 704.534C767.944 702.689 739.257 698.51 710.932 692.107Z" fill="#D08B5B"/>
<path fill-rule="evenodd" clip-rule="evenodd" d="M370.579 547.362L580.845 584.229L677.5 629.675L693.278 641.819L599.76 807.074L455.361 833.395L418.573 928.859L426.082 1036.47L660.99 1008.49L762.319 996.458L786.138 1092.53L781.835 1132.05L775.577 1152.09L524.376 1219.84C524.376 1219.84 396.462 1207.46 373.787 1207.46C351.112 1207.46 184.863 1223.95 184.863 1223.95L146.397 1219.84C146.397 1219.84 61.2924 1130.23 48.0926 1098.34C34.8929 1066.45 6.34961 872.579 6.34961 872.579L9.49252 842.791L83.0212 653.749C83.0212 653.749 92.84 644.842 105.219 629.675C117.598 614.508 370.579 547.362 370.579 547.362Z" fill="#9DDADB"/>
<path fill-rule="evenodd" clip-rule="evenodd" d="M751.024 820.476C732.033 821.441 713.02 825.959 695.841 834.143C688.813 837.497 682.444 842.339 680.579 850.304C679.637 854.372 679.867 858.575 680.369 862.683C680.747 865.795 680.841 869.767 683.544 871.873C684.005 872.23 684.497 872.502 685.01 872.701C678.673 875.563 672.638 879.001 667.275 882.543C662.374 885.781 657.335 890.77 655.073 896.398C654.884 895.759 654.696 895.163 654.507 894.596C650.652 883.194 644.713 873.855 635.359 867.576C634.297 863.704 622.897 847.035 612.308 847.664C600.712 848.345 591.385 849.193 580.898 854.528C577.076 854.444 573.262 854.496 569.492 854.664C568.843 854.685 568.874 855.567 569.492 855.639C572.551 856.028 575.609 856.456 578.668 856.959C585.938 858.124 593.186 859.601 600.277 861.435C608.784 863.637 617.583 865.847 625.533 869.694C640.951 877.167 650.495 896.703 648.536 913.702C648.212 916.49 647.133 924.916 643.266 924.046C639.999 923.313 638.7 916.49 637.559 913.964C634.5 907.256 628.99 902.875 622.38 899.909C614.618 896.419 606.312 894.061 598.266 891.316C593.71 889.755 589.154 888.192 584.587 886.641C579.915 885.038 575.473 882.826 570.498 883.947C567.491 884.628 567.146 888.213 568.832 890.268C571.398 893.401 575.211 894.323 578.909 895.612C583.79 897.31 588.661 899.009 593.532 900.706C601.063 903.326 608.951 905.537 616.293 908.745L616.064 909.269C615.466 909.101 614.764 909.698 614.88 910.432C615.98 917.213 617.509 925.053 615.811 931.845C614.472 937.231 609.746 943.196 603.609 941.612C604.573 940.732 604.929 939.212 604.28 937.808C601.848 932.609 570.005 912.088 567.167 919.708C567.072 919.98 567.365 920.179 567.596 920.138C570.016 919.634 574.07 923.763 576.006 925.073C578.803 926.961 581.642 928.805 584.408 930.744C587.436 932.862 590.39 935.084 593.27 937.378C595.533 939.182 597.24 941.057 599.837 941.969C598.476 942.618 597.396 943.823 596.937 945.364C595.763 949.378 593.501 952.784 589.573 954.557C585.456 956.4 580.816 955.237 576.479 955.689C570.571 956.285 565.417 959.095 561.112 963.109C552.072 971.555 547.536 986.439 534.893 990.431C527.341 992.811 518.961 991.311 511.314 990.232C502.777 989.027 494.46 988.073 485.86 989.331C477.626 990.537 469.843 993.387 462.322 996.866C455.273 1000.13 447.479 1003.82 441.226 1008.68C439.937 1004.71 438.638 1000.78 437.653 996.719C435.328 987.131 434.071 977.362 433.766 967.51C433.485 958.131 434.008 948.708 434.814 939.369C435.213 934.705 435.842 930.062 436.24 925.398C436.343 924.225 436.554 922.967 436.711 921.71C447.877 915.117 459.608 910.066 471.435 904.868C471.467 904.857 471.498 904.835 471.53 904.826C471.896 904.657 472.253 904.501 472.619 904.344C472.609 904.322 472.598 904.302 472.577 904.28C473.929 903.453 474.871 902.351 475.437 901.115C492.48 889.806 506.726 874.369 517.348 856.362C521.799 848.816 526.084 840.987 531.908 834.375C538.109 827.32 545.473 823.128 554.586 820.948C565.239 818.392 576.217 816.86 587.132 815.99C593.092 815.52 599.753 814.785 606.249 814.818C610.774 814.848 615.204 815.236 619.269 816.357C625.292 818.013 628.812 822.594 632.593 827.226C636.207 831.671 639.8 836.125 643.173 840.757C646.367 845.148 649.385 849.686 652.004 854.444C653.575 857.295 655.031 860.23 656.256 863.258C656.686 864.328 657.252 865.543 657.513 866.654C657.775 867.776 657.293 868.961 658.55 868.961C653.365 869.033 649.919 881.969 655.073 881.665C662.319 881.244 665.962 872.552 664.542 864.841C662.009 851.083 648.329 834.466 645.623 830.946C639.642 823.17 633.473 813.024 623.899 809.409C623.763 809.356 623.616 809.305 623.48 809.262C626.267 806.621 628.466 803.457 630.572 800.238C632.74 796.926 635.326 793.132 636.04 789.202C636.49 786.698 633.379 785.272 631.902 787.462C629.755 790.659 628.718 794.704 627.115 798.216C625.481 801.779 623.491 805.143 621.919 808.738C618.138 807.574 614.053 807.041 609.894 806.863C615.142 799.757 624.108 786.047 625.188 784.286C630.153 776.132 634.877 767.728 639.392 759.311C644.272 750.193 648.453 740.697 653.124 731.474C655.775 726.245 658.446 720.973 661.389 715.9C662.405 714.16 663.495 712.42 664.731 710.838C664.972 710.524 665.275 710.262 665.558 709.968C665.883 709.79 666.218 709.59 666.407 709.487C668.103 708.512 668.701 706.248 669.894 704.811C671.801 702.496 674.043 702.224 676.913 702.191C683.029 702.128 689.169 702.369 695.276 702.537C704.253 702.789 713.22 703.145 722.186 703.616C724.899 703.763 727.602 703.91 730.315 704.078C743.356 704.854 756.387 705.87 769.386 707.118C780.888 708.218 792.39 710.011 803.902 710.87C788.315 747.919 771.031 784.298 751.463 819.408C751.265 819.763 751.117 820.12 751.024 820.476ZM664.542 915.924C662.028 917.078 659.587 918.513 657.314 920.149C657.691 917.602 657.786 914.918 657.681 912.224C659.556 914.236 661.955 915.389 664.542 915.924ZM771.859 852.192C771.681 852.212 771.513 852.306 771.429 852.484C767.951 859.664 769.406 867.681 775.085 873.309C778.06 876.244 784.544 879.556 784.333 884.377C784.155 888.276 779.914 891.546 778.102 894.763C776.415 897.761 775.787 901.052 777.138 904.302C778.866 908.462 783.695 910.118 785.35 914.206C787.445 919.393 784.041 925.651 781.653 930.167C779.432 934.349 776.561 938.531 774.655 942.954C761.886 949.568 732.913 961.578 729.423 962.25C725.172 963.076 720.908 963.863 716.633 964.597C708.431 966.022 700.21 967.342 691.966 968.505C687.273 969.166 682.57 969.816 677.866 970.329C673.76 970.769 669.13 971.367 665.82 968.276C659.148 962.028 662.887 951.558 667.109 945.249C667.192 945.124 667.192 945.008 667.161 944.903C671.142 943.97 675.112 942.88 679.071 942.115C686.686 940.648 694.354 939.412 702.032 938.312C717.808 936.057 733.688 934.569 749.546 933.071C753.474 932.693 753.516 926.51 749.546 926.877C726.763 928.963 703.865 930.943 681.386 935.335C675.751 936.424 670.156 937.661 664.595 939.055C661.965 939.706 659.148 940.722 656.393 940.754C656.225 940.754 656.056 940.754 655.89 940.742C650.495 940.575 649.71 935.953 652.674 932.107C653.041 931.634 653.418 931.163 653.805 930.713C659.043 924.466 665.568 920.294 672.293 915.976C679.825 914.949 687.336 912.664 694.71 910.987C712.916 906.837 731.121 902.687 749.337 898.547C752.908 897.729 751.391 892.237 747.819 893.045C733.992 896.179 720.165 899.312 706.336 902.446L686.1 907.037C682.056 907.948 677.006 909.782 672.251 910.443C669.905 910.767 667.632 910.809 665.579 910.328C658.949 908.756 658.613 900.465 661.473 895.539C664.678 890.006 670.733 886.546 676.107 883.413C685.419 877.973 695.328 874.064 705.007 869.557C706.725 869.18 708.443 868.803 710.161 868.425C720.154 866.224 731.572 865.145 740.978 861.111C743.796 859.915 742.255 855.471 739.47 855.534C732.169 855.692 724.533 858.291 717.399 859.831C709.679 861.508 701.949 863.175 694.228 864.841C693.453 865.009 688.865 866.476 688.174 866.151C687.734 865.941 687.577 864.412 687.43 863.405C686.958 860.093 686.613 856.615 687.126 853.291C688.258 845.839 694.469 842.339 700.754 839.478C714.749 833.116 730.095 829.134 745.367 827.54C748.887 827.173 752.407 826.944 755.947 826.828C760.105 826.702 763.531 825.968 765.637 830.066C768.947 836.522 770.769 844.824 771.859 852.192ZM752.423 1086.27C749.374 1075.72 750.204 1064.45 748.115 1053.69C747.037 1048.14 745.565 1042.63 743.959 1037.21C742.662 1032.83 740.499 1028.17 740.254 1023.6C740.239 1023.3 740.598 1023.12 740.845 1023.26C745.148 1025.73 748.451 1031.06 750.905 1035.24C753.842 1040.24 756.084 1045.48 757.894 1050.99C761.499 1061.97 764.459 1075.21 759.809 1086.27C758.426 1089.56 753.565 1090.22 752.423 1086.27ZM633.418 1166.15C628.874 1162.98 625.563 1158.54 621.71 1154.63C617.92 1150.78 623.844 1144.85 627.635 1148.7C630.923 1152.04 633.778 1156.21 637.647 1158.91C639.51 1160.21 640.372 1162.56 639.151 1164.65C638.073 1166.49 635.276 1167.45 633.418 1166.15ZM608.078 1044.21C616.373 1040.62 624.531 1036.71 633.212 1034.13C638.401 1032.58 640.597 1040.68 635.44 1042.21C627.445 1044.6 619.946 1048.15 612.307 1051.45C607.403 1053.57 603.141 1046.35 608.078 1044.21ZM520.476 1041.7C518.447 1036.69 526.558 1034.53 528.556 1039.47C530.858 1045.15 533.495 1050.69 535.797 1056.37C537.823 1061.38 529.715 1063.54 527.716 1058.6C525.415 1052.92 522.776 1047.38 520.476 1041.7ZM434.01 1141.71C432.658 1143.51 430.405 1144.49 428.277 1143.21C426.494 1142.14 425.405 1139.3 426.773 1137.48C430.767 1132.15 434.814 1126.89 439.495 1122.14C443.29 1118.29 449.213 1124.22 445.421 1128.07C441.24 1132.31 437.577 1136.95 434.01 1141.71ZM421.646 580.579C425.493 583.208 428.863 586.401 432.149 589.687C435.969 593.507 430.042 599.435 426.222 595.615C423.453 592.846 420.661 590.035 417.417 587.82C415.543 586.539 414.701 584.157 415.913 582.083C417 580.226 419.777 579.303 421.646 580.579ZM547.441 715.505C545.266 719.862 543.309 724.132 543.185 729.085C543.053 734.479 534.673 734.482 534.806 729.085C534.966 722.604 537.355 716.985 540.205 711.273C542.616 706.438 549.842 710.69 547.441 715.505ZM593.596 607.142C598.102 604.137 602.293 611.403 597.827 614.382C594.207 616.796 590.586 619.211 586.966 621.626C582.462 624.63 578.271 617.365 582.736 614.386C586.356 611.971 589.976 609.557 593.596 607.142ZM393.404 796.604C392.635 801.933 384.561 799.653 385.322 794.376C386.501 786.22 387.939 778.172 390.15 770.228C391.598 765.029 399.679 767.251 398.231 772.457C396.019 780.401 394.581 788.449 393.404 796.604ZM364.022 892.649C358.629 892.535 358.628 884.151 364.022 884.265C368.904 884.369 373.702 885.653 378.411 886.829C383.648 888.138 381.415 896.222 376.183 894.914C372.202 893.92 368.149 892.737 364.022 892.649ZM353.176 1086.12C351.323 1087.03 349.422 1087.84 347.549 1088.69C343.798 1090.41 340.049 1092.13 336.301 1093.85C328.493 1097.44 320.689 1101.03 312.892 1104.65C297.284 1111.87 281.556 1118.85 265.911 1126C249.956 1133.29 234.044 1140.68 218.151 1148.11C210.663 1151.6 203.119 1154.97 195.59 1158.38C189.152 1161.29 181.194 1166.38 174.127 1166.86C173.763 1166.88 173.642 1166.42 173.849 1166.19C176.519 1163.15 180.778 1161.38 184.287 1159.41C187.872 1157.39 191.524 1155.49 195.158 1153.57C202.736 1149.55 210.323 1145.57 217.974 1141.69C233.278 1133.94 248.611 1126.25 263.948 1118.56C279.589 1110.73 295.21 1102.84 310.989 1095.28C318.418 1091.72 325.854 1088.18 333.294 1084.64C337.325 1082.72 341.358 1080.81 345.391 1078.9C347.133 1078.07 348.857 1077.18 350.638 1076.45C353.004 1075.47 354.803 1075.67 357.243 1075.06C361.224 1074.08 362.947 1079.14 359.891 1081.35C357.375 1083.17 356.051 1084.72 353.176 1086.12ZM297.232 1172.1C296.372 1170.01 298.173 1167.46 300.159 1166.94C302.538 1166.31 304.445 1167.76 305.314 1169.87C307.611 1175.46 310.883 1180.59 315.095 1184.92C318.86 1188.79 312.937 1194.72 309.169 1190.85C303.891 1185.42 300.099 1179.07 297.232 1172.1ZM256.074 1037.51C252.254 1033.69 258.181 1027.76 262 1031.59L272.861 1042.45C276.681 1046.27 270.753 1052.2 266.935 1048.38L256.074 1037.51ZM144.652 1019.8C136.844 1022.09 127.737 1024.2 122.414 1030.86C122.154 1031.19 121.717 1030.77 121.873 1030.44C128.688 1016.31 148.232 1011.35 161.764 1006.4C171.335 1002.89 181.155 999.987 191.058 997.392C190.069 986.089 192.798 973.974 193.747 962.726C194.76 950.718 195.585 938.677 196.008 926.631C196.441 914.342 196.545 901.971 196.141 889.679C195.739 877.432 194.15 865.336 193.454 853.13C193.387 851.95 195.03 851.893 195.384 852.869C199.496 864.195 201.253 876.742 202.591 888.685C203.97 900.988 204.428 913.255 204.252 925.63C204.069 938.354 203.33 951.047 202.315 963.729C201.834 969.741 201.276 975.744 200.749 981.752C200.347 986.336 200.16 990.884 199.226 995.322C205.199 993.856 211.185 992.469 217.153 991.12C236.182 986.824 255.29 982.837 274.239 978.191C283.541 975.911 292.71 973.18 301.97 970.755C310.689 968.471 319.893 965.702 328.844 964.683C332.039 964.318 332.446 968.691 330.331 970.175C323.055 975.286 313.392 978.846 304.988 981.707C296.553 984.578 287.786 986.643 279.141 988.77C261.112 993.206 242.913 996.834 224.741 1000.61C206.594 1004.39 188.412 1008.13 170.47 1012.79C161.829 1015.03 153.218 1017.28 144.652 1019.8ZM101.865 795.487C97.1994 798.228 92.9875 790.978 97.6363 788.247C103.719 784.675 110.202 781.991 116.737 779.373C121.753 777.365 123.911 785.477 118.965 787.459C113.092 789.811 107.331 792.278 101.865 795.487ZM84.9717 1106.99C80.2935 1109.7 76.0784 1102.45 80.7429 1099.75C87.294 1095.95 94.4683 1093.42 101.257 1090.09C106.087 1087.72 110.33 1094.96 105.486 1097.33C98.6981 1100.66 91.5227 1103.19 84.9717 1106.99ZM77.3725 930.166C81.8956 934.465 87.9323 936.489 93.6244 938.748C98.5875 940.715 96.4108 948.821 91.3964 946.832C84.3048 944.018 77.0813 941.45 71.4468 936.094C67.527 932.369 73.4632 926.451 77.3725 930.166ZM127.413 690.027C132.386 691.979 130.208 700.085 125.185 698.113C119.615 695.927 113.862 694.263 108.291 692.076C103.32 690.125 105.496 682.02 110.519 683.99C116.09 686.177 121.843 687.841 127.413 690.027ZM215.689 594.645C220.972 593.754 223.222 601.834 217.917 602.73C211.334 603.842 204.852 605.143 198.609 607.56C193.568 609.511 191.405 601.402 196.381 599.475C202.625 597.058 209.107 595.757 215.689 594.645ZM244.856 826.879C240.011 824.496 244.262 817.268 249.085 819.64C254.167 822.14 259.433 824.072 264.978 825.253C270.259 826.379 268.01 834.461 262.75 833.339C256.509 832.008 250.571 829.691 244.856 826.879ZM272.404 696.064C277.621 694.635 279.827 702.725 274.632 704.15C265.493 706.655 256.083 707.958 246.876 710.187C241.629 711.457 239.41 703.37 244.648 702.102C253.855 699.872 263.266 698.571 272.404 696.064ZM389.27 655.013C394.574 655.995 392.314 664.075 387.043 663.099C381.431 662.061 375.744 662.044 370.055 662.041C364.654 662.039 364.664 653.654 370.055 653.656C376.518 653.659 382.899 653.834 389.27 655.013ZM770.413 698.817C756.722 697.507 743.01 696.459 729.278 695.673C728.638 695.641 728.01 695.6 727.37 695.567C727.298 695.422 727.204 695.284 727.108 695.138C722.626 688.556 719.327 681.975 716.467 674.533C713.733 667.448 711.083 660.144 706.872 653.75C702.069 646.466 695.585 640.767 688.479 635.827C684.168 638.727 680.168 642.123 676.508 645.722C672.656 649.509 666.729 643.581 670.582 639.793C673.835 636.595 677.306 633.64 680.975 630.971C676.738 628.395 672.415 625.973 668.198 623.565C652.39 614.542 636.207 606.199 619.688 598.57C612.01 595.016 604.238 591.861 596.413 588.664C592.201 586.947 588.043 584.734 583.832 582.744C584.136 579.766 583.246 576.433 580.962 574.473C579.276 573.038 577.966 572.503 575.955 571.488C575.505 571.329 575.232 571.235 575.107 571.183C575.201 571.203 575.473 571.287 575.923 571.434C576.992 571.928 577.076 571.78 576.175 571.004C576.123 569.308 572.78 565.723 572.017 563.973C569.356 557.966 568.528 551.615 564.6 546.144C559.185 538.609 550.092 535.759 541.617 538.315C540.738 529.249 540.508 519.786 537.093 511.694C536.999 511.475 536.695 511.38 536.559 511.621C532.997 517.69 532.693 524.449 532.421 531.45C532.159 538.022 532.41 544.74 533.27 551.269C532.725 551.688 532.17 552.088 531.594 552.474C528.891 554.256 525.979 555.629 522.92 556.647C517.096 558.574 510.989 559.413 504.882 559.706C489.117 560.461 472.871 558.868 457.368 556.164C441.687 553.428 417.647 549.32 403.694 541.47C394.485 536.293 385.991 529.972 377.38 523.852C380.502 513.79 381.298 502.974 378.156 494.474C377.779 493.458 376.187 493.269 375.883 494.474C373.913 502.586 373.337 510.74 370.719 518.758C370.677 518.873 370.635 519 370.593 519.114C369.776 518.56 368.959 518.014 368.142 517.469C366.256 516.222 363.69 517.156 362.559 518.936C344.467 547.454 315.819 549.089 285.735 554.184C252.811 559.759 219.721 565.774 188.066 576.685C157.793 587.125 128.861 602.322 105.942 625.023C100.754 630.163 95.9017 635.639 91.3221 641.356C95.753 641.915 100.147 642.785 104.485 644.148C109.621 645.762 107.414 653.854 102.257 652.233C96.6821 650.48 91.0455 649.614 85.3513 649.182C69.7781 670.498 57.6355 694.667 47.1354 718.457C26.9951 764.07 13.8856 812.646 7.85309 862.101C11.1653 860.115 14.5372 858.223 17.9929 856.464C22.7946 854.021 27.0297 861.257 22.2227 863.704C16.8846 866.42 11.6995 869.415 6.6757 872.662C4.48118 894.31 3.63062 916.097 4.14599 937.849C5.37156 989.708 12.3689 1043.09 28.1966 1092.57C35.9586 1116.85 46.245 1140.93 61.5699 1161.46C68.5044 1170.75 76.3816 1179.14 85.6624 1186.13C90.1562 1189.52 94.9119 1192.55 99.9294 1195.11C106.392 1198.42 114.814 1199.51 120.387 1204.2C122.22 1205.74 123.634 1207.77 124.703 1210.06C124.085 1214.42 124.011 1218.79 125.206 1223.15C125.583 1224.52 126.609 1225.63 127.877 1226.16C127.898 1226.54 127.898 1226.91 127.898 1227.26C127.898 1227.43 128.149 1227.47 128.18 1227.31C128.233 1226.98 128.285 1226.66 128.338 1226.32C128.746 1226.46 129.176 1226.52 129.616 1226.52C145.527 1226.58 161.458 1226.19 177.391 1225.65C176.159 1221.88 174.825 1218.13 173.543 1214.36C171.804 1209.23 179.9 1207.04 181.624 1212.13C183.123 1216.54 184.69 1220.92 186.084 1225.35C203.155 1224.71 220.221 1223.95 237.257 1223.39C273.49 1222.18 309.712 1221.78 345.955 1221.02C402.238 1219.82 458.931 1217.38 515.301 1219.77C517.25 1215.63 519.432 1211.59 521.501 1207.5C523.942 1202.68 531.169 1206.93 528.737 1211.74C527.299 1214.57 525.809 1217.37 524.394 1220.21C535.811 1220.8 547.216 1221.58 558.597 1222.65C578.018 1224.48 597.251 1227.71 616.651 1229.73C636.374 1231.78 655.67 1231.41 675.237 1228.16C678.757 1227.57 680.831 1225.44 681.69 1222.8C681.72 1222.79 681.742 1222.77 681.762 1222.74C682.768 1221.56 683.712 1220.59 684.685 1219.74C685.848 1218.98 687.105 1218.34 688.582 1217.78C691.337 1216.73 694.208 1216.09 697.12 1215.66C700.325 1215.18 703.572 1215.14 706.777 1214.74C709.479 1214.39 712.12 1213.88 714.758 1213.25C719.505 1212.12 724.009 1210.64 728.492 1208.68C732.399 1206.97 735.928 1204.52 739.26 1201.85C746.153 1196.81 752.123 1190.37 757.34 1183.68C760.378 1179.78 763.238 1175.72 765.836 1171.5C770.361 1164.18 774.216 1156.58 778.112 1148.92C779.526 1146.65 780.817 1144.33 781.996 1141.95C774.381 1139.71 766.692 1137.88 758.619 1137.75C753.223 1137.66 753.224 1129.28 758.619 1129.36C767.878 1129.51 776.636 1131.67 785.338 1134.25C785.762 1133.13 786.169 1131.99 786.545 1130.84C787.582 1128.44 788.441 1125.98 789.153 1123.48C789.571 1122.35 789.991 1121.22 790.41 1120.09C791.353 1116.17 792.295 1112.24 793.249 1108.31C795.145 1102.02 796.641 1095.64 797.742 1089.17C798.664 1084.91 799.376 1080.63 799.858 1076.29C801.325 1065.78 802.519 1055.29 802.603 1044.66C802.477 1038.11 802.058 1031.57 801.346 1025.06C801.042 1020.64 800.529 1016.23 799.837 1011.86C798.937 1005.37 798.046 998.932 796.548 992.517C795.427 988.179 794.307 983.839 793.186 979.5C790.389 970.456 787.089 961.588 783.286 952.921C783.077 952.377 782.018 951.181 781.38 951.17C780.899 951.16 780.227 951.6 780.447 952.188C780.469 952.239 780.489 952.302 780.511 952.355C780.291 951.862 780.082 951.359 779.862 950.866C779.673 950.405 778.94 949.484 778.374 949.495C778.343 949.495 778.31 949.495 778.269 949.504C778.416 949.4 778.552 949.263 778.688 949.107C782.449 944.652 784.89 938.793 787.582 933.636C789.813 929.381 791.918 924.895 792.526 920.085C793.059 915.862 792.337 911.7 789.687 908.283C786.67 904.395 780.993 902.571 784.146 896.954C787.728 890.561 792.997 885.016 787.749 877.753C785.078 874.054 780.846 872.021 777.704 868.803C774.09 865.082 772.371 860.104 772.466 855.021C772.686 855.146 772.979 855.085 773.084 854.769C776.122 845.588 773.922 835.507 770.811 826.566C769.114 821.714 765.52 820.382 761.342 820.142C779.442 784.77 796.38 748.83 811.475 712.064C811.978 710.859 812.47 709.654 812.962 708.448C813.696 706.645 812.146 704.246 810.354 703.847C797.302 700.986 783.706 700.074 770.413 698.817Z" fill="black"/>
<path fill-rule="evenodd" clip-rule="evenodd" d="M1095 571.063C1034.26 572.897 973.591 576.856 913.139 583.062C856.919 588.832 800.905 596.514 745.207 606.09C733.574 608.089 721.954 610.171 710.35 612.336L703.389 613.644C691.782 615.843 677.603 616.75 667.269 622.948C656.374 629.481 653.43 643.137 649.805 654.398C645.543 667.641 641.389 680.922 637.348 694.235C621.299 747.094 606.639 800.412 593.56 854.082C587.068 880.722 581.308 907.511 575.239 934.248C569.847 958.004 563.897 981.491 557.682 1005.01C558.448 1004.41 559.387 1003.96 560.522 1003.72C591.387 997.155 622.895 994.301 654.222 990.675L657.253 990.321C689.66 986.512 722.068 982.73 754.494 979.086L969.185 954.952C981.847 953.53 995.411 953.337 1007.73 949.941C1028.68 944.164 1033.59 920.752 1037.11 902.107L1037.21 901.544C1047.81 845.211 1056.25 788.388 1066.13 731.912" fill="#231F20"/>
<path fill-rule="evenodd" clip-rule="evenodd" d="M562.5 940.151C554.239 939.615 542.932 932.179 536.664 932.712C539.955 938.138 541.44 944.327 539.543 950.936C534.266 969.328 510.4 959.812 498.904 954.194C489.479 949.585 480.377 943.945 469.943 941.786C458.121 939.343 450.113 943.964 440.126 949.289C431.923 953.663 422.989 956.804 413.802 958.429C408.917 959.295 404.277 959.387 399.645 959.049C399.367 959.273 399.052 959.48 398.694 959.664L396.244 960.928C407.322 961.426 418.606 964.787 428.916 967.863C439.6 971.05 450.087 974.891 460.52 978.82L470.782 982.697C496.097 992.225 522.301 1001.27 549.698 1001.19C551.667 1001.19 553.281 1001.72 554.552 1002.6" fill="#231F20"/>
<path fill-rule="evenodd" clip-rule="evenodd" d="M871.511 733.426C870.42 728.148 876.837 725.7 879.811 729.887L880.443 730.77C886.868 739.676 896.16 750.852 895.687 762.179C901.334 762.304 907.189 765.777 909.39 770.933C910.407 773.319 910.752 776.146 910.527 779.072C915.661 779.476 921.259 782.886 924.397 786.206C929.599 791.71 930.01 799.488 926.278 805.92C918.142 819.94 900.367 825.04 885.361 826.178L884.826 826.217C869.327 827.301 846.994 827.008 836.367 813.553C826.116 800.575 837.446 790.067 849.064 784.361C846.04 781.567 844.473 777.56 845.946 773.335C848.532 765.908 857.661 763.038 862.82 757.876C869.109 751.58 873.264 742.945 871.607 733.918" fill="#231F20"/>
<path fill-rule="evenodd" clip-rule="evenodd" d="M879.929 744.641C878.271 752.061 874.2 758.848 868.529 764.226C866.36 766.282 863.988 768.113 861.467 769.687L861.164 769.868C858.927 771.161 853.429 773.585 853.853 776.488C854.288 779.47 863.246 784.139 865.687 784.142C866.242 784.142 866.557 785.036 865.99 785.295C861.565 787.308 857.701 788.171 853.374 786.044C850.483 789.084 847.675 792.23 844.894 795.349C839.975 800.867 841.658 806.694 847.47 810.802C856.809 817.404 871.004 817.243 881.899 816.763C892.866 816.281 904.588 813.761 913.155 806.235L913.528 805.901C918.183 801.635 922.436 794.406 915.306 790.298C912.514 788.689 909.498 788.784 906.847 788.002C904.366 793.011 900.342 797.024 895.432 797.798C891.463 798.423 888.73 793.284 892.34 790.827L893.151 790.307C897.684 787.327 901.552 782.736 901.45 776.758C901.38 772.607 895.754 767.366 892.089 771.265L891.921 771.452C888.855 775.013 883.453 770.525 885.47 766.579L885.567 766.4" fill="#231F20"/>
<path fill-rule="evenodd" clip-rule="evenodd" d="M1081.34 585.883L1078.34 602.62C1077.63 602.854 1076.9 603.052 1076.17 603.214C1075.22 613.192 1074.11 623.181 1072.86 633.178L1054.25 736.96C1051.04 755.321 1047.99 773.721 1044.97 792.127L1040.96 811.898L1038.48 824.185C1033.12 850.796 1027.91 877.32 1023.34 903.697C1024.03 904.69 1024.57 905.767 1024.96 906.898L1024.61 908.385L1024.36 909.376L1024.11 910.356C1020.51 924.22 1014.24 937.664 999.455 941.744C988.305 944.819 976.072 945.098 964.559 946.312L963.283 946.451L761.828 969.119C737.486 971.857 713.155 974.678 688.827 977.529L667.737 980.003C638.341 983.409 608.776 986.09 579.813 992.255C578.749 992.482 577.867 992.907 577.148 993.467C582.981 971.377 588.564 949.317 593.623 927.004C599.319 901.892 604.724 876.73 610.815 851.708C623.087 801.299 636.844 751.22 651.903 701.572C655.064 691.152 658.297 680.752 661.601 670.377L663.92 663.125L665.704 657.345C668.466 648.533 671.883 639.476 679.98 634.616C689.456 628.926 702.379 627.983 713.126 626.016L720.404 624.648C731.294 622.615 742.197 620.66 753.113 618.782C805.377 609.787 857.938 602.572 910.692 597.153C965.587 591.512 1020.67 587.847 1075.83 586.056L1081.34 585.883ZM581.323 931.916L581.837 931.959L574.312 992.146C573.109 991.303 571.581 990.787 569.717 990.792C545.034 990.865 521.373 982.971 498.487 974.294L495.002 972.965L485.285 969.229C475.409 965.442 465.479 961.74 455.364 958.669L451.276 957.434L449.197 956.82C441.539 954.583 433.483 952.55 425.517 952.044L424.432 951.984L426.751 950.767C427.09 950.589 427.388 950.389 427.652 950.174C432.037 950.499 436.43 950.411 441.055 949.576C449.753 948.01 458.211 944.982 465.977 940.767L469.446 938.886L470.866 938.132L471.804 937.646L472.737 937.174C479.407 933.847 485.785 931.764 494.207 933.536C503.767 935.549 512.146 940.704 520.764 945.061L522.294 945.823L523.322 946.32L524.37 946.814L525.431 947.299C537.086 952.546 555.634 958.209 560.102 942.354C561.898 935.984 560.492 930.02 557.377 924.79C563.182 924.287 573.552 931.135 581.323 931.916ZM871.428 733.616L871.568 734.338C873.216 743.214 869.083 751.706 862.829 757.896C857.699 762.973 848.62 765.795 846.048 773.098C844.584 777.253 846.142 781.194 849.149 783.941L848.457 784.283L847.779 784.63L847.118 784.98L846.473 785.332L845.846 785.687C835.628 791.56 827.307 801.111 836.523 812.648C846.976 825.735 868.819 826.159 884.209 825.135L885.246 825.062C900.169 823.943 917.845 818.927 925.937 805.141C929.648 798.817 929.24 791.168 924.067 785.755C920.945 782.49 915.378 779.137 910.273 778.74C910.496 775.862 910.154 773.082 909.142 770.736C906.954 765.666 901.131 762.251 895.514 762.128C895.969 751.361 887.35 740.732 881.003 732.125L880.355 731.241L879.726 730.373C876.814 726.319 870.583 728.59 871.428 733.616ZM879.946 745.076L885.729 766.748L885.629 766.927C883.593 770.797 888.932 775.19 892.099 771.938L892.418 771.594C896.176 767.71 901.946 772.931 902.017 777.065C902.12 782.884 898.334 787.383 893.823 790.356L893.507 790.56L892.675 791.077C888.973 793.525 891.776 798.644 895.846 798.021C900.881 797.25 905.008 793.253 907.552 788.264C910.271 789.043 913.365 788.949 916.228 790.551C923.442 794.588 919.293 801.651 914.595 805.92L914.404 806.091L914.022 806.425C905.402 813.779 893.667 816.334 882.605 816.881L881.967 816.91C870.793 817.389 856.235 817.549 846.658 810.973C840.698 806.881 838.972 801.078 844.016 795.581C846.868 792.475 849.748 789.342 852.713 786.313C857.15 788.432 861.113 787.573 865.651 785.568C866.233 785.31 865.91 784.419 865.34 784.419C862.837 784.417 853.65 779.767 853.204 776.796C852.791 774.046 857.873 771.727 860.344 770.399L860.702 770.202L861.013 770.022C863.598 768.455 866.031 766.631 868.255 764.583C873.9 759.384 878 752.863 879.79 745.727L879.946 745.076Z" fill="white"/>
<path fill-rule="evenodd" clip-rule="evenodd" d="M627.339 251.605C623.45 220.56 611.236 187.599 598.391 158.656C569.507 97.4639 503.382 89.0389 444.103 76.4222C385.606 67.9014 323.662 60.2076 266.048 77.2083C233.658 85.1474 221.007 123.744 226.119 154.202C229.036 173.181 237.671 191.144 245.034 208.734C259.668 244.856 268.953 283.529 268.969 322.639C267.965 348.197 264.359 377.369 293.714 388.194C321.648 402.093 324.008 439.769 358.985 461.145C373.128 489.809 411.654 492.332 439.383 498.981C456.908 502.337 474.632 504.807 492.404 506.402C543.863 513 585.03 498.08 611.968 452.215C629.994 424.302 643.418 392.071 640.101 358.242C636.799 322.618 631.296 287.181 627.339 251.605Z" fill="#D08B5B"/>
<path fill-rule="evenodd" clip-rule="evenodd" d="M444.548 2.05279C447.485 -1.27798 452.01 -0.135583 454.757 2.49821C456.545 3.02539 458.277 3.80935 459.914 4.84694C463.611 4.37216 467.488 4.37216 471.115 4.50527C471.995 4.01163 472.937 3.57249 473.964 3.19518C481.296 0.513172 487.79 1.87566 493.146 5.46635C495.726 3.02435 498.98 1.49207 503.141 1.72369C506.854 1.93121 509.5 3.67939 511.768 5.982C514.03 2.71936 517.685 0.391596 522.24 0.0677427C528.606 -0.385023 534.725 2.16912 539.797 6.12349C542.752 2.73193 546.781 0.782526 551.27 0.763661C554.224 0.227049 557.342 0.438759 560.158 1.28979C564.248 2.52546 567.839 4.84065 570.698 7.84546C575.222 3.51065 580.761 0.391596 587.146 0.846458C595.411 1.44386 602.262 7.52371 605.446 15.0069C611.04 17.2487 616.204 20.4464 620.519 25.0055C620.75 25.2455 620.97 25.497 621.2 25.7496C623.526 26.608 625.715 27.8248 627.643 29.4273C633.749 34.5115 635.111 41.8689 633.089 49.0786C633.372 50.2325 633.613 51.4064 633.833 52.5791C639.553 53.449 644.748 56.7515 647.702 62.1281C651.745 69.5065 650.949 79.2315 646.571 86.2756C644.688 89.3056 642.299 91.8587 639.615 94.0911C642.65 100.987 641.194 109.217 636.301 114.795C635.109 116.718 633.646 118.453 631.999 120.024C633.816 127.154 630.584 134.511 624.131 138.321L623.579 139.703C623.487 139.932 623.392 140.161 623.295 140.387C623.224 140.681 623.136 140.965 623.049 141.251C622.895 143.781 622.062 146.264 620.41 148.603C617.025 153.397 612.831 156.524 610.607 162.12L610.384 162.708C609.428 165.357 606.34 167.225 603.708 166.408C618.318 196.426 625.977 229.826 631.235 262.56C633.857 278.89 635.881 295.276 637.522 311.726L639.132 328.107C640.547 342.667 641.807 357.275 641.815 371.884C641.836 404.931 632.388 436.717 612.108 463.014C592.928 487.874 565.788 505.89 535.127 512.985C503.472 520.301 466.338 517.419 437.951 500.671C429.581 495.746 436.914 483.901 445.43 487.864C461.551 495.368 477.934 500.944 495.804 502.191C513.224 503.416 530.686 501.237 547.205 495.535C574.534 486.093 597.789 466.316 612.737 441.686C620.1 429.549 625.432 416.375 628.271 402.456C631.805 385.108 631.272 367.176 629.974 349.606L629.884 348.408C627.318 314.554 623.934 280.492 618.466 246.976C613.633 217.338 606.201 188.3 596.553 159.905C592.773 156.576 588.546 153.822 584.021 151.73C550.892 150.345 517.703 150.75 484.617 153.037C456.399 155 428.319 158.321 400.45 163.162L397.465 163.686C391.295 164.785 384.444 165.414 378.631 167.899C373.645 170.037 371.623 174.146 370.366 179.196C367.203 191.972 366.721 205.955 366.187 219.055C365.663 231.862 366.846 244.775 365.82 257.54C364.95 268.219 362.217 279.151 354.308 286.876C350.17 290.921 345.079 293.132 340.303 296.203C337.213 298.185 335.903 300.227 336.301 303.896C337.16 311.924 343.623 322.038 336.364 328.913C335.086 330.118 332.876 330.276 331.619 328.913C328.623 325.655 324.486 323.17 320.935 320.539C319.447 319.45 320.683 317.333 322.37 318.086C324.59 319.083 326.853 320.257 329.168 321.284C324.056 317.071 316.786 315.005 310.732 313.779C307.684 313.171 304.478 312.993 301.304 313.277C298.958 314.397 296.559 315.436 294.16 316.451C291.112 317.731 288.033 318.893 284.932 319.995C274.174 328.766 269.041 343.032 271.283 356.981C272.509 364.684 276.06 373.059 282.753 377.555C290.683 382.879 301.304 380.593 309.873 384.546C317.897 388.244 322.778 395.718 326.434 403.453L327.958 406.673C331.351 413.803 334.839 420.743 339.475 427.232C344.838 434.747 351.406 441.497 358.571 447.293C362.047 450.099 365.752 452.622 369.581 454.921L370.628 455.542C374.504 457.816 377.28 459.985 377.541 464.795C377.625 466.472 376.567 468.002 375.206 468.872C369.34 472.593 363.505 467.939 358.624 464.69C353.355 461.19 348.316 457.25 343.655 452.953C334.793 444.799 327.125 435.115 321.228 424.602C316.734 416.596 314.178 405.329 307.076 399.124C302.739 395.34 296.612 395.309 291.196 394.616C286.158 393.968 281.391 392.92 276.908 390.436C258.671 380.301 253.517 355.766 257.844 336.806C258.577 333.608 259.603 330.496 260.871 327.498C254.083 328.63 246.457 321.609 249.212 314.523C249.422 313.989 249.663 313.486 249.893 312.972C245.42 310.027 241.89 305.563 240.214 299.724C239.355 296.706 239.23 293.656 239.68 290.711C237.512 289.255 235.72 287.252 234.568 284.789C230.965 283.123 227.77 280.63 225.863 277.066C223.224 272.15 223.559 267.622 225.57 263.545C225.287 263.032 225.015 262.508 224.753 261.973C217.368 257.289 212.215 249.218 212.801 240.267C212.99 237.301 213.723 234.629 214.854 232.219C214.76 231.915 214.666 231.6 214.582 231.296C208.402 228.152 203.29 222.986 201.467 216.089C199.645 209.15 201.792 202.233 206.087 196.909C199.802 192.309 196.02 185.884 198.314 176.167C199.246 172.217 201.121 168.621 203.656 165.592C203.646 165.499 203.625 165.405 203.604 165.309L203.016 164.853C195.257 158.727 190.797 150.92 195.559 141.319C197.696 137.002 200.744 133.993 204.327 132.012L204.505 131.446V131.446C201.939 125.944 201.069 119.834 202.839 113.409C204.285 108.117 207.71 103.903 212.089 101.106C211.796 98.7361 211.837 96.2113 212.309 93.4748C213.094 88.8539 215.388 84.8188 218.74 81.9576C218.866 81.3486 219.023 80.7523 219.201 80.1538C220.333 76.4971 222.449 72.5249 224.9 69.5788C226.921 67.1368 229.184 66.246 231.949 66.1516C231.782 63.8993 231.897 61.6135 232.358 59.2973C233.772 52.1505 238.318 45.4313 245.054 42.3814C247.819 41.1342 250.731 40.7685 253.538 41.0713C255.927 36.0406 260.588 32.3944 266.318 31.6083C268.549 31.2939 270.623 31.3138 272.53 31.5979C273.608 31.0937 274.729 30.6441 275.903 30.2343C276.678 29.9618 277.463 29.7103 278.249 29.4598C280.899 26.1689 284.387 23.5372 288.462 21.9556C293.165 20.1215 297.952 20.3091 302.195 21.8498L303.546 21.5668V21.5668C305.662 17.8985 309.035 15.0583 314.22 13.7691C320.107 12.3123 326.151 14.3456 330.781 18.0463C330.802 18.0463 330.823 18.0463 330.854 18.0348C333.274 12.6163 337.412 8.84322 344.357 9.10524C348.683 9.27293 352.59 11.4225 355.607 14.4829C357.283 14.2722 358.959 14.0836 360.645 13.896C362.426 11.8093 364.406 9.8609 366.595 8.11062C370.178 5.23787 374.839 5.46949 377.479 9.51399C378.055 10.3944 378.589 11.2852 379.123 12.1761L381.543 12.0084V12.0084C384.392 8.16198 388.278 5.56277 393.6 5.3542C398.481 5.15402 401.959 7.54467 404.609 10.887C406.767 10.8346 408.935 10.7937 411.103 10.7612C413.628 7.83708 416.603 5.25883 419.997 3.12077C422.594 1.48578 426.428 2.04231 428.534 4.22229C429.956 5.70426 431.28 7.25121 432.511 8.85266C435.684 5.29342 439.969 2.94888 444.548 2.05279ZM290.379 334.867C295.271 332.079 301.849 335.097 306.584 337.466C312.356 340.348 318.086 344.698 321.616 350.148C326.424 357.568 315.121 363.563 310.062 356.908C306.951 352.81 304.468 348.68 300.697 345.096C297.251 341.805 292.254 339.604 290.274 335.265C290.201 335.118 290.222 334.951 290.379 334.867ZM293.816 154.755L293.907 154.493C295.298 150.686 289.227 149.045 287.847 152.821C285.756 158.544 288.167 164.767 293.817 167.238C295.383 167.923 297.172 167.685 298.116 166.11C298.909 164.784 298.541 162.487 296.989 161.809C293.81 160.418 292.745 157.963 293.816 154.755V154.755ZM241.512 144.108C244.551 141.425 240.091 136.991 237.067 139.662C234.245 142.154 232.152 145.54 232.696 149.433C233.25 153.401 236.241 156.203 239.514 158.183C242.984 160.282 246.146 154.847 242.686 152.753L242.297 152.515C240.845 151.612 239.145 150.371 238.899 148.596C238.638 146.709 240.234 145.237 241.512 144.108ZM258.762 96.7649L258.977 96.6065C262.241 94.2755 259.106 88.8193 255.804 91.1764C252.777 93.3386 250.349 96.1474 250.093 100.021C249.845 103.786 251.76 107.049 254.263 109.698C257.049 112.644 261.488 108.192 258.708 105.252C255.999 102.387 255.47 99.2602 258.762 96.7649V96.7649Z" fill="black"/>
<path fill-rule="evenodd" clip-rule="evenodd" d="M632.825 311.756C620.108 324.904 598.877 328.677 581.957 321.625C538.511 303.463 559.776 246.815 593.282 231.602C597.468 230.559 603.058 228.082 608.157 227.52C608.618 227.294 609.621 227.949 610.837 227.33C647.784 231.457 656.197 288.841 632.825 311.756M492.693 315.121C478.429 334.05 451.911 339.89 430.244 331.09C387.441 314.225 402.623 263.992 431.907 244.299C493.77 221.041 519.315 280.219 492.693 315.121M399.905 273.179C399.866 273.161 399.826 273.151 399.785 273.132C400.011 273.033 400.237 272.933 400.463 272.831C400.389 273.023 400.31 273.213 400.238 273.405C400.127 273.328 400.03 273.239 399.905 273.179M662.273 252.718C658.78 252.725 653.735 253.3 650.844 255.724C643.715 231.667 617.4 209.403 594.514 225.638C576.492 231.437 563.118 244.298 555.518 261.396C541.813 253.24 520.264 256.723 508.38 267.508C500.597 241.777 481.443 232.767 458.644 231.437C433.759 227.359 408.957 251.539 401.218 270.937C394.783 270.204 385.168 268.155 379.115 272.128C339.826 261.819 271.136 256.136 263.149 261.863C257.457 264.049 254.333 277.491 262.284 278.216C269.212 277.232 261.475 268.367 268.459 267.399C305.669 265.091 341.792 272.589 378.609 275.736C381.896 280.16 392.516 281.639 398.182 279.862C389.259 312.767 408.522 335.154 437.386 341.859C482.08 352.131 520.964 312.129 509.277 270.52C522.816 263.781 538.389 264.071 553.138 267.62C528.492 358.373 674.573 354.301 651.758 258.833C666.941 266.39 670.239 254.243 662.273 252.718" fill="black"/>
<path fill-rule="evenodd" clip-rule="evenodd" d="M550.661 406.564C543.551 409.36 535.152 410.021 527.814 407.638C520.797 405.359 514.426 400.288 510.571 393.91C507.137 388.23 505.703 381.488 507.733 374.768C507.83 374.446 508.145 374.241 508.448 374.16C510.109 375.673 511.134 377.175 512.159 378.669C513.887 381.189 515.619 383.683 517.996 385.838C521.454 388.972 526.114 391.518 530.738 392.357C535.266 393.181 539.9 392.453 543.955 390.284C546.42 388.967 548.414 387.205 550.388 385.435C552.538 383.507 554.653 381.551 557.614 380.462C559.986 379.59 562.478 380.326 564.393 381.785C566.45 383.353 567.93 385.808 567.848 388.375C567.721 392.351 565.981 395.668 563.457 398.405C560.044 402.105 555.219 404.771 550.661 406.564ZM542.22 307.469C550.131 312.279 562.183 323.497 553.674 335.423C543.657 345.939 529.236 333.882 522.129 328.429C515.54 324.203 508.136 335.072 514.25 340.007C565.602 378.047 586.442 308.727 546.221 301.812C541.793 301.051 540.148 305.98 542.22 307.469ZM459.021 240.813C469.802 240.297 479.303 245.141 489.577 247.342C499.072 249.377 508.426 248.155 517.659 245.567C532.645 241.365 538.84 264.318 524.059 268.791C513.294 272.048 501.961 272.275 490.915 270.596C481.103 269.103 472.878 264.324 463.523 261.541C455.494 259.155 446.049 260.147 437.571 261.27L434.279 261.713C429.388 262.372 424.47 263.034 419.626 263.991C415.423 264.822 411.228 266.343 406.939 266.519C406.452 266.54 406.039 265.907 406.346 265.484C411.329 258.64 420.932 253.239 428.571 249.637L429.089 249.394C438.519 244.996 448.522 241.314 459.021 240.813ZM455.072 291.283L455.07 291.047C455.085 284.364 458.975 269.104 468.592 269.104C474.599 269.104 478.246 279.489 478.878 290.195L478.9 290.631C479.178 297.287 477.353 311.835 468.592 311.835C459.738 311.835 455.163 298.056 455.072 291.283V291.283ZM596.647 291.283L596.648 291.047C596.633 284.364 592.743 269.104 583.127 269.104C577.27 269.104 573.656 278.976 572.894 289.393L572.841 290.195C572.462 296.626 574.169 311.835 583.127 311.835C591.981 311.835 596.556 298.056 596.647 291.283V291.283ZM596.499 232.673L597.187 232.688C608.425 233.078 619.984 239.738 622.984 250.926C623.139 251.507 622.424 251.898 621.999 251.5C612.759 242.844 600.332 251.115 591.08 255.45L587.681 257.021C575.753 262.573 562.187 269.101 548.942 264.963C542.652 262.998 538.657 256.531 540.451 250C542.048 244.188 549.059 239.304 555.131 241.402L555.407 241.502C560.34 243.39 566.407 241.477 571.502 239.591L575.688 238.018C582.419 235.463 589.18 232.604 596.499 232.673V232.673Z" fill="black"/>
</g>
</svg>
