<svg width="1100" height="1100" viewBox="0 0 1100 1100" fill="none" xmlns="http://www.w3.org/2000/svg">
<mask id="mask0_1951_31655" style="mask-type:alpha" maskUnits="userSpaceOnUse" x="0" y="0" width="1100" height="1100">
<rect width="1100" height="1100" fill="#D9D9D9"/>
</mask>
<g mask="url(#mask0_1951_31655)">
<rect x="603.25" y="812.033" width="267.909" height="330.15" fill="#FDEA6B"/>
<path fill-rule="evenodd" clip-rule="evenodd" d="M525.107 489.111C553.986 467.105 626.489 457.208 657.311 478.398C687.755 499.676 691.073 534.086 705.26 565.74C718.645 559.424 740.748 568.47 744.629 580.899C749.442 586.761 749.658 603.23 752.977 611.11C897.393 634.114 919.318 746.785 936.7 874.698C959.696 1004.5 1011.9 1134.01 989.236 1267.58C992.189 1271.85 994.517 1276.01 996.67 1280.95C1001.83 1289.73 995.184 1302.16 984.78 1301.68C971.313 1300.5 957.98 1298.88 944.45 1298.38C906.943 1297.07 869.402 1297.23 831.881 1297.7L826.764 1297.77C637.669 1300.13 448.584 1304.77 259.48 1306C252.62 1306.01 249.261 1299.85 250.177 1293.78C252.022 1281.55 253.733 1269.32 255.52 1257.08C210.792 1268.9 163.242 1271.88 118.641 1258.33C115.521 1255.14 125.911 1256.87 127.559 1256.39C86.5116 1228.32 98.7698 1169.19 102.406 1126.6C125.016 980.663 132.986 819.196 220.342 694.668C258.133 643.848 313.539 603.612 377.204 594.559L378.97 594.317C397.586 591.833 418.333 591.033 434.609 580.899C452.915 566.275 460.716 539.253 479.974 539C486.333 538.917 494.984 546.967 504.293 552.433C504.988 540.409 511.464 530.261 512.893 520.938L513.009 520.141C514.501 509.272 512.458 499.493 525.107 489.111ZM835.47 878.553C794.885 850.339 690.046 864.516 687.646 866.095C682.361 869.574 680.086 869.881 677.228 874.398C674.406 874.773 671.586 875.161 668.769 875.562C663.118 877.409 667.306 884.366 673.834 881.884C669.907 898.83 681.463 910.881 686.063 927.633C687.557 933.073 686.117 942.856 686.063 948.414C686.509 955.5 694.338 963.871 693.033 970.98C688.394 996.255 663.22 1020.91 673.834 1045.42C680.865 1059.27 702.012 1066.33 716.072 1071.03C745.202 1082.22 795.957 1070.61 812.882 1045.42C821.91 1031.99 832.369 998.097 837.751 987.585L838.944 970.91C841.887 929.457 844.504 884.834 835.47 878.553Z" fill="#D08B5B"/>
<path fill-rule="evenodd" clip-rule="evenodd" d="M478.473 539.075L490.087 546.208L557.542 579.576C570.619 583.24 577.158 587.632 577.158 592.75V644.871C577.158 651.846 589.429 667.653 613.973 692.293L636.648 669.673L636.141 666.711C633.983 653.95 632.904 645.413 632.904 641.102C632.904 636.465 655.087 618.862 699.454 588.294L718.864 570.007L716.795 563.708C728.763 564.274 741.741 571.65 744.629 580.898C749.442 586.76 749.658 603.23 752.977 611.11C897.393 634.114 919.318 746.785 936.7 874.698C959.696 1004.5 1011.9 1134.01 989.236 1267.58C992.189 1271.85 994.517 1276.01 996.67 1280.95C1001.83 1289.73 995.184 1302.16 984.78 1301.68C971.313 1300.5 957.98 1298.88 944.45 1298.38C906.943 1297.07 869.402 1297.23 831.881 1297.7L826.764 1297.77C637.669 1300.13 448.584 1304.77 259.48 1306C252.62 1306.01 249.261 1299.85 250.177 1293.78C252.022 1281.55 253.733 1269.32 255.52 1257.08C210.792 1268.9 163.242 1271.88 118.641 1258.33C115.521 1255.14 125.911 1256.87 127.559 1256.39C86.5116 1228.32 98.7698 1169.19 102.406 1126.6C125.016 980.663 132.986 819.196 220.342 694.668C258.133 643.848 313.539 603.612 377.204 594.559L378.97 594.317L380.75 594.085C398.899 591.773 418.85 590.711 434.609 580.898C452.432 566.66 460.297 540.671 478.473 539.075ZM640.103 844.997C633.487 844.997 619.938 855.279 599.454 875.842L597.65 876.676C572.889 888.186 556.486 898.17 548.44 906.628L548.152 906.933C540.024 915.659 523.928 938.863 499.864 976.545L465.017 997.168H451.831L442.444 1065.31L465.017 1113.96L516.146 1096.73L599.454 1074.76L647.259 1026.22L674.226 1017.16C670.954 1026.62 669.768 1036.03 673.834 1045.42C680.865 1059.27 702.012 1066.33 716.072 1071.03C745.202 1082.22 795.957 1070.61 812.882 1045.42C821.91 1031.99 832.369 998.097 837.751 987.585L839.295 965.923C842.077 925.949 844.142 884.582 835.47 878.553C794.885 850.339 690.046 864.515 687.646 866.095C682.361 869.574 680.086 869.881 677.228 874.398L675.748 874.596L684.068 863.304L681.122 861.73C660.102 850.575 646.429 844.997 640.103 844.997ZM673.834 881.884C670.075 898.107 680.505 909.844 685.438 925.515L672.834 901.37L672.834 882.197C673.16 882.117 673.494 882.013 673.834 881.884Z" fill="#9DDADB"/>
<path fill-rule="evenodd" clip-rule="evenodd" d="M472.903 536.555C475.705 534.072 479.852 537.192 478.071 540.546C474.07 548.085 469.966 555.227 464.596 561.891C461.34 565.932 457.853 569.753 454.318 573.532C463.389 581.384 471.167 591.133 478.513 600.269C487.906 611.955 496.787 624.135 507.331 634.827C517.731 645.373 529.229 652.744 543.132 657.659L545.94 658.635C559.906 663.542 574.834 670.168 582.706 683.402C584.259 686.011 581.133 689.235 578.505 687.607C564.825 679.131 548.752 677.426 533.861 671.825C519.477 666.415 506.938 658.089 495.859 647.462C484.799 636.853 475.512 624.782 465.826 612.967C456.246 601.285 445.932 591.306 434.602 581.422C417.117 593.193 397.158 598.315 376.864 603.345L374.649 603.894C354.33 608.928 334.12 614.775 315.057 623.542C298.25 631.27 281.72 640.499 268.029 653.075C253.497 666.421 242.186 683.467 231.834 700.137C208.677 737.433 192.396 778.292 178.064 819.647C163.157 862.662 150.688 906.539 140.622 950.938C135.502 973.521 131.345 996.265 127.927 1019.17C126.282 1030.2 124.821 1041.25 123.538 1052.33C122.168 1064.16 121.853 1076.33 118.226 1087.71C116.672 1092.58 113 1094.61 109.326 1094.43L108.579 1103.78C107.59 1116.23 106.667 1128.69 106.355 1141.22C105.838 1162.06 106.073 1182.83 107.571 1203.63L107.783 1206.46C108.96 1221.64 111.59 1238.69 122.993 1249.8C134.802 1261.31 152.962 1264.93 168.879 1265.13C205.95 1265.62 241.634 1248.09 274.438 1232.71C308.223 1216.87 341.084 1199.3 373.158 1180.23C389.493 1170.52 405.65 1160.49 421.602 1150.17C429.43 1145.1 437.203 1139.94 444.917 1134.71C449.336 1131.71 453.523 1128.42 458.021 1125.76C455.817 1123.7 454.833 1120.48 456.679 1117.66C443.676 1106.36 438.264 1086.2 437.631 1069.89C437.12 1056.73 439.056 1043.6 440.584 1030.56C441.355 1023.98 442.307 1017.42 443.295 1010.87C443.686 1008.29 443.985 1005.52 444.441 1002.79C409.328 1022.1 373.232 1039.3 336.18 1054.57C317.188 1062.4 297.952 1069.44 278.451 1075.9L274.498 1077.2C256.021 1083.25 237.101 1088.97 218 1092.43C216.978 1092.61 216.149 1091.1 217.239 1090.62C235.855 1082.4 255.115 1075.47 274.01 1067.9L277.115 1066.64V1066.64C276.758 1066.62 276.388 1066.57 276.002 1066.47C264.921 1063.8 253.926 1059.67 243.058 1056.2C232.971 1052.98 221.638 1050.95 212.21 1046.09C211.484 1045.71 211.89 1044.7 212.597 1044.66C223.194 1043.92 234.698 1047.01 245.088 1048.83L248.991 1049.51C255.529 1050.67 262.213 1051.91 268.72 1053.53C268.955 1051.34 270.173 1049.15 271.905 1047.87C290.971 1033.74 289.035 1005.2 291.074 984.157L292.586 968.534C295.246 941.191 298.06 913.851 302.335 886.713C302.563 885.264 304.803 885.679 304.812 887.048C305.033 920.689 302.495 954.175 301.223 987.763L301.026 993.273C300.323 1014 299.772 1035.52 286.728 1051.47C288.552 1050.4 291.018 1050.4 292.496 1052.16C294.311 1054.32 295.36 1056.75 295.327 1059.13C307.114 1054.19 318.849 1049.11 330.527 1043.94C368.073 1027.29 404.831 1008.66 440.618 988.507C444.469 986.337 448.13 988.042 450.034 990.902L450.309 990.863C450.355 990.856 450.401 990.852 450.449 990.851L450.722 990.839C450.733 990.839 450.743 990.84 450.752 990.84C455.79 988.07 462.653 990.043 466.976 994.083C467.103 994.205 467.212 994.336 467.325 994.465C472.798 992.006 477.908 988.687 482.546 984.481C492.036 975.873 500.075 965.23 507.082 954.557C519.988 934.901 530.95 913.042 548.382 896.861C562.546 883.715 580.107 875.53 598.529 870.392C598.452 869.853 598.658 869.279 599.03 868.898C599.976 867.927 600.651 867.591 601.874 868.18C601.971 868.228 602.03 868.294 602.069 868.364L603.867 865.29C604.848 863.622 605.856 861.942 606.205 861.501C608.297 858.866 610.449 856.25 612.635 853.69C616.34 849.354 620.562 845.077 625.451 842.07C636.156 835.489 647.409 839.214 658.414 842.81C665.064 844.984 671.692 847.228 678.33 849.435L679.014 849.659C683.964 851.25 689.756 852.643 691.97 857.89C692.846 859.967 692.982 862.123 692.573 864.214C739.585 852.25 791.8 857.746 837.676 871.791C839.436 872.329 841.195 873.779 841.566 875.682C846.822 902.657 849.163 930.321 846.785 957.756C844.733 981.438 839.489 1004.65 829.608 1026.33L829.046 1027.55C819.76 1047.64 805.042 1072.41 782.565 1078.71C768.993 1082.51 753.982 1080.27 740.139 1079.57C726.687 1078.9 712.936 1078.8 699.61 1076.68C687.743 1074.8 677.345 1069.47 670.011 1059.82C663.684 1051.49 660.352 1041.42 657.622 1031.4C656.373 1031.8 655.132 1032.22 653.91 1032.7C648.754 1034.72 644.386 1037.97 640.436 1041.8C632.096 1049.88 625.627 1059.69 616.9 1067.41C609.001 1074.39 600 1079.82 590.345 1083.99C570.338 1092.65 548.875 1096.1 527.712 1100.69L526.236 1101.01C510.304 1104.51 494.043 1108.8 479.98 1117.1C479.705 1119.55 478.593 1121.85 476.81 1123.35C479.29 1125.68 480.341 1129.37 478.161 1132.84C472.073 1142.51 461.586 1148.01 452.172 1154.19L451.56 1154.59C442.299 1160.74 432.957 1166.76 423.539 1172.66C404.394 1184.66 384.848 1195.99 365.026 1206.83C333.145 1224.26 300.58 1240.7 267.425 1255.61C269.415 1265.41 268.687 1275.51 270.183 1285.37L270.413 1286.78C271.051 1290.44 270.188 1293.5 267.669 1295.89L267.402 1296.14L267.407 1296.11L267.171 1296.32L267.092 1296.39L267.118 1296.37C266.828 1296.63 266.528 1296.88 266.223 1297.09L265.834 1297.34V1297.34C263.407 1298.82 260.283 1298.8 257.798 1297.5L257.514 1297.34L257.037 1297.07C253.754 1295.18 251.49 1290.5 252.852 1286.78C256.199 1277.64 257.464 1267.88 260.555 1258.68L258.103 1259.78V1259.78L254.871 1261.19C219.916 1276.31 181.089 1289.05 143.004 1278.74C126.176 1274.18 110.448 1264.54 102.028 1248.83C93.7426 1233.37 92.5715 1215.42 92.1316 1198.22C91.5888 1176.99 92.7259 1155.44 95.5232 1134.4C97.4009 1120.27 99.6717 1105.88 103.174 1091.9C101.373 1090.31 100.048 1088.02 99.6986 1085.2C98.0455 1071.84 100.939 1057.96 102.71 1044.68C104.44 1031.71 106.352 1018.77 108.514 1005.86C112.879 979.803 117.95 953.799 123.855 928.045C134.363 882.209 148.239 837.188 164.945 793.243L166.408 789.415C181.846 749.248 199.72 709.938 224.61 674.651C236.516 657.769 249.102 642.463 265.925 630.298C281.686 618.9 299.464 610.693 317.81 604.42C336.176 598.142 355.054 593.936 374.265 591.319C393.776 588.662 414.37 587.032 432.57 579.024C430.267 574.894 432.243 569.317 436.118 566.756C449.158 558.134 461.216 546.919 472.903 536.555ZM890.333 911.452C890.879 910.622 892.177 911.147 891.937 912.129C885.595 938.13 879.641 964.184 875.753 990.681C868.736 1038.51 870.027 1086.95 870.6 1135.13L870.629 1137.62C870.924 1163.58 871.334 1189.53 872.191 1215.47C872.624 1228.58 873.48 1241.82 873.015 1254.93C872.761 1262.05 870.866 1268.78 870.194 1275.81C869.606 1281.96 870.13 1288.2 870.423 1294.36C870.62 1298.45 864.583 1298.28 864.173 1294.36L863.647 1289.29C862.965 1282.87 862.122 1276.5 860.022 1270.36C857.496 1262.98 856.284 1255.72 855.408 1247.97C854.065 1236.09 853.469 1224.09 852.95 1212.13L852.596 1203.85C850.433 1153.86 850.509 1103.63 854.011 1053.69L854.267 1050.12C857.735 1002.91 863.751 951.901 890.333 911.452ZM755.144 613.912C753.488 613.23 754.068 610.724 755.902 611.16L759.238 611.957C783.683 617.816 807.684 624.164 830.5 635.067C853.331 645.976 872.66 662.262 888.019 682.289C917.875 721.217 930.282 768.527 940.076 815.792C950.961 868.313 960.871 921.026 971.851 973.53L973.89 983.31C984.049 1032.21 993.641 1081.14 1000.71 1130.62L1001.22 1134.21C1008.34 1185.09 1012.63 1237.74 1004.85 1288.75C1003.32 1298.84 986.532 1296.33 987.188 1286.36C989.084 1257.53 990.441 1228.86 989.129 1199.96C987.817 1171.07 985.108 1142.3 981.071 1113.65C977.673 1089.55 972.608 1065.74 968.126 1041.83L967.424 1038.05C963.671 1017.71 959.802 997.389 955.941 977.068L950.172 946.642C941.525 901.085 932.709 855.488 922.747 810.217L922.156 807.553C912.408 763.999 898.035 718.376 868.794 683.79C839.119 648.69 796.639 631.013 755.144 613.912ZM647.318 1075.88C648.031 1074.29 650.528 1074.47 651.295 1075.88C654.302 1081.44 654.637 1088.52 655.205 1094.79L655.265 1095.44C655.988 1103.09 656.628 1110.76 657.02 1118.43C657.762 1133 658.118 1147.54 658.073 1162.12C658.026 1177.06 657.725 1191.99 656.92 1206.91L656.702 1210.91C655.967 1223.88 654.735 1238.34 648.578 1249.68C646.34 1253.8 640.252 1252.59 638.956 1248.42C634.709 1234.77 636.89 1218.59 637.979 1204.62L638.825 1193.71C639.663 1182.8 640.461 1171.89 641.095 1160.97C641.963 1146.03 642.679 1131.08 643.368 1116.13C643.592 1111.28 643.834 1106.42 644.09 1101.57L644.483 1094.29C644.819 1088.2 644.791 1081.51 647.318 1075.88ZM169.823 1095.22L171.703 1093.41C177.474 1087.76 184.767 1079.05 193.298 1079.59C196.701 1079.81 198.868 1082.63 198.163 1085.98C196.656 1093.14 189.357 1096.86 184.103 1101.23C178.347 1106.02 172.922 1111.13 167.508 1116.3C162.705 1120.88 158.085 1125.59 153.576 1130.45L151.891 1132.28C150.275 1134.04 138.766 1144.46 140.011 1147.16L140.078 1147.29C140.425 1147.8 139.848 1148.51 139.273 1148.33C134.304 1146.76 134.614 1142.5 136.492 1138.18C140.103 1129.88 146.425 1122.21 151.946 1115.12C157.452 1108.05 163.411 1101.47 169.823 1095.22V1095.22ZM665.326 887.122C661.483 878.032 647.326 878.223 639.289 878.766C619.049 880.135 597.151 885.259 579.143 894.725C560.473 904.54 547.896 920.265 536.644 937.654L536.117 938.47C525.149 955.532 514.586 975.728 497.412 987.459C488.664 993.436 478.45 998.892 467.837 1001.26C467.108 1002.54 465.927 1003.55 464.38 1003.92L463.66 1004.09C460.637 1004.75 455.941 1005.49 451.885 1005.05C451.912 1007.04 451.891 1009.01 451.941 1010.89C452.084 1016.28 452.145 1021.69 452.145 1027.09C452.147 1038.39 451.54 1049.72 452.011 1061.02C452.429 1071.02 453.84 1081.46 458.636 1090.4C462.154 1096.96 466.798 1101.29 472.403 1105.44C486.191 1097.03 501.783 1091.9 517.607 1088.05C536.744 1083.39 556.339 1080.28 575.041 1073.96C584.042 1070.91 592.696 1066.93 600.537 1061.52C608.858 1055.78 615.214 1048.01 621.754 1040.41L622.776 1039.23C629.451 1031.57 636.733 1024.24 646.165 1020.09C654.288 1016.51 664.994 1015.88 672.096 1010.34C675.81 1007.44 676.121 1003.24 676.512 998.938C671.963 999.589 667.148 998.546 662.614 998.014L660.266 997.738C655.979 997.229 651.791 996.669 647.571 995.577C646.787 995.374 646.787 994.192 647.571 993.989C652.558 992.7 657.501 992.151 662.614 991.552L663.815 991.402C668.442 990.795 673.304 989.878 677.842 990.897C678.656 987.797 679.832 984.838 681.481 981.873C683.797 977.709 688.178 972.987 688.77 968.123C688.947 966.67 688.608 964.957 687.924 963.673L687.688 963.235C687.401 962.718 687.06 962.198 686.561 961.876C686.506 961.94 686.389 962.014 686.135 962.094C682.643 963.194 679.597 961.484 677.98 958.847C671.116 959.699 663.625 959.413 657.188 959.697L650.68 960.012C643.726 960.331 636.456 960.471 629.921 959.065C629.009 958.869 628.733 957.35 629.646 956.959C637.68 953.52 647.425 952.423 656.027 951.103C660.83 950.364 665.669 949.802 670.487 949.152C673.695 948.719 677.099 948.004 680.423 947.832C688.756 937.451 684.266 921.074 672.669 916.604C668.444 918.462 664.645 917.382 660.03 916.985C655.423 916.589 650.804 916.321 646.178 916.341C636.909 916.382 627.087 918.822 617.908 917.772C616.415 917.599 615.027 915.612 616.512 914.399C623.538 908.661 633.608 906.79 642.527 905.567L644.375 905.32C647.366 904.927 651.002 904.355 654.774 904.014C655.626 902.349 657.157 901.091 659.456 900.778C660.139 900.685 660.826 900.63 661.511 900.571L661.501 900.503V900.503C667.107 900.234 666.863 890.758 665.326 887.122ZM281.516 1064.4C281.417 1064.55 281.309 1064.7 281.193 1064.84L281.015 1065.05L281.937 1064.67L281.516 1064.4V1064.4ZM763.156 866.81C739.559 864.273 715.928 864.808 692.261 865.49C690.368 871.685 683.779 876.965 677.395 877.164C682.395 884.78 682.911 895.087 679.405 903.164C686.849 906.13 693.262 911.457 697.156 919.043C702.555 929.56 701.848 941.263 696.512 950.982C701.067 955.108 703.754 961.808 703.485 968.123C703.184 975.165 698.99 981.18 695.505 987.01C691.739 993.316 691.613 998.868 690.456 1005.93C688.763 1016.27 681.797 1022.53 672.835 1026.45L673.311 1028.32C675.622 1037.32 678.497 1046.82 685.101 1053.4C693.597 1061.87 706.777 1061.79 718.001 1062.33L718.543 1062.35C728.821 1062.87 739.095 1063.47 749.37 1064.05L757.076 1064.49C768.906 1065.14 780.267 1065.21 789.925 1057.39C805.692 1044.61 816.5 1023.47 823.342 1004.75C837.701 965.469 837.873 922.356 831.282 881.441C809.177 874.311 786.241 869.292 763.156 866.81ZM566.917 931.988L567.091 932C571.95 932.555 575.287 936.492 576.476 941.162C578.203 947.95 577.356 954.087 581.51 960.215C585.784 966.516 588.411 971.56 589.032 979.345C589.288 982.548 589.171 985.743 589.883 988.878L590.4 991.075C590.948 993.417 591.397 995.673 591.124 998.188C590.875 1000.48 589.759 1002.27 587.46 1003C579.969 1005.4 574.185 999.877 572.25 992.891C570.578 986.857 572.811 979.667 570.452 974C569.145 970.859 566.735 968.232 565.373 965.07C564.025 961.936 563.347 958.661 563.131 955.254C562.72 948.811 568.415 941.068 565.238 935.23C564.561 933.984 565.327 931.949 566.917 931.988ZM467.414 865.491C472.486 864.46 478.241 862.096 483.244 864.061C485.815 865.072 487.086 868.21 484.913 870.391C481.141 874.175 475.659 874.385 470.579 875.278L470.131 875.358C464.124 876.47 458.106 877.525 452.08 878.525C440.742 880.404 429.378 882.065 417.973 883.477C406.26 884.928 394.514 886.219 382.752 887.191L378.199 887.565C368.263 888.36 357.924 888.96 348.176 887.437C346.759 887.216 346.987 885.152 348.176 884.79C358.856 881.555 370.571 880.687 381.613 879.319C393.352 877.861 405.07 876.322 416.759 874.495C428.429 872.671 440.083 870.714 451.695 868.55C456.943 867.574 462.183 866.554 467.414 865.491ZM650.451 855.105C645.999 853.528 641.102 851.191 636.279 851.973C627.96 853.322 620.557 861.432 613.973 866.773L617.279 866.13C634.195 862.876 656.597 859.371 670.797 870.134C670.833 870.072 670.861 870.01 670.902 869.948C672.048 868.206 673.376 866.847 674.826 865.356C674.964 865.225 675.098 865.09 675.23 864.953L676.012 864.12L674.223 863.5C670.392 862.145 665.854 860.395 665.136 860.139L665.086 860.122C660.202 858.466 655.312 856.83 650.451 855.105ZM511.464 500.283C510.768 491.323 524.703 491.397 525.393 500.283C526.898 519.682 522.536 538.898 513.146 555.905C513.077 556.029 513.001 556.139 512.929 556.256C518.802 559.314 524.741 562.248 530.813 564.871C538.58 568.226 546.493 571.282 554.548 573.874C561.834 576.22 570.811 577.146 576.937 582.028C589.853 592.321 585.001 613.682 582.516 627.529L582.128 629.715C580.891 636.84 579.996 644.15 582.998 650.988C586.203 658.292 592.686 663.711 598.469 668.937L599.637 669.997C604.76 674.667 610.614 680.342 614.371 686.674C617.801 679.576 622.478 673.777 627.422 667.247C630.949 662.588 628.438 661.052 625.904 656.5C623.465 652.119 622.274 647.449 623.037 642.451C624.444 633.221 631.816 626.553 639.153 621.544C647.819 615.63 657.49 611.25 666.448 605.748C684.856 594.446 702.782 581.523 718.933 567.171C719.379 566.774 720.151 567.294 719.794 567.836C707.036 587.255 692.076 604.035 673.691 618.279C666.236 624.054 658.405 628.845 650.522 633.881L648.255 635.336C645.09 637.388 641.141 640.131 639.71 643.624C638.27 647.137 641.341 649.79 642.994 652.701C648.244 661.943 645.711 670.567 639.488 678.405L639.198 678.766C633.014 686.393 628.327 693.485 626.086 703.228C621.269 724.157 627.978 745.957 635 765.606L635.277 766.38C639.076 776.971 643.114 787.484 646.414 798.244L647.322 801.219C650.312 811.12 652.761 820.884 649.406 831.062C648.266 834.524 643.548 835.343 641.588 832.084C634.675 820.595 632.952 806.768 628.618 794.136C624.395 781.824 619.546 769.735 615.466 757.374C610.213 741.457 606.698 724.325 608.606 707.63C608.55 707.533 608.488 707.441 608.441 707.338L607.104 704.411C603.457 696.486 599.936 689.564 593.305 683.247C586.388 676.657 578.881 670.823 573.439 662.845C561.617 645.517 568.928 626.241 570.356 607.294L570.519 604.97C570.779 601.036 570.921 595.69 568.353 592.967C565.464 589.902 558.691 589.12 554.858 587.763C544.954 584.256 535.193 580.169 525.897 575.261C517.048 570.59 508.476 565.429 500.495 559.383L496.45 556.338C490.067 551.519 483.449 546.256 479.171 539.696C478.677 538.941 479.516 537.722 480.41 538.084C487.551 540.984 494.076 545.597 500.757 549.61C500.861 549.365 500.982 549.118 501.118 548.87C509.385 533.899 512.785 517.311 511.464 500.283ZM739.576 602.858C742.421 595.05 755.389 595.653 754.872 604.93C754.475 612.057 751.451 618.49 748.687 624.961L748.392 625.655C745.537 632.397 742.24 638.727 738.295 644.906C730.758 656.719 721.928 667.682 712.498 678.028C703.948 687.408 692.726 693.143 679.795 692.19C674.347 691.789 668.847 690.401 664.073 687.678C658.402 684.442 652.244 674.726 645.009 677.079C644.31 677.307 643.657 676.281 644.262 675.795C652.614 669.065 662.093 679.501 670.09 682.015C682.139 685.803 694.503 681.615 702.259 671.867C710.356 661.69 717.808 650.295 724.613 639.214C728.069 633.588 731.222 627.748 733.946 621.729C736.694 615.654 737.318 609.052 739.576 602.858ZM720.154 554.808C719.803 553.73 721.142 552.704 722.088 553.32C727.576 556.895 732.332 561.619 737.394 565.76C743.011 570.354 748.668 574.854 754.414 579.286C762.789 585.747 753.075 597.642 745.703 590.583C735.613 580.928 724.564 568.303 720.154 554.808ZM690.023 517.017C692.253 508.413 705.44 511.961 703.518 520.464L703.455 520.723C699.815 534.768 704.999 549.067 716.065 558.172L716.473 558.503C723.473 564.11 713.555 573.911 706.623 568.359C691.49 556.239 685.195 535.651 690.023 517.017Z" fill="black"/>
<path fill-rule="evenodd" clip-rule="evenodd" d="M797.279 165.881C756.12 57.5202 681.928 -21.8176 556.851 28.014C553.263 25.5694 548.581 24.9138 544.094 27.7763C475.96 70.5892 426.895 139.229 405.632 216.628C392.692 219.09 380.118 223.384 368.886 230.426C344.478 245.731 328.056 270.085 312.662 293.804C308.033 300.935 312.319 312.741 321.019 314.36C324.797 315.065 328.542 315.484 332.266 315.594C331.359 318.887 330.166 322.07 328.646 324.988C323.144 335.553 333.539 346.77 343.281 343.882C344.362 344.454 345.494 344.925 346.668 345.278C346.801 351.263 349.874 359.275 355.957 360.484C365.793 362.596 378.866 355.062 376.545 344.053C379.516 344.576 382.477 344.641 385.363 344.279C385.686 350.012 385.586 355.994 386.377 361.282C388.962 386.205 413.846 402.947 437.576 395.365C439.032 403.131 440.741 414.042 448.384 418.254C457.32 443.34 472.75 471.968 498.022 483.398C495.772 489.166 496.992 496.184 503.769 500.044C550.028 526.436 605.552 535.366 657.851 525.554C678.753 524.308 699.117 519.582 718.664 509.513C732.918 502.17 746.022 492.845 758.814 483.232C771.613 473.615 785.297 464.252 795.513 451.766C806.608 438.205 811.773 422.25 815.125 405.268C830.485 328.188 825.18 252.503 797.279 179.076C762.741 88.1855 831.803 256.776 797.279 165.881Z" fill="#D08B5B"/>
<path fill-rule="evenodd" clip-rule="evenodd" d="M368.767 225.994C407.185 203.316 456.181 209.186 479.262 244.314C483.246 250.379 485.998 257.05 487.941 264.773L488.255 266.057L488.568 267.407C489.575 271.872 490.234 276.074 491.128 283.218L492.12 291.324L492.402 293.532C493.364 300.869 494.208 305.503 495.522 310.227L495.782 311.144L497.3 316.376L491.57 318.494C480.589 322.463 478.29 322.818 471.954 319.503C467.006 316.915 464.424 313.431 460.986 306.37L460.489 305.337L459.393 303.033L458.798 301.82C456.558 297.345 454.765 292.574 452.231 290.841C448.79 288.488 437.943 287.551 430.4 288.478L430.007 288.528L429.682 288.596L429.123 288.722C416.438 291.722 404.876 301.97 397.25 312.798C391.11 321.518 387.581 332.501 387.149 343.915L387.124 344.676L386.974 350.502L374.678 350.24L374.798 347.972L374.614 348.375C370.74 356.549 361.007 361.991 352.863 356.581L352.573 356.383L352.277 356.171C345.403 351.107 344.575 340.856 350.217 334.63L350.478 334.35L350.732 334.092L350.68 334.068L350.622 334.048L350.585 334.044C348.663 334.398 346.975 335.385 344.691 337.484L344.103 338.035L342.923 339.313L341.702 340.617L341.178 341.155C340.843 341.494 340.535 341.791 340.246 342.055C339.856 342.41 339.495 342.709 339.102 342.982C338.738 343.233 338.363 343.454 337.909 343.651C336.789 344.137 335.591 344.368 334.059 343.99C331.957 343.475 330.772 342.203 330.055 340.705C329.776 340.124 329.617 339.588 329.504 339.023C329.386 338.433 329.328 337.83 329.297 337.135C329.278 336.68 329.271 336.184 329.275 335.641L329.288 334.792L329.317 333.869L329.348 333.133L329.488 330.402C329.986 321.438 332.34 312.634 336.371 304.323L336.78 303.494L336.932 303.193L336.51 303.758C333.761 307.383 331.107 309.897 327.794 311.556L327.338 311.777L326.892 311.98C322.295 314 317.666 313.216 314.869 309.47C312.934 306.878 312.363 303.467 312.759 299.878C313.529 292.916 316.281 286.541 321.668 277.238L322.423 275.944L325.381 270.926C336.777 251.733 351.426 236.228 368.767 225.994Z" fill="#E8E1E1"/>
<path fill-rule="evenodd" clip-rule="evenodd" d="M598.298 6.89851C619.362 5.4105 640.81 8.9637 660.869 15.3197C692.862 25.4536 722.243 43.3379 746.381 66.6205C771.259 90.6149 789.659 120.198 800.846 152.873C814.338 192.278 816.357 234.352 820.154 275.486C822.073 296.268 825.234 316.734 828.52 337.315L829.04 340.566C832.25 360.619 834.056 380.9 829.621 400.92C822.249 434.195 800.147 462.441 773.912 483.311C720.018 526.186 636.119 552.326 573.369 512.873C563.661 506.768 572.86 491.159 582.337 497.52C589.007 501.998 596.073 505.923 603.65 508.633C635.31 519.956 670.081 515.922 701.372 505.39C732.207 495.012 761.795 477.475 784.547 454.074C808.446 429.495 821.691 399.134 819.777 364.588C818.636 344.033 813.956 323.859 811.359 303.471C809.058 285.414 807.679 267.26 806.089 249.13L805.506 242.609C802.135 205.671 797.294 167.72 780.499 134.191C766.373 105.983 745.688 80.8883 720.815 61.5078C694.776 41.2177 663.674 27.0271 631.04 21.7342C592.665 15.5105 555.93 26.8281 523.918 47.8968C495.527 66.5818 471.118 91.5514 452.401 119.883C443.325 133.621 435.593 148.292 428.917 163.337C422.625 177.512 418.287 192.369 413.227 206.98C417.391 206.856 421.624 207.016 425.922 207.491C447.967 209.936 468.508 221.369 481.584 239.398C497.563 261.427 493.244 288.469 499.485 313.523C499.969 315.468 499.147 317.371 497.483 318.447C488.019 324.568 475.354 324.772 466.195 317.88C458.245 311.898 454.513 301.084 457.732 291.635C458.152 290.403 459.944 290.621 459.994 291.942C460.599 308.022 475.507 320.405 490.12 312.753C483.852 291.149 487.151 267.021 474.33 247.507C451.637 212.97 404.677 211.543 371.694 231.013C354.336 241.258 340.596 256.662 330.365 273.893L327.418 278.895C323.496 285.578 319.343 293.139 318.529 300.499C318.06 304.746 319.626 308.737 324.496 306.597C328.435 304.867 331.485 300.829 333.824 297.358C337.815 291.437 346.985 296.552 343.689 302.857L343.577 303.063C338.78 311.567 335.826 320.939 335.284 330.704L335.146 333.408C335.056 335.379 334.991 338.18 335.407 338.282C335.907 338.405 339.378 334.395 339.956 333.84C342.74 331.164 345.608 328.977 349.484 328.264C354.579 327.33 359.719 333.638 355.297 337.774L355.112 337.94C351.165 341.374 351.34 348.222 355.7 351.433C361.854 355.965 369.43 348.568 370.324 342.477L370.354 342.252C371.143 335.671 380.277 335.438 380.773 342.252C381.85 357.039 364.258 369.432 350.873 361.972C345.581 359.024 342.216 353.626 341.162 347.84C339.473 348.733 337.65 349.353 335.723 349.524C329.45 350.08 324.99 345.666 323.976 339.742C322.795 332.84 323.495 325.451 325.312 318.283C321.905 319.105 318.322 318.792 314.72 316.711C303.822 310.418 306.952 296.421 311.066 286.971C328.632 246.634 365.026 210.033 410.114 207.127C410.361 200.01 411.325 193.282 412.902 186.156C428.324 116.451 478.283 51.9054 543.324 21.7377C560.704 13.6759 579.136 8.25306 598.298 6.89851ZM427.733 285.343L428.351 285.204C435.378 283.689 453.87 281.909 451.641 293.742C451.536 294.298 450.728 294.23 450.584 293.742C448.401 286.302 433.571 292.252 429.241 294.043C423.272 296.511 417.384 300.152 412.51 304.384C401.84 313.652 394.687 326.713 393.599 340.897C392.52 354.968 396.6 370.167 406.743 380.345C411.715 385.334 418.062 388.721 425.191 388.97C431.596 389.193 438.673 384.203 444.583 387.125C445.749 387.701 446.672 389.283 446.566 390.585C446.368 393.049 445.265 394.968 443.625 396.456C453.52 414.501 461.618 433.6 474.241 450.009C480.574 458.242 487.752 465.866 495.879 472.354C499.742 475.439 503.942 478.148 508.273 480.528C513.348 483.321 517.74 485.067 521.362 489.797C524.451 493.83 521.361 501.629 516.269 502.324C504.279 503.958 492.627 494.258 483.824 486.991C475.03 479.73 467.429 470.774 461.148 461.271C449.086 443.022 440.835 421.495 437.536 399.715C433.706 400.931 429.393 401.302 426.149 401.309C417.518 401.329 409.276 398.222 402.493 392.971C377.66 373.751 374.9 334.288 392.424 309.403C400.81 297.495 413.553 288.697 427.733 285.343ZM427.889 331.112C433.647 330.606 439.401 331.516 444.813 333.481L447.044 334.29C451.757 336.014 456.773 338.042 460.177 341.577C465.377 346.982 460.199 356.345 452.791 354.274C444.601 351.984 437.944 345.082 429.756 342.186C422.437 339.599 414.147 339.965 407.652 344.421C406.794 345.01 405.666 343.849 406.227 342.994C411.195 335.423 419.04 331.888 427.889 331.112Z" fill="black"/>
<path fill-rule="evenodd" clip-rule="evenodd" d="M733.538 352.894C717.128 350.125 700.08 354.218 684.258 358.579C659.125 342.065 626.559 358.733 608.559 379.365C602.398 384.442 589.461 391.186 596.277 400.872C593.693 407.719 593.002 410.942 598.35 402.937C628.614 406.423 661.084 399.837 691.035 393.625C701.233 397.056 710.239 405.08 721.449 402.332C732.049 404.587 743.524 406.693 753.093 399.888C760.379 399.592 776.589 412.686 776.328 397.459C774.074 382.864 745.157 358.579 733.538 352.894Z" fill="#E8E1E1"/>
<path fill-rule="evenodd" clip-rule="evenodd" d="M745.842 399.751C728.027 401.723 709.96 398.825 695.043 388.473C693.485 387.392 691.951 387.404 690.699 388.037C689.177 387.869 687.62 388.476 686.716 390.216C682.97 397.436 670.554 395.827 663.729 395.975C641.404 396.406 618.299 395.173 596.814 401.927C617.362 361.731 645.78 344.378 689.753 360.158C685.783 363.358 705.596 355.868 707.335 355.725C737.759 348.096 762.86 373.633 775.121 398.937C765.845 396.728 755.451 398.686 745.842 399.751M788.338 406.591C774.923 376.352 748.471 343.103 711.576 348.329C704.001 349.445 696.032 354.623 688.406 353.689C666.324 345.528 648.097 341.381 625.982 354.578C616.599 355.279 563.799 420.696 588.89 415.355C619.689 397.656 673.24 414.328 692.366 398.497C729.914 423.163 760.444 396.368 781.605 411.787C785.285 415.165 790.445 410.958 788.338 406.591" fill="black"/>
<path fill-rule="evenodd" clip-rule="evenodd" d="M614.309 294.646C611.263 292.698 607.68 292.03 603.71 293.836C600.607 295.247 595.164 299.95 591.377 306.132C588.786 310.362 586.948 315.324 587.331 320.493C587.42 321.693 586.976 322.578 586.276 323.232C585.724 323.749 584.925 324.129 583.988 324.248C583.192 324.349 582.301 324.258 581.576 324.032C580.198 323.602 579.469 322.708 579.194 321.978C576.542 314.937 577.684 307.079 580.657 299.99C584.668 290.423 591.952 282.41 596.724 279.826C604.891 275.404 614.525 275.2 622.703 279.706C629.665 283.54 634.018 289.732 638.347 296.043C639.267 297.384 640.181 298.716 641.125 300.024C643.017 302.646 643.205 305.246 642.473 307.475C641.661 309.945 639.591 312.029 637.003 313.12C634.611 314.129 631.835 314.27 629.378 313.235C627.303 312.359 625.398 310.653 624.193 307.759C622.164 302.884 618.782 297.506 614.309 294.646V294.646ZM768.997 305.491C766.911 306.578 765.279 306.906 762.966 306.212C761.686 305.828 760.421 305.092 759.431 304.102C758.45 303.121 757.742 301.901 757.467 300.547C756.79 297.207 754.962 294.08 752.357 292.042C750.13 290.3 747.32 289.376 744.203 289.897C740.839 290.459 737.634 292.615 735.427 295.158C734.689 296.009 734.111 296.976 733.53 297.935C732.442 299.73 731.385 301.399 729.885 302.717C729.317 303.219 728.46 303.566 727.63 303.566C727.293 303.566 726.951 303.511 726.625 303.41C723.277 300.05 722.633 297.502 722.741 294.974C722.854 292.323 723.899 289.639 725.589 287.135C729.551 281.26 737.075 276.444 742.152 275.353C749.105 273.859 756.01 275.653 761.546 279.535C767.242 283.53 771.463 289.732 772.779 296.722C773.095 298.406 772.961 300.223 772.32 301.798C771.693 303.338 770.601 304.656 768.997 305.491ZM629.643 232.017C625.471 236.081 620.532 236.711 615.536 237.271C612.76 237.585 610.544 237.838 608.363 238.33C602.369 239.683 596.444 241.72 591.039 244.654C585.389 247.721 579.231 251.421 574.801 256.16C573.747 257.287 572.754 258.471 571.76 259.656C570.853 260.738 569.98 261.779 569.059 262.783C568.002 263.936 566.998 265.144 565.999 266.349C565.382 267.366 565.26 267.616 565.136 267.877C564.949 268.268 564.731 268.706 564.482 269.176C564.142 269.819 563.743 270.523 563.325 271.162C562.63 272.329 562.258 272.65 561.935 272.794C561.401 273.032 560.894 273.149 560.402 273.086C559.941 273.026 559.506 272.805 559.077 272.442C556.935 270.632 556.303 267.663 556.368 264.51C556.466 259.727 558.231 254.43 559.858 251.174C563.64 243.609 568.887 235.745 575.195 230.098C582.393 223.653 590.268 218.774 599.314 215.412C604.935 213.322 611.443 211.403 617.567 211.646C621.975 211.82 626.184 213.13 629.659 216.402C631.793 218.41 632.817 221.267 632.817 224.121C632.817 227.033 631.753 229.961 629.643 232.017ZM777.483 269.236C777.218 269.671 776.851 269.97 776.442 270.15C776.014 270.339 775.535 270.393 775.076 270.316C774.62 270.239 774.185 270.032 773.841 269.715C773.51 269.412 773.259 269.01 773.147 268.517C770.376 256.352 764.997 247.302 753.516 241.465C747.868 238.594 741.374 236.77 735.226 235.316C733.44 234.893 731.552 234.619 729.651 234.342C723.693 233.472 717.691 232.476 713.807 227.661C711.467 224.76 710.485 221.051 711.04 217.659C711.563 214.465 713.43 211.536 716.823 209.781C725.272 205.413 735.771 209.699 744.303 213.35C744.936 213.62 745.557 213.886 746.165 214.143C754.508 217.664 762.118 222.312 768.373 228.958C773.337 234.232 777.935 242.027 779.787 250.046C781.328 256.718 780.966 263.529 777.483 269.236Z" fill="black"/>
</g>
</svg>
