<svg width="1100" height="1100" viewBox="0 0 1100 1100" fill="none" xmlns="http://www.w3.org/2000/svg">
<mask id="mask0_1951_31866" style="mask-type:alpha" maskUnits="userSpaceOnUse" x="0" y="0" width="1100" height="1100">
<rect width="1100" height="1100" fill="#D9D9D9"/>
</mask>
<g mask="url(#mask0_1951_31866)">
<path d="M899.362 117.052C878.237 92.9825 840.763 92.9825 819.638 117.052L342.278 660.977C312.196 695.253 336.535 749 382.139 749H1336.86C1382.46 749 1406.8 695.253 1376.72 660.977L899.362 117.052Z" fill="#E85E1E"/>
<path d="M915.971 118.806C894.806 93.7313 856.194 93.7313 835.03 118.806L377.607 660.765C348.517 695.233 372.997 748 418.078 748H1332.92C1378 748 1402.48 695.233 1373.39 660.765L915.971 118.806Z" fill="#FFB845"/>
<path opacity="0.6" d="M1071.52 610.991C1063.52 610.991 1057.04 604.501 1057.04 596.496C1057.04 588.49 1063.52 582 1071.52 582C1079.52 582 1086 588.49 1086 596.496C1086 604.501 1079.52 610.991 1071.52 610.991Z" fill="#EF8C3A"/>
<path opacity="0.6" d="M800.518 506.991C792.52 506.991 786.037 500.501 786.037 492.496C786.037 484.49 792.52 478 800.518 478C808.516 478 815 484.49 815 492.496C815 500.501 808.516 506.991 800.518 506.991Z" fill="#EF8C3A"/>
<path opacity="0.6" d="M954.518 501.991C946.52 501.991 940.037 495.501 940.037 487.496C940.037 479.49 946.52 473 954.518 473C962.516 473 969 479.49 969 487.496C969 495.501 962.516 501.991 954.518 501.991Z" fill="#EF8C3A"/>
<path opacity="0.6" d="M899.518 636.991C891.52 636.991 885.037 630.501 885.037 622.496C885.037 614.49 891.52 608 899.518 608C907.516 608 914 614.49 914 622.496C914 630.501 907.516 636.991 899.518 636.991Z" fill="#EF8C3A"/>
<path opacity="0.6" d="M1020.52 376.991C1012.52 376.991 1006.04 370.501 1006.04 362.496C1006.04 354.49 1012.52 348 1020.52 348C1028.52 348 1035 354.49 1035 362.496C1035 370.501 1028.52 376.991 1020.52 376.991Z" fill="#EF8C3A"/>
<path opacity="0.6" d="M823.518 228.991C815.52 228.991 809.037 222.501 809.037 214.496C809.037 206.49 815.52 200 823.518 200C831.516 200 838 206.49 838 214.496C838 222.501 831.516 228.991 823.518 228.991Z" fill="#EF8C3A"/>
<path opacity="0.6" d="M701.518 378.991C693.52 378.991 687.037 372.501 687.037 364.496C687.037 356.49 693.52 350 701.518 350C709.516 350 716 356.49 716 364.496C716 372.501 709.516 378.991 701.518 378.991Z" fill="#EF8C3A"/>
<path opacity="0.6" d="M874.518 324.991C866.52 324.991 860.037 318.501 860.037 310.496C860.037 302.49 866.52 296 874.518 296C882.516 296 889 302.49 889 310.496C889 318.501 882.516 324.991 874.518 324.991Z" fill="#EF8C3A"/>
<path d="M939.753 397.512C934.646 397.512 930.505 393.368 930.505 388.256C930.505 383.144 934.646 379 939.753 379C944.86 379 949 383.144 949 388.256C949 393.368 944.86 397.512 939.753 397.512Z" fill="#FFD766"/>
<path d="M791.753 420.512C786.646 420.512 782.505 416.368 782.505 411.256C782.505 406.144 786.646 402 791.753 402C796.86 402 801 406.144 801 411.256C801 416.368 796.86 420.512 791.753 420.512Z" fill="#FFD766"/>
<path d="M848.753 199.512C843.646 199.512 839.505 195.368 839.505 190.256C839.505 185.144 843.646 181 848.753 181C853.86 181 858 185.144 858 190.256C858 195.368 853.86 199.512 848.753 199.512Z" fill="#FFD766"/>
<path d="M846.753 247.512C841.646 247.512 837.505 243.368 837.505 238.256C837.505 233.144 841.646 229 846.753 229C851.86 229 856 233.144 856 238.256C856 243.368 851.86 247.512 846.753 247.512Z" fill="#FFD766"/>
<path d="M855.753 568.512C850.646 568.512 846.505 564.368 846.505 559.256C846.505 554.144 850.646 550 855.753 550C860.86 550 865 554.144 865 559.256C865 564.368 860.86 568.512 855.753 568.512Z" fill="#FFD766"/>
<path d="M1011.75 628.512C1006.65 628.512 1002.51 624.368 1002.51 619.256C1002.51 614.144 1006.65 610 1011.75 610C1016.86 610 1021 614.144 1021 619.256C1021 624.368 1016.86 628.512 1011.75 628.512Z" fill="#FFD766"/>
<path d="M963.753 256.512C958.646 256.512 954.505 252.368 954.505 247.256C954.505 242.144 958.646 238 963.753 238C968.86 238 973 242.144 973 247.256C973 252.368 968.86 256.512 963.753 256.512Z" fill="#FFD766"/>
<path d="M1020.75 447.512C1015.65 447.512 1011.51 443.368 1011.51 438.256C1011.51 433.144 1015.65 429 1020.75 429C1025.86 429 1030 433.144 1030 438.256C1030 443.368 1025.86 447.512 1020.75 447.512Z" fill="#FFD766"/>
<path d="M710.753 305.512C705.646 305.512 701.505 301.368 701.505 296.256C701.505 291.144 705.646 287 710.753 287C715.86 287 720 291.144 720 296.256C720 301.368 715.86 305.512 710.753 305.512Z" fill="#FFD766"/>
<path d="M1086.25 673.512C1081.14 673.512 1077 669.368 1077 664.256C1077 659.144 1081.14 655 1086.25 655C1091.35 655 1095.49 659.144 1095.49 664.256C1095.49 669.368 1091.35 673.512 1086.25 673.512Z" fill="#FFD766"/>
<path opacity="0.6" d="M1081.48 724.991C1073.48 724.991 1067 718.501 1067 710.496C1067 702.49 1073.48 696 1081.48 696C1089.48 696 1095.96 702.49 1095.96 710.496C1095.96 718.501 1089.48 724.991 1081.48 724.991Z" fill="#EF8C3A"/>
<path d="M368.638 121.052C389.763 96.9825 427.237 96.9825 448.362 121.052L925.722 664.977C955.804 699.253 931.465 753 885.861 753H-68.8612C-114.465 753 -138.804 699.253 -108.722 664.977L368.638 121.052Z" fill="#E85E1E"/>
<path d="M352.029 122.806C373.194 97.7313 411.806 97.7313 432.97 122.806L890.393 664.765C919.483 699.233 895.003 752 849.922 752H-64.9214C-110.003 752 -134.483 699.233 -105.392 664.765L352.029 122.806Z" fill="#FFB845"/>
<path opacity="0.6" d="M-0.518305 658.991C7.47977 658.991 13.9634 652.501 13.9634 644.496C13.9634 636.49 7.47977 630 -0.518305 630C-8.51639 630 -15 636.49 -15 644.496C-15 652.501 -8.51639 658.991 -0.518305 658.991Z" fill="#EF8C3A"/>
<path opacity="0.6" d="M196.482 614.991C204.48 614.991 210.963 608.501 210.963 600.496C210.963 592.49 204.48 586 196.482 586C188.484 586 182 592.49 182 600.496C182 608.501 188.484 614.991 196.482 614.991Z" fill="#EF8C3A"/>
<path opacity="0.6" d="M100.482 522.991C108.48 522.991 114.963 516.501 114.963 508.496C114.963 500.49 108.48 494 100.482 494C92.4836 494 86 500.49 86 508.496C86 516.501 92.4836 522.991 100.482 522.991Z" fill="#EF8C3A"/>
<path opacity="0.6" d="M467.482 510.991C475.48 510.991 481.963 504.501 481.963 496.496C481.963 488.49 475.48 482 467.482 482C459.484 482 453 488.49 453 496.496C453 504.501 459.484 510.991 467.482 510.991Z" fill="#EF8C3A"/>
<path opacity="0.6" d="M313.482 505.991C321.48 505.991 327.963 499.501 327.963 491.496C327.963 483.49 321.48 477 313.482 477C305.484 477 299 483.49 299 491.496C299 499.501 305.484 505.991 313.482 505.991Z" fill="#EF8C3A"/>
<path opacity="0.6" d="M368.482 640.991C376.48 640.991 382.963 634.501 382.963 626.496C382.963 618.49 376.48 612 368.482 612C360.484 612 354 618.49 354 626.496C354 634.501 360.484 640.991 368.482 640.991Z" fill="#EF8C3A"/>
<path opacity="0.6" d="M247.482 380.991C255.48 380.991 261.963 374.501 261.963 366.496C261.963 358.49 255.48 352 247.482 352C239.484 352 233 358.49 233 366.496C233 374.501 239.484 380.991 247.482 380.991Z" fill="#EF8C3A"/>
<path opacity="0.6" d="M444.482 232.991C452.48 232.991 458.963 226.501 458.963 218.496C458.963 210.49 452.48 204 444.482 204C436.484 204 430 210.49 430 218.496C430 226.501 436.484 232.991 444.482 232.991Z" fill="#EF8C3A"/>
<path opacity="0.6" d="M566.482 382.991C574.48 382.991 580.963 376.501 580.963 368.496C580.963 360.49 574.48 354 566.482 354C558.484 354 552 360.49 552 368.496C552 376.501 558.484 382.991 566.482 382.991Z" fill="#EF8C3A"/>
<path opacity="0.6" d="M393.482 328.991C401.48 328.991 407.963 322.501 407.963 314.496C407.963 306.49 401.48 300 393.482 300C385.484 300 379 306.49 379 314.496C379 322.501 385.484 328.991 393.482 328.991Z" fill="#EF8C3A"/>
<path d="M113.247 480.512C118.354 480.512 122.495 476.368 122.495 471.256C122.495 466.144 118.354 462 113.247 462C108.14 462 104 466.144 104 471.256C104 476.368 108.14 480.512 113.247 480.512Z" fill="#FFD766"/>
<path d="M328.247 401.512C333.354 401.512 337.495 397.368 337.495 392.256C337.495 387.144 333.354 383 328.247 383C323.14 383 319 387.144 319 392.256C319 397.368 323.14 401.512 328.247 401.512Z" fill="#FFD766"/>
<path d="M476.247 424.512C481.354 424.512 485.495 420.368 485.495 415.256C485.495 410.144 481.354 406 476.247 406C471.14 406 467 410.144 467 415.256C467 420.368 471.14 424.512 476.247 424.512Z" fill="#FFD766"/>
<path d="M419.247 203.512C424.354 203.512 428.495 199.368 428.495 194.256C428.495 189.144 424.354 185 419.247 185C414.14 185 410 189.144 410 194.256C410 199.368 414.14 203.512 419.247 203.512Z" fill="#FFD766"/>
<path d="M421.247 251.512C426.354 251.512 430.495 247.368 430.495 242.256C430.495 237.144 426.354 233 421.247 233C416.14 233 412 237.144 412 242.256C412 247.368 416.14 251.512 421.247 251.512Z" fill="#FFD766"/>
<path d="M412.247 572.512C417.354 572.512 421.495 568.368 421.495 563.256C421.495 558.144 417.354 554 412.247 554C407.14 554 403 558.144 403 563.256C403 568.368 407.14 572.512 412.247 572.512Z" fill="#FFD766"/>
<path d="M256.247 632.512C261.354 632.512 265.495 628.368 265.495 623.256C265.495 618.144 261.354 614 256.247 614C251.14 614 247 618.144 247 623.256C247 628.368 251.14 632.512 256.247 632.512Z" fill="#FFD766"/>
<path d="M99.2473 625.512C104.354 625.512 108.495 621.368 108.495 616.256C108.495 611.144 104.354 607 99.2473 607C94.1404 607 90 611.144 90 616.256C90 621.368 94.1404 625.512 99.2473 625.512Z" fill="#FFD766"/>
<path d="M304.247 260.512C309.354 260.512 313.495 256.368 313.495 251.256C313.495 246.144 309.354 242 304.247 242C299.14 242 295 246.144 295 251.256C295 256.368 299.14 260.512 304.247 260.512Z" fill="#FFD766"/>
<path d="M247.247 451.512C252.354 451.512 256.495 447.368 256.495 442.256C256.495 437.144 252.354 433 247.247 433C242.14 433 238 437.144 238 442.256C238 447.368 242.14 451.512 247.247 451.512Z" fill="#FFD766"/>
<path d="M557.247 309.512C562.354 309.512 566.495 305.368 566.495 300.256C566.495 295.144 562.354 291 557.247 291C552.14 291 548 295.144 548 300.256C548 305.368 552.14 309.512 557.247 309.512Z" fill="#FFD766"/>
<path d="M141.247 526.512C146.354 526.512 150.495 522.368 150.495 517.256C150.495 512.144 146.354 508 141.247 508C136.14 508 132 512.144 132 517.256C132 522.368 136.14 526.512 141.247 526.512Z" fill="#FFD766"/>
<path d="M906.692 771.048C860.106 771.397 825.211 748.693 796.247 717.082C790.664 710.795 785.255 702.412 780.37 692.981C755.419 645.827 748.789 591.163 760.13 538.944C778.799 453.368 819.627 300.029 890.64 187.907C898.143 176.031 915.416 176.031 922.918 187.907C993.757 300.029 1034.58 453.368 1053.43 538.944C1064.77 590.988 1057.96 645.827 1033.19 692.981C1028.3 702.237 1022.89 710.62 1017.31 717.082C988.173 748.693 953.278 771.397 906.692 771.048Z" fill="#FF6550"/>
<path opacity="0.4" d="M1051.33 538.945C1032.66 453.368 991.836 300.03 920.823 187.907C915.24 179.175 904.248 176.905 895.873 181.271C902.503 186.685 908.086 193.671 912.274 202.228C966.537 312.954 999.513 439.746 1016.26 516.415C1028.65 572.826 1021.32 631.856 994.628 683.027C989.044 693.68 983.112 703.286 976.656 710.621C949.438 740.311 917.334 763.015 876.506 768.429C885.404 770.35 894.652 771.223 904.597 771.223C951.182 771.572 986.078 748.868 1015.04 717.258C1020.62 710.97 1026.03 702.587 1030.92 693.156C1056.04 645.828 1062.85 591.164 1051.33 538.945Z" fill="#FF7364"/>
<path d="M906.692 771.048C860.106 771.397 825.211 748.693 796.247 717.082C790.664 710.795 785.255 702.412 780.37 692.981C755.419 645.827 748.789 591.163 760.13 538.944C778.799 453.368 819.627 300.029 890.64 187.907C898.143 176.031 915.416 176.031 922.918 187.907C993.757 300.029 1034.58 453.368 1053.43 538.944C1064.77 590.988 1057.96 645.827 1033.19 692.981C1028.3 702.237 1022.89 710.62 1017.31 717.082C988.173 748.693 953.278 771.397 906.692 771.048Z" stroke="#00233A" stroke-width="10" stroke-miterlimit="10" stroke-linecap="round" stroke-linejoin="round"/>
<path d="M906.691 671.849L979.972 618.932" stroke="#00233A" stroke-width="10" stroke-miterlimit="10" stroke-linecap="round" stroke-linejoin="round"/>
<path d="M906.691 598.498L841.262 547.851" stroke="#00233A" stroke-width="10" stroke-miterlimit="10" stroke-linecap="round" stroke-linejoin="round"/>
<path d="M744.252 819.948H632.761C599.959 819.948 573.264 793.227 573.264 760.394V550.82C573.264 517.986 599.959 491.266 632.761 491.266H744.078C776.88 491.266 803.575 517.986 803.575 550.82V760.394C803.749 793.227 777.054 819.948 744.252 819.948Z" fill="#E97E1C"/>
<path opacity="0.74" d="M742.506 491.266H716.334C749.136 491.266 775.831 517.986 775.831 550.82V760.394C775.831 793.227 749.136 819.948 716.334 819.948H742.506C775.308 819.948 802.003 793.227 802.003 760.394V550.82C802.003 517.812 775.308 491.266 742.506 491.266Z" fill="#E8531F"/>
<path d="M744.252 819.948H632.761C599.959 819.948 573.264 793.227 573.264 760.394V550.82C573.264 517.986 599.959 491.266 632.761 491.266H744.078C776.88 491.266 803.575 517.986 803.575 550.82V760.394C803.749 793.227 777.054 819.948 744.252 819.948Z" stroke="#00233A" stroke-width="10" stroke-miterlimit="10" stroke-linecap="round" stroke-linejoin="round"/>
<path d="M688.594 771.048L737.448 725.989" stroke="#00233A" stroke-width="10" stroke-miterlimit="10" stroke-linecap="round" stroke-linejoin="round"/>
<path d="M688.592 696.3L634.504 671.85" stroke="#00233A" stroke-width="10" stroke-miterlimit="10" stroke-linecap="round" stroke-linejoin="round"/>
<path d="M906.691 967V474.5" stroke="#00233A" stroke-width="10" stroke-miterlimit="10" stroke-linecap="round" stroke-linejoin="round"/>
<path d="M688.594 619.456V967" stroke="#00233A" stroke-width="10" stroke-miterlimit="10" stroke-linecap="round" stroke-linejoin="round"/>
<path opacity="0.38" d="M637.646 580.859C647.475 580.859 655.443 572.883 655.443 563.045C655.443 553.208 647.475 545.231 637.646 545.231C627.818 545.231 619.85 553.208 619.85 563.045C619.85 572.883 627.818 580.859 637.646 580.859Z" fill="#FFB845"/>
<path opacity="0.38" d="M693.477 586.099C700.512 586.099 706.214 580.391 706.214 573.35C706.214 566.308 700.512 560.601 693.477 560.601C686.442 560.601 680.74 566.308 680.74 573.35C680.74 580.391 686.442 586.099 693.477 586.099Z" fill="#FFB845"/>
<path opacity="0.74" d="M637.645 744.851C644.68 744.851 650.382 739.143 650.382 732.102C650.382 725.062 644.68 719.353 637.645 719.353C630.61 719.353 624.908 725.062 624.908 732.102C624.908 739.143 630.61 744.851 637.645 744.851Z" fill="#E8531F"/>
<path opacity="0.74" d="M731.34 640.763C737.219 640.763 741.984 635.993 741.984 630.109C741.984 624.226 737.219 619.456 731.34 619.456C725.462 619.456 720.697 624.226 720.697 630.109C720.697 635.993 725.462 640.763 731.34 640.763Z" fill="#E8531F"/>
<path d="M-45.4371 360.108C-23.0812 360.108 -4.95814 341.967 -4.95814 319.59C-4.95814 297.213 -23.0812 279.072 -45.4371 279.072C-67.793 279.072 -85.916 297.213 -85.916 319.59C-85.916 341.967 -67.793 360.108 -45.4371 360.108Z" stroke="#00233A" stroke-width="10" stroke-miterlimit="10" stroke-linecap="round" stroke-linejoin="round"/>
<path d="M630.143 967C630.143 921.243 667.132 884.393 712.671 884.393C758.21 884.393 795.199 921.243 795.199 967H630.143Z" fill="#FF6550"/>
<path opacity="0.4" d="M712.671 884.393C704.122 884.393 696.096 885.615 688.244 888.06C721.918 898.364 746.345 929.8 746.345 967H795.025C795.199 921.243 758.21 884.393 712.671 884.393Z" fill="#FF7364"/>
<path d="M630.143 967C630.143 921.243 667.132 884.393 712.671 884.393C758.21 884.393 795.199 921.243 795.199 967H630.143Z" stroke="#00233A" stroke-width="10" stroke-miterlimit="10" stroke-linecap="round" stroke-linejoin="round"/>
<path d="M754.721 967C754.721 936.612 779.148 912.336 809.332 912.336C839.517 912.336 863.944 936.786 863.944 967H754.721Z" fill="#FFB845"/>
<path opacity="0.53" d="M809.332 912.336C804.97 912.336 800.783 912.86 796.77 913.733C820.848 919.322 838.993 940.978 838.993 967H864.118C864.118 936.612 839.517 912.336 809.332 912.336Z" fill="#D89535"/>
<path d="M754.721 967C754.721 936.612 779.148 912.336 809.332 912.336C839.517 912.336 863.944 936.786 863.944 967H754.721Z" stroke="#00233A" stroke-width="10" stroke-miterlimit="10" stroke-linecap="round" stroke-linejoin="round"/>
<path d="M881.564 967C881.564 944.82 899.361 927.181 921.346 927.181C943.33 927.181 961.127 944.994 961.127 967H881.564Z" fill="#FFB845"/>
<path d="M881.564 967C881.564 944.82 899.361 927.181 921.346 927.181C943.33 927.181 961.127 944.994 961.127 967H881.564Z" stroke="#00233A" stroke-width="10" stroke-miterlimit="10" stroke-linecap="round" stroke-linejoin="round"/>
<path d="M-83.123 967C-83.123 944.994 -65.3263 927.181 -43.342 927.181C-21.3578 927.181 -3.561 944.994 -3.561 967H-83.123Z" stroke="#00233A" stroke-width="10" stroke-miterlimit="10" stroke-linecap="round" stroke-linejoin="round"/>
<path d="M117.875 967C117.875 952.854 129.216 941.502 143.349 941.502C157.482 941.502 168.823 952.854 168.823 967H117.875Z" fill="#00233A"/>
<path d="M73.209 964.73C73.209 953.029 82.6308 943.598 94.3209 943.598C106.011 943.598 115.433 953.029 115.433 964.73H73.209Z" fill="#00233A"/>
<path d="M117.875 967C117.875 952.854 129.216 941.502 143.349 941.502C157.482 941.502 168.823 952.854 168.823 967H117.875Z" stroke="#00233A" stroke-width="10" stroke-miterlimit="10" stroke-linecap="round" stroke-linejoin="round"/>
<path d="M182.258 967C182.258 944.994 200.055 927.181 222.039 927.181C244.023 927.181 261.82 944.994 261.82 967H182.258Z" fill="#00233A"/>
<path d="M521.268 965.777C521.268 950.583 533.481 938.357 548.661 938.357C563.84 938.357 576.054 950.583 576.054 965.777H521.268Z" fill="#00233A"/>
<path d="M449.732 965.778C449.732 945.868 465.959 929.626 485.849 929.626C505.74 929.626 521.966 945.868 521.966 965.778H449.732Z" fill="#00233A"/>
<path d="M182.258 967C182.258 944.994 200.055 927.181 222.039 927.181C244.023 927.181 261.82 944.994 261.82 967H182.258Z" stroke="#00233A" stroke-width="10" stroke-miterlimit="10" stroke-linecap="round" stroke-linejoin="round"/>
<path d="M428.096 967H1031.27" stroke="#00233A" stroke-width="10" stroke-miterlimit="10" stroke-linecap="round" stroke-linejoin="round"/>
<path d="M354.293 967H397.913" stroke="#00233A" stroke-width="10" stroke-miterlimit="10" stroke-linecap="round" stroke-linejoin="round"/>
<path d="M-300 967H328.122" stroke="#00233A" stroke-width="10" stroke-miterlimit="10" stroke-linecap="round" stroke-linejoin="round"/>
<path d="M125.028 880.551H90.1328V967H125.028V880.551Z" fill="#81440E"/>
<path d="M125.028 880.551H90.1328V967H125.028V880.551Z" fill="#81440E"/>
<path d="M125.028 880.551H90.1328V907.097H125.028V880.551Z" fill="#663717"/>
<path d="M485.849 880.551H450.953V967H485.849V880.551Z" fill="#81440E"/>
<path d="M485.849 880.551H450.953V907.097H485.849V880.551Z" fill="#663717"/>
<path d="M125.028 880.551H90.1328V967H125.028V880.551Z" stroke="#00233A" stroke-width="10" stroke-miterlimit="10" stroke-linecap="round" stroke-linejoin="round"/>
<path d="M485.849 880.551H450.953V967H485.849V880.551Z" stroke="#00233A" stroke-width="10" stroke-miterlimit="10" stroke-linecap="round" stroke-linejoin="round"/>
<path d="M137.068 655.956H112.641V841.255H137.068V655.956Z" fill="#81440E"/>
<path d="M137.068 693.155H112.641V811.565H137.068V693.155Z" fill="#663717"/>
<path d="M137.068 655.956H112.641V841.255H137.068V655.956Z" stroke="#00233A" stroke-width="10" stroke-miterlimit="10" stroke-linecap="round" stroke-linejoin="round"/>
<path d="M463.341 655.956H438.914V841.255H463.341V655.956Z" fill="#81440E"/>
<path d="M463.341 684.074H438.914V811.565H463.341V684.074Z" fill="#663717"/>
<path d="M463.341 655.956H438.914V841.255H463.341V655.956Z" stroke="#00233A" stroke-width="10" stroke-miterlimit="10" stroke-linecap="round" stroke-linejoin="round"/>
<path d="M521.443 684.25H32.9043V736.644H521.443V684.25Z" fill="#81440E"/>
<path d="M521.443 684.25H32.9043V702.064H521.443V684.25Z" fill="#A05720"/>
<path d="M521.443 684.25H32.9043V736.644H521.443V684.25Z" stroke="#00233A" stroke-width="10" stroke-miterlimit="10" stroke-linecap="round" stroke-linejoin="round"/>
<path d="M521.443 736.645H32.9043V789.038H521.443V736.645Z" fill="#81440E"/>
<path d="M521.443 736.645H32.9043V753.585H521.443V736.645Z" fill="#A05720"/>
<path d="M521.443 736.645H32.9043V789.038H521.443V736.645Z" stroke="#00233A" stroke-width="10" stroke-miterlimit="10" stroke-linecap="round" stroke-linejoin="round"/>
<path d="M581.464 845.621H-5.48047V880.55H581.464V845.621Z" fill="#81440E"/>
<path d="M581.464 845.621H-5.48047V880.55H581.464V845.621Z" fill="#81440E"/>
<path d="M581.464 845.621H-5.48047V859.593H581.464V845.621Z" fill="#A05720"/>
<path d="M581.464 845.621H-5.48047V880.55H581.464V845.621Z" stroke="#00233A" stroke-width="10" stroke-miterlimit="10" stroke-linecap="round" stroke-linejoin="round"/>
<path d="M127.122 721.623C132.229 721.623 136.37 717.478 136.37 712.367C136.37 707.255 132.229 703.11 127.122 703.11C122.015 703.11 117.875 707.255 117.875 712.367C117.875 717.478 122.015 721.623 127.122 721.623Z" fill="#663717"/>
<path d="M127.122 770.174C132.229 770.174 136.37 766.03 136.37 760.918C136.37 755.806 132.229 751.662 127.122 751.662C122.015 751.662 117.875 755.806 117.875 760.918C117.875 766.03 122.015 770.174 127.122 770.174Z" fill="#663717"/>
<path d="M453.396 721.623C458.503 721.623 462.643 717.478 462.643 712.367C462.643 707.255 458.503 703.11 453.396 703.11C448.289 703.11 444.148 707.255 444.148 712.367C444.148 717.478 448.289 721.623 453.396 721.623Z" fill="#663717"/>
<path d="M453.396 770.174C458.503 770.174 462.643 766.03 462.643 760.918C462.643 755.806 458.503 751.662 453.396 751.662C448.289 751.662 444.148 755.806 444.148 760.918C444.148 766.03 448.289 770.174 453.396 770.174Z" fill="#663717"/>
<path d="M124.854 719.352C128.708 719.352 131.833 716.225 131.833 712.367C131.833 708.509 128.708 705.381 124.854 705.381C121 705.381 117.875 708.509 117.875 712.367C117.875 716.225 121 719.352 124.854 719.352Z" fill="#00233A"/>
<path d="M124.854 767.904C128.708 767.904 131.833 764.776 131.833 760.918C131.833 757.061 128.708 753.933 124.854 753.933C121 753.933 117.875 757.061 117.875 760.918C117.875 764.776 121 767.904 124.854 767.904Z" fill="#00233A"/>
<path d="M451.128 719.352C454.982 719.352 458.107 716.225 458.107 712.367C458.107 708.509 454.982 705.381 451.128 705.381C447.273 705.381 444.148 708.509 444.148 712.367C444.148 716.225 447.273 719.352 451.128 719.352Z" fill="#00233A"/>
<path d="M451.128 767.904C454.982 767.904 458.107 764.776 458.107 760.918C458.107 757.061 454.982 753.933 451.128 753.933C447.273 753.933 444.148 757.061 444.148 760.918C444.148 764.776 447.273 767.904 451.128 767.904Z" fill="#00233A"/>
<path d="M1054.48 578.065C1077.41 578.065 1096 559.456 1096 536.499C1096 513.544 1077.41 494.934 1054.48 494.934C1031.54 494.934 1012.95 513.544 1012.95 536.499C1012.95 559.456 1031.54 578.065 1054.48 578.065Z" fill="#EF4D3C"/>
<path d="M1054.48 578.065C1077.41 578.065 1096 559.456 1096 536.499C1096 513.544 1077.41 494.934 1054.48 494.934C1031.54 494.934 1012.95 513.544 1012.95 536.499C1012.95 559.456 1031.54 578.065 1054.48 578.065Z" stroke="#00233A" stroke-width="10" stroke-miterlimit="10" stroke-linecap="round" stroke-linejoin="round"/>
<path opacity="0.91" d="M887.846 380.017C895.459 380.017 901.63 373.84 901.63 366.22C901.63 358.6 895.459 352.423 887.846 352.423C880.234 352.423 874.062 358.6 874.062 366.22C874.062 373.84 880.234 380.017 887.846 380.017Z" fill="#FF6550"/>
<path opacity="0.91" d="M859.059 447.604C868.887 447.604 876.855 439.628 876.855 429.79C876.855 419.953 868.887 411.977 859.059 411.977C849.23 411.977 841.262 419.953 841.262 429.79C841.262 439.628 849.23 447.604 859.059 447.604Z" fill="#FF6550"/>
<path opacity="0.91" d="M952.754 590.115C962.582 590.115 970.551 582.139 970.551 572.301C970.551 562.463 962.582 554.487 952.754 554.487C942.925 554.487 934.957 562.463 934.957 572.301C934.957 582.139 942.925 590.115 952.754 590.115Z" fill="#FF6550"/>
<path opacity="0.4" d="M961.127 493.537C970.955 493.537 978.924 485.561 978.924 475.723C978.924 465.885 970.955 457.909 961.127 457.909C951.299 457.909 943.33 465.885 943.33 475.723C943.33 485.561 951.299 493.537 961.127 493.537Z" fill="#FF7364"/>
</g>
</svg>
