<svg width="38" height="38" viewBox="0 0 38 38" fill="none" xmlns="http://www.w3.org/2000/svg">
<path fill-rule="evenodd" clip-rule="evenodd" d="M19 38C29.4934 38 38 29.4934 38 19C38 8.50659 29.4934 0 19 0C8.50659 0 0 8.50659 0 19C0 29.4934 8.50659 38 19 38ZM20.1971 19.1689V26H17.359V19.1639H15V16.4893H17.3539V14.5265C17.3539 12.2437 18.7918 11.0001 20.886 11.0001C21.5922 10.9975 22.2979 11.0328 23 11.106V13.4905H21.557C20.4182 13.4905 20.1971 14.0189 20.1971 14.7907V16.4943H22.9186L22.5664 19.1689H20.1971Z" fill="#A4A4A4"/>
</svg>
