<svg width="1100" height="1100" viewBox="0 0 1100 1100" fill="none" xmlns="http://www.w3.org/2000/svg">
<mask id="mask0_1951_31653" style="mask-type:alpha" maskUnits="userSpaceOnUse" x="0" y="0" width="1100" height="1100">
<rect width="1100" height="1100" fill="#D9D9D9"/>
</mask>
<g mask="url(#mask0_1951_31653)">
<path fill-rule="evenodd" clip-rule="evenodd" d="M882.247 1099.84C877.558 1097.75 872.675 1095.38 868.435 1092.65C861.462 1088.2 853.932 1080.52 845.697 1080.73L845.32 1078.64C844.9 1074.99 837.435 1077.42 835.421 1078.71C832.193 1078.11 828.648 1074.87 826.484 1071.92C835.196 1068.7 839.015 1068.58 837.639 1057.43C837.637 1055.7 837.207 1054.09 837.683 1052.56C827.279 1006.36 825.246 960.144 823.938 913.056L829.281 911.984C846.202 959.16 862.281 1008.66 876.707 1059.1C877.065 1061.37 878.363 1061.4 879.626 1060.17C884.004 1060.4 888.235 1060.21 892.694 1059.57L892.633 1059.36C893.973 1059.38 895.308 1059.31 896.536 1059.22C897.588 1065.99 898.803 1072.96 898.566 1079.95C886.935 1077.83 882.748 1091.31 882.247 1099.84ZM891.551 1054.21C891.846 1054.07 895.206 1052.59 895.586 1052.42L895.668 1053.25C894.223 1053.81 892.769 1054.35 891.302 1054.84L891.167 1054.39L891.551 1054.21ZM748.02 1155.24C742.349 1156.61 736.342 1158.33 730.767 1159.95L732.954 1154.68C720.38 1121.29 710.771 1086.02 703.778 1051.54C698.826 1029.1 693.687 1005.89 686.819 983.647C678.148 948.718 659.434 912.779 619.892 909.787C619.892 909.787 619.227 908.649 619.228 908.649L618.448 907.924C616.518 883.429 613.907 859.019 611.378 835.577C632.541 841.372 650.763 839.487 670.99 839.329C677.544 838.424 686.267 840.321 691.496 837.342C691.496 837.341 694.951 833.844 694.951 833.844C717.915 924.368 723.891 1017.66 732.093 1109.33C732.372 1111.41 733.96 1112.11 735.63 1111.25C737.558 1113.36 741.573 1112.55 744.32 1112.85C742.014 1126.59 744.728 1142.97 751.423 1154.41L748.02 1155.24ZM694.12 1147.52C679.971 1135.65 663.208 1129.76 645.701 1130.42C639.558 1121.34 630.875 1110.45 621.122 1106.35C616.551 1091.11 617.112 1074.4 618.079 1060.05C620.339 1045.39 615.278 1043.68 603.293 1044.75C608.446 1038.54 607.985 1037.05 606.94 1028.9C610.361 1029.43 620.715 1036.18 622.134 1031.41C623.853 1022.12 625.021 1014.04 625.705 1006.73C626.068 1000.47 621.631 993.902 622.179 987.539C620.549 971.179 622.22 952.871 614.664 937.799C645.278 941.881 652.737 975.192 660.659 999.734C676.959 1050.28 688.351 1101.9 700.484 1152.86L694.12 1147.52ZM599.821 1031.8C599.096 1033.43 598.99 1034.98 598.736 1036.56C584.336 1033.92 586.897 1055.02 585.552 1066.56C582.845 1065.66 580.939 1065.38 578.107 1065.94C577.693 1062.14 580.176 1060.45 571.472 1060.03C530.906 1060.78 515.481 1103.09 501.525 1135.46C495.046 1151.02 485.847 1153.45 472.173 1153.18C463.002 1153.35 453.623 1155.83 444.252 1155.53C478.322 1088.57 490.718 992.402 476.883 908.983H476.891C476.05 903.7 475.051 898.204 474.018 892.885C503.223 893.191 537.198 893.89 565.32 892.68C569.027 896.074 573.593 897.587 578.253 897.622C578.274 901.324 578.674 905.396 579.025 909.088C552.742 908.436 523.577 908.839 496.953 909.225C523.576 909.609 552.878 910.079 579.062 909.327C579.019 916.402 579.732 922.832 586.039 926.254C588.448 944.153 585.335 962.851 587.512 983.669C589.261 997.826 587.822 1024.94 600.785 1029.44L599.821 1031.8ZM413.751 1142.4C411.605 1141.67 410.288 1141.83 408.198 1143.45C392.989 1151.65 371.129 1144.04 354.5 1143.5C357.662 1133.14 357.785 1116.63 343.38 1116.42C348.157 1071.03 344.939 1026.01 345.676 980.654C371.906 975.67 371.024 972.979 345.547 968.315C345.388 942.946 345.197 917.282 345.213 891.678C345.209 879.357 345.095 867.339 343.966 855.422C346.338 850.53 345.81 845.517 347.035 840.35C352.204 837.465 361.161 840.822 364.377 835.848C378.294 835.644 392.469 835.514 406.525 834.769C407.8 834.808 408.274 833.626 408.827 832.766C411.274 832.123 415.401 833.592 417.438 832.551C417.438 832.551 420.187 829.014 420.187 829.014C431.636 852.317 440.517 879.777 445.764 907.58C429.222 907.758 410.285 907.71 393.219 907.627C409.837 908.853 427.774 909.59 446.153 909.848C460.412 980.547 450.2 1079.74 414.765 1140.63L413.751 1142.4ZM391.881 1174.16C357.422 1217.44 301.147 1231.86 254.935 1197.07C131.629 1103.57 137.161 786.64 299.109 742.8C294.714 759.369 279.462 828.142 307.032 830.103L306.947 829.88L308.351 829.106C314.14 831.103 322.285 828.33 324.181 836.345C324.254 836.36 327.294 836.625 327.472 836.642C325.502 846.601 326.074 856.926 325.485 867.043C323.158 866.158 320.26 865.633 317.737 865.841C308.23 865.399 308.469 855.043 308.84 847.839C309.193 844.314 308.123 840.278 308.3 836.97C308.394 834.672 308.241 832.881 307.367 830.979C304.442 840.301 301.677 852.523 303.414 862.013C305.968 870.875 317.286 875.106 325.478 870.765C325.121 902.663 325.021 934.315 324.843 965.934C319.462 963.118 314.552 964.903 308.987 966.406C301.964 967.881 293.631 965.793 286.589 967.487C285.777 964.019 282.497 959.775 279.045 962.576C274.651 962.616 272.236 966.678 270.055 975.559C268.695 982.599 269.49 991.993 276.198 995.375C279.988 997.412 283.78 995.964 285.648 991.796C286.707 992.22 288.396 993.511 289.6 993.096C300.806 990.385 312.889 987.644 324.743 985.088C325.361 1029.75 323.374 1074.09 327.075 1118.88C310.162 1120.31 277.938 1115.79 270.57 1130.63C263.801 1133.54 258.938 1140.23 258.956 1146.97C258.734 1157.88 270.895 1161.56 280.398 1161.68C318.852 1164.58 356.944 1169.76 395.692 1169.69L391.881 1174.16ZM461.575 833.626C486.034 836.956 510.598 836.932 535.108 838.018C527.11 892.168 538.292 860.707 563.158 891.143C534.745 891.11 500.437 890.77 473.722 891.434C469.57 871.028 463.965 851.545 456.999 832.94L461.575 833.626ZM650.932 558.851C661.715 573.865 675.885 586.978 691.784 595.943C678.051 596.954 664.07 597.878 650.53 599.77C649.017 586.768 647.487 573.763 645.954 560.765L650.932 558.851ZM1091.64 1113.09C1085.68 1097.3 1065.31 1099.22 1052.21 1092.26C1025.9 1079.56 998.973 1054.72 968.519 1064.5C965.79 1057.02 962.733 1049.84 959.443 1043.57C960.73 1044.22 962.382 1044.16 963.544 1043L963.553 1043.01C964.685 1041.72 965.783 1040.27 965.93 1038.68C969.882 1034.26 971.538 1027.26 972.557 1022.05C967.732 1005.6 961.874 989.845 956.656 973.568C936.406 911.504 922.16 853.843 906.88 794.489C889.889 750.353 885.329 634.542 823.785 634.319C823.587 631.234 823.48 627.679 822.494 624.872C820.735 627.277 820.005 630.828 819.765 633.88C793.424 633.463 770.656 638.343 753.28 645.861C720.007 644.389 690.846 646.367 652.569 650.875C657.205 642.9 654.108 633.914 653.67 625.12C709.167 627.738 765.574 622.635 820.81 619.584C829.722 618.808 839.181 619.297 847.784 617.063C857.117 614.89 865.979 603.237 856.461 594.366C850.021 590.379 842.016 592.539 834.958 592.185C799.186 592.183 762.579 592.883 728.142 594.141C770.543 572.637 791.935 527.726 817.291 489.421C830.17 468.494 839.787 450.885 847.568 433.984C848.9 431.173 849.273 428.128 848.473 426.581C848.174 425.033 843.366 424.861 842.065 424.479C877.327 369.538 931.483 393.728 960.44 361.893C954.953 362.141 949.471 362.397 943.989 362.66L942.726 357.415C953.075 352.768 962.877 345.553 973.588 334.691C973.583 334.669 973.574 334.644 973.563 334.62C955.806 340.157 939.253 344.188 922.967 346.943L921.003 341.936C935.638 332.435 948.657 319.512 958.658 304.56C940.003 312.778 922.455 324.452 903.096 331.932L900.184 327.384C911.22 316.862 935.956 301.091 928.92 286.364C901.421 299.557 876.33 316.634 849.845 331.541C849.822 319.446 858.355 300.425 853.175 290.341C847.706 283.613 845.124 289.337 842.362 294.72C842.362 294.72 830.86 313.995 828.044 318.711C817.484 337.448 802.649 355.968 802.99 378.12C793.809 373.724 786.592 389.682 780.626 398.396C763.861 426.8 707.125 471.39 694.598 477.465C643.588 431.385 651.19 353.353 596.968 309.832C579.58 292.145 566.728 290.096 546.227 283.595C541.354 282.429 535.842 278.311 531.481 282.262C525.011 276.913 518.713 259.641 516.043 252.262C514.391 245.123 511.637 227.553 507.781 224.258C503.925 220.964 441.129 218.219 435.62 219.866C430.112 221.513 432.315 234.691 432.315 234.691L426.516 258.584L426.017 258.445C425.926 258.479 425.151 259.076 425.054 259.143C420.925 259.113 416.959 257.168 412.995 257.17C408.817 257.258 405.434 260.1 402.23 262.533C396.506 266.847 390.587 271.308 383.628 274C302.924 299.7 292.261 338.383 268.115 412.704C248.245 413.266 231.516 410.791 214.222 409.83C208.135 410.601 210.113 422.388 210.299 429.124C209.724 445.695 222.151 443.988 234.476 443.839C242.628 443.937 250.831 444.746 258.895 443.793C250.21 483.761 232.74 546.248 251.858 583.538C267.338 612.757 280.475 618.305 293.002 619.158C296.211 647.128 293.016 672.175 293.597 699.223C108.904 748.839 100.405 1036.84 182.961 1177.06C249.249 1291.64 373.919 1285.37 435.713 1171.33C450.656 1179.45 480.284 1178.89 500.015 1177.11C515.542 1176.2 520.637 1169.63 526.183 1155.27C532.381 1141.29 538.272 1127.5 544.58 1113.53C550.601 1098.75 562.632 1081.77 584.341 1082.44C584.241 1091.14 582.619 1100.95 588.529 1107.87C566.508 1115.33 579.743 1150.1 586.143 1166.34C555.902 1207.46 566.091 1279.54 608.392 1309.37C678.259 1356.12 745.699 1267.7 725.291 1199.96C728.635 1201.54 734.845 1203.72 737.517 1200.28C738.605 1199.47 737.101 1195.91 736.834 1194.75C783.691 1192.01 829.661 1186.52 876.123 1182.17C874.544 1225.19 917.347 1267.6 960.296 1266.64C1016.34 1269.23 1049.92 1195.61 1032.97 1147.94C1054.41 1147.34 1076.16 1145.55 1098.51 1142.53C1110.73 1141.31 1118.51 1138.43 1118.03 1127.06C1116.76 1114.27 1102.25 1109.56 1091.64 1113.09Z" fill="#D08B5B"/>
<path fill-rule="evenodd" clip-rule="evenodd" d="M949.466 1150.7C935.957 1151.84 922.591 1152.78 909.217 1153.71C895.344 1154.68 881.463 1155.65 867.647 1156.82C865.85 1156.87 864.091 1157.07 862.301 1157.26C857.041 1157.83 851.588 1158.28 847.075 1156.09C844.713 1154.26 844.04 1151.71 843.527 1148.67C843.059 1145.9 842.679 1142.61 839.21 1140.45C835.379 1138.11 828.738 1139.4 822.918 1140.3C820.1 1140.74 817.427 1141.15 815.203 1141.24L811.807 1141.65C793.842 1143.88 775.931 1146.39 758.203 1150.16C757.049 1150.41 755.897 1150.66 754.749 1150.92C755.192 1149.97 755.514 1149 755.54 1147.96C755.589 1145.99 754.561 1144.19 753.657 1142.42C753.208 1141.54 752.765 1140.66 752.401 1139.79C751.196 1136.89 750.215 1133.89 749.349 1130.87C748.027 1126.3 747.336 1121.81 746.639 1117.25C746.3 1115.03 745.96 1112.8 745.537 1110.53L744.986 1107.57L747.983 1107.95C748.675 1108.04 749.41 1108.3 750.149 1108.59C750.511 1108.73 750.948 1109.21 751.363 1109.01L753.05 1108.18L754.137 1109.71C757.172 1113.98 761.716 1116.94 766.564 1118.81C774.731 1122.19 781.856 1121.73 788.325 1119.1C797.731 1115.27 805.769 1107.05 813.458 1099.28C816.167 1096.54 818.831 1093.85 821.486 1091.4C825.227 1088.27 829.299 1085.69 833.571 1083.57C834.844 1082.93 836.328 1082.41 837.855 1081.88C840.13 1081.09 842.547 1080.31 844.21 1078.84L844.912 1078.22L845.848 1078.29C845.97 1078.3 846.092 1078.31 846.214 1078.32C846.914 1078.38 847.599 1078.43 848.281 1078.53C848.407 1078.55 848.532 1078.57 848.659 1078.59C848.77 1078.64 848.882 1078.7 848.993 1078.76C852.549 1080.62 855.486 1083.43 858.38 1086.24C859.532 1087.36 860.678 1088.48 861.866 1089.51L862.847 1090.37L862.567 1091.64C862.535 1091.78 862.638 1091.96 862.7 1092.1L863.367 1093.53L862.215 1094.62C861.506 1095.28 860.736 1095.89 859.968 1096.48C858.583 1097.55 857.113 1098.55 856.486 1100.32C856.442 1100.44 856.417 1100.54 856.439 1100.63C856.702 1100.93 856.854 1101 857.012 1101.03L868.477 1094.77L870.199 1095.88C873.193 1097.78 876.34 1099.45 879.581 1100.91C880.168 1101.18 880.758 1101.43 881.352 1101.69C881.174 1102.34 880.976 1102.98 880.76 1103.62C880.086 1105.6 879.234 1107.52 878.175 1109.38L877.914 1109.83C877.857 1109.93 877.817 1110.03 877.829 1110.12C877.842 1110.23 877.907 1110.33 877.982 1110.4C878.084 1110.51 878.217 1110.59 878.365 1110.62C878.471 1110.64 878.583 1110.62 878.691 1110.57L879.417 1110.19C881.527 1109.11 883.726 1108.24 885.927 1107.37C887.407 1106.78 888.887 1106.19 890.336 1105.54C890.585 1105.43 890.833 1105.31 891.081 1105.2C891.345 1105.28 891.61 1105.36 891.875 1105.43C894.05 1106.08 896.246 1106.65 898.455 1107.16L903.26 1108.26L896.715 1114.89C896.643 1114.97 896.608 1115.06 896.599 1115.15C896.582 1115.32 896.633 1115.49 896.718 1115.64C896.773 1115.73 896.842 1115.83 896.948 1115.87C902.536 1114.09 907.87 1112.15 913.146 1110.05C913.323 1109.98 913.5 1109.91 913.677 1109.84C913.865 1109.86 914.052 1109.89 914.237 1109.91C917.053 1110.26 920.19 1110.49 923.471 1110.73C933.94 1111.48 945.759 1112.45 953.771 1117.39C959.818 1121.12 963.893 1127 963.903 1136.6C963.904 1137.09 963.894 1137.56 963.874 1138.03C963.55 1138.12 963.194 1138.29 962.792 1138.51C962.083 1138.92 961.627 1139.3 961.386 1139.74C961.04 1140.36 961.118 1141.01 961.116 1141.63C961.108 1143.79 960.956 1145.84 958.289 1147.71C956.75 1148.79 954.111 1149.85 949.466 1150.7ZM1081.96 1124.75C1060.08 1127.01 1038.37 1127.81 1016.67 1128.62C1003.75 1129.1 990.839 1129.57 977.974 1130.35L975.546 1130.5C975.085 1130.54 974.715 1130.71 974.46 1130.99C974.126 1131.35 973.975 1131.85 973.962 1132.33L973.91 1134.21L968.473 1134.9L968.205 1132.07C967.373 1124.22 963.059 1118.36 957.179 1114.25C949.681 1109 939.669 1106.53 930.698 1106.34L927.604 1106.11C915.294 1105.2 902.999 1104.06 891.148 1100.35C890.449 1100.14 889.753 1099.91 889.063 1099.67C889.317 1099.03 889.522 1098.41 889.654 1097.8C890.064 1095.9 889.9 1093.57 889.767 1091.17C889.506 1086.51 889.459 1081.76 891.735 1078.6C891.894 1078.38 892.065 1078.17 892.245 1077.97C892.492 1077.89 892.739 1077.82 892.986 1077.76C893.73 1077.57 894.51 1077.45 895.327 1077.4L897.76 1077.24L897.666 1079.67C897.595 1081.53 898.08 1083.57 899.194 1085.01C899.943 1085.98 901.016 1086.63 902.432 1086.55C902.666 1086.53 902.889 1086.5 903.101 1086.45C903.319 1086.6 903.54 1086.75 903.765 1086.9C908.513 1089.99 914.047 1091.09 919.621 1090.83C926.263 1090.53 932.971 1088.32 938.589 1085.16C940.805 1083.75 942.94 1082.35 945.017 1080.99C963.587 1068.81 977.705 1059.82 1002.36 1069.65C1003.06 1069.93 1003.74 1070.21 1004.4 1070.5C1004.14 1071.2 1003.86 1071.9 1003.56 1072.58C1002.2 1075.61 1000.37 1078.37 998.031 1080.84L997.685 1081.2C997.617 1081.28 997.582 1081.37 997.582 1081.47C997.581 1081.65 997.665 1081.83 997.779 1081.97C997.853 1082.06 997.942 1082.16 998.064 1082.18C1002.85 1079.2 1007.66 1076.85 1012.74 1075.06C1013.04 1074.95 1013.35 1074.85 1013.66 1074.74C1013.94 1074.89 1014.22 1075.04 1014.51 1075.19C1017.44 1076.74 1020.32 1078.4 1023.19 1080.1C1023.88 1080.52 1024.58 1080.94 1025.27 1081.36C1024.78 1081.94 1024.31 1082.55 1023.91 1083.18C1023.09 1084.44 1022.45 1085.91 1021.91 1087.23L1021.77 1087.58L1021.16 1089.13C1021.42 1089.45 1021.77 1089.6 1022.08 1089.54C1026.1 1088.76 1030.09 1087.82 1034.03 1086.69L1035.98 1087.85C1044.14 1092.7 1052.48 1097.18 1061.73 1099.78C1063.35 1100.24 1065.21 1100.62 1067.15 1101.02C1071.96 1102.01 1077.27 1103.15 1081.32 1105.55C1084.55 1107.46 1087.01 1110.14 1088.07 1113.99C1088.83 1116.74 1088.57 1119.01 1087.56 1120.8C1086.56 1122.56 1084.75 1123.96 1081.96 1124.75Z" fill="white"/>
<path fill-rule="evenodd" clip-rule="evenodd" d="M700.026 1287.99C688.006 1302.88 670.749 1312.8 648.25 1313.44C634.327 1313.81 621.87 1309.35 611.337 1301.6C599.875 1293.17 590.695 1280.83 584.425 1266.65C571.776 1238.03 571.002 1201.93 586.888 1175.43C587.411 1174.56 587.952 1173.69 588.511 1172.84C588.937 1173.75 589.366 1174.66 589.799 1175.57C591.364 1178.85 592.968 1182.1 594.57 1185.35C596.623 1189.51 598.671 1193.67 600.629 1197.87C600.763 1198.15 600.897 1198.44 601.03 1198.73C600.848 1198.98 600.669 1199.24 600.492 1199.5C590.016 1214.67 590.188 1235.01 597.618 1251.19C601.356 1259.33 606.938 1266.44 613.97 1271.29C620.335 1275.69 627.89 1278.23 636.327 1278.02C649.281 1277.73 659.402 1272.62 666.608 1264.84C674.891 1255.9 679.331 1243.46 679.881 1230.83C680.435 1218.1 677.048 1205.14 669.569 1195.28C663.363 1187.1 654.33 1181.08 642.42 1179.14C642.368 1181.86 642.477 1184.57 643.141 1187.26C643.315 1187.97 643.258 1188.6 643.066 1189.14C642.846 1189.77 642.439 1190.29 641.919 1190.67C641.673 1190.85 641.402 1190.99 641.117 1191.1C641.788 1193.89 642.484 1196.67 643.179 1199.46C644.745 1205.72 646.311 1211.99 647.598 1218.32C647.794 1219.28 647.581 1220.11 647.16 1220.77C646.697 1221.49 645.953 1222.01 645.14 1222.23C644.27 1222.47 643.351 1222.37 642.616 1221.94C641.947 1221.54 641.382 1220.89 641.172 1219.85C640.327 1215.79 639.112 1211.77 637.893 1207.74C635.825 1200.89 633.755 1193.98 633.314 1186.71C632.382 1182.75 631.662 1178.68 631.534 1174.68C630.702 1171.72 629.381 1168.41 628.012 1164.97C624.808 1156.91 621.462 1148.18 622.694 1141.36C622.747 1141.07 622.808 1140.78 622.879 1140.48C623.139 1140.37 623.4 1140.25 623.662 1140.14C631.343 1136.81 639.602 1134.99 648.205 1134.99C670.753 1135.63 688.01 1145.56 700.03 1160.44C713.709 1177.38 720.581 1200.78 720.581 1224.21C720.581 1247.64 713.707 1271.05 700.026 1287.99ZM876.95 1182.16L877.783 1182.93L877.803 1182.18L876.95 1182.16L876.95 1182.16ZM989.93 1250.36C965.592 1261.19 943.343 1258.41 924.534 1247.76C902.113 1235.06 884.587 1211.08 874.58 1185.51C874.542 1185.41 874.505 1185.32 874.468 1185.22C874.468 1185.12 874.467 1185.02 874.467 1184.91C874.463 1183.97 874.477 1183.03 874.512 1182.08L876.95 1182.16L875.974 1181.26C879.855 1180.86 883.736 1180.45 887.616 1180.04L893.439 1179.43L906.208 1178.06C908.593 1179.42 908.569 1182.59 908.137 1185.56C908.036 1186.26 907.932 1186.92 907.935 1187.47C908.21 1196.96 912.864 1205.73 918.841 1212.9C926.609 1223.23 939.161 1228.87 951.646 1229.19C963.594 1229.49 975.516 1224.89 983.058 1214.65C989.894 1205.41 993.621 1194.08 994.334 1182.54C995.063 1170.74 992.64 1158.71 987.129 1148.46C986.622 1147.52 986.089 1146.59 985.531 1145.68C986.606 1145.81 987.681 1145.93 988.758 1146.05C1002.63 1147.5 1016.61 1147.43 1030.54 1147.11L1034.86 1147.01L1031.71 1149.96C1031.08 1150.54 1030.7 1151.42 1030.87 1152.48C1033.46 1171.48 1031.18 1192.72 1023.47 1211.2C1016.65 1227.56 1005.58 1241.75 989.93 1250.36ZM456.922 906.465C471.509 993.034 459.889 1091.29 415.844 1164.78C386.478 1214.46 346.94 1239.16 307.494 1239.16C268.069 1239.16 228.543 1214.49 199.159 1164.76C149.564 1081.99 141.096 967.829 164.855 874.301C182.138 800.149 226.812 738.045 278.977 720.524C302.222 712.716 326.972 713.691 351.524 726.309C373.521 737.614 395.387 758.31 415.824 790.546C430.514 814.694 442.066 842.862 450.158 874.309C452.739 884.465 454.939 894.864 456.748 905.442L453.554 906.246C453.424 905.862 453.145 905.523 452.739 905.298C452.531 905.183 452.316 905.112 452.1 905.074C452.041 904.777 451.981 904.48 451.922 904.183C438.835 839.364 410.604 774.132 353.17 743.956L352.613 743.044C352.528 742.909 352.519 742.473 352.376 742.433L327.012 735.322C318.473 733.801 309.883 733.498 301.373 734.38C284.432 736.136 267.81 742.586 252.518 753.458C201.648 792.71 173.795 858.704 165.438 928.975C156.117 1007.36 171.054 1091.12 205.648 1149.33C223.521 1181.43 251.592 1206.67 282.997 1216.73C310.713 1225.6 341.013 1222.58 369.083 1201.92C406.742 1173.13 431.056 1130.57 444.693 1083.02C460.675 1027.28 461.994 964.678 452.836 909.172C452.783 908.847 452.729 908.521 452.676 908.201C452.884 908.115 453.077 907.982 453.238 907.803C453.511 907.501 453.643 907.124 453.64 906.748L456.922 906.465ZM629.408 1230.61C629.94 1231.74 629.946 1232.56 629.742 1233.25C629.499 1234.09 628.941 1234.76 628.23 1235.18C627.51 1235.6 626.641 1235.74 625.799 1235.53C625.128 1235.36 624.452 1234.97 623.904 1234.24C622.686 1232.84 621.19 1228.44 621.47 1225.86C621.543 1225.19 621.725 1224.62 621.983 1224.18C622.348 1223.56 622.863 1223.14 623.508 1222.94C624.213 1222.71 625.225 1222.7 626.628 1223.51C627.106 1223.59 627.5 1223.77 627.831 1223.99C628.326 1224.32 628.696 1224.78 628.947 1225.35C629.343 1226.25 629.38 1227.54 629.345 1228.82C629.327 1229.49 629.142 1230.22 629.408 1230.61ZM684.295 983.736C690.854 1005.8 695.634 1028.49 700.413 1051.18C707.741 1085.97 715.06 1120.77 728.873 1153.33L729.798 1155.49L729.309 1157.24L729.017 1157.33L729.187 1157.85L729.01 1158.79C728.059 1164.02 727.221 1173.45 728.35 1181.15C729.04 1185.85 730.361 1190.03 733.259 1191.63L737.49 1193.97L732.708 1194.7C731.809 1194.84 730.891 1194.77 729.745 1194.23C726.574 1192.35 725.149 1189.12 723.837 1185.85C723.31 1184.53 722.792 1183.22 722.117 1182.07C720.665 1179.63 719.272 1177.15 717.881 1174.68C713.598 1167.05 709.335 1159.43 703.245 1153.11C703.143 1153.01 703.041 1152.9 702.939 1152.8C702.904 1152.66 702.868 1152.51 702.833 1152.37C699.026 1137.2 695.449 1121.93 691.869 1106.63C680.208 1056.82 668.508 1006.81 648.583 959.747C638.921 940.874 629.698 938.025 621.722 935.608C616.738 934.098 612.251 932.669 608.359 928.287C606.849 926.065 606.205 923.893 606.146 921.774C606.081 919.479 606.705 917.24 607.86 915.28C609.03 913.294 610.745 911.597 612.828 910.424C614.79 909.319 617.077 908.679 619.538 908.701C620.503 908.889 621.098 909.021 621.695 909.14L621.705 910.025C633.29 909.402 643.762 915.169 652.386 922.483L652.914 922.935L653.434 923.388C653.65 923.567 653.882 923.662 654.114 923.675C654.273 923.684 654.436 923.656 654.601 923.589C654.793 923.772 654.984 923.957 655.175 924.143C669.622 938.251 676.502 957.924 682.274 976.985L682.796 978.718L684.295 983.736ZM583.374 1075.69C583.013 1075.58 582.622 1075.57 582.27 1075.66C581.911 1075.76 581.577 1075.98 581.325 1076.27C581.102 1076.53 580.941 1076.85 580.906 1077.21L580.759 1078.69L579.265 1078.69C569.348 1078.72 561.605 1082.66 555.324 1088.6C546.416 1097.04 540.403 1109.45 535.342 1120.73L534.806 1121.93L533.964 1123.83C531.427 1128.74 529.138 1133.8 526.848 1138.86C523.471 1146.33 520.09 1153.8 515.933 1160.81C512.515 1165.81 507.322 1167.49 501.606 1168.14C486.925 1169.98 472.14 1170.58 457.355 1170.35C455.926 1170.37 454.494 1170.38 453.062 1170.39C448.304 1170.41 443.539 1170.42 438.841 1171.15C437.667 1171.34 436.503 1171.56 435.347 1171.82C435.955 1170.79 436.556 1169.75 437.15 1168.71C439.56 1164.49 441.884 1160.18 444.112 1155.78L445.071 1153.87C445.965 1153.89 446.86 1153.88 447.754 1153.85C452.687 1154.7 457.153 1154.8 461.979 1154.63L465.183 1155.05L466.204 1155.19C473.185 1156.09 480.18 1156.77 487.136 1155.43C502.413 1151.75 508.942 1134.96 516.265 1117.08C525.266 1095.1 535.261 1071.27 560.823 1063.89C563.806 1063.04 566.819 1062.53 569.919 1062.46C570.862 1062.44 571.776 1062.49 572.669 1062.55C574.239 1062.65 575.739 1062.8 577.217 1062.21L577.877 1061.95L578.522 1062.25C578.656 1062.31 578.787 1062.37 578.915 1062.44L579.841 1062.94L579.782 1064.02C579.918 1064.01 580.054 1064 580.188 1063.99C580.44 1063.98 580.698 1063.97 580.962 1063.97C581.137 1064.15 581.311 1064.33 581.481 1064.52C581.736 1064.79 581.983 1065.07 582.231 1065.35C582.614 1065.79 582.996 1066.22 583.413 1066.62C583.595 1066.8 583.784 1066.96 583.977 1067.13C583.957 1067.4 583.937 1067.66 583.917 1067.93C583.763 1070.02 583.62 1072.1 583.477 1074.19C583.442 1074.69 583.408 1075.19 583.374 1075.69ZM390.344 1159.07L389.158 1159.77C388.987 1159.82 388.669 1159.92 388.34 1160.04L387.614 1160.29C359.789 1157.83 332.094 1155.41 304.377 1153.17L293.693 1152.32L290.542 1152.08L287.385 1151.84L281.072 1151.38L280.526 1151.35C279.991 1151.31 279.437 1151.29 278.872 1151.26C275.397 1151.11 271.547 1150.87 268.67 1149.24C266.067 1147.55 264.544 1144.84 263.953 1141.82C263.288 1138.42 263.822 1134.65 265.279 1131.84L269.119 1129.04C267.929 1133.38 268.936 1135.87 271.001 1137.3C273.258 1138.86 276.542 1139.3 279.532 1139.6L280.052 1139.65L281.59 1139.79C288.332 1140.58 295.08 1141.37 301.823 1142.16L318.399 1144.01C339.372 1146.35 360.361 1148.62 381.394 1150.29C382.134 1150.31 382.921 1150.36 383.73 1150.42C386.498 1150.62 389.766 1151.11 391.713 1148.9C391.889 1148.7 392.041 1148.5 392.173 1148.28C392.468 1148.31 392.764 1148.33 393.058 1148.35C396.965 1148.59 400.982 1148.44 404.762 1147.34C406.303 1146.89 407.792 1146.29 409.228 1145.57C408.384 1146.98 407.517 1148.39 406.625 1149.8C403.781 1154.29 400.842 1158.56 397.809 1162.62L395.706 1165.43L394.879 1162.02C394.582 1160.8 393.747 1159.72 392.659 1159.2C391.96 1158.86 391.155 1158.79 390.344 1159.07V1159.07ZM980.729 1151.77L981.393 1154.87L982.387 1157.95L979.492 1157.24C978.534 1157 977.873 1156.19 977.667 1155.06L980.729 1151.77ZM346.878 1139.54C325.287 1137.27 306.079 1135.47 284.465 1133.58L282.365 1133.39L274.096 1132.68C274.068 1127.69 276.852 1124.49 281.147 1122.46C285.883 1120.22 292.511 1119.47 298.276 1118.84C301.343 1118.51 304.148 1118.22 306.217 1117.7L306.923 1117.58L308.401 1117.57L310.341 1117.56L315.989 1117.55C319.222 1117.54 322.277 1117.5 325.012 1117.35L325.426 1117.32L325.802 1117.5L325.87 1117.46C325.876 1117.43 325.881 1117.39 325.884 1117.36C325.956 1116.62 326.027 1115.89 326.093 1115.16C326.136 1114.68 326.177 1114.2 326.216 1113.72C328.549 1083.9 328.382 1053.94 328.216 1024C328.141 1010.46 328.067 996.937 328.222 983.428L330.872 982.865C333.449 982.319 336.024 981.773 338.602 981.231C339.256 981.093 339.911 980.956 340.564 980.82C340.575 981.486 340.586 982.152 340.596 982.819C340.799 996.832 340.654 1010.87 340.509 1024.9C340.198 1054.97 339.883 1085.04 343.021 1114.94C343.038 1115.13 343.077 1115.27 343.154 1115.38C343.47 1115.6 343.588 1115.61 343.702 1115.59C343.799 1115.57 343.894 1115.53 343.969 1115.46L344.824 1114.65L345.87 1115.19C349.153 1116.89 350.656 1119.35 351.176 1122.14C351.823 1125.63 350.791 1129.74 349.769 1133.56C349.335 1135.19 348.914 1136.75 348.683 1138.17C348.603 1138.66 348.539 1139.18 348.483 1139.71C347.949 1139.66 347.414 1139.6 346.878 1139.54ZM613.732 1055.48C612.269 1065.14 611.876 1074.97 612.414 1084.71C612.705 1089.75 613.26 1094.72 613.944 1099.72C614.028 1100.34 614.115 1100.95 614.202 1101.57C613.582 1101.57 612.962 1101.58 612.343 1101.59C603.99 1101.77 595.644 1103.09 587.527 1105.32C586.751 1105.53 585.977 1105.75 585.207 1105.98C585.283 1105.18 585.362 1104.37 585.445 1103.56C586.221 1095.99 587.287 1088.45 588.353 1080.9C589.577 1072.24 590.802 1063.58 591.584 1054.87C591.676 1053.97 591.749 1053.09 591.823 1052.19C592.117 1048.61 592.449 1044.9 593.751 1041.66C594.114 1041.13 594.396 1040.86 594.624 1040.76C595.207 1040.51 596.846 1040.74 598.306 1041.23C598.701 1041.36 599.054 1041.49 599.268 1041.52C601.031 1041.83 602.883 1041.7 604.485 1041.02L607.385 1042.1C607.209 1042.35 607.038 1042.6 606.87 1042.84C607.677 1042.81 608.443 1042.8 609.169 1042.82L609.772 1043.1L610.07 1043.24C612.356 1044.35 613.553 1045.54 614.117 1047.29C614.615 1048.85 614.549 1050.98 613.955 1054.29L613.829 1054.97L613.732 1055.48ZM604.026 824.711C607.57 830.971 608.167 838.25 608.694 845.326C608.79 846.617 608.886 847.899 609 849.167C609.591 855.382 610.21 861.595 610.83 867.809C611.976 879.31 613.122 890.811 614.086 902.322C614.11 902.617 614.135 902.913 614.159 903.208C613.974 903.292 613.805 903.409 613.662 903.566C613.264 904.003 613.187 904.618 613.31 905.183C613.409 905.635 613.637 906.064 614.004 906.336C613.476 906.537 612.943 906.765 612.406 907.02C608.927 908.672 606.44 910.929 604.872 913.501C603.174 916.284 602.56 919.425 602.884 922.501C603.229 925.774 604.632 928.973 606.919 931.615C609.09 934.121 612.058 936.123 615.682 937.22C615.912 937.289 616.142 937.354 616.372 937.415C616.482 937.642 616.592 937.869 616.699 938.097C617.183 939.127 617.627 940.171 618.036 941.228C618.11 941.421 618.184 941.615 618.256 941.81C618.185 941.995 618.118 942.176 618.057 942.355C616.812 945.971 616.396 952.122 616.087 956.431C616.02 957.367 615.959 958.219 615.897 958.947L615.854 959.438L615.826 959.728C615.777 963.567 615.576 967.426 615.375 971.289C614.964 979.153 614.544 987.036 615.468 994.805C615.718 995.865 616.122 996.87 616.519 997.87C617.317 999.884 618.061 1001.88 617.985 1004.12C617.827 1008.65 617.273 1013.18 616.716 1017.71C616.471 1019.7 616.226 1021.69 616.016 1023.68C615.951 1024.29 615.89 1024.91 615.831 1025.52C615.289 1025.33 614.706 1025.22 614.149 1025.14C613.278 1025.03 612.323 1024.98 611.489 1025.19C611.047 1025.3 610.63 1025.48 610.355 1025.84L608.359 1028.45L607.451 1025.29C607.219 1024.48 606.795 1023.85 606.245 1023.4C605.666 1022.94 604.956 1022.69 604.228 1022.66C603.482 1022.63 602.717 1022.84 602.045 1023.27C601.396 1023.69 600.838 1024.32 600.445 1025.15L598.722 1028.82L597.388 1025C595.862 1020.62 595.933 1015.84 596.037 1011.19C596.058 1010.28 596.078 1009.39 596.085 1008.5C595.906 1002.38 595.652 996.256 595.398 990.137C594.805 975.827 594.212 961.516 594.574 947.188C594.397 944.307 594.652 941.096 594.919 937.807C595.326 932.804 595.793 927.602 594.49 923.234C593.627 920.337 591.939 917.836 588.815 916.09C588.72 916.037 588.625 915.985 588.53 915.935C588.426 915.814 588.331 915.691 588.247 915.566C587.344 914.213 587.192 911.783 587.176 909.719C587.172 909.147 587.17 908.617 587.134 908.185C586.864 905.52 586.739 902.811 586.615 900.112C586.514 897.93 586.415 895.754 586.235 893.612C586.217 893.391 586.197 893.17 586.178 892.947C586.317 892.789 586.449 892.63 586.573 892.469C591.288 886.375 591.203 870.135 591.279 859.215C591.292 857.411 591.303 855.744 591.333 854.273L591.348 853.634L591.363 853.088C591.211 850.915 591.175 848.447 591.139 845.831C590.997 835.773 591.183 823.036 582.978 818.041C582.073 817.49 581.131 817.073 580.16 816.772C581.095 816.08 582.129 815.511 583.264 815.091C586.958 813.725 590.877 814.249 594.434 815.94C598.411 817.83 601.91 821.18 604.026 824.711ZM280.742 976.661C280.861 977.089 280.901 977.535 280.855 977.965C280.791 978.55 280.575 979.104 280.202 979.566L280.061 980.234C279.871 981.108 279.642 981.966 279.255 982.788C278.949 983.451 278.456 983.917 277.871 984.205C277.294 984.489 276.617 984.593 275.951 984.506C275.297 984.421 274.664 984.152 274.167 983.743C273.644 983.31 273.266 982.728 273.121 982.032C272.54 979.263 273.32 976.309 274.751 973.895C275.323 972.962 276.089 972.515 276.864 972.354C277.74 972.174 278.673 972.382 279.424 972.889C280.172 973.394 280.713 974.179 280.872 975.056C280.964 975.56 280.942 976.106 280.742 976.661ZM342.383 853.663C340.888 876.904 340.911 900.144 340.932 923.391C340.945 936.739 340.957 950.09 340.684 963.444C340.671 964.052 340.658 964.66 340.644 965.266C340.065 965.174 339.485 965.098 338.903 965.053C337.762 964.964 336.608 964.998 335.453 965.028C333.425 965.081 331.399 965.117 329.424 964.665C328.996 964.567 328.577 964.448 328.164 964.31C328.156 963.903 328.149 963.495 328.141 963.088C327.891 948.806 327.926 934.501 327.961 920.194C328.03 892.481 328.1 864.758 326.08 837.162C326.04 836.622 326 836.081 325.959 835.543C326.466 835.532 326.977 835.488 327.487 835.413C328.935 835.2 330.321 834.75 331.49 834.021C331.67 833.908 331.847 833.788 332.019 833.662C332.245 833.71 332.47 833.757 332.695 833.803C334.777 834.225 336.903 834.529 339.049 834.739C339.743 834.806 340.437 834.864 341.13 834.91C340.876 835.532 340.659 836.166 340.483 836.811C339.048 842.062 340.342 848.038 342.272 852.958C342.317 853.07 342.361 853.183 342.406 853.297C342.398 853.419 342.391 853.541 342.383 853.663ZM577.241 854.561C577.341 855.418 577.131 856.095 576.787 856.618C576.383 857.233 575.761 857.66 575.029 857.852C574.364 858.027 573.607 857.999 572.915 857.752C572.374 857.559 571.876 857.237 571.483 856.795C570.692 856.264 570.287 855.531 570.128 854.678C569.968 853.823 570.131 852.787 570.337 851.796C570.42 851.392 570.512 851.002 570.522 850.66C570.55 849.824 570.599 848.986 570.647 848.149C570.767 846.086 570.895 844.02 570.665 841.963C570.292 839.691 569.45 838.168 568.299 837.125C566.57 835.558 564.248 835.018 562.084 834.452C559.594 833.802 557.278 833.114 555.698 831.658C554.379 830.443 553.472 828.73 553.406 826.04C553.397 825.653 553.406 825.285 553.432 824.935C553.758 824.768 554.091 824.615 554.433 824.476C555.647 823.981 556.909 823.688 558.212 823.534L560.459 823.269L560.143 824.898C560.144 824.898 560.145 824.898 560.146 824.898L560.798 824.957L561.438 825.019L562.049 825.082C567.659 825.685 571.433 826.806 573.857 829.362C575.979 831.598 577.152 834.984 577.346 840.44C577.858 840.909 578.211 841.506 578.438 842.196C578.768 843.201 578.786 844.444 578.771 845.602C578.765 846.035 578.755 846.451 578.783 846.814C579.07 847.554 579.216 848.308 579.158 848.937C579.098 849.585 578.87 850.149 578.442 850.593C578.185 851.798 577.782 852.972 577.196 854.106C577.209 854.259 577.224 854.411 577.241 854.561ZM316.249 831.873L312.768 831.551C311.476 831.432 310.194 831.272 308.983 830.967L308.035 828.276C308.996 827.938 309.89 827.421 310.66 826.779L312.132 825.553L313.131 827.184C313.499 827.785 313.884 828.391 314.289 828.988L316.249 831.873ZM577.697 745.046C577.859 758.075 577.581 771.127 577.303 784.169C577.095 793.918 576.888 803.661 576.865 813.386C576.864 813.978 576.863 814.57 576.863 815.162C576.268 815.118 575.673 815.072 575.079 815.024C572.584 814.822 570.087 814.574 567.589 814.326C564.452 814.015 561.313 813.703 558.174 813.483C557.613 813.444 557.051 813.407 556.489 813.37C556.542 812.811 556.594 812.251 556.645 811.692C558.208 794.346 558.482 776.628 557.79 759.27C557.589 754.157 557.074 749.058 556.507 743.974L559.342 744.278L560.962 744.46C564.329 744.834 568.211 745.256 570.995 743.9C571.149 743.825 571.301 743.744 571.451 743.658C571.62 743.695 571.79 743.726 571.959 743.751C573.141 743.923 574.401 743.795 575.623 743.474C576.334 743.287 577.025 743.037 577.663 742.718C577.676 743.494 577.687 744.27 577.697 745.046ZM406.141 809.775C396.518 808.973 386.865 802.533 378.791 793.813C369.226 783.483 361.894 770.032 359.387 759.612L358.403 755.524L361.911 757.857C362.832 758.47 363.742 759.087 364.658 759.733C380.636 770.989 395.106 786.973 407.685 807.268C408.218 808.129 408.743 808.989 409.257 809.846C408.209 809.883 407.169 809.861 406.141 809.775ZM578.141 700.263C579.023 706.745 579.904 713.229 580.629 719.73L580.757 720.896C581.238 725.425 581.418 730.786 578.641 734.495C576.76 737.098 573.752 738.01 570.716 738.791C569.667 739.061 568.627 739.324 567.677 739.701C567.332 739.808 567.234 739.813 567.137 739.817C564.786 739.918 562.428 739.815 560.099 739.514C559.883 739.478 559.656 739.416 559.41 739.341C559.29 739.304 559.158 739.242 559.066 739.236L557.641 739.132L557.539 737.711C557.004 730.304 556.649 722.794 556.295 715.283C555.867 706.227 555.44 697.167 555.08 688.098L554.99 685.009L554.979 684.624C554.537 668.594 554.286 648.54 539.313 639.289C538.665 638.888 538.01 638.521 537.351 638.186C537.939 637.758 538.486 637.282 538.983 636.758C541.099 634.524 542.29 631.424 542.536 628.26C542.782 625.101 542.086 621.858 540.337 619.324L538.517 616.687L541.728 616.744C542.355 616.755 542.981 616.75 543.607 616.734C554.078 618.483 560.75 624.914 565.235 633.655C571.424 645.718 573.371 662.24 574.959 676.016C575.481 680.538 575.966 684.757 576.564 688.406C577.071 692.399 577.606 696.33 578.141 700.263ZM429.49 467.73C429.258 468.811 428.532 469.773 427.512 470.394C426.563 470.972 425.378 471.24 424.237 471.061C423.192 470.898 422.174 470.376 421.387 469.367L420.469 468.123L419.354 466.595L418.245 465.059L417.693 464.286C410.15 453.68 403.493 442.429 402.008 429.231C401.85 427.831 402.293 426.79 402.981 426.054C403.744 425.238 404.883 424.781 406.098 424.781C407.22 424.781 408.381 425.172 409.266 425.93C410.065 426.614 410.657 427.588 410.801 428.864C412.139 440.759 418.891 451.034 425.818 460.574L426.867 462.012L428.727 464.54C429.549 465.654 429.698 466.76 429.49 467.73Z" fill="white"/>
<path fill-rule="evenodd" clip-rule="evenodd" d="M813.581 775.701L813.924 786.208L814.014 788.882L814.64 809.335L814.955 819.562C816.597 872.395 818.42 925.235 821.586 977.99C823.035 1000.83 825.432 1023.79 831.1 1046.02C831.173 1046.31 831.245 1046.59 831.318 1046.87C831.078 1046.96 830.848 1047.07 830.631 1047.21C830.316 1047.42 830.035 1047.67 829.808 1047.96C829.946 1049.27 830.011 1050.58 829.955 1051.91C830.399 1057.8 827.728 1062.35 823.387 1066C817.513 1070.94 808.518 1074.2 800.613 1077.03C796.7 1078.43 793.064 1079.74 790.25 1081.11C783.345 1083.89 776.487 1086.6 769.627 1089.31C759.195 1093.43 748.76 1097.55 738.403 1101.84C737.953 1102.03 737.503 1102.21 737.053 1102.4C736.997 1101.91 736.942 1101.43 736.886 1100.95C734.373 1079.22 732.249 1057.37 730.122 1035.51C722.886 961.097 715.631 886.418 692.929 814.99C692.271 813.159 691.649 811.298 691.026 809.43C689.132 803.757 687.226 798.021 684.151 792.949C684.099 792.863 684.046 792.778 683.994 792.692C683.979 792.399 683.766 792.314 683.58 792.201C683.079 791.896 682.363 791.643 681.484 791.415C679.308 790.852 676.206 790.493 672.677 790.279C662.714 789.675 649.391 790.246 643.49 790.94C643.263 790.966 643.024 790.996 642.777 791.028C642.707 790.844 642.608 790.674 642.49 790.521C642.291 790.265 642.032 790.05 641.718 789.924C641.439 789.813 641.118 789.776 640.762 789.831C632.973 791.012 625.19 792.198 617.407 793.383C609.633 793.819 586.09 797.75 584.095 799.644C583.194 800.499 582.623 801.562 582.228 802.721C582.227 801.429 582.229 800.136 582.234 798.844C582.273 788.405 582.502 777.954 582.732 767.507C582.935 758.236 583.139 748.968 583.209 739.716C583.21 739.584 583.211 739.452 583.212 739.319C583.296 739.223 583.378 739.125 583.46 739.026C588.338 733.125 587.921 725.179 586.943 718.004L586.829 717.189L586.668 716.095C585.871 710.444 585.1 704.787 584.329 699.13C582.678 687.016 581.027 674.899 579.113 662.828C579.058 662.48 579.002 662.131 578.948 661.784C579.295 661.716 579.641 661.648 579.988 661.579C590.156 659.584 600.346 657.716 610.569 656.012C610.784 655.976 610.999 655.94 611.213 655.905C611.293 656.052 611.393 656.187 611.515 656.304C612.002 656.771 612.76 656.879 613.459 656.765C614.164 656.649 614.86 656.292 615.219 655.663C615.3 655.521 615.36 655.373 615.407 655.218C615.605 655.186 615.802 655.154 615.999 655.122C653.151 649.061 690.741 645.644 728.415 645.652C728.415 645.652 733.074 645.644 733.832 645.64C750.42 645.55 768.495 645.566 781.058 657.53C809.463 689.495 812.195 734.412 813.581 775.701ZM894.101 1054.47L894.209 1055.32L893.601 1055.69C893.232 1055.92 892.85 1056 892.457 1056.06C892.387 1056.07 892.318 1056.08 892.248 1056.09L884.594 1057.23L893.945 1052.94L894.101 1054.47ZM880.809 722.456C892.031 759.534 901.372 797.195 910.713 834.863C926.564 898.778 942.416 962.714 967.425 1023.6C967.532 1023.86 967.639 1024.12 967.742 1024.38C967.52 1024.55 967.297 1024.72 967.071 1024.89C956.074 1033.2 942.572 1035.81 929.204 1037.78L928.272 1037.92L925.96 1038.25C909.548 1040.92 893.712 1046.14 879.291 1054.41L877.043 1047.27L875.241 1041.52C873.118 1034.75 871.004 1027.96 868.889 1021.18C854.88 976.258 840.86 931.298 824.32 887.254C823.378 871.067 822.66 855.191 821.943 839.315C820.69 811.594 819.438 783.871 817.351 756.211L817.116 753.892C814.771 731.007 810.88 699.588 798.935 675.843C790.935 659.942 779.31 647.478 761.983 643.564C760.656 643.264 753.183 641.638 751.877 641.455C753.165 640.969 767.092 639.738 769.839 638.966L773.153 638.678L774.66 638.55C799.643 636.449 829.769 635.065 846.839 646.577C863.175 659.756 869.096 681.282 874.68 701.863C876.612 708.983 878.51 715.983 880.809 722.456ZM966.256 1041.2C965.989 1041.93 965.375 1042.76 964.706 1043.55L964.442 1043.85C964.241 1044.03 964.044 1044.19 963.839 1044.34L962.784 1045.08L962.215 1043.92C961.983 1043.45 961.749 1042.99 961.513 1042.53C961.282 1042.07 961.046 1041.62 960.807 1041.16C961.289 1041.14 961.765 1041.08 962.231 1040.96C963.076 1040.76 963.871 1040.39 964.619 1039.9L967.383 1038.11L966.256 1041.2ZM968.381 1030.66L964.548 1035.41C964.237 1035.79 963.857 1036.25 963.503 1036.66C963.36 1036.82 963.208 1036.99 963.055 1037.15C962.885 1037.09 962.705 1037.05 962.519 1037.02C962.207 1036.97 961.898 1036.98 961.607 1037.05L960.875 1034.99C961.642 1034.61 962.396 1034.21 963.127 1033.77L968.381 1030.66ZM824.983 903.605L828.481 913.349L825.527 913.941L824.983 903.605ZM828.042 901.713L826.013 902.532C825.962 902.349 825.911 902.166 825.86 901.982C825.507 900.716 825.153 899.45 824.81 898.18L826.972 897.981C826.862 899.369 827.393 900.524 828.042 901.713ZM549.738 668.473C550.151 677.92 550.388 687.375 550.624 696.831C550.888 707.382 551.152 717.933 551.662 728.476L551.674 728.908L551.681 729.343C551.689 730.007 551.683 730.703 551.678 731.417C551.646 735.619 551.425 740.65 554.653 743.226C554.802 743.345 554.954 743.455 555.109 743.558C555.093 743.761 555.078 743.963 555.063 744.165C554.446 752.396 554.091 760.519 553.738 768.617C553.264 779.493 552.791 790.325 551.689 801.313C551.646 801.742 551.602 802.171 551.557 802.598C551.163 802.471 550.765 802.364 550.363 802.278C547.345 801.635 544.054 802.22 540.892 802.755C539.885 802.925 494.945 808.896 480.177 811.004C471.048 812.307 461.92 813.61 452.79 814.849C452.515 814.887 452.239 814.924 451.961 814.955C451.852 814.703 451.742 814.452 451.632 814.2C432.444 770.375 401.878 728.711 361.341 708.221C361.161 708.13 360.98 708.039 360.802 707.948C360.793 707.763 358.59 701.997 358.584 701.077C358.581 700.592 358.611 700.099 358.667 699.608C359.104 699.758 359.541 699.892 359.977 700.011C361.527 700.433 363.181 700.694 364.95 700.779C397.868 701.132 429.627 693.184 461.403 685.245C481.966 680.107 502.536 674.969 523.423 672.053C526.296 671.506 529.245 671.084 532.204 670.662C537.676 669.881 543.185 669.099 548.303 667.474C548.761 667.329 549.218 667.176 549.673 667.018C549.695 667.503 549.717 667.988 549.738 668.473ZM406.251 809.321C396.746 808.528 387.229 802.14 379.259 793.533C369.763 783.277 362.476 769.924 359.986 759.576C359.783 758.732 359.599 757.855 359.436 756.951C360.19 757.431 360.929 757.915 361.669 758.407C362.586 759.017 394.744 787.424 407.28 807.649C407.644 808.236 408.003 808.822 408.356 809.408C407.65 809.408 406.948 809.379 406.251 809.321Z" fill="#21BB7A"/>
<path fill-rule="evenodd" clip-rule="evenodd" d="M549.608 661.129C533.218 663.024 516.597 665.325 500.255 668.04C485.212 670.799 470.306 674.491 455.398 678.182C426.465 685.345 397.523 692.495 367.574 692.946C362.913 693.329 359.764 692.614 357.457 690.858C355.064 689.035 353.523 686.007 352.363 681.422C348.846 669.828 347.55 657.763 346.855 645.694L346.811 644.909L346.632 641.575L359.882 642.116L367.224 642.411C397.8 643.625 428.384 644.665 458.979 644.837C469.907 644.876 480.835 644.827 491.758 644.668C495.742 644.426 499.898 644.472 504.105 644.52C515.413 644.649 527.132 644.878 536.628 638.935C536.882 638.776 537.133 638.614 537.381 638.449C537.676 638.577 537.97 638.715 538.262 638.864C545.141 642.383 547.608 650.304 548.99 657.672L549.128 658.419L549.608 661.129ZM779.074 541.574C754.738 575.885 734.857 590.87 715.08 590.725C693.655 590.567 672.053 572.514 644.623 540.369L644.133 536.802C642.763 526.812 637.835 538.17 639.229 551.167C642.379 580.552 645.53 609.95 647.925 639.351C647.937 639.501 647.949 639.652 647.961 639.802C647.916 639.887 647.861 639.999 647.773 640.185C647.643 640.459 647.594 640.574 647.552 640.688L647.442 641.362L646.797 641.987C646.015 642.762 645.284 643.677 644.945 644.708C644.721 645.388 644.689 646.123 644.987 646.889L645.734 648.81L643.69 649.114C634.556 650.471 625.456 652.037 616.421 653.843L615.22 654.083L614.64 653.007C614.498 652.741 614.386 652.439 614.104 652.273C613.93 652.17 613.742 652.15 613.551 652.141C613.479 651.838 613.407 651.534 613.336 651.23C602.53 605.134 597.96 557.645 593.399 510.189C586.142 434.693 578.924 359.273 546.36 289.736C546.259 289.52 546.157 289.304 546.061 289.092C546.147 288.952 546.213 288.801 546.256 288.634C546.441 287.909 546.088 287.231 545.688 286.481L544.086 283.479L547.442 284.087C568.979 287.984 583.116 299.731 597.542 314.903L597.975 315.358L598.785 316.217C619.996 333.968 629.357 360.11 637.898 385.617L639.51 390.438L640.624 393.759C644.15 403.804 647.543 409.994 651.109 416.507C654.091 421.954 657.192 427.622 660.591 435.861C662.529 441.726 673.122 462.995 683.547 475.517C686.723 479.333 689.86 482.34 692.738 483.712C693.804 484.22 694.82 484.495 695.775 484.413C696.575 484.345 697.312 484.005 697.985 483.383C698.229 483.157 698.436 482.921 698.608 482.673C698.848 482.835 699.071 482.931 699.273 482.951C701.067 483.13 705.665 477.707 708.897 474.382C709.99 473.258 710.949 472.272 711.652 471.603L711.956 471.32C712.08 471.193 713.166 470.359 714.979 469.002C725.026 461.48 758.688 436.304 774.631 415.404C778.393 410.711 781.72 405.548 785.038 400.404C788.417 395.165 791.787 389.947 795.546 385.272C796.166 384.5 796.804 383.735 797.455 382.977C797.567 383.841 797.873 384.686 798.314 385.568C799.089 387.118 800.021 388.267 801.551 388.948L804.107 393.558L804.928 395.031C813.566 410.464 824.607 428.618 843.688 429.23C844.553 429.257 845.404 429.248 846.241 429.205C845.873 429.997 845.503 430.787 845.13 431.577C827.94 468.017 805.966 501.995 783.345 535.302L781.628 537.827L779.074 541.574ZM425.718 581.904C421.883 588.078 418.43 594.481 418.279 602.163L413.293 603.184L409.634 603.927C388.413 608.206 367.012 612.017 345.312 613.023C319.583 614.743 290.035 611.643 275.894 602.841C271.13 599.877 261.904 583.662 259.533 578.815L259.349 578.433C244.026 548.934 255.617 492.608 264.254 455.452L265.033 452.115L267.17 443.01C269.743 435.016 272.226 426.511 274.783 417.752C287.225 375.138 301.51 326.701 335.911 301.407C344.213 295.877 353.037 291.405 361.863 286.937C367.565 284.05 373.267 281.164 378.807 277.997C384.558 274.739 390.178 271.326 395.801 267.911C400.988 264.761 406.178 261.609 411.471 258.577C412.247 258.132 413.025 257.691 413.803 257.255C413.846 258.139 413.893 259.024 413.944 259.911C418.526 339.257 456.961 406.617 495.412 474.122C523.046 522.636 550.704 571.223 566.043 624.313C566.812 626.977 567.549 629.648 568.253 632.324C566.988 629.985 565.284 627.849 563.309 625.957C559.722 622.519 555.365 620.003 550.518 619.403L550.415 616.15C551.087 616.024 551.526 615.574 551.815 615.042C552.303 614.144 552.421 613.001 552.296 612.076C550.769 600.836 542.106 591.893 533.621 585.033L533.085 584.603L532.533 584.165C511.473 567.143 485.164 556.085 458.14 555.099C457.82 555.088 457.5 555.078 457.184 555.068C457.089 554.825 456.968 554.586 456.815 554.353C455.85 552.876 454.171 552.445 452.58 552.027L450.329 551.445C435.155 547.593 436.802 553.215 449.091 556.886C450.678 557.359 452.277 557.904 453.887 558.51C452.332 558.896 450.778 559.387 449.221 559.997C440.046 563.589 433.73 570.134 428.14 578.177L427.652 578.886L427.185 579.575L426.344 580.903L425.718 581.904ZM651.785 560.327L647.182 562.093L646.033 552.33L649.77 557.557C650.018 557.903 650.267 558.248 650.518 558.591L651.785 560.327Z" fill="#9FD8E5"/>
<path fill-rule="evenodd" clip-rule="evenodd" d="M430.323 236.888C428.994 237.322 429.143 234.483 431 234.769C432.539 235.009 433.11 237.071 433.39 238.38L433.434 238.591C436.008 250.607 433.043 263.3 426.995 273.847C425.478 276.313 423.905 279.698 420.897 280.359C422.324 290.522 424.279 300.602 426.703 310.573C435.346 313.593 443.482 318.069 452.108 321.166C468.709 327.05 486.474 328.624 503.943 329.874C515.96 330.527 528.322 329.998 539.737 325.892C544.565 324.579 548.658 320.279 553.723 320.293C550.324 311.041 546.562 301.926 542.386 292.976C529.402 292.972 519.593 280.413 515.736 269.251C514.332 264.803 513.924 260.142 513.032 255.585L512.701 253.883C512.41 252.366 512.145 250.841 512.029 249.303C511.991 248.732 512.839 243.719 512.641 243.005C512.619 243.213 512.348 243.048 512.222 243.038C511.88 242.616 512.178 241.77 512.855 241.802C513.952 241.77 514.497 244.147 514.745 244.795C520.012 255.571 522.019 268.816 531.421 276.907C536.115 273.954 541.895 277.82 546.667 279.006L548.048 279.441C570.355 286.447 580.679 288.145 598.594 305.94C629.199 329.742 638.218 360.12 650.264 395.114L650.976 397.015C662.557 427.825 671.907 446.936 694.955 472.175C703.318 468.285 755.28 426.856 773.119 402.517L773.649 401.785C778.786 394.809 790.482 370.392 800.057 372.712C800.917 351.245 815.239 333.476 825.34 315.395L839.679 291.367C841.061 289.05 842.383 285.855 844.344 283.971C847.677 280.77 853.214 283.713 855.208 286.958C860.694 296.172 853.789 313.783 852.772 324.548C877.357 310.353 901.288 294.826 926.696 282.11C928.833 281.083 931.5 281.869 932.178 284.334C936.471 302.033 913.058 316.847 901.754 327.435C920.248 320.027 937.596 309.48 955.496 300.651L956.69 300.065C959.119 298.807 962.408 301.481 960.689 304.051C950.559 319.221 937.465 332.372 922.19 342.288C939.233 339.406 956.001 335.178 972.554 330.011C975.248 329.171 977.17 332.734 975.259 334.645L974.357 335.553C965.308 344.608 955.323 352.68 943.541 357.97C949.044 357.706 954.548 357.448 960.056 357.2C962.788 357.08 963.697 360.419 962.144 362.225C956.023 369.324 947.788 373.931 938.998 376.958C902.215 386.819 871.334 385.974 846.52 420.596C852.729 421.711 851.824 428.618 849.864 432.947L849.743 433.209C840.882 452.455 830.397 470.917 819.294 488.957C795.513 524.175 775.981 566.502 738.339 589.089C762.644 588.265 786.96 587.79 811.283 587.591C818.021 587.534 824.759 587.501 831.497 587.493L836.55 587.492C843.232 587.492 852.051 586.092 857.813 590.231C868.883 599.109 860.246 615.474 847.986 617.812C840.262 619.881 831.915 619.569 823.991 620.173C825.501 623.081 825.873 626.665 826.067 629.782C853.91 631.512 870.162 653.289 877.754 678.188C892.977 725.864 904.638 774.605 917.261 823.016L918.691 828.63C930.871 876.35 943.678 923.932 958.959 970.771C964.159 986.99 970.097 1002.99 974.884 1019.34C975.311 1020.79 974.995 1022.12 974.265 1023.18C973.362 1029.56 969.273 1040.27 962.392 1041.97C965.214 1047.5 967.752 1053.49 969.91 1059.25C1000.96 1051.02 1027.03 1075.34 1053.13 1087.86C1066.27 1094.72 1085.43 1092.8 1092.82 1107.93C1104.74 1104.96 1119.25 1111.57 1120.46 1124.86C1121.51 1138.54 1109.84 1142.5 1098.39 1143.32C1077.8 1146.11 1057.08 1147.93 1036.31 1148.61C1048.04 1188.05 1028.6 1245.47 988.497 1261.69C935.75 1283.88 874.476 1238.46 873.126 1183.23C828.827 1187.42 784.521 1192.63 740.124 1195.33C741.962 1201.64 733.58 1204.25 728.766 1202.41C740.5 1255.55 705.851 1323.02 648.168 1322.8C573.838 1322.3 543.793 1219.19 582.725 1164.02L582.353 1163.06C576.16 1147.1 564.51 1114.26 584.19 1104.8C580.036 1098.48 581.078 1090.52 581.216 1083.36C562.983 1084.19 553.561 1097.25 546.788 1112.68C540.544 1126.5 534.594 1140.44 528.438 1154.3C522.64 1169.32 516.919 1176.9 499.861 1177.9L498.113 1178.03C479.078 1179.41 453.775 1180.54 436.596 1172.92C395.83 1247.28 310.292 1291.38 236.257 1238.08C84.2786 1133.48 89.8779 741.514 290.55 695.087C290.632 687.616 290.738 680.148 290.869 672.675C290.44 667.914 290.533 663.165 290.964 658.339L291.056 656.365C291.607 644.184 291.736 631.874 290.229 619.766C265.878 617.795 251.128 586.727 248.672 582.026C229.899 546.096 247.263 479.612 255.075 444.877C247.497 445.477 240.57 444.556 233.162 444.643L230.593 444.686C216.825 444.9 207.577 444.324 207.229 427.202C207.246 420.249 204.145 407.359 213.316 405.2C217.458 404.372 222.35 405.837 226.497 406.245C239.592 407.302 252.704 408.104 265.839 408.023C277.234 375.457 286.155 340.609 307.858 313.039C326.293 289.713 355.78 280.527 382.288 269.504C389.483 266.726 395.558 261.914 401.756 257.264L402.183 256.932C405.261 254.575 408.607 252.584 412.605 252.477C416.491 252.374 420.106 254.131 423.909 254.387C424.579 253.889 425.452 253.577 426.209 253.788C428.234 248.201 429.733 242.395 430.471 236.51L430.408 236.239C430.294 235.791 430.25 235.904 430.283 236.586C430.46 236.586 430.487 236.834 430.323 236.888ZM648.166 1136.67C639.793 1136.67 631.756 1138.44 624.281 1141.68C622.545 1151.29 630.475 1164.78 633.14 1174.46C633.248 1178.46 633.977 1182.54 634.916 1186.5C635.58 1198.04 640.48 1208.63 642.752 1219.56C643.174 1221.63 646.361 1220.75 645.939 1218.68C643.947 1208.88 641.284 1199.24 638.993 1189.51C640.069 1190.16 641.892 1189.29 641.497 1187.69C640.647 1184.24 640.648 1180.76 640.784 1177.27C697.477 1184.41 694.161 1278.4 636.324 1279.7C598.79 1280.64 577.874 1229.32 599.091 1198.59C595.608 1191.12 591.835 1183.79 588.267 1176.3C557.875 1227 589.703 1313.41 648.166 1311.82C742.442 1309.16 742.484 1139.35 648.166 1136.67ZM988.545 1147.71C999.736 1168.52 998.542 1196.48 984.348 1215.66C968.295 1237.46 933.259 1234.9 917.53 1213.98C911.313 1206.52 906.524 1197.39 906.243 1187.53C906.221 1185.35 907.632 1181.5 905.731 1179.8L893.575 1181.09C887.497 1181.74 881.419 1182.38 875.341 1183C892.954 1229.95 936.241 1272.46 989.092 1248.95C1021.85 1230.93 1033.98 1187.89 1029.2 1152.77C1028.93 1151.09 1029.54 1149.71 1030.54 1148.78C1016.54 1149.11 1002.48 1149.18 988.545 1147.71ZM414.388 791.456C320.971 644.107 197.916 739.506 166.416 874.744C142.76 967.861 151.156 1081.54 200.548 1163.97C258.551 1262.12 356.441 1262.01 414.386 1163.97C458.241 1090.79 469.776 992.956 455.253 906.768C455.258 907.541 454.987 908.314 454.427 908.935C471.496 1012.4 452.289 1140.42 370.022 1203.28C309.291 1247.98 238.279 1211.43 204.186 1150.2C138.201 1039.17 143.283 835.594 251.523 752.142C282.42 730.178 318.708 726.007 352.174 741.709C352.515 739.635 353.804 741.922 354.305 742.742C411.884 773.229 440.343 838.71 453.502 903.888C454.296 904.328 454.826 905.002 455.079 905.748C453.278 895.214 451.086 884.858 448.516 874.744C440.469 843.469 428.983 815.45 414.388 791.456ZM626.03 1225.12C621.049 1221.95 623.419 1231.46 625.15 1233.23C626.395 1234.98 628.861 1233.5 628.004 1231.57C626.942 1230.02 628.832 1225.31 626.03 1225.12ZM294.935 744.785C155.186 783.937 146.036 1041.26 213.641 1144.56C244.764 1200.19 307.991 1235.23 363.664 1194.31C372.786 1187.88 381.407 1179.9 389.466 1170.43C353.673 1170.14 317.949 1165.36 282.232 1162.67L281.422 1162.6C276.013 1162.13 270.465 1161.87 265.482 1159.55C250.374 1152.17 254.491 1133.22 268.219 1126.61C275.738 1111.83 308.942 1115.13 323.794 1114.34C320.46 1071.86 322.194 1029.12 321.712 986.54C311.091 988.846 300.504 991.262 289.933 993.815C288.677 994.122 287.405 993.942 286.331 993.409C283.752 997.471 278.692 997.927 274.636 995.874C266.434 991.739 265.498 980.984 267.046 973.038L267.208 972.351C268.56 966.735 271.263 958.367 277.859 957.934C282.018 955.35 286.543 958.401 288.06 962.457C295.024 961.298 301.337 963.127 308.128 961.766C312.628 960.859 317.167 958.562 321.794 960.146C321.955 930.98 322.056 901.811 322.367 872.647C313.639 875.563 302.988 869.534 300.454 860.83C298.741 855.038 300.256 848.394 301.06 842.579L301.212 841.491C301.729 837.845 302.374 834.033 303.616 830.499C283.962 827.793 287.983 786.72 289.476 772.21C291.305 762.693 292.447 754.426 294.935 744.785ZM619.484 910.38C610.755 910.299 604.518 919.722 609.557 927.224C619.697 938.642 634.354 928.35 650.068 959.13C676.141 1020.73 688.17 1087.36 704.396 1152C712.556 1160.46 717.514 1171.22 723.505 1181.27C725.716 1185.05 726.392 1190.38 730.407 1192.77C731.184 1193.13 731.806 1193.19 732.418 1193.1C724.086 1188.49 725.831 1165.75 727.548 1157.48L727.474 1157.48C726.717 1157.53 723.95 1158.13 725.218 1156.83L726.568 1156.4L727.917 1155.97L728.011 1155.63C704.568 1101.36 699.472 1040.76 682.671 984.234L681.173 979.218C675.368 959.898 668.667 939.693 653.979 925.349C653.419 925.317 652.846 925.111 652.321 924.67L651.792 924.21C643.123 916.73 632.469 910.692 620.607 911.784C620.133 911.817 620.056 911.092 620.497 910.977C620.774 910.903 621.054 910.848 621.332 910.785C620.714 910.662 620.097 910.526 619.484 910.38ZM577.789 1063.77C575.289 1064.77 572.744 1064.07 569.918 1064.13C566.96 1064.21 564.084 1064.69 561.243 1065.5C514.549 1078.97 521.434 1148.95 487.434 1157.07C478.936 1158.72 470.381 1157.45 461.859 1156.31C456.421 1156.5 451.425 1156.33 446.22 1155.21C443.774 1160.11 441.212 1164.89 438.546 1169.56C444.742 1168.59 451.053 1168.84 457.314 1168.73C472.038 1168.96 486.761 1168.36 501.381 1166.53C506.587 1165.94 511.39 1164.5 514.471 1160C521.422 1148.28 526.181 1135.26 532.433 1123.14L533.256 1121.29C542.204 1101.22 554.043 1077.13 579.222 1077.08C579.365 1075.63 580.5 1074.46 581.789 1074.11C581.932 1072.02 582.075 1069.93 582.229 1067.84C580.775 1066.45 579.703 1064.65 577.789 1063.77ZM267.007 1132.08C264.281 1136.65 264.563 1144.67 269.447 1147.83C272.758 1149.71 277.479 1149.5 281.147 1149.77L287.466 1150.23C289.572 1150.39 291.678 1150.54 293.783 1150.71L296.94 1150.96C327.06 1153.35 357.149 1155.97 387.229 1158.7L387.366 1158.65C387.784 1158.49 388.441 1158.28 388.441 1158.28L388.909 1158.07C389.577 1157.75 388.768 1158.04 388.689 1158.08L388.684 1158.08C392.038 1155.93 395.652 1158.39 396.445 1161.66C399.453 1157.64 402.367 1153.41 405.187 1148.95C401.223 1150.11 397.013 1150.28 392.914 1150.02C390.096 1153.21 385.035 1152.04 381.269 1151.97C354.66 1149.85 328.121 1146.79 301.595 1143.82C294.858 1143.04 288.115 1142.25 281.379 1141.45L279.858 1141.32C273.901 1140.75 266.737 1139.61 267.007 1132.08ZM846.267 1080.07C843.474 1083.11 838.125 1083.93 834.561 1085.7C830.447 1087.74 826.52 1090.23 822.993 1093.17C807.026 1107.92 790.774 1131.38 765.777 1121.02C760.525 1118.99 755.63 1115.77 752.347 1111.14C750.886 1111.86 749.193 1110.48 747.713 1110.29C748.993 1117.18 749.533 1123.71 751.477 1130.43C752.32 1133.37 753.273 1136.29 754.446 1139.12C755.654 1142.01 757.833 1144.94 757.751 1148.18C776.69 1144.15 795.836 1141.55 815.034 1139.21C822.242 1138.95 834.417 1135.09 840.384 1138.75C847.454 1143.14 844.283 1151.26 848.052 1154.28C853.806 1157.08 861.241 1154.96 867.469 1154.8C894.603 1152.5 921.988 1150.97 949.077 1148.71C965.346 1145.73 954.702 1140.75 961.709 1136.77C961.682 1111.83 931.611 1114.46 913.972 1112.25C908.653 1114.37 903.275 1116.33 897.833 1118.11C895.148 1118.98 893.294 1115.4 895.153 1113.52L898.933 1109.69C896.354 1109.11 893.791 1108.45 891.256 1107.7C887.686 1109.32 883.935 1110.52 880.439 1112.31L879.787 1112.65C877.402 1113.93 874.592 1111.32 876.019 1108.89C877.124 1107.01 878 1105.09 878.682 1103.08C875.343 1101.57 872.102 1099.85 869.018 1097.89L868.404 1097.5L858.388 1103.07C856.428 1104.16 853.478 1102.32 854.342 1099.97C855.369 1096.73 858.403 1095.36 860.71 1093.19C860.452 1092.63 860.3 1091.89 860.424 1091.33C855.916 1087.4 851.983 1082.38 846.267 1080.07ZM979.732 1155.24L979.417 1155.29C979.439 1155.33 979.455 1155.36 979.477 1155.39L979.613 1155.38L979.482 1155.4C979.569 1155.53 979.689 1155.63 979.841 1155.67C979.81 1155.57 979.783 1155.48 979.761 1155.38L979.732 1155.24ZM614.223 837.247L615.029 844.754C617.167 864.758 619.201 884.667 620.794 904.695C621.005 904.892 621.178 905.121 621.322 905.367L626.062 906.221C634.334 907.727 641.189 909.287 648.69 914.952C673.683 928.282 682.058 957.636 689.722 982.818C706.524 1038.04 712.305 1096.35 735.018 1149.75C735.684 1151.29 735.646 1152.67 735.183 1153.78C739.116 1152.65 743.071 1151.6 747.048 1150.63C741.704 1140.37 739.397 1125.01 740.886 1113.53L740.304 1113.52C738.448 1113.47 736.207 1113.46 734.725 1112.32C731.799 1113.14 729.32 1110.36 729.043 1107.72L729.031 1107.59C720.937 1017.13 715.061 925.751 693.142 837.319C690.291 840.205 685.143 839.541 681.31 839.708L681.106 839.718C677.653 839.883 674.193 840.015 670.734 840.126L669.233 840.145C650.96 840.407 632.137 841.723 614.223 837.247ZM479.799 909.813C492.422 988.975 481.257 1084 448.401 1150.75C456.346 1150.58 464.076 1148.46 472.005 1148.48C486.114 1148.71 492.999 1145.84 498.672 1132.44C512.3 1101.46 525.913 1061.67 564.349 1055.79L566.148 1055.62C571.516 1055.11 580.541 1054.57 580.544 1060.91C581.239 1060.83 582.034 1060.91 582.747 1061.1C582.863 1059.62 582.978 1058.13 583.1 1056.66L583.201 1053.74C583.535 1044.51 584.526 1031.74 596.056 1031.84C596.21 1030.83 596.546 1029.82 596.953 1028.82C585.345 1023.11 585.752 993.772 584.449 981.955C583.387 965.143 583.471 948.27 583.854 931.435C583.898 929.766 584.218 927.542 583.568 926.181C577.582 922.272 576.27 917.172 576.071 910.192C544.021 911 511.872 910.14 479.799 909.813ZM619.136 939.847C621.935 946.148 622.127 953.42 622.937 960.207C623.609 968.284 624.083 976.36 624.556 984.448L624.66 986.301C624.824 989.124 625.056 991.866 626.088 994.568L626.326 995.198C627.54 998.441 628.468 1001.45 628.131 1005.03C627.349 1013.4 626.027 1021.87 624.496 1030.13C622.355 1037.13 614.379 1032.66 609.843 1031.03L609.892 1031.5C610.196 1034.52 610.185 1037.54 608.494 1039.88C621.019 1039.47 621.913 1048.46 620.491 1058.48L620.408 1059.81C619.535 1073.93 619.244 1088.74 623.102 1102.4C629.612 1105.2 634.337 1110.46 638.867 1115.68C641.534 1118.77 644.866 1122.05 646.965 1125.7C664.636 1125.39 681.483 1131.65 695.577 1143.47L693.912 1136.42C683.01 1090.22 672.336 1043.89 657.74 998.68C650.353 977.288 644.591 946.067 619.136 939.847ZM347.662 903.647C347.701 923.76 347.844 943.867 347.971 963.979C354.024 964.83 359.869 966.576 365.504 969.09C369.079 970.683 367.438 975.515 364.518 976.618C359.197 978.628 353.633 979.787 348.075 980.945C347.502 1024.66 350.409 1068.59 346.065 1112.15C359.126 1114.1 360.076 1128.78 357.605 1139.09C372.067 1140.37 386.646 1144.01 401.149 1141.46C405.422 1141.23 408.143 1136.42 412.056 1137.32C446.221 1077.55 457.368 984.431 443.543 910.609C411.52 910.093 379.379 908.126 347.662 903.647ZM338.904 982.873C335.874 983.51 332.85 984.152 329.82 984.794C329.372 1028 331.197 1071.39 327.776 1114.48C329.057 1114.42 328.791 1115.26 327.699 1115.34C327.633 1116.07 327.562 1116.81 327.49 1117.54C327.286 1119.73 324.29 1119.72 324.086 1117.54C324.042 1117.1 324.003 1116.66 323.965 1116.21C318.192 1117.48 312.331 1118.37 306.513 1119.34C297.943 1121.45 277.345 1120.08 275.804 1131.2L282.469 1131.78C304.957 1133.74 324.714 1135.59 347.012 1137.94C348.125 1131.11 353.426 1121.02 345.068 1116.68C343.861 1117.82 341.537 1117.31 341.338 1115.14C336.729 1071.23 339.544 1026.95 338.904 982.873ZM1001.55 1071.86C974.915 1061.23 961.065 1073.61 939.724 1087.21C928.701 1093.43 913.664 1096.13 902.569 1088.9C897.474 1089.2 895.092 1083.61 895.513 1079.16C895.507 1078.86 895.502 1078.55 895.502 1078.25C889.296 1081.98 893.138 1092.32 891.817 1098.42C904.48 1102.39 917.659 1103.36 930.811 1104.31C947.853 1104.68 968.405 1113.04 970.406 1132.02L970.461 1132.6L971.766 1132.56C971.766 1130.64 972.981 1128.66 975.395 1128.47L975.551 1128.46C1010.76 1126.25 1046.34 1126.36 1081.37 1122.8C1085.58 1121.61 1087.08 1118.84 1085.95 1114.73C1083.24 1104.84 1069.33 1104.36 1061.14 1102.06C1051.27 1099.29 1042.42 1094.43 1033.73 1089.22C1030.03 1090.26 1026.28 1091.13 1022.51 1091.86C1020.67 1092.21 1018.28 1090.6 1019.12 1088.48L1019.73 1086.93C1020.35 1085.39 1021.1 1083.64 1022.06 1082.15C1019.23 1080.47 1016.38 1078.83 1013.48 1077.29C1008.56 1079.03 1003.91 1081.3 999.482 1084.11C996.809 1085.81 994.077 1082.07 996.074 1079.88L996.145 1079.8C998.453 1077.44 1000.24 1074.78 1001.55 1071.86ZM824.663 1075.11C800.921 1086.67 775.734 1095.3 751.448 1105.76L751.938 1105.94C752.789 1106.26 753.758 1106.69 754.072 1107.46C763.206 1114.68 776.05 1117.62 786.892 1112.49C802.531 1104.13 810.291 1086.11 826.288 1077.97C825.632 1077.07 825.081 1076.1 824.663 1075.11ZM598.953 1043.18C598.171 1043.05 595.863 1042.03 595.246 1042.3C593.671 1046.22 593.623 1050.86 593.191 1055.04C591.726 1071.36 588.716 1087.5 587.049 1103.76C595.298 1101.5 603.779 1100.16 612.267 1099.97C611.577 1094.93 611.018 1089.91 610.725 1084.84C610.179 1074.97 610.579 1065.01 612.063 1055.23L612.165 1054.7C613.772 1046.19 612.495 1045.81 604.45 1042.81C602.721 1043.4 600.793 1043.5 598.953 1043.18ZM780.193 658.261C766.445 645.168 745.949 646.759 728.308 646.687C690.697 646.679 653.167 650.092 616.073 656.142C615.023 657.983 612.073 658.4 610.647 657.032C600.435 658.734 590.255 660.601 580.097 662.594C582.907 680.307 585.149 698.118 587.655 715.876L587.816 716.97C588.921 724.677 589.463 733.302 584.207 739.662C584.058 759.337 583.306 779.083 583.232 798.785C586.126 796.038 590.795 796.353 594.519 795.672C602.145 793.925 609.405 792.663 617.136 792.235C624.92 791.049 632.703 789.863 640.492 788.683C641.693 788.495 642.657 789.012 643.258 789.786C653.222 788.615 663.147 786.617 673.15 785.971L672.557 784.199C669.6 775.288 666.898 765.62 671.149 756.762C672.158 754.687 675.456 754.809 676.5 756.762C680.165 763.616 680.322 771.43 681.73 778.921C682.539 783.218 684.211 787.787 684.99 792.318C689.122 799.133 691.186 807.125 693.876 814.593C723.271 907.083 726.807 1005.01 737.877 1100.76C755.047 1093.66 772.431 1087 789.662 1080.06C802.042 1074.02 830.131 1069.29 828.748 1051.87C828.812 1050.44 828.729 1049.02 828.565 1047.61C828.902 1047.05 829.375 1046.59 829.929 1046.23C824.244 1023.93 821.836 1000.91 820.383 977.996C816.603 915.014 814.736 851.915 812.81 788.852L812.719 786.182C811.263 742.442 810.795 692.704 780.193 658.261ZM826.373 910.961C828.625 952.983 827.627 995.598 837.701 1036.74L838.01 1037.99C838.984 1041.94 841.572 1047.5 839.928 1051.62C839.868 1056.67 841.651 1064.53 837.301 1068.1C835.442 1069.45 833.049 1070.29 830.807 1071.14C831.895 1072.41 833.417 1073.28 834.92 1073.79L835.171 1073.67C839.342 1071.72 846.668 1070.4 847.716 1076.21C855.604 1076.83 863.233 1084.36 869.595 1088.38C872.851 1090.44 876.222 1092.25 879.687 1093.84C880.787 1085.49 885.685 1074.91 895.496 1075.18C895.496 1070.13 894.634 1065.15 893.876 1060.17C889.315 1060.9 884.76 1061.2 880.147 1061.01C877.086 1063.21 874.054 1060.78 873.656 1057.48C859.519 1008.45 843.719 959.216 826.373 910.961ZM954.614 1038.64C935.782 1044.53 915.112 1044.66 897.033 1052.78C902.459 1060.54 904.549 1069.92 905.874 1079.13C907.114 1080.1 907.945 1081.62 908.011 1083.28C908.045 1083.85 907.992 1084.44 907.819 1084.99C927.936 1089.19 942.69 1072.18 958.871 1063.59C956.665 1055.55 955.606 1046.95 954.614 1038.64ZM905.927 1079.88L905.933 1079.99C905.906 1080.92 906.628 1080.62 905.927 1079.88ZM892.902 1054.52C892.594 1054.66 892.29 1054.8 891.982 1054.94C892.3 1054.89 892.618 1054.85 892.935 1054.8C892.924 1054.7 892.911 1054.61 892.902 1054.52ZM846.118 647.423C824.164 632.619 780.375 639.535 754.358 641.279C805.757 645.161 814.263 715.543 818.345 756.051C821.628 799.565 822.848 843.233 825.248 886.806C845.716 941.309 862.326 997.214 879.83 1052.72C894.048 1044.77 909.592 1039.72 925.688 1037.1L928.01 1036.77C941.491 1034.8 955.197 1032.34 966.302 1023.95C926.541 927.152 909.898 822.653 879.667 722.76C870.789 697.764 867.857 664.969 846.118 647.423ZM963.586 1034.65C962.831 1035.1 962.054 1035.52 961.262 1035.91C961.679 1035.82 962.123 1035.8 962.571 1035.87C962.915 1035.48 963.284 1035.03 963.586 1034.65ZM602.567 825.585C598.937 819.525 590.915 814.033 583.8 816.665C594.518 823.19 592.189 842.052 592.977 853.083L592.96 853.706C592.698 864.113 593.584 886.083 587.842 893.505C588.244 898.291 588.251 903.25 588.74 908.067C588.889 909.829 588.542 913.124 589.583 914.683C601.077 921.104 595.503 936.501 596.188 947.188C595.667 967.648 597.102 988.07 597.698 1008.51C597.66 1013.79 597.145 1019.43 598.909 1024.49C601.167 1019.68 607.601 1020 609 1024.87C610.128 1023.39 612.394 1023.28 614.333 1023.54C615.016 1017.06 616.068 1010.58 616.294 1004.09C616.404 1000.86 614.498 998.202 613.798 995.117C612.39 983.408 613.992 971.443 614.134 959.668L614.169 959.317C614.621 954.447 614.973 942.395 617.731 939.441C599.883 936.242 594.236 913.837 611.656 905.563C611.417 904.469 611.646 903.315 612.399 902.488C610.916 884.763 608.998 867.059 607.315 849.344C606.593 841.365 606.621 832.745 602.567 825.585ZM278.881 976.618C280.229 974.796 277.319 972.831 276.134 974.763C274.911 976.826 274.2 979.349 274.698 981.725C274.974 983.041 277.137 983.408 277.719 982.118C278.219 981.059 278.396 979.923 278.644 978.788C279.311 978.273 279.319 977.301 278.881 976.618ZM289.041 965.917C289.096 966.23 289.146 966.548 289.19 966.867C289.685 966.685 290.198 966.538 290.726 966.406C290.165 966.252 289.603 966.088 289.041 965.917ZM332.326 835.447C330.971 836.292 329.368 836.825 327.688 837.072C330.754 878.945 329.017 921.112 329.754 963.089C332.775 963.781 335.927 963.203 338.992 963.44C339.741 926.804 338.339 890.196 340.694 853.588C338.638 848.349 337.324 841.988 338.849 836.408C336.645 836.193 334.464 835.88 332.326 835.447ZM564.062 893.517C536.887 894.578 509.525 894.11 482.311 893.775C480.592 893.725 478.824 893.714 477.034 893.703C477.733 897.366 478.389 901.055 478.995 904.761C511.208 904.39 543.491 903.634 575.685 904.327L575.548 902.826C575.413 901.312 575.291 899.762 575.25 898.222C571.25 897.919 567.34 896.21 564.062 893.517ZM419.3 832.284C417.322 834.829 412.988 833.196 410.117 833.437C409.385 834.607 408.129 835.468 406.355 835.562C392.699 836.287 379.016 836.429 365.339 836.627C361.348 841.239 354.257 838.578 349.122 840.449C348.492 843.638 348.46 846.948 347.734 850.151C347.425 851.458 346.968 852.693 346.456 853.906C347.568 866.024 347.651 878.307 347.651 890.458C354.411 888.492 361.722 888.824 368.704 888.377C383.847 887.991 398.993 888.144 414.138 888.114C420.83 887.993 428.395 888.396 434.922 888.311C436.593 887.709 438.958 888.666 439.301 890.59C440.553 895.494 434.983 895.86 431.655 895.614C427.64 895.526 423.624 895.438 419.614 895.356C403.187 894.95 386.757 894.65 370.346 893.912C362.819 893.294 354.912 893.494 347.651 891.243L347.655 900.394C347.656 901.307 347.659 902.145 347.662 902.845C379.135 902.721 410.625 903.202 442.105 902.917C437.278 878.47 429.379 853.535 419.3 832.284ZM825.77 897.832C825.642 899.439 826.215 900.79 826.971 902.175C826.568 900.729 826.162 899.282 825.77 897.832ZM460.851 834.393C466.887 850.986 471.828 868.5 475.635 886.692C502.731 886.104 529.78 886.393 556.874 886.439C546.891 874.744 536.297 877.956 531.325 870.522C527.723 864.758 530.731 845.877 531.672 838.686C510.577 837.794 489.386 837.689 468.386 835.304C466.006 834.991 463.417 834.777 460.851 834.393ZM311.681 828.073C311.179 828.49 310.634 828.864 310.056 829.182C311.505 832.977 310.02 836.799 311.3 840.665C311.354 845.23 311.122 849.826 311.35 854.165C311.332 858.297 313.907 860.888 317.619 861.154C318.963 861.232 320.742 860.919 322.576 861.462C322.941 853.376 322.624 845.16 323.954 837.166C323.104 837.09 322.268 836.947 321.468 836.742C321.345 832.936 317.616 829.268 313.789 831.213C313.024 830.198 312.327 829.128 311.681 828.073ZM558.367 825.2C557.213 825.336 556.094 825.592 555.018 826.03C555.27 836.352 570.219 829.104 572.263 841.77C572.603 844.754 572.234 847.754 572.134 850.745C572.086 852.274 570.881 854.677 572.553 855.571C573.412 856.816 575.769 856.572 575.56 854.781C575.522 854.452 575.495 854.116 575.473 853.778C576.208 852.478 576.656 851.114 576.896 849.706C577.783 849.249 577.518 848.075 577.124 847.248C576.894 845.454 577.645 842.294 575.676 841.339C575.474 829.428 571.039 827.537 559.947 826.568C559.193 826.489 558.716 826.86 558.502 827.376C558.208 826.739 558.217 825.974 558.367 825.2ZM548.534 668.458C540.596 670.978 531.73 671.503 523.487 673.076C470.249 680.507 419.098 702.403 364.81 701.814C362.953 701.726 361.213 701.452 359.582 701.007C359.588 701.853 359.703 702.72 359.885 703.56C360.904 704.428 361.538 705.794 361.736 707.179C402.485 727.776 433.245 769.634 452.538 813.698C476.442 810.454 500.325 806.773 524.28 803.793L528.628 803.232L537.324 802.118C541.56 801.585 546.279 800.244 550.489 801.141C552.41 781.982 552.415 763.298 553.861 744.021C549.63 740.644 550.627 733.435 550.457 728.455C549.491 708.465 549.407 688.444 548.534 668.458ZM576.005 745.097C574.561 745.476 573.074 745.613 571.681 745.41C567.961 747.222 562.454 746.283 558.334 745.861C558.813 750.308 559.226 754.766 559.402 759.235C560.096 776.663 559.821 794.453 558.251 811.87C563.894 812.266 569.539 812.955 575.173 813.412C575.226 790.683 576.288 767.856 576.005 745.097ZM360.954 759.258C365.443 777.914 385.788 806.458 406.239 808.164C393.79 788.078 379.479 772.249 363.664 761.108C362.761 760.471 361.863 759.862 360.954 759.258ZM543.609 618.41C542.959 618.427 542.309 618.432 541.659 618.421C545.573 624.092 544.876 632.926 540.145 637.919C556.658 648.122 556.139 670.945 556.692 688.071C557.35 704.642 558.233 721.177 558.928 737.728C558.928 737.427 559.92 737.85 560.272 737.91C562.507 738.199 564.77 738.298 567.026 738.201C570.434 736.847 574.927 736.82 577.277 733.539C580.064 729.816 579.425 724.249 578.946 719.939C577.784 709.507 576.214 699.112 574.893 688.701C571.251 666.458 571.709 623.188 543.609 618.41ZM537.456 640.313C524.195 648.612 506.748 645.379 491.769 646.298C480.824 646.457 469.873 646.506 458.923 646.467C422.04 646.259 385.18 644.793 348.328 643.278L348.41 644.804C349.088 657.018 350.342 669.242 353.909 680.976C355.935 689.015 358.962 691.995 367.443 691.283C412.763 690.613 455.761 674.496 499.933 666.398C515.723 663.775 531.774 661.537 547.625 659.678L547.451 658.693C546.181 651.666 544.129 643.726 537.456 640.313ZM547.096 285.69C547.724 286.867 548.086 287.926 547.807 289.022C600.888 402.37 586.87 531.295 614.895 650.838C615.444 651.162 615.757 651.674 616.046 652.211C625.107 650.399 634.235 648.828 643.395 647.467C642.347 644.773 643.962 642.333 645.808 640.582C645.836 640.313 646.205 639.467 646.227 639.467C642.773 597.069 637.745 554.674 633.419 512.319C630.717 482.801 625.789 453.01 627.123 423.342C627.173 422.996 627.625 423.101 627.725 423.342C634.869 448.982 639.003 487.898 646.144 539.651C697.704 599.968 728.081 610.52 777.665 540.618L780.211 536.884C803.386 502.84 825.996 468.142 843.584 430.859C821.583 430.154 809.706 407.094 800.304 390.178C798.715 389.321 797.654 388.026 796.784 386.285C789.335 395.549 783.439 406.976 775.896 416.384C757.171 440.931 714.157 471.368 713.215 472.344L713.035 472.505C710.207 475.086 701.69 484.835 699.058 484.573C687.587 495.179 662.08 445.778 659.012 436.47C651.531 418.34 645.5 412.767 639.01 394.275L637.892 390.943C628.954 364.224 619.969 336.076 597.598 317.399L596.721 316.47C582.402 301.353 568.477 289.559 547.096 285.69ZM820.663 620.376C814.307 620.766 807.944 621.144 801.588 621.524L795.706 621.871C749.303 624.643 702.802 628.067 656.307 626.048C656.745 632.57 659.029 639.327 656.511 645.666C688.589 641.924 720.88 639.62 753.097 641.169C772.242 632.145 795.479 629.315 817.006 629.199C817.369 626.2 818.617 622.81 820.663 620.376ZM494.342 569.143C463.117 555.234 432.579 569.393 421.591 603.031C422.361 603.663 422.891 604.775 423.024 605.897C425.915 609.748 431.217 609.628 435.561 610.174C444.297 611.327 452.77 614.139 460.492 618.394C464.756 620.717 468.42 624.077 472.822 626.105L475.19 628.324C479.143 632.014 483.197 635.567 488.435 637.515C493.861 637.798 486.853 627.25 485.712 625.2L485.288 624.519C483.002 620.901 480.064 616.781 483.192 612.67C488.891 615.396 493.483 619.328 498.067 623.715L498.896 624.517C503.356 628.87 508.486 634.332 514.892 635.044C515.972 635.164 516.758 633.896 516.486 632.959C513.61 623.449 505.204 616.801 497.38 611.092C497.447 608.382 499.336 606.308 501.806 605.717C512.788 612.028 520.454 622.022 531.192 628.494C532.349 629.177 533.565 628.273 533.679 627.071C533.612 618.654 525.013 612.204 519.086 607.219C517.853 606.268 516.591 605.348 515.307 604.46C515.599 602.773 517.144 601.297 519.076 601.024C522.598 602.022 543.713 618.381 543.772 610.82L543.733 610.614C543.733 598.792 510.493 575.389 494.342 569.143ZM412.243 259.988C401.21 266.308 390.625 273.152 379.578 279.409C365.498 287.458 350.372 293.707 336.841 302.715C295.639 333.01 283.697 396.863 268.713 443.433L266.592 452.473C258.003 489.144 245.108 547.558 260.667 577.444L260.777 577.68C262.72 581.792 271.959 598.465 276.718 601.427C290.666 610.108 319.834 613.059 345.184 611.36C369.318 610.241 393.078 605.634 416.633 600.791C417.172 592.696 421.141 585.933 425.318 579.339L425.751 578.658L426.234 577.942C432.142 569.286 438.806 562.268 448.566 558.446C415.959 548.707 362.276 561.241 325.927 535.748C323.024 533.712 325.557 529.4 328.707 531.007C330.602 531.973 332.526 532.858 334.475 533.681C332.757 527.507 337.231 523.83 339.904 518.469L340.009 518.254C362.963 472.045 381.023 420.105 397.035 373.025C392.375 405.961 384.858 438.582 374.196 470.09C383.967 477.573 392.121 487.005 400.929 495.561C410.364 505.547 421.81 514.036 429.011 525.897C430.581 528.659 427.491 531.449 424.808 530.087C418.484 526.88 413.235 521.796 408.382 516.739L406.41 514.595C394.366 501.475 382.489 487.969 373.298 472.676C367.168 490.394 359.602 505.086 351.512 521.793L350.477 523.937C348.686 527.633 347.017 531.756 344.071 534.484C346.02 538.383 351.009 539.288 354.856 540.426C386.115 549.177 419.304 541.864 450.689 549.832L452.76 550.367C454.827 550.903 456.918 551.552 458.149 553.436C485.524 554.434 512.181 565.62 533.518 582.863L534.068 583.3C543.057 590.481 552.268 599.957 553.883 611.838C554.186 614.078 553.354 617.246 550.671 617.751C555.866 618.394 560.553 621.062 564.404 624.752C527.687 497.664 420.126 396.474 412.243 259.988ZM648.374 558.496C649.798 570.576 651.218 582.653 652.628 594.734C662.667 593.412 672.78 592.617 682.888 591.873L682.328 591.525C677.217 588.338 672.504 584.611 668.083 580.534C663.224 576.053 658.593 571.21 654.327 566.162C652.236 563.689 650.256 561.129 648.374 558.496ZM409.119 429.078C410.676 442.918 419.322 454.652 427.356 465.545C429.46 468.398 424.677 471.134 422.599 468.316L421.763 467.18C413.321 455.673 405.243 443.59 403.611 429.078C403.216 425.566 408.728 425.605 409.119 429.078ZM925.953 291.538C901.05 307.133 874.993 320.805 849.523 335.446C846.405 337.209 843.248 334.31 843.832 331.087C845.132 323.936 846.422 316.785 847.689 309.631L848.668 304.086C849.036 302.085 850.56 294.864 849.104 292.153C842.79 302.815 836.263 313.359 829.705 323.878L822.548 335.348C814.885 347.636 806.309 360.105 803.262 374.414C805.121 376.175 806.079 378.73 806.309 381.239C808.45 382.095 809.914 384.474 809.328 386.988C818.499 397.93 824.762 413.652 839.436 418.252C856.079 394.352 883.432 380.369 912.033 376.891L917.109 376.005C929.509 373.819 942.432 371.149 952.311 363.455C942.506 363.927 932.701 364.377 922.89 364.8C919.607 364.943 918.913 359.782 922.114 359.095C936.364 356.036 950.84 349.531 962.231 339.911C943.222 346.599 923.276 350.568 903.17 352.128C899.033 352.175 898.313 346.214 902.211 345.05C919.931 337.77 935.817 326.189 948.001 311.489L948.389 311.019L922.857 324.444C912.209 330.043 900.817 336.962 888.385 336.946C884.772 336.94 883.968 332.432 886.65 330.561L890.147 327.967C901.937 319.202 924.267 302.124 925.953 291.538Z" fill="black"/>
<path fill-rule="evenodd" clip-rule="evenodd" d="M470.067 42.3928C553.382 38.3002 590.979 96.8958 593.411 123.068C595.099 141.235 584.353 162.175 584.353 178.409C584.353 186.696 594.51 204.486 589.782 216.563C579.257 243.445 556.973 273.279 528.576 273.279C500.179 273.279 463.222 281.123 431.845 236.247C428.901 232.036 391.663 208.105 388.045 185.364C379.034 128.719 410.617 45.3131 470.067 42.3928Z" fill="#D08B5B"/>
<path fill-rule="evenodd" clip-rule="evenodd" d="M466.137 5.9263C469.117 2.52207 474.146 1.16037 478.615 1.42392C485.107 1.80827 490.753 5.811 497.212 6.1075C503.983 6.42047 510.519 4.07594 517.308 5.1631C521.469 5.83296 525.591 7.7602 528.257 11.0107C537.492 8.36967 547.518 11.8672 553.4 19.5048C560.656 18.3792 568.549 23.1786 570.77 30.1623C579.988 30.4588 588.69 37.8548 589.718 47.1231C593.401 48.0949 596.6 50.6322 598.562 53.9864C600.843 57.8739 601.222 62.3323 600.81 66.7139C605.147 68.9267 607.351 73.6816 607.929 78.7111C611.892 81.6651 613.612 86.9746 612.804 91.9876C615.839 93.6952 617.406 97.6705 617.389 101.217C617.372 104.528 616.493 107.461 617.73 110.656C618.832 113.502 619.227 115.873 618.621 118.854L618.56 119.145C618.452 119.631 618.362 120.097 618.281 120.556C619.102 121.276 619.796 122.177 620.317 123.226C622.218 127.058 621.935 131.43 620.486 135.316C621.121 137.792 621.04 140.406 620.101 142.785C621.859 145.314 622.783 148.415 622.511 151.633C622.207 155.235 620.56 158.461 618.063 160.846C618.728 165.767 616.725 171.083 613.103 174.548C613.617 177.494 613.173 180.581 611.56 183.374C610.41 185.364 608.862 186.847 607.076 187.88C607.135 189.523 606.912 191.204 606.365 192.888C605.605 195.225 604.317 197.378 602.623 199.112C603.634 205.568 599.764 212.732 592.953 214.543C592.381 214.695 591.835 214.765 591.312 214.776C590.636 220.985 589.158 227.108 586.87 232.924C581.055 247.731 570.479 260.679 556.687 268.755C549.865 272.747 542.203 275.481 534.381 276.624C528.752 277.447 523.338 277.244 517.687 276.684C510.596 275.976 503.472 274.916 496.579 273.093L495.47 272.799C492.613 272.034 489.6 271.152 487.124 269.612C484.354 267.888 482.914 265.23 482.277 262.101C481.921 260.359 483.026 258.485 484.935 258.449L485.058 258.449C485.475 258.458 485.89 258.442 486.309 258.416L486.625 258.394H486.641C486.663 258.389 486.674 258.389 486.696 258.389C486.882 258.361 487.064 258.307 487.245 258.279C489.346 257.926 491.182 258.276 493.155 258.931L493.402 259.015C496.722 260.157 500.014 261.217 503.444 262.002C506.99 262.809 510.579 263.451 514.18 263.957L514.537 264L514.647 264.017L514.702 264.022V264.022C514.713 264.022 514.724 264.022 514.735 264.028L515.796 264.16V264.16C516.632 264.259 517.467 264.346 518.302 264.434C519.842 264.588 521.381 264.709 522.92 264.797C549.486 266.29 571.798 245.398 578.531 220.349C580.972 211.284 581.132 202.241 580.411 193.192C580.181 192.533 580.043 191.803 580.049 191.002C580.049 190.584 580.071 190.172 580.098 189.755C579.203 181.003 577.647 172.245 576.674 163.46C575.536 153.198 574.904 142.876 575.134 132.547C575.25 127.447 575.794 122.395 576.509 117.344L576.767 115.53V115.53C573.538 114.9 570.535 113.37 568.145 111.156C562.957 114.148 556.242 114.413 551.121 111.253C545.383 114.848 537.365 115.174 531.586 111.66C528.093 114.15 523.693 115.225 519.373 114.279C517.43 113.854 515.497 112.935 513.843 111.661C512.662 111.869 511.465 111.95 510.275 111.888L510.029 112.025V112.025C507.286 113.469 504.248 114.42 501.12 114.314C498.805 114.236 496.42 113.78 494.212 112.917C491.853 114.339 489.272 115.309 486.51 115.658C482.477 116.165 478.125 115.274 474.771 112.989C468.641 116.477 461.102 117.014 454.486 114.67C453.131 116.963 451.256 118.939 449.06 120.463C449.453 121.87 449.579 123.37 449.443 124.812C449.221 127.186 448.625 129.315 447.651 131.227C448.678 133.362 448.987 135.983 448.412 138.614C447.593 142.366 445.407 145.631 442.577 148.173C442.328 154.161 439.04 159.776 433.689 162.895C433.418 163.053 433.149 163.181 432.88 163.297C432.644 163.62 432.361 163.904 432.039 164.143C428.636 167.283 423.251 167.033 418.986 165.259C418.904 165.263 418.822 165.27 418.739 165.272C417.215 165.311 416.177 164.718 415.561 163.844C414.94 163.878 414.324 163.943 413.703 164.059C411.438 164.481 408.954 165.294 406.903 166.349C401.582 169.083 399.12 173.914 398.383 179.724C397.581 186.06 399.406 192.517 404.315 196.805C406.7 198.892 409.751 200.198 412.851 200.748C416.275 201.357 419.936 199.858 422.465 202.796C422.971 203.378 423.317 204.19 423.042 204.975C422.185 207.424 420.772 208.363 418.562 208.704C421.756 212.487 425.032 216.143 428.66 219.542C432.585 223.226 436.641 226.795 440.182 230.859C443.925 235.158 447.305 239.715 449.652 244.931C450.994 247.929 452.071 251.02 453.231 254.09L453.439 254.624C454.732 257.886 456.453 261.029 454.462 264.434C453.671 265.774 451.879 267.07 450.229 266.856C445.585 266.263 444.03 263.127 442.6 259.042C441.522 255.957 440.698 252.783 439.539 249.725C439.322 249.159 439.085 248.598 438.837 248.041C436.159 248.786 433.215 248.194 430.824 246.669C428.271 247.8 425.441 248.363 422.709 248.316C419.05 248.251 415.708 247.236 412.834 245.405C412.605 245.345 412.375 245.286 412.147 245.221C407.776 246.894 402.656 246.595 398.698 243.884C396.134 242.129 394.382 239.786 393.386 237.177C390.074 237.114 386.798 235.941 384.425 233.595C382.246 231.44 380.972 228.66 380.594 225.771C377.744 225.208 375.071 223.831 372.975 221.512C371.225 219.576 370.161 217.109 369.802 214.548C366.33 213.559 363.199 211.295 361.489 208.137C359.898 205.198 359.668 202.01 360.446 199.11L360.244 198.82V198.82C356.668 196.95 353.939 193.89 353.659 189.518C353.579 188.273 353.714 187.028 354.052 185.85C353.93 184.532 354.008 183.216 354.353 181.942C349.544 177.269 347.801 169.763 350.412 163.559C345.712 158.508 344.47 150.519 347.917 144.523C345.553 141.668 344.338 138.027 344.542 134.14C344.794 129.287 347.021 125.047 349.687 121.121C347.708 118.936 346.652 115.889 346.73 112.946C346.839 108.679 349.109 105.006 351.952 101.964C349.472 94.4529 352.243 86.3047 358.328 81.5498C357.096 79.5237 356.64 77.0145 357.042 74.4723C357.745 70.0303 361.082 67.0049 364.682 64.611C363.929 62.1627 364.127 59.5211 365.325 56.9899C366.925 53.6131 369.942 51.4717 373.092 49.6598C373.906 42.1705 382.283 35.7738 389.308 39.6392C387.565 34.0662 392.585 28.0484 398.356 27.4114C401.181 18.8569 410.927 13.465 419.689 15.5899C424.169 9.4733 432.508 7.11834 439.588 9.74234C447.372 3.78493 457.029 2.90092 466.137 5.9263ZM410.691 173.893C416.16 173.596 420.261 178.055 423.142 182.134C425.845 185.961 418.908 190.002 416.886 185.786C416.16 184.281 415.335 182.689 414.231 181.371C414.045 181.631 413.881 181.899 413.718 182.175L413.554 182.453C413.434 182.656 413.307 182.865 413.203 183.079C413.214 183.117 413.049 183.622 413.043 183.644C412.593 185.011 411.609 185.89 410.268 186.362C408.536 186.966 406.898 185.665 406.343 184.138C405.458 181.701 407.513 179.576 409.652 178.609C407.552 178.269 405.485 178.983 403.968 180.597C403.76 180.822 403.407 180.641 403.397 180.361C403.22 176.534 407.228 174.079 410.691 173.893Z" fill="black"/>
<path fill-rule="evenodd" clip-rule="evenodd" d="M493.871 207.732C499.887 204.121 522.375 206.768 540.04 207.732C554.067 208.498 564.086 206.981 567.293 209.132C574.538 213.993 571.019 237.496 558.535 240.71C546.051 243.925 499.772 248.414 491.793 240.71C483.814 233.007 483.077 214.211 493.871 207.732Z" fill="white"/>
<path fill-rule="evenodd" clip-rule="evenodd" d="M501.664 201.516C511.107 200.374 520.26 203.255 529.491 204.708C534.365 205.474 539.245 206.046 544.177 206.259C545.169 206.302 546.162 206.328 547.155 206.348C547.247 205.477 547.736 204.677 548.796 204.198C550.968 203.216 552.707 202.774 555.092 202.868C557.275 202.954 559.466 203.178 561.616 203.57C565.519 204.284 569.441 205.902 572.296 208.715C578.905 215.223 577.899 225.677 572.793 232.766C562.243 247.414 542.988 248.093 526.496 247.902L524.975 247.883C509.959 247.669 488.476 249.9 481.654 232.871C479.145 226.609 479.494 219.351 482.565 213.345C486.229 206.181 493.941 202.45 501.664 201.516ZM548.568 225.905L548.434 225.91C541.511 226.176 534.589 226.363 527.662 226.485C527.869 228.258 528.081 230.032 528.323 231.801C528.512 233.194 528.716 234.584 528.927 235.973C529.017 236.562 529.345 237.475 529.253 238.057L529.219 238.288V238.288C529.575 238.448 529.897 238.706 530.138 239.081C530.221 239.211 530.282 239.341 530.342 239.472C535.72 239.514 541.507 239.41 546.99 238.435L547.001 238.317V238.317C547.1 237.619 547.391 237.149 547.778 236.826C548.164 234.6 548.129 232.228 548.278 230.019C548.37 228.647 548.471 227.276 548.568 225.905ZM522.371 226.579C517.381 226.664 512.389 226.729 507.4 226.668L505.136 226.633V226.633C505.614 229.191 506.134 231.74 506.567 234.315C507.018 236.998 504.649 238.704 502.598 238.635C502.828 238.673 503.058 238.712 503.288 238.744C509.696 239.647 516.349 239.408 522.851 239.4C522.501 237.365 522.643 235.069 522.591 233.37L522.581 233.107C522.481 230.93 522.411 228.755 522.371 226.579ZM488.477 226.11C488.65 227.44 488.987 228.741 489.491 229.953C491.621 235.073 496.504 237.462 501.671 238.468C500.775 238.16 500.063 237.418 499.883 236.148C499.435 232.991 499.274 229.781 499.262 226.575C495.661 226.542 492.036 226.465 488.477 226.11ZM567.346 225.017C564.783 225.62 561.804 225.343 559.288 225.457C556.932 225.564 554.574 225.657 552.218 225.752C552.329 227.356 552.437 228.959 552.555 230.561C552.707 232.632 552.721 234.821 553.119 236.884C557.861 235.27 562.111 232.683 565.299 228.546C566.093 227.515 566.804 226.306 567.346 225.017ZM500.581 209.916C496.313 210.923 492.275 213.051 490.104 216.943C488.815 219.253 488.249 221.991 488.358 224.689C491.965 224.27 495.634 224.111 499.285 223.98C499.297 223.325 499.313 222.67 499.332 222.017L499.389 220.342C499.488 217.149 499.538 213.138 500.581 209.916ZM522.67 210.305L520.791 210.095C515.573 209.502 510.358 208.88 505.139 209.237C504.384 209.289 503.617 209.371 502.849 209.483C503.771 212.801 503.694 216.697 504.079 219.981C504.228 221.251 504.416 222.511 504.624 223.765L505.53 223.723V223.723C511.129 223.42 516.734 223.234 522.338 223.013C522.337 221.964 522.343 220.915 522.36 219.865L522.381 218.815C522.444 216.134 522.271 213.113 522.67 210.305ZM548.873 209.88C543.408 210.759 537.76 210.946 532.391 210.953C530.247 210.955 528.104 210.824 525.962 210.635C526.101 211.772 526.174 212.922 526.279 214.043C526.49 216.308 526.732 218.57 526.995 220.83L527.229 222.807V222.807C534.117 222.496 541.004 222.159 547.891 221.811L548.862 221.759V221.759L549.135 217.959C549.32 215.425 549.524 212.891 549.812 210.369L549.596 210.291V210.291C549.342 210.187 549.101 210.044 548.873 209.88ZM551.247 210.823C551.548 214.406 551.715 218.004 551.936 221.593L556.476 221.351C557.232 221.31 557.989 221.268 558.745 221.224C561.687 221.055 565.467 220.167 568.375 220.996C568.597 218.36 567.842 215.793 565.456 214.022C561.267 210.913 555.933 212.02 551.247 210.823ZM535.737 178.794C542.497 174.935 559.458 170.991 560.532 183.117C561.026 188.697 556.864 193.321 552.004 195.384L551.821 195.46C547.263 197.328 539.184 199.438 535.239 195.387C531.956 192.016 536.311 185.971 540.39 188.733C542.487 190.152 546.9 189.106 549.239 188.431L549.386 188.389C551.91 187.649 555.276 185.282 554.232 182.184C553.308 179.443 549.377 178.942 546.916 178.853C543.241 178.722 539.665 179.572 536.024 179.849C535.447 179.893 535.269 179.061 535.737 178.794ZM563.739 159.295C572.914 158.867 578.621 168.852 576.511 177.034C576.147 178.445 574.563 179.831 573.033 179.672L572.648 179.637C572.452 179.618 572.256 179.594 572.075 179.544C570.623 179.143 569.321 177.638 569.427 176.077L569.455 175.622C569.669 171.757 569.249 167.304 564.641 166.368C560.732 165.575 558.551 169.324 558.504 172.776C558.495 173.388 557.805 173.816 557.261 173.487C554.436 171.773 553.947 168.364 555.026 165.428C556.393 161.708 559.816 159.478 563.739 159.295ZM495.653 161.436C502.329 159.216 509.533 162.763 512.766 168.647C513.9 168.975 515.032 169.846 514.875 171.18C514.647 173.1 514.305 174.31 512.97 175.765C510.881 178.043 506.97 176.878 506.102 174.075L506.065 173.949C505.079 170.325 501.077 167.935 497.432 169.203C493.174 170.684 493.298 175.167 490.311 177.778C489.96 178.085 489.539 178.134 489.118 177.932C485.946 176.404 486.516 171.804 487.647 169.172C489.131 165.718 492.014 162.646 495.653 161.436ZM486.559 141.227C491.97 135.724 506.078 130.399 509.779 140.561C510.484 142.496 508.983 145.106 506.962 145.507C503.651 146.164 500.714 144.731 497.425 144.988C494.763 145.197 491.986 146.084 489.858 147.728C483.963 152.281 482.666 159.982 478.558 165.777C478.358 166.059 477.97 165.94 477.933 165.608C476.998 157.171 480.633 147.253 486.559 141.227ZM557.12 135.81C560.711 134.546 564.777 134.654 568.386 135.775C572.021 136.905 575.359 139.051 577.93 141.854C579.097 143.127 580.177 144.531 581.043 146.027C581.503 146.819 581.986 148.456 582.509 149.43C585.337 151.058 586.546 154.767 584.014 157.406L583.9 157.521L583.561 157.856C582.2 159.199 580.147 159.781 578.289 159.245C574.132 158.046 573.627 154.782 572.187 151.317C571.236 149.028 569.608 147.003 567.633 145.516C562.965 142.002 555.312 140.882 549.693 142.538C549.394 142.627 549.043 142.247 549.256 141.971C550.321 140.596 550.934 139.468 552.36 138.359C553.807 137.233 555.386 136.42 557.12 135.81Z" fill="black"/>
</g>
</svg>
