<svg width="1100" height="1100" viewBox="0 0 1100 1100" fill="none" xmlns="http://www.w3.org/2000/svg">
<mask id="mask0_1951_31868" style="mask-type:alpha" maskUnits="userSpaceOnUse" x="0" y="0" width="1100" height="1100">
<rect width="1100" height="1100" fill="#D9D9D9"/>
</mask>
<g mask="url(#mask0_1951_31868)">
<path fill-rule="evenodd" clip-rule="evenodd" d="M952.547 542.727C940.898 510.651 949.648 470.041 925.636 443.499C918.534 439.184 914.767 441.585 911.844 449.109C910.079 459.011 905.944 493.102 920.815 493.086C922.686 514.378 921.516 535.824 916.936 556.72C905.962 554.96 897.961 560.598 889.954 564.791C883.985 567.918 878.012 570.241 870.803 568.095C841.04 562.851 832.558 594.095 832.197 619.598C831.76 632.041 830.59 661.047 825.107 673.122C800.291 621.744 748.172 598.354 698.511 586.804C690.727 584.652 684.085 581.71 679.091 576.683C637.25 560.168 657.351 506.06 638.102 474.963C607.972 437.994 571.787 427.357 526.202 433.693C486.317 438.102 459.206 478.602 461.665 516.832C462.402 524.633 457.719 532.838 454.963 540.865C427.433 573.796 384.595 588.53 347.75 608.429C224.858 668.471 182.269 714.356 134.512 842.119C112.171 890.189 85.4344 936.843 76.5548 989.784C66.1205 1052.17 66.0877 1116.03 69.7202 1179.03C62.9386 1179.85 70.3186 1228.28 76.2669 1245.05C78.305 1250.8 83.1885 1254.95 89.2734 1254.85C101.513 1260.8 130.251 1284.76 143.053 1283.97C184.417 1281.42 224.624 1285.36 264.475 1283.33C307.589 1281.12 350.288 1273.08 393.586 1274.13C469.093 1275.94 415.034 1280.42 493.153 1283.97C542.468 1286.24 722.383 1259.32 771.558 1263.71C811.556 1272.13 829.804 1257.95 823.702 1216.17C821.446 1200.16 814.242 1164.55 837.941 1163.04C849.151 1164.34 858.43 1175.54 866.83 1182.08C941.012 1237.29 1016.8 1197.54 1022.77 1106.78C1034.01 1030.65 1049.77 1012.67 1015.51 936.648C907.088 653.653 1070.43 692.102 960.146 559.551C951.534 567.047 953.723 547.039 952.547 542.727Z" fill="#D08B5B"/>
<path fill-rule="evenodd" clip-rule="evenodd" d="M431.984 603.119C502.644 639.146 558.524 657.159 599.622 657.159C640.721 657.159 713.108 665.547 816.783 682.324L867.977 794.792L980.942 816.855L981.443 819.794C986.946 851.355 997.463 889.55 1015.51 936.648C1049.77 1012.67 1034.01 1030.65 1022.77 1106.78C1016.8 1197.54 941.012 1237.29 866.83 1182.08C858.43 1175.54 849.151 1164.34 837.941 1163.04C814.716 1164.52 821.171 1198.75 823.561 1215.19L823.702 1216.17C829.804 1257.95 811.556 1272.13 771.558 1263.72C722.383 1259.32 542.468 1286.24 493.153 1283.97C415.034 1280.42 469.093 1275.94 393.586 1274.13C350.288 1273.08 307.589 1281.12 264.475 1283.33C226.72 1285.25 188.646 1281.82 149.571 1283.62L89.2735 1254.85C66.9728 1095.23 70.3609 990.567 99.4378 940.864C128.369 891.411 167.109 810.115 215.658 696.976C216.402 696.181 217.153 695.394 217.909 694.611L431.984 603.119Z" fill="#78E185"/>
<path fill-rule="evenodd" clip-rule="evenodd" d="M911.346 441.38C917.262 435.567 926.668 437.013 932.438 442.182C938.309 447.43 941.844 455.681 944.858 462.794C958.385 494.771 955.235 529.784 962.078 563.24C974.6 570.001 985.904 578.828 993.908 590.702C1006.07 608.74 1011.84 629.747 1005.74 651.124C1002.59 662.186 997.239 672.435 993.423 683.26C989.346 694.784 986.851 706.76 985.654 718.929C984.48 730.872 984.322 742.88 984.66 754.868C984.841 761.076 985.169 767.274 985.496 773.469C985.79 779.024 986.774 784.819 985.445 790.261L985.281 790.887C985.801 790.807 986.309 790.705 986.817 790.594C991.177 789.622 995.015 788.109 999.565 788.708C1003.11 789.17 1004.95 792.128 1003.45 795.469C1002.79 796.925 1001.92 798.144 1000.87 799.182C1010.02 866.796 1026 933.323 1036.51 1000.72C1041.28 1031.3 1044.18 1061.97 1042.54 1092.93L1042.37 1096C1040.7 1124.42 1036.6 1155.75 1022.15 1180.61C1015.4 1192.25 1006.11 1202.57 994.868 1210.01C989.718 1213.42 984.197 1216.09 978.202 1217.42C947.128 1229.79 914.27 1226.75 884.969 1210.4C871.792 1203.05 858.649 1194.48 847.888 1183.85C842.66 1178.68 837.614 1172.1 834.519 1164.91C834.53 1166.52 834.239 1168.17 834.564 1169.76L835.216 1172.91C840.096 1196.27 858.696 1282.62 858.942 1289.87C859.077 1293.78 826.145 1293.69 822.571 1293.81L822.471 1293.81C769.134 1296.03 715.765 1294.85 662.458 1292.64L658.25 1292.47C606.552 1290.28 550.295 1287.34 498.542 1285.83L498.65 1284.97C499.269 1280.32 502.284 1259.66 502.62 1258.07L502.632 1258.02C504.099 1252.11 506.928 1233.73 505.439 1227.63C501.603 1211.93 484.316 1215.51 472.153 1217.18L469.591 1217.51C467.623 1217.79 462.831 1218.49 462.876 1218.54C461.584 1217.19 464.658 1213.37 465.415 1212.35L466.022 1211.51C469.29 1206.94 472.246 1202.19 471.923 1196.3C471.137 1181.91 450.568 1182.72 440.46 1183.72C439.747 1183.79 439.456 1184.9 440.277 1185.07L442.271 1185.48C448.683 1186.86 462.927 1190.37 462.605 1195.67C462.422 1198.68 459.212 1200.9 457.251 1202.8C455.089 1204.9 452.94 1207.15 451.344 1209.72C448.273 1214.67 447.575 1221.34 450.614 1226.49C454.119 1232.43 460.336 1233.13 466.563 1232.59L466.915 1232.55C468.286 1232.43 469.656 1232.29 471.026 1232.16L479.247 1231.36C481.282 1231.16 487.823 1229.45 489.734 1230.63C492.442 1232.3 489.185 1239.73 488.574 1242.17L488.542 1242.34C488.017 1245.88 487.703 1282.98 487.65 1285.43C447.318 1284.49 406.981 1275.53 366.65 1277.64C334.61 1279.31 302.656 1282.2 270.676 1284.71L269.869 1277.85C261.005 1203.12 247.107 1104.52 253.777 1030.6C254.299 1024.82 245.262 1024.85 244.744 1030.6C237.847 1107.03 252.944 1209.7 261.725 1285.4C248.111 1286.44 234.492 1287.37 220.856 1288.09L217.379 1288.27C170.98 1290.59 123.089 1290.72 77.6815 1280.09C76.2814 1279.76 75.8072 1278.36 76.1007 1277.2C75.6491 1277.46 74.9716 1277.31 74.7796 1276.68C69.49 1259.25 66.8032 1214.87 64.406 1195.66L64.2448 1194.4C61.7833 1175.74 60.3719 1156.87 59.3556 1138.1C57.3006 1100.55 57.549 1062.95 60.3267 1025.44C69.1678 905.804 104.374 784.938 178.265 688.791C196.128 665.55 216.464 644.284 240.864 627.838C264.802 611.698 291.653 600.331 318.899 591.099C336.909 584.991 355.201 579.765 373.493 574.55C374.185 574.204 374.878 573.863 375.574 573.527L376.62 573.027C383.124 569.945 389.526 566.57 396.188 563.827L397.661 563.228C407.314 559.358 418.562 555.932 429.012 556.05C445.938 547.528 460.154 534.65 458.776 513.993C458.212 505.504 471.536 505.516 472.01 513.993C473.252 536.545 459.353 552.539 441.636 563.274L441.721 563.36L441.806 563.454C444.572 566.592 447.53 569.504 450.726 572.213C469.853 588.49 494.051 602.002 518.237 610.896C546.612 621.337 574.965 624.463 604.311 616.021C619.656 611.607 634.143 604.8 647.455 595.996C651.52 593.31 655.416 590.433 659.153 587.35C655.619 582.519 652.796 577.315 650.425 571.796C645.661 560.689 641.719 545.643 646.586 533.915C647.783 531.025 652.536 529.242 654.196 532.922C658.769 542.99 660.677 553.871 666.007 563.715C668.039 567.461 670.377 571.017 672.996 574.369C672.996 574.55 693.005 577.97 693.005 577.97C717.191 577.959 739.965 587.248 761.362 598.852C774.011 605.713 786.441 613.008 798.835 620.315L823.058 634.599C824.842 635.649 826.841 636.665 828.84 637.75C826.502 626.213 825.362 614.451 826.13 602.791C827.293 585.205 834.135 565.973 852.258 559.707C860.828 556.738 870.742 557.653 879.064 560.949C882.903 562.472 887.08 564.493 890.649 567.191C892.377 559.425 899.659 553.6 906.976 551.028C909.347 550.192 911.775 549.661 914.236 549.401C914.164 548.155 914.157 546.895 914.174 545.597L914.191 544.616C914.304 538.859 914.259 533.102 914.135 527.357C913.909 516.465 913.389 505.798 912.283 494.939C911.359 485.95 909.754 477.064 908.562 468.112L908.069 464.263C907.063 456.682 905.376 447.24 911.346 441.38ZM183.792 1176.41L181.773 1175.21C175.161 1171.31 168.35 1167.71 160.34 1169.52C152.709 1171.24 147.296 1177.43 144.452 1184.41C143.108 1187.71 142.407 1191.03 141.889 1194.54C141.597 1196.51 141.401 1198.49 141.055 1200.45L140.94 1201.06C140.783 1201.84 140.544 1202.93 140.326 1203.87C138.244 1202.95 136.147 1201.5 134.443 1200.64L133.069 1199.94C129.844 1198.34 126.489 1196.81 122.975 1196.07C115.362 1194.46 106.917 1196.79 102.565 1203.61C98.8434 1209.43 98.9195 1216.31 100.343 1222.84L100.445 1223.3C101.063 1226.01 104.255 1236.86 108.898 1235.28C113.413 1233.74 114.016 1227.74 114.358 1223.74L114.384 1223.36C114.538 1220.34 113.94 1214.01 117.355 1212.87C121.622 1211.44 129.832 1217.97 133.548 1219.67C140.193 1222.72 147.493 1223.62 152.9 1217.69C157.748 1212.37 158.157 1204.58 159.412 1197.83L159.736 1196.13C160.402 1192.7 161.69 1187.22 165.485 1187.36C168.587 1187.48 171.993 1190.69 174.549 1192.22C177.371 1193.9 180.301 1195.3 183.363 1196.5C190.509 1199.29 198.455 1200.18 206.058 1199.36C210.462 1198.88 213.33 1196.78 214.887 1192.64C215.415 1191.42 215.817 1190.17 216.094 1188.87C218.563 1179.6 205.076 1172.99 200.104 1181.28C194.367 1181.06 189.026 1179.52 183.792 1176.41ZM1013.81 1114.41C1009.7 1111.48 1004.12 1112.11 1000.44 1115.42L1000.22 1115.62C999.204 1116.61 996.907 1119.17 995.419 1121.42L994.953 1121.05C994.879 1121 994.806 1120.94 994.736 1120.88L994.535 1120.72C991.495 1118.15 988.319 1115.79 984.407 1114.75C974.216 1112.01 964.954 1118.83 960.504 1127.57C958.393 1131.72 957.49 1136.01 956.438 1140.48L956.348 1140.89C955.924 1142.98 955.372 1147.2 953.544 1148.23C952.872 1148.61 951.347 1147.86 949.839 1146.99C946.398 1145.01 943.31 1142.48 939.939 1140.39C932.028 1135.48 923.039 1133.45 914.155 1136.99C905.36 1140.49 899.059 1148.75 898.912 1158.38C898.802 1165.48 903.556 1177.86 912.502 1177C914.294 1176.82 916.601 1175.72 916.891 1173.65C917.662 1168.18 913.34 1161.45 918.297 1156.92C923.09 1152.55 928.056 1156.22 932.395 1159.26L935.504 1161.44C940.554 1164.95 945.755 1168.16 952.148 1168.54C960.237 1169.02 967.705 1164.56 971.776 1157.67C975.456 1151.45 975.51 1144.41 978.387 1138.02C979.016 1136.63 980.637 1135.34 980.098 1134.7C982.278 1135.83 985.091 1139.11 986.449 1140.02C993.212 1144.58 1002.25 1144.55 1008.18 1138.5C1010.55 1136.09 1012.05 1133.12 1013.8 1130.29C1014.43 1129.26 1015.22 1128.32 1015.8 1127.26C1016.01 1126.88 1016.36 1125.44 1016.64 1124.15L1017.08 1122.11L1017.12 1121.78C1017.5 1118.69 1016.41 1116.26 1013.81 1114.41ZM753.305 1087.47C745.535 1083.39 735.957 1084.94 728.957 1089.88C721.109 1095.42 717.257 1103.94 714.638 1112.93C712.732 1119.48 711.818 1128.52 706.341 1133.26C699.966 1138.78 689.278 1132.92 682.549 1130.74C674.406 1128.11 664.623 1127.03 656.678 1130.93C648.893 1134.74 645.14 1142.53 644.336 1150.86C643.586 1158.64 644.701 1168.89 649.142 1175.4C649.579 1176.05 650.413 1175.88 650.69 1175.2C653.609 1168.02 653.047 1159.8 655.417 1152.36C657.947 1144.43 663.877 1142.75 671.406 1144.88C679.26 1147.11 686.451 1151.28 694.528 1152.76C703.138 1154.34 711.665 1152.71 718.453 1147.02C724.164 1142.24 727.623 1135.26 729.96 1128.32C732.237 1121.55 732.609 1112.48 737.46 1106.86C738.684 1105.44 740.817 1103.73 742.797 1103.55C745.74 1103.28 746.803 1105.46 749.18 1107.14C755.45 1111.56 765.459 1111.65 769.298 1103.87C770.555 1101.32 771.178 1097.71 769.298 1095.21C766.002 1090.84 763.295 1090.88 758.946 1091.82C758.808 1091.71 758.653 1091.56 758.48 1091.35L758.346 1091.19C757.196 1089.74 754.961 1088.34 753.305 1087.47ZM445.573 1041.56C445.316 1035.71 438.274 1030.1 432.718 1034.18C431.822 1034.83 430.94 1035.5 430.075 1036.19L429.72 1036.58V1036.58C428.687 1036.57 427.723 1036.3 426.702 1035.98L424.917 1035.4C420.229 1033.92 415.722 1032.72 410.718 1033.82C402.108 1035.71 396.646 1043.13 393.841 1051.01C391.227 1058.36 392.085 1065.85 390.859 1073.38C389.696 1080.52 386.026 1083.31 379.134 1081.78L378.78 1081.7C365.072 1078.42 349.452 1069.24 337.434 1081.82C324.45 1095.41 332.943 1117 347.156 1125.73C347.777 1126.11 348.463 1125.49 348.322 1124.84C346.434 1116.06 340.925 1107.68 342.771 1098.37C344.05 1091.91 348.54 1088.85 354.947 1089.88C368.422 1092.05 381.025 1102.78 394.846 1094.99C401.749 1091.1 405.553 1083.78 407.273 1076.29C408.822 1069.55 408.383 1061.95 411.352 1055.59C414.599 1048.63 420.068 1053.68 425.963 1054.63C434.301 1055.97 446.017 1051.6 445.573 1041.56ZM897.654 833.602C897.681 827.792 888.648 827.785 888.621 833.602C888.288 907.221 853.835 975.268 847.647 1048.16C847.157 1053.95 856.192 1053.91 856.68 1048.16C862.871 975.247 897.321 907.339 897.654 833.602ZM151.745 954.109C146.989 948.725 140.022 950.395 134.363 953.093C125.863 957.144 117.729 961.698 109.931 966.963C108.012 968.256 109.222 971.07 111.48 970.638C117.199 969.539 122.766 968.307 128.314 966.524C132.484 965.185 136.825 963.24 141.173 962.551C140.901 963.551 140.57 964.53 140.18 965.492C139.467 967.465 138.638 969.397 137.935 971.376C136.535 975.318 135.274 979.316 134.051 983.318L133.443 985.319C130.901 993.708 128.432 1005.92 140.161 1008.5C144.513 1009.46 148.826 1007.56 152.875 1006.07L153.709 1005.77L168.475 1000.54C170.235 999.915 173.493 999.48 174.952 998.387L174.719 999.508C174.417 1000.99 174.12 1002.45 173.48 1003.94L173.122 1004.75C169.454 1013.07 164.83 1021.38 169.108 1030.57C172.773 1038.45 181.437 1042.18 189.786 1039.95C197.72 1037.82 203.462 1028.89 199.354 1021.12C197.823 1018.23 193.345 1016.81 190.499 1018.62L189.734 1019.13C188.838 1019.71 187.295 1020.72 187.257 1020.9C187.045 1020.96 186.823 1021.01 186.597 1021.07C187.076 1019.66 187.399 1017.49 187.819 1016.54L189.364 1013.03C192.239 1006.44 194.731 999.729 192.537 992.335C186.256 971.164 164.955 983.201 149.242 989.242C149.471 988.348 149.698 987.464 149.89 986.599C150.567 983.533 151.308 980.485 152.041 977.434L153.545 971.137C154.898 965.334 155.951 958.872 151.745 954.109ZM955.677 930.48C955.69 929.978 955.074 929.595 954.641 929.886C944.595 936.637 937.875 950.733 941.649 962.741C943.482 968.573 947.38 973.687 952.852 976.518C959.655 980.035 967.167 978.697 974.315 977.191L977.351 976.542C979.49 976.093 981.602 975.763 983.78 976.363C984.527 976.57 985.394 977.221 986.105 977.361C985.811 977.86 985.499 978.726 985.341 979.046L984.824 980.088C984.304 981.144 983.797 982.24 983.478 983.35C982.41 987.069 982.674 991.063 984.404 994.534C987.627 1001 994.386 1004.64 1001.42 1005.26C1005.62 1005.63 1016.18 1001.96 1018.68 1006.41C1023.63 1015.24 1037.75 1009.3 1035 999.529C1033.15 992.922 1027.89 988.653 1021.37 986.866C1017.89 985.915 1014.29 986.043 1010.76 986.433C1009.38 986.585 1008 986.799 1006.61 986.947L1005.57 987.042C1005.84 987.021 1002.7 986.945 1001.44 986.862L1001.71 986.138C1001.75 986.035 1001.78 985.946 1001.82 985.877C1003.22 982.874 1004.26 979.882 1004.18 976.526C1004.02 970.475 1000.1 965.195 994.956 962.282C990.21 959.595 984.559 958.522 979.164 959.122C973.234 959.781 964.806 964.476 958.974 962.002C954.58 960.137 953.089 953.635 953.021 949.374C952.919 942.956 955.498 936.873 955.677 930.48ZM546.502 888.385C530.34 881.134 516.461 893.519 506.976 905.368C506.487 905.98 507.102 907.009 507.874 906.533L509.133 905.748C516.877 900.893 525.464 895.156 535.06 896.81C543.748 898.307 545.9 903.99 544.171 911.735L543.663 913.913C541.825 921.888 540.416 930.141 544.993 937.558C549.314 944.561 557.745 947.621 565.641 947.808C574.75 948.024 582.611 943.789 590.939 940.835L591.598 940.604C595.134 939.384 608.037 936.194 608.215 943.459C608.299 946.779 604.742 950.681 603.375 953.665C601.585 957.571 600.394 961.673 600.415 966.009C600.468 976.824 609.495 985.608 620.175 980.361C624.327 978.32 625.397 972.468 623.232 968.707C620.182 963.406 618.947 963.682 621.084 958.115L621.701 956.548C624.33 949.84 626.425 942.935 623.47 935.895C617.569 921.834 599.876 920.131 587.235 924.787L586.773 924.962C578.905 928.009 555.342 940.217 556.966 922.953C557.605 916.152 559.669 909.63 558.226 902.755C556.885 896.371 552.428 891.043 546.502 888.385ZM468.622 830.639C465.672 825.446 455.767 827.304 456.588 833.897L456.851 835.949C457.187 838.758 457.26 841.397 455.319 843.894C452.964 846.926 448.931 847.843 445.272 847.379C437.524 846.398 432.583 839.217 424.055 840.894C417.134 842.255 412.354 847.917 409.587 854.09C406.657 860.628 406.719 867.715 404.536 874.447C402.023 882.189 396.663 881.833 389.969 879.124L388.528 878.532C382.125 875.871 375.7 872.914 368.565 874.185C356.715 876.3 346.51 894.514 357.613 903.309C359.617 904.896 363.119 904.068 363.035 901.065L363.024 900.497C362.967 895.033 364.346 887.982 370.61 886.694C377.253 885.328 384.758 891.388 390.927 893.133C406.903 897.65 416.004 885.63 418.717 871.413L418.816 870.869C419.682 865.892 420.367 856.684 425.573 854.354C428.35 853.112 431.311 856.169 433.632 857.401C437.237 859.313 441.105 860.528 445.184 860.838C460.271 861.988 477.415 846.126 468.622 830.639ZM846.176 811.003C841.205 808.85 833.791 810.048 832.576 816.533L831.839 820.615C830.395 828.498 828.095 838.355 820.343 841.194C815.494 842.97 809.927 839.858 805.578 837.96C800.356 835.679 795.265 833.723 789.546 833.181C777.942 832.082 769.298 838.794 765.194 849.282L764.836 850.216C761.525 859.029 757.051 875.884 764.299 883.033C765.357 884.077 767.49 884.586 768.789 883.612C773.071 880.4 774.155 875.121 775.625 870.171L775.752 869.747C777.313 864.606 778.592 858.944 781.409 854.312C786.646 845.703 800.31 855.533 806.882 857.803C817.676 861.531 828.869 859.353 837.117 851.378C842.327 846.34 845.407 839.964 847.526 833.215C848.878 833.914 850.282 834.519 851.794 834.928C857.552 836.486 864.384 835.665 868.768 831.303C876.997 823.119 872.534 808.437 859.987 810.811C857.516 811.278 855.895 813.637 855.601 816.047L855.433 816.427V816.427C852.276 815.384 848.824 812.148 846.176 811.003ZM264.766 737.878C253.043 725.822 232.7 732.357 224.682 745.146C223.018 747.797 225.766 751.159 228.685 750.353C235.665 748.43 245.513 740.863 252.889 745.68C258.356 749.25 255.382 758.581 254.881 763.802L254.809 764.58C254.177 771.686 254.033 781.41 259.57 786.729C262.757 789.791 267.645 789.377 271.848 788.94L273.184 788.801C278.138 788.303 283.06 787.43 287.806 785.906C292.169 784.507 296.303 782.604 300.402 780.59L301.427 780.084C303.241 779.184 309.292 775.616 311.105 777.858C312.05 779.027 309.708 784.15 309.221 785.292C307.383 789.588 305.046 793.633 303.36 798.006C300.389 805.71 300.141 814.401 304.313 821.753C308.355 828.876 317.114 834.648 324.877 829.175C329.321 826.042 329.308 820.342 324.877 817.206C322.531 815.547 320.167 814.453 319.198 811.67C317.934 808.04 319.561 804.191 321.136 800.831L323.022 796.834C327.2 787.91 331.374 777.645 325.537 768.522C319.51 759.103 307.26 758.954 297.993 762.877C292.704 765.117 287.878 768.12 282.367 769.853C278.554 771.053 274.726 771.854 270.82 772.293C269.95 767.595 271.182 762.337 271.194 757.669C271.214 750.58 269.893 743.151 264.766 737.878ZM869.263 570.17C849.48 567.27 839.905 584.957 838.539 601.99C837.308 617.454 839.815 632.963 843.733 647.999C845.201 653.574 846.849 659.082 848.577 664.5C851.355 673.204 854.369 681.894 858.039 690.269C859.157 692.798 860.286 695.337 861.551 697.776C865.882 701.326 869.589 706.109 872.959 710.705L875.173 713.741V713.741L875.767 714.56C881.491 722.394 886.38 730.521 890.378 739.359C894.184 747.776 897.018 756.551 899.22 765.51L899.762 767.746C901.456 774.64 903.954 782.869 900.935 789.284C906.863 791.112 912.757 792.771 919.058 793.651C927.752 794.871 936.796 794.95 945.57 794.633C954.047 794.323 962.514 793.662 970.955 792.762L977.036 792.093C977.666 792.022 978.296 791.947 978.924 791.868C978.687 791.575 978.484 791.247 978.337 790.887C976.171 785.694 976.45 779.673 976.21 774.088L976.181 773.469C975.864 767.274 975.673 761.076 975.593 754.868C975.447 743.219 975.763 731.536 977.039 719.944C978.144 709.798 979.873 699.649 982.572 689.795C985.293 679.806 989.448 670.426 993.287 660.832C997.081 651.35 1000.21 641.61 999.87 631.27C999.655 624.7 998.21 618.312 995.76 612.273C995.646 612.363 995.501 612.431 995.331 612.42C987.641 612.137 980.358 609.914 972.929 608.04C965.047 606.043 956.974 604.405 948.912 603.435L947.198 603.234C940.479 602.48 933.159 602.113 926.95 604.992C920.232 608.12 915.998 615.073 913.446 621.743L913.161 622.512C908.628 635.157 909.667 652.037 923.687 658.021C928.034 659.883 937.959 661.023 940.195 655.131C941.2 652.445 939.134 648.473 938.355 645.933C937.44 642.907 936.842 639.927 936.909 636.767C936.964 633.995 939.082 631.904 941.778 631.68L942.024 631.665C946.925 631.451 957.03 625.808 958.013 633.933C958.205 635.514 956.997 637.173 955.721 637.942C953.146 639.464 950.459 640.481 947.659 641.101C948.043 642.794 948.585 644.453 949.116 646.101C949.431 645.943 949.781 645.843 950.154 645.808C954.298 645.469 958.397 646.125 962.541 646.169L964.806 646.185C968.022 646.217 970.826 646.389 973.945 648.054C976.824 649.589 976.316 653.438 973.945 655.086C967.723 659.398 957.189 656.87 950.707 652.49C950.99 654.714 950.854 656.983 949.906 659.364C947.105 666.431 939.077 669.952 931.897 670.257C925.516 670.528 919.419 668.518 914.327 664.997C913.288 668.71 911.617 672.277 910.894 676.127C909.945 681.183 911.075 687.098 909.314 691.85C907.552 696.637 900.743 699.841 896.802 695.146C891.032 688.283 892.828 677.413 897.898 670.46C900.596 666.78 905.497 662.559 910.487 661.893C907.021 658.632 904.243 654.601 902.493 650.154C902.369 650.21 902.222 650.221 902.064 650.176C885.838 645.741 877.009 631.044 876.467 615.614C875.27 616.472 874.029 617.24 872.729 617.928C869.624 619.599 865.638 618.131 864.678 614.666C863.798 611.437 866.361 607.454 869.963 607.724C872.018 607.893 874.084 607.905 876.128 607.566C876.41 607.521 876.681 607.465 876.963 607.408C877.144 606.223 877.381 605.037 877.675 603.864C871.544 604.563 865.13 603.559 859.202 602.249C854.098 601.132 855.284 593.016 860.422 593.208L861.247 593.244C867.988 593.568 877.939 594.656 883.716 590.386C884.732 588.919 885.861 587.531 887.08 586.221C887.239 585.894 887.374 585.545 887.498 585.183C890.603 576.243 875.891 571.141 869.263 570.17ZM691.681 695.935C683.979 693.876 675.874 696.681 670.578 702.494C666.127 707.38 663.822 713.38 661.761 719.514L660.586 723.043C658.873 728.039 656.906 732.003 650.787 730.098C642.944 727.657 636.146 723.404 627.617 723.739C619.865 724.045 612.278 727.378 606.881 732.965C601.36 738.68 598.724 746.643 599.896 754.488L599.973 754.968C600.584 758.582 605.871 771.482 611.476 765.543C613.977 762.895 613.484 759.964 614.078 756.599C614.642 753.394 615.851 750.25 617.83 747.65C621.339 743.043 626.984 741.247 632.502 742.877C639.78 745.027 646.209 749.46 654.049 749.564C662.298 749.674 669.301 745.399 673.85 738.686C677.523 733.267 678.833 726.924 681.417 721.032L681.666 720.47C683.836 715.622 685.316 713.872 690.286 716.19L692.023 717.022C699.464 720.557 707.836 723.793 715.53 718.809C722.678 714.18 725.726 704.876 719.713 698.103C716.396 694.363 708.716 695 706.561 699.797C706.183 700.622 705.832 701.459 705.486 702.297C704.828 702.096 704.188 701.853 703.58 701.512C699.547 699.694 696.044 697.102 691.681 695.935ZM466.849 641.168C458.063 636.435 450.729 645.744 452.133 654.149L452.201 654.517C452.252 654.771 452.371 655.325 452.519 655.959C452.07 655.905 451.627 655.826 451.184 655.713L449.143 655.463C445.935 655.09 442.824 654.897 439.613 655.926C432.033 658.357 428.306 665.722 428.123 673.27C427.941 680.792 431.834 686.859 432.978 694.045C434.148 701.394 426.539 699.295 421.572 698.758L421.377 698.737C414.467 698.039 407.202 698.026 401.459 702.529C395.528 707.178 392.9 715.212 393.738 722.568C394.495 729.212 398.653 739.438 406.187 740.487C406.931 740.591 407.778 740.428 408.16 739.685C411.206 733.763 406.967 727.225 407.446 720.977C407.973 714.106 412.355 712.963 418.397 713.408C424.261 713.839 430.11 715.083 435.901 713.334C442.184 711.436 446.743 706.047 448.033 699.69C449.454 692.684 446.841 686.165 445.147 679.507C444.583 677.295 444.307 675.071 444.695 672.81C444.779 672.321 445.203 671.87 445.357 671.677C446.321 671.496 447.764 671.958 448.589 672.046L449.76 672.161C456.123 672.736 462.253 672.35 466.799 667.095C469.129 664.402 469.989 661.111 469.757 657.638L469.64 656.235C469.516 654.886 469.278 653.105 468.576 652.363L468.567 652.326V652.326C468.803 652.011 469.026 651.686 469.231 651.349L469.429 651.008C471.378 647.761 470.247 642.998 466.849 641.168ZM916.936 558.781C908.185 558.781 899.919 561.637 893.302 569.414C895.662 571.66 897.548 574.268 898.588 577.327C901.827 575.555 905.26 574.167 908.771 573.184C919.487 570.193 934.143 570.238 943.153 577.586C947.873 581.424 942.69 588.309 937.609 587.124C933.059 586.063 929.107 584.099 924.331 583.873C920.187 583.67 916.122 584.212 912.147 585.409C906.084 587.238 900.574 590.702 896.52 595.477C895.165 597.08 893.98 598.818 892.986 600.693C885.421 615.05 891.123 635.638 901.567 647.456C897.469 633.843 901.556 617.792 909.72 606.517C919.548 592.941 934.248 591.402 949.735 593.521L950.246 593.592C965.228 595.704 983.78 599.394 994.981 610.399C993.863 607.859 992.576 605.399 991.129 603.017C982.639 589.043 968.559 578.139 953.948 570.362C951.498 569.042 949.025 567.823 946.563 566.694C937.203 562.393 926.77 558.781 916.936 558.781ZM921.722 452.137L921.688 452.296C921.681 452.325 921.674 452.355 921.666 452.385C921.149 456.975 922.37 462.244 922.993 466.876L923.077 467.533C924.387 478.076 926.115 488.63 926.679 499.251C927.229 509.465 927.017 520.06 925.789 530.23L925.607 531.68C924.884 537.222 924.455 543.724 922.582 549.413C929.784 550.101 936.988 552.415 943.537 554.877C945.886 555.768 948.223 556.704 950.549 557.699C947.636 542.223 946.078 526.522 942.916 511.092L942.294 508.021C938.857 490.952 935.631 473.773 926.747 458.503C925.562 456.472 924.286 454.767 922.84 452.95C922.524 452.533 922.152 452.262 921.722 452.137Z" fill="black"/>
<path fill-rule="evenodd" clip-rule="evenodd" d="M555.724 16.2656C606.277 16.2656 666.931 40.7646 672.088 41.2546L672.228 41.2621C674.941 41.2621 685.543 49.3363 704.033 65.4846L684.006 104.533L685.627 106.08C693.382 113.513 700.003 120.288 705.229 125.629C747.901 169.237 755.571 340.457 745.514 400.167C735.458 459.876 716.832 518.304 630.116 518.304C543.4 518.304 446.926 466.181 432.065 449.949C422.158 439.128 411.029 433.944 398.679 434.397C398.172 433.757 397.668 433.118 397.169 432.482L395.352 432.224C378.26 429.75 366.013 426.419 358.612 422.233C344.155 414.057 328.266 371.075 328.266 361.607C328.266 352.233 304.54 284.043 304.065 276.827L304.058 276.627C304.058 270.595 273.062 242.864 273.062 234.057C273.062 225.251 266.814 225.785 273.062 194.751L274.877 185.635C281.526 152.593 294.539 97.8814 344.155 74.1075C398.679 47.9822 504.66 16.2656 555.724 16.2656Z" fill="#D08B5B"/>
<path d="M603.937 14.9043L702.736 62.8761L616.358 72.4705L458.278 117.62L414.242 288.626L375.851 304.428L356.091 334.34L357.785 380.055L401.822 404.887L410.29 431.977L357.785 421.254L323.347 358.044L301.893 285.24L271.406 230.495L287.779 159.949L344.236 72.4705L436.26 35.2218L603.937 14.9043Z" fill="#A5FF33" stroke="black"/>
<path fill-rule="evenodd" clip-rule="evenodd" d="M335.74 72.8797C362.932 44.0269 517.31 -0.601629 595.414 8.85855L597.757 9.16185C603.99 9.95198 610.132 11.1485 616.195 12.7739C635.79 17.3487 656.031 24.2758 672.221 35.8466C685.738 45.3123 728.378 60.7705 715.81 85.533C720.47 94.3587 722.209 105.262 719.06 113.955C718.664 116.957 717.738 119.723 716.553 122.59C726.509 137.276 734.392 153.884 740.772 169.681C751.923 209.437 758.861 250.81 759.877 291.372C763.258 368.434 754.805 460.484 687.664 510.316C647.105 541.893 583.57 542.954 537.991 503.802C535.404 500.742 523.24 492.484 527.299 491.036C528.507 492.312 529.749 493.553 531.014 494.772C530.956 494.637 530.945 494.501 530.969 494.355L529.779 493.278C527.539 491.206 524.637 488.202 527.942 488.79C528.088 488.959 528.247 489.106 528.404 489.275C529.104 489.695 529.633 490.059 530.045 490.38L530.256 490.549L530.191 490.481C528.287 488.452 527.146 486.382 529.992 487.704L530.369 487.887C531.635 489.219 532.921 490.494 534.231 491.736C534.209 491.589 534.231 491.442 534.311 491.284L533.09 490.105C531.897 488.937 532.079 488.932 532.662 487.988C530.128 484.439 534.858 486.547 535.19 487.932C538.15 487.232 540.748 492.786 542.654 493.463C626.209 557.677 747.464 500.699 745.5 321.764L745.47 318.263C744.896 261.048 740.079 202.241 716.406 150.447C714.103 145.458 711.528 140.605 708.695 135.909C706.741 132.387 704.652 128.956 702.405 125.615C696.115 125.107 689.905 123.956 683.786 122.172C681.685 121.642 679.607 121.055 677.53 120.366C647.179 122.021 617.504 123.821 587.069 125.528L577.562 126.12C551.779 127.777 525.115 130.431 504.308 146.373C483.894 160.886 483.801 189.505 466.325 205.44C441.405 222.348 441.224 237.594 436.425 262.51C436.78 281.292 449.808 308.582 425.901 316.486C429.935 322.235 424.313 319.473 423.87 317.457C423.825 317.468 423.78 317.48 423.746 317.48C427.34 324.158 422.057 319.953 421.589 317.807C421.307 317.728 421.025 317.525 420.742 317.243C424.363 323.094 418.51 318.997 418.857 317.931C411.859 307.18 397.458 305.51 387.307 308.359C387.183 308.743 386.733 308.777 386.45 308.574C343.287 317.924 354.424 407.249 398.656 398.614C400.55 398.228 400.505 399.137 400.881 399.224C399.859 396.542 402.739 397.633 402.709 398.196L402.884 398.188C403.023 398.176 402.966 398.16 403.07 398.196C402.082 392.712 407.642 400.658 407.203 400.984C407.373 400.883 407.565 400.826 407.735 400.804L407.543 400.283C406.62 397.826 406.7 398.847 406.706 397.44C406.013 395.701 405.962 396.462 406.124 395.328C408.561 393.441 409.28 399.166 410.093 399.585C408.7 397.643 409.808 396.058 411.122 397.112C421.084 418.059 433.953 437.741 450.584 453.246C452.403 454.679 454.244 456.09 456.151 457.422C463.225 463.582 474.076 467.542 480.698 472.999C480.698 473.089 480.654 473.202 480.586 473.315L480.738 473.452V473.452L480.891 473.597L483.195 474.703C483.872 475.279 484.482 475.922 485.023 476.633C485.6 477.299 486.107 478.033 486.537 478.812C486.752 479.76 486.277 480.155 485.374 479.749C484.978 479.613 484.584 479.455 484.188 479.308C484.211 479.342 484.221 479.365 484.245 479.387C484.374 479.583 485.252 481.616 484.241 481.285L484.121 481.239C483.566 481.035 483.014 480.81 482.472 480.595C483.116 481.397 483.702 482.266 484.221 482.999C484.776 483.575 485.113 484.252 485.25 485.02C485.226 485.449 484.99 485.629 484.561 485.573C483.906 485.358 483.263 485.133 482.618 484.896L482.801 485.245C483.257 486.141 483.904 487.643 482.754 487.142C481.771 486.837 480.824 486.487 479.875 486.103C479.795 486.261 479.638 486.318 479.322 486.171C476.307 485.099 473.394 483.79 470.605 482.243C468.155 480.46 465.681 478.71 463.22 476.938C460.904 475.55 458.669 474.003 456.536 472.265C442.257 463.045 429.756 451.333 419.839 438.29C403.253 452.648 370.091 438.931 349.578 427.691C331.434 417.645 324.303 399.07 322.459 379.044C318.625 352.083 296.585 342.854 298.118 283.696C298.084 283.707 298.049 283.707 298.004 283.707C297.202 283.47 296.424 283.154 295.69 282.748C294.934 282.387 294.222 281.958 293.555 281.439L292.731 280.299V280.299C292.303 280.062 291.919 279.813 291.625 279.565L291.473 279.761C290.991 280.343 291.315 279.468 291.343 279.294L289.911 277.347C286.516 272.714 282.791 267.514 279.757 263.356L279.662 263.525C279.593 263.653 279.557 263.745 279.589 263.785C272.368 253.414 265.577 240.887 263.691 228.76C261.463 219.418 262.333 209.792 264.277 201.139C272.609 170.838 299.902 102.269 335.74 72.8797ZM531.699 491.931L531.246 491.528L531.644 492.027C531.853 492.284 532.066 492.516 532.414 492.752C532.391 492.673 532.391 492.594 532.401 492.503C532.171 492.328 531.935 492.135 531.699 491.931ZM595.068 24.0839C542.103 19.5317 490.008 31.1962 439.466 45.3157L435.979 46.3175C407.24 54.5151 376.852 61.8916 352.565 79.4378C318.633 105.418 301.111 146.748 285.821 184.908C272.468 213.26 279.294 245.23 299.415 265.027C301.509 245.354 305.078 226.256 310.656 207.313C311.82 204.353 310.939 203.383 313.448 202.997C317.238 254.048 298.574 291.767 335.508 352.27C351.534 380.818 332.982 401.707 378.238 416.729L379.463 417.197C388.891 420.754 399.188 423.561 408.422 421.573L407.595 420.228C406.751 418.842 406.495 418.17 407.722 417.577C407.689 417.509 407.644 417.442 407.598 417.363C406.605 415.489 405.646 413.593 404.73 411.674C404.358 411.798 403.986 411.888 403.601 411.99C403.85 412.453 403.883 412.915 403.184 413.073C400.696 413.927 398.141 414.269 395.525 414.109L394.964 414.067C392.009 413.886 390.147 413.348 388.482 412.848C387.929 412.757 387.376 412.667 386.833 412.554C381.475 411.367 375.804 408.346 372.133 405.353C330.289 381.595 334.614 300.721 386.191 293.076C387.249 242.156 411.477 156.249 451.685 107.728C488.03 63.0957 587.251 43.7512 656.282 50.5723C657.288 50.9053 658.294 51.2416 659.301 51.5814C669.951 52.5273 680.1 57.2703 690.758 59.4736C683.106 53.7407 674.425 49.9221 665.484 46.677C647.668 35.7834 627.244 29.8891 607.513 25.7319C603.425 24.7273 599.281 24.1742 595.068 24.0839ZM383.83 333.982C386.603 332.476 386.286 333.93 386.924 333.508C406.871 331.881 428.38 349.34 439.53 363.894C438.65 364.808 436.267 362.099 435.849 361.67C435.793 361.727 435.725 361.772 435.657 361.794L435.968 362.232C440.487 368.716 431.528 361.087 430.689 359.514C430.542 359.593 430.396 359.638 430.226 359.604C430.936 360.301 433.105 362.117 433.478 363.408L434.053 363.887C439.476 368.529 439.026 372.021 432.869 365.429C433.015 365.734 433.072 366.016 432.97 366.242L433.182 366.383C436.209 368.497 438.699 374.393 432.372 368.341C433.03 372.761 426.101 364.218 425.879 364.277C413.89 354.869 396.238 345.72 381.199 344.491L380.681 344.431C377.922 344.077 376.617 343.258 377.586 341.454C374.187 340.646 374.983 338.973 376.592 339.027C374.195 337.452 376.353 335.945 377.744 336.533C376.788 333.886 380.623 335.649 380.973 335.28C382.964 332.211 383.5 334.771 383.83 333.982ZM342.018 169.918C351.599 166.41 379.898 176.912 377.634 190.82C376.286 194.014 371.844 195.843 368.722 194.041L364.647 191.305C357.556 186.557 351.16 182.394 343.547 178.254C339.403 176.199 337.619 171.835 342.018 169.918ZM396.527 149.249L392.827 146.842C372.859 133.779 344.632 113.984 394.692 134.464C400.398 136.91 407.979 138.357 411.092 143.789C415.982 153.799 403.112 154.472 396.527 149.249ZM398.771 90.6346C397.169 84.5563 417.106 91.6889 422.91 93.5694L423.794 93.9031C429.439 96.0061 435.911 97.9569 439.288 102.827C443.244 109.557 435.236 110.951 430.276 107.911C420.106 101.267 408.956 96.2547 398.771 90.6346ZM449.469 62.3201C438.247 50.0693 468.281 61.8051 472.78 65.0628L472.908 65.1589C476.265 67.5213 475.584 72.6097 472.43 74.1042C463.457 74.2746 456.854 66.7978 449.469 62.3201ZM500.536 48.8979C482.695 36.0809 506.196 42.1773 514.359 47.2002C519.922 52.1047 514.192 60.384 500.536 48.8979Z" fill="black"/>
<path d="M831.56 516.401C822.988 506.506 803.416 479.933 794.702 467.884C792.74 464.249 791.065 465.614 790.473 466.751C777.222 484.618 744.682 516.519 730.069 530.236C727.444 532.296 729.938 533.943 731.514 534.509C740.3 536.517 788.771 572.154 811.907 589.722L950.565 716.674C953.646 718.708 955.86 717.588 956.582 716.774C972.018 704.285 984.354 689.67 987.934 684.368C990.797 680.127 988.677 677.299 987.259 676.415L831.56 516.401Z" fill="#D9D9D9" stroke="black" stroke-width="5"/>
<path d="M711.812 517.463C715.12 521.964 724.706 528.736 729.086 531.559C755.087 522.813 793.807 472.281 791.71 466.339C790.033 461.585 781.365 452.305 777.24 448.259C772.122 447.921 769.405 439.704 768.687 435.638C755.653 420.784 733.672 409.186 724.311 405.244C717.346 403.378 709.839 405.528 706.956 406.836C674.773 431.358 670.075 446.455 665.828 451.774C662.431 456.029 663.62 463.521 664.639 466.735C675.498 488.41 691.547 504 698.214 509.086C701.368 510.003 708.504 512.961 711.812 517.463Z" fill="#525151" stroke="black" stroke-width="6"/>
<path d="M772.214 436.247C770.027 434.108 768.575 435.344 768.122 436.229C753.333 452.799 715.335 491.607 698.186 508.939C696.541 510.569 697.363 511.739 697.98 512.119C698.687 513.344 704.832 517.118 707.817 518.852C709.512 518.961 710.348 518.524 710.554 518.291C724.765 505.491 776.797 448.905 777.818 448.315C778.634 447.844 778.733 445.973 778.681 445.096C777.436 443.037 774.4 438.385 772.214 436.247Z" fill="#A4A4A4" stroke="black" stroke-width="5"/>
<path fill-rule="evenodd" clip-rule="evenodd" d="M698.938 75.7363L699.72 74.2129C683.956 74.6703 665.541 75.372 646.138 76.4484C618.27 77.9944 588.355 80.3138 561.325 83.7943C534.312 87.2728 510.125 91.9176 493.743 98.1325C477.209 104.405 463.836 119.417 453.075 138.251C442.305 157.099 434.093 179.878 427.929 201.847C421.764 223.822 417.64 245.018 415.058 260.719C413.766 268.569 412.86 275.048 412.276 279.565C411.984 281.824 411.773 283.592 411.635 284.796C411.566 285.398 411.515 285.86 411.481 286.171L411.475 286.226C411.309 286.306 411.091 286.413 410.822 286.545C410.151 286.876 409.169 287.368 407.919 288.013C405.42 289.303 401.852 291.206 397.571 293.66C389.012 298.566 377.595 305.68 366.174 314.507C360.462 318.921 356.849 322.294 354.652 324.88C352.478 327.439 351.6 329.333 351.579 330.778C351.555 332.342 352.519 333.185 353.383 333.593C353.726 333.754 354.063 333.855 354.34 333.919C354.336 334.18 354.33 334.516 354.325 334.92C354.312 335.985 354.301 337.521 354.31 339.41C354.328 343.189 354.425 348.384 354.742 354.05C355.059 359.713 355.597 365.858 356.497 371.531C357.395 377.192 358.663 382.438 360.463 386.274C362.328 390.25 366.434 393.318 371.368 395.694C376.323 398.081 382.238 399.83 387.899 401.102C393.565 402.375 399.006 403.177 403.029 403.661C405.04 403.903 406.699 404.066 407.856 404.168C408.407 404.217 408.844 404.252 409.152 404.275L416.001 427.206L415.063 437.733C415.548 437.939 416.031 438.156 416.511 438.384L417.508 427.195L417.521 427.052L417.48 426.914L410.441 403.349L410.291 402.849L409.769 402.815L409.768 402.815L409.763 402.815L409.742 402.814L409.654 402.808C409.577 402.802 409.461 402.794 409.31 402.783C409.007 402.76 408.56 402.724 407.988 402.674C406.845 402.573 405.202 402.412 403.208 402.172C399.218 401.692 393.83 400.897 388.228 399.638C382.621 398.378 376.829 396.66 372.018 394.343C367.186 392.015 363.464 389.141 361.821 385.637C360.112 381.993 358.87 376.914 357.979 371.296C357.089 365.69 356.555 359.601 356.24 353.966C355.925 348.332 355.828 343.164 355.81 339.403C355.801 337.523 355.812 335.996 355.825 334.939C355.832 334.411 355.839 334 355.844 333.722C355.847 333.583 355.849 333.477 355.851 333.406L355.853 333.326L355.853 333.306L355.853 333.301L355.854 333.3C355.854 333.3 355.854 333.299 355.104 333.28L355.854 333.299L355.873 332.569L355.145 332.531L355.144 332.531L355.144 332.531L355.142 332.531L355.132 332.53C355.118 332.529 355.096 332.527 355.066 332.524C355.006 332.517 354.916 332.505 354.806 332.484C354.583 332.441 354.298 332.366 354.023 332.236C353.49 331.985 353.067 331.582 353.078 330.801C353.092 329.901 353.673 328.35 355.796 325.851C357.896 323.378 361.417 320.079 367.091 315.694C378.442 306.921 389.798 299.845 398.317 294.961C402.577 292.52 406.125 290.628 408.607 289.346C409.848 288.706 410.823 288.218 411.486 287.89C411.818 287.727 412.072 287.603 412.242 287.521C412.327 287.48 412.392 287.449 412.435 287.428L412.483 287.405L412.495 287.4L412.497 287.398L412.498 287.398C412.498 287.398 412.498 287.398 412.177 286.72L412.498 287.398L412.88 287.217L412.923 286.796L412.177 286.72C412.923 286.796 412.923 286.796 412.923 286.795L412.924 286.789L412.926 286.768L412.935 286.68C412.944 286.603 412.956 286.486 412.973 286.332C413.006 286.024 413.056 285.566 413.125 284.967C413.263 283.77 413.473 282.008 413.764 279.757C414.346 275.255 415.25 268.794 416.538 260.962C419.115 245.297 423.228 224.158 429.373 202.252C435.521 180.341 443.693 157.693 454.377 138.995C465.07 120.281 478.22 105.626 494.275 99.5349C510.483 93.3861 534.522 88.7581 561.517 85.282C588.497 81.8079 618.372 79.491 646.221 77.9461C665.271 76.8892 683.37 76.1939 698.938 75.7363Z" fill="#9DDADB"/>
<path fill-rule="evenodd" clip-rule="evenodd" d="M563.236 395.397C572.428 377.029 656.728 385.285 656.728 385.285L663.849 443.671C663.849 443.671 623.174 456.737 598.961 453.999C574.749 451.261 554.045 413.765 563.236 395.397Z" fill="white"/>
<path fill-rule="evenodd" clip-rule="evenodd" d="M569.176 426.064C566.265 419.837 626.531 402.858 645.19 414.461C663.849 426.064 658.014 441.89 658.014 441.89C658.014 441.89 579.535 459.78 569.176 426.064Z" fill="#FF8181"/>
<path fill-rule="evenodd" clip-rule="evenodd" d="M558.009 384.528C572.075 368.192 595.767 367.054 615.392 371.139C627.986 373.761 640.248 378.128 653.04 379.746C659.014 380.503 665.052 380.729 671.07 380.618C676.981 380.509 682.902 379.318 688.792 379.54C689.697 379.573 690.039 380.761 689.255 381.245C681.174 386.205 670.288 387.796 660.743 388.766C660.772 389.472 660.815 390.161 660.913 390.745C661.173 392.303 661.411 393.851 661.603 395.419C662.036 398.956 662.521 402.482 663.004 406.012C663.958 412.959 664.257 420.126 665.934 426.953L666.226 428.088C666.615 429.523 666.703 430.817 666.573 431.983L666.962 431.808L668.188 431.214L668.992 430.835C671.925 429.476 674.725 428.486 678.174 428.816C680.8 429.066 683.004 430.856 683.02 433.658C683.085 446.235 666.126 450.279 656.426 452.686L653.581 453.387C641.234 456.397 628.626 459.035 615.927 459.666C595.547 460.678 572.646 455.059 559.315 438.538C546.876 423.124 544.596 400.104 558.009 384.528ZM650.558 437.368C648.42 418.434 625.138 417.393 618.441 429.4C615.468 412.663 571.502 427.954 574.94 431.281C587.971 443.893 607.745 445.028 624.744 442.695C633.402 441.507 642.066 439.573 650.558 437.368ZM624.72 387.74L618.867 386.898L616.562 386.581C602.051 384.639 585.732 383.636 573.802 392.934C569.446 396.327 566.995 400.754 566.079 405.509C577.368 403.837 588.698 402.561 600.062 401.499L603.162 401.214C610.272 400.574 617.379 399.899 624.482 399.19L629.531 398.68L634.577 398.156C636.353 397.97 648.321 397.358 650.571 397.769C650.811 395.749 651.125 391.376 651.632 389.409C643.13 389.698 634.664 389.066 626.212 387.944L624.72 387.74ZM651.664 303.108C660.338 308.377 673.555 320.665 664.223 333.728C653.24 345.247 637.425 332.04 629.632 326.067C622.406 321.438 614.287 333.344 620.992 338.749C677.304 380.416 700.157 304.486 656.051 296.912C651.195 296.078 649.391 301.478 651.664 303.108ZM667.187 325.307L667.604 325.08L667.745 324.995C667.989 324.837 667.833 324.854 667.279 325.046L666.863 325.195V325.489C666.97 325.424 667.084 325.375 667.187 325.307ZM556.098 278.491L556.096 278.232C556.113 270.912 560.379 254.197 570.924 254.197C577.511 254.197 581.511 265.572 582.203 277.299L582.227 277.777C582.533 285.067 580.531 301.003 570.924 301.003C561.214 301.003 556.198 285.91 556.098 278.491V278.491ZM711.347 276.195L711.348 275.936C711.332 268.616 707.066 251.901 696.521 251.901C690.098 251.901 686.136 262.715 685.3 274.124L685.242 275.003C684.826 282.047 686.698 298.707 696.521 298.707C706.23 298.707 711.247 283.614 711.347 276.195V276.195ZM562.114 204.284C570.72 202.977 582.116 205.461 586.129 214.207C587.916 218.103 585.799 222.412 581.293 222.627C570.402 223.149 560.635 220.726 551.076 227.804C546.962 230.85 543.503 235.068 540.601 239.275L539.502 240.877L538.593 242.196C536.622 245.092 534.756 248.238 535.047 251.732C535.133 252.766 534.075 253.748 533.07 253.706C526.805 253.449 526.131 245.599 526.955 240.884C528.487 232.134 532.725 223.92 538.598 217.304C544.766 210.356 552.909 205.684 562.114 204.284ZM680.645 214.904C686.579 211.092 694.169 209.627 701.121 210.188C714.828 211.291 737.824 222.937 734.797 239.669C733.863 244.829 726.681 247.552 722.45 244.689C717.9 241.611 716.792 236.828 713.406 232.805C710.705 229.592 707.28 227.267 703.614 225.287C700 223.333 695.819 222.15 691.717 221.718L691.035 221.653C688.566 221.443 676.101 221.499 677.931 226.15C678.289 227.06 676.934 227.781 676.311 227.093C672.489 222.868 676.818 217.363 680.645 214.904Z" fill="black"/>
</g>
</svg>
