<svg width="1100" height="1100" viewBox="0 0 1100 1100" fill="none" xmlns="http://www.w3.org/2000/svg">
<mask id="mask0_1951_31630" style="mask-type:alpha" maskUnits="userSpaceOnUse" x="0" y="0" width="1100" height="1100">
<rect width="1100" height="1100" fill="#D9D9D9"/>
</mask>
<g mask="url(#mask0_1951_31630)">
<path fill-rule="evenodd" clip-rule="evenodd" d="M260.486 3038.95C227.031 3038.95 193.517 3032.51 161.108 3026.27L159.952 3026.01C146.439 3022.97 132.466 3019.83 120.159 3013.92C105.378 3006.55 94.1742 2992.56 88.6882 2974.55C82.1732 2953.16 84.4712 2928.29 94.6822 2909.57C96.8842 2906.18 99.1022 2902.79 101.322 2899.39C122.136 2867.56 143.66 2834.64 153.663 2796.06L157.255 2782.2L144.985 2789.08C144.863 2789.15 144.709 2789.21 144.413 2789.21C142.014 2789.21 136.633 2785.64 130.435 2777.79C105.412 2737.62 108.625 2687.38 111.733 2638.79C112.537 2626.21 113.369 2613.21 113.647 2600.81C123.163 2477.96 150.522 2346.85 199.743 2188.23C236.432 2090.59 253.853 1986.71 270.697 1886.26C276.897 1849.28 283.309 1811.04 290.588 1773.7L292.136 1765.75L282.416 1766.5C278.848 1766.79 275.16 1767.08 271.69 1767.08C261.424 1767.08 255.738 1764.45 252.065 1757.99C234.004 1725.97 231.88 1687.73 229.826 1650.75C229.267 1640.69 228.689 1630.29 227.797 1620.21L227.309 1614.71L221.928 1614.61C220.822 1614.59 219.715 1614.56 218.609 1614.52L211.125 1614.28L212.259 1620.38C211.429 1620.55 210.074 1620.71 207.941 1620.71C204.475 1620.71 200.36 1620.29 196.73 1619.91C193.438 1619.56 190.594 1619.27 188.307 1619.27C187.481 1619.27 186.755 1619.31 186.1 1619.39C184.414 1619.44 182.799 1619.47 181.299 1619.47C170.25 1619.47 163.518 1618.01 160.718 1615.02C157.219 1611.28 157.587 1602.31 158.095 1589.89C158.205 1587.21 158.322 1584.36 158.41 1581.35C158.747 1570.09 158.891 1558.65 159.03 1547.59C159.339 1523.13 159.657 1497.84 162.093 1473.25L162.173 1472.45L162.049 1471.66C127.034 1246.98 149.554 1019.77 173.087 846.931C173.485 843.997 173.878 841.059 174.27 838.119C178.234 808.429 182.334 777.728 192.948 749.667C205.73 715.687 225.35 692.541 254.7 676.81C281.162 662.629 311.995 656.256 344.638 649.509C373.978 643.445 404.317 637.174 432.897 624.708L435.076 623.755L438.973 622.686C441.576 621.973 444.084 621.061 446.509 620.179C450.157 618.853 453.601 617.601 456.912 617.171L459.915 616.78L461.393 614.073C467.872 602.203 472.905 589.414 476.351 576.06L476.489 575.527L476.532 574.977C476.821 571.265 476.822 567.609 476.822 564.075C476.823 559.563 476.823 555.301 477.393 551.148C479.811 536.035 487.904 524.226 501.445 516.047C513.356 508.854 529.154 504.891 545.929 504.891C553.162 504.891 560.261 505.62 567.03 507.054L567.308 507.113L567.591 507.145C579.721 508.508 601.794 513.579 613.325 532.235L615.956 536.49L619.624 535.047C620.019 536.745 620.268 539.413 620.421 541.039C620.703 544.052 620.969 546.898 621.835 549.241C623.619 554.257 625.051 559.697 626.213 565.873L627.109 570.637L628.087 570.682C633.188 594.724 641.984 613.476 654.909 627.874L655.918 628.996L657.016 629.395C657.34 629.721 657.897 630.481 658.28 631.004C659.007 631.997 659.83 633.119 660.882 634.136C663.76 637.075 666.907 639.41 669.952 641.668C670.56 642.12 671.174 642.576 671.796 643.043L672.723 643.74L673.837 644.037C676.332 644.7 678.622 644.811 680.641 644.909C682.392 644.994 683.905 645.067 685.139 645.484L685.957 645.761L686.816 645.79C687.16 645.802 687.507 645.845 687.857 645.882C688.563 645.958 689.364 646.044 690.267 646.044C691.19 646.044 692.039 645.953 692.859 645.765L697.279 644.756L697.471 641.383C703.938 641.085 710.523 640.891 717.123 640.891C747.692 640.891 771.563 645.221 792.237 654.516C865.55 690.57 890.896 809.701 909.401 896.694C912.508 911.301 915.443 925.098 918.411 937.669C934.242 1020.4 949.822 1104.63 964.887 1186.09C978.92 1261.95 993.429 1340.4 1008.12 1417.49C1016.77 1460.48 1021.49 1508.4 990.919 1538.34L986.257 1542.91L991.035 1547.35C993.985 1550.09 993.15 1557.61 992.479 1563.66C992.28 1565.45 992.091 1567.15 991.985 1568.77C988.647 1602.54 982.43 1629.87 972.979 1652.32C960.779 1681.31 943.073 1701.52 920.356 1712.39L917.58 1713.72L917.002 1716.81C916.455 1719.73 910.766 1722.1 904.32 1722.1C900.428 1722.1 896.735 1721.27 894.188 1719.81L887.355 1715.9L885.446 1723.68C841.69 1901.93 823.991 2083.47 810.877 2301.22C809.684 2320.78 808.589 2340.73 807.529 2360.03C801.023 2478.49 794.297 2600.98 760.893 2716.26L759.887 2719.73L762.357 2722.32C780.397 2741.2 804.648 2750.27 828.101 2759.04L830.006 2759.75C879.866 2778 925.958 2806.9 963.339 2843.35L963.47 2843.48C996.674 2873.97 1010.91 2907.16 1001.55 2932.25C992.868 2955.52 964.159 2968.86 922.781 2968.86C922.778 2968.86 921.963 2968.86 921.963 2968.86L921.639 2968.9C902.102 2971.03 881.756 2972.11 861.164 2972.11C772.182 2972.11 685.276 2951.95 619.506 2934.39L619.315 2934.35C599.507 2929.76 581.17 2918.37 567.678 2902.26C553.835 2885.74 546.379 2865.5 546.682 2845.29C546.949 2823.63 555.773 2797.54 574.886 2788.02L588.121 2781.42L574.164 2776.65C566.287 2773.95 562.815 2765.79 558.796 2756.32C557.151 2752.46 555.452 2748.46 553.363 2744.8C536.462 2708.11 523.33 2668.05 514.33 2625.72L514.274 2625.48C488.613 2524.53 505.776 2421.57 522.376 2321.99C536.817 2235.35 551.751 2145.76 539.01 2056.77L527.269 2056.11C509.281 2126.54 496.423 2200.76 483.988 2272.53C468.917 2359.52 453.331 2449.47 428.44 2534.01C400.593 2628.59 363.827 2706.03 316.04 2770.75L313.507 2774.18L315.781 2777.8C315.986 2778.13 316.069 2778.34 316.1 2778.44C315.567 2779.55 311.902 2781.89 307.301 2782.51L304.759 2782.85L303.244 2784.97C295.647 2795.6 304.493 2809.12 309.777 2817.2C310.697 2818.6 311.565 2819.93 312.181 2820.98C319.507 2833.46 326.218 2846.07 331.248 2855.67L333.05 2859.01C346.612 2884.09 363.491 2915.3 370.045 2945.33C377.41 2979.08 370.222 3004.65 348.069 3023.5C339.076 3030.33 328.25 3034.25 318.343 3034.25C315.858 3034.25 313.409 3034.01 311.065 3033.53L309.781 3033.27L308.507 3033.58C293.675 3037.19 277.967 3038.95 260.486 3038.95" fill="#8FA7DF"/>
<path fill-rule="evenodd" clip-rule="evenodd" d="M442.408 622.608L442.57 622.611C447.121 622.611 449.281 625.91 449.052 632.506L449.037 632.869L459.719 712.233L479.261 952.572L514.791 1155.03L517.849 1173.16C550.308 1365.9 566.537 1474.01 566.537 1497.47L566.531 1500.45C566.442 1524.86 565.283 1563.61 563.053 1616.67L560.518 1617.48C536.532 1625.09 519.386 1628.9 509.079 1628.9L508.425 1628.89C497.73 1628.74 471.279 1624.98 429.07 1617.62L423.641 1616.67L388.407 1623.62L365.627 1612.84L342.268 1569.64L219.917 1582.09L222.233 1614.62L221.929 1614.61C220.823 1614.59 219.716 1614.56 218.61 1614.52L211.126 1614.28L212.26 1620.38L211.916 1620.44C211.484 1620.52 210.94 1620.59 210.263 1620.64L162.573 1616.46C161.831 1616.03 161.214 1615.55 160.719 1615.02C157.548 1611.63 157.553 1603.94 157.96 1593.29L158.262 1585.74C158.316 1584.32 158.367 1582.85 158.411 1581.35C158.71 1571.34 158.858 1561.19 158.984 1551.29L159.098 1542.34C159.396 1519.52 159.832 1496.08 162.094 1473.25L162.174 1472.45L162.05 1471.66C127.035 1246.98 149.555 1019.77 173.088 846.931L173.682 842.527V842.527L175.081 832.067C178.821 804.278 183.054 775.825 192.949 749.667C205.731 715.687 225.351 692.541 254.701 676.81C279.273 663.642 307.613 657.206 337.673 650.952L352.381 647.904C379.288 642.297 406.825 636.08 432.898 624.708L435.077 623.755L438.974 622.686C439.408 622.567 439.84 622.442 440.27 622.313C441.189 622.492 441.902 622.59 442.408 622.608V622.608ZM717.124 640.891C747.693 640.891 771.564 645.221 792.238 654.516C862.618 689.127 888.792 800.303 907.146 886.108L912.082 909.258C914.224 919.245 916.31 928.764 918.412 937.669C932.547 1011.53 946.481 1086.6 960.028 1159.81L972.731 1228.48C984.301 1290.96 996.15 1354.68 1008.12 1417.49L1008.54 1419.59C1015.35 1454.08 1019.31 1491.47 1004.43 1520.08L953.918 1556.82V1603.95C938.331 1612.31 918.465 1616.55 894.319 1616.67L893.251 1616.67H809.432L781.295 1466.77L761.879 1248.25L753.2 956.147L733.016 786.39L706.672 698.36L672.271 647.129L679.264 644.836L680.191 644.887V644.887L681.497 644.952C682.889 645.028 684.112 645.136 685.14 645.484L685.958 645.761L686.817 645.79C687.046 645.798 687.277 645.819 687.509 645.844L687.858 645.882C688.564 645.958 689.365 646.044 690.268 646.044C691.191 646.044 692.04 645.953 692.86 645.765L697.28 644.756L697.472 641.383C703.939 641.085 710.524 640.891 717.124 640.891Z" fill="#9FD8E5"/>
<path fill-rule="evenodd" clip-rule="evenodd" d="M334.986 1573.76L334.929 1573.26C334.342 1567.52 336.914 1569.32 338.368 1573.7C347.784 1572.47 352.258 1582.24 348.691 1589.2C363.318 1608.37 382.741 1623.22 395.845 1643.63C407.949 1660.45 412.877 1688.71 383.869 1685.69L382.924 1685.69C379.209 1685.7 377.227 1686.15 376.575 1690.67C376.974 1722.7 381.949 1751.48 343.156 1760.1C315.782 1764.84 287.716 1764.88 260.023 1765.58C248.092 1765.08 249.569 1749.24 249.462 1740.55L249.436 1740.58V1740.58C240.035 1716.61 235.028 1690.87 230.48 1665.49L229.914 1662.32C227.224 1641.58 222.848 1620.23 226.466 1599.37L226.241 1599.03C222.815 1593.83 219.039 1584.18 227.458 1581.92C263.079 1577.05 299.103 1575.44 334.986 1573.76ZM961.422 1566.58C964.593 1559.83 985.624 1542.59 990.168 1554.29C996.595 1593.55 977.527 1628.62 963.49 1663.55C962.185 1667.34 959.46 1670.19 956.138 1671.36C953.37 1682.2 893.978 1740.1 892.892 1712.24C897.246 1692.83 902.772 1673.65 907.805 1654.41C918.382 1598.9 934.631 1625.75 957.035 1608.52C964.076 1595.68 953.784 1579.6 961.422 1566.58ZM486.576 521.447C511.416 489.575 588.943 488.8 615.006 519.504C627.771 525.519 634.647 570.452 634.739 585.006C638.752 607.052 652.512 625.401 666.602 642.106C679.315 660.482 667.45 682.615 661.928 701.494C658.4 712.798 654.777 724.053 651 735.275C640.392 759.487 635.25 807.853 604.359 811.718C597.335 811.718 590.539 807.327 588.201 801.059C572.305 791.391 559.918 775.927 546.101 763.399C529.772 749.445 519.429 730.583 507.009 713.3C489.416 689.967 454.515 669.194 459.188 635.745C458.648 636.106 456.943 639.394 456.698 637.747C466.363 616.467 473.847 592.931 476.741 569.595C476.924 550.875 472.218 538.063 486.576 521.447Z" fill="#D08B5B"/>
<path fill-rule="evenodd" clip-rule="evenodd" d="M729.606 960.635C725.494 952.742 719.258 943.995 711.118 940.189C707.932 938.699 704.817 937.997 701.815 937.918C690.175 934.404 678.892 940.387 672.245 950.532C671.529 951.092 670.832 951.688 670.157 952.313C663.139 958.808 657.238 967.304 657.299 977.372C657.362 987.382 663.683 996.698 673.217 999.288C676.511 1000.18 679.986 999.483 682.779 997.709C683.993 998.286 685.262 998.8 686.599 999.228C701.158 1003.89 720.23 999.009 729.213 985.859C734.566 978.022 733.865 968.809 729.606 960.635" fill="white"/>
<path fill-rule="evenodd" clip-rule="evenodd" d="M474.917 541.212C474.914 540.5 475.929 540.37 476.113 541.046C484.266 569.668 481.667 600.796 467.818 627.188L467.373 628.073C464.147 634.412 460.093 640.661 454.034 643.558L456.276 646.831C492.223 699.143 531.987 749.09 579.864 790.451C584.562 794.558 589.295 798.645 594.155 802.553L595.984 804.009C598.277 805.819 601.631 809.402 604.711 809.539C614.431 806.697 625.914 781.132 631.433 771.948C651.741 735.125 662.603 693.86 669.78 652.757C667.363 647.396 661.395 644.091 658.047 639.86C651.773 633.277 646.374 625.605 642.038 617.556C633.788 602.242 628.688 583.058 631.005 565.525C631.155 564.389 632.965 564.459 633.174 565.525C637.075 585.929 644.053 605.544 657.38 621.435C657.492 621.139 657.735 620.897 658.091 620.901C663.858 620.974 669.195 619.734 674.906 621.361C679.877 622.779 684.495 625.455 687.848 629.511C689.39 631.376 690.641 633.415 691.733 635.544C694.975 635.366 698.218 635.201 701.463 635.07C767.646 629.5 831.777 652.474 860.12 718.111C893.321 786.48 909.4 862.005 924.277 936.358C954.863 1096.2 983.55 1256.43 1014 1416.3L1014.51 1418.84C1022.69 1460.39 1027.81 1510.74 995.062 1542.78C1001.51 1548.77 998.471 1561.25 997.962 1569.29C992.517 1624.63 976.503 1692.3 922.895 1717.96C920.92 1728.55 901.422 1730.99 891.266 1725.18C845.469 1911.77 828.842 2104.21 817.218 2295.79L816.867 2301.6C808.375 2441.06 805.714 2583.13 766.649 2718.02C784.217 2736.4 808.953 2745.32 832.061 2753.97C882.29 2772.35 928.789 2801.18 967.478 2838.89C1037.1 2903.43 1022.11 2974.81 922.277 2975.02C830.221 2983.62 737.106 2972.8 648.202 2947.46C643.337 2946.09 638.107 2945.05 633.675 2942.46C628.194 2942.33 622.639 2941.4 617.998 2940.34C575.455 2930.5 540 2891.04 540.687 2845.19C540.977 2821.7 550.476 2793.34 572.26 2782.48C564.22 2780.1 559.9 2773.26 556.762 2765.78C553.754 2759.8 550.851 2753.77 548.057 2747.68C530.313 2709.21 517.297 2668.58 508.472 2627.03C468.776 2470.92 529.295 2315.62 537.055 2159.56C536.757 2153.7 536.407 2147.85 535.942 2142.01C534.273 2121.05 531.726 2100.34 527.605 2079.85C471.57 2314.64 468.044 2575.07 320.822 2774.47C325.84 2782.44 315.149 2787.65 308.083 2788.61C301.945 2797.19 313.196 2810.77 317.325 2817.81C324.042 2829.26 330.363 2840.99 336.529 2852.76L340.78 2860.62C368.27 2911.57 404.807 2983.38 351.773 3028.34C340.068 3037.29 324.517 3042.54 309.895 3039.56C293.461 3044.2 276.335 3045.57 259.304 3044.8C225.888 3044.06 192.57 3039.49 159.912 3032.3L155.267 3031.26C142.465 3028.35 129.482 3025.19 117.61 3019.49C78.1774 2999.84 69.1744 2943.44 89.5684 2906.36C96.4044 2893.32 105.884 2882.04 113.744 2869.68C128.457 2846.56 140.048 2820.91 147.869 2794.48C146.077 2795.76 143.626 2796.1 141.026 2794.71C88.9244 2762.51 106.379 2654.86 107.652 2600.5C118.578 2459.29 152.283 2320.86 194.078 2186.19C244.098 2053.21 257.652 1911.27 284.704 1772.5L279.595 1772.89C267.019 1773.8 254.093 1773.77 246.885 1761.1C228.357 1727.23 224.78 1684.28 222.971 1642.58C222.244 1637.12 221.633 1631.62 221.024 1626.14C219.783 1626.35 218.518 1626.39 217.493 1626.36C216.723 1626.34 215.966 1626.27 215.231 1626.13L215.121 1626.16V1626.16C210.245 1627.19 205.167 1626.44 200.221 1626.2C187.939 1625.01 174.927 1626.48 162.882 1623.46C145.919 1617.62 153.441 1595.18 152.414 1581.16C153.502 1545 152.553 1508.66 156.123 1472.62C123.765 1265 138.938 1053.27 167.148 846.083C177.605 733.103 210.685 664.729 328.109 646.627C357.743 640.693 388.006 637.541 416.515 626.828C331.884 677.172 221.186 650.189 192.848 779.672C148.396 1043.28 131.327 1319.25 191.615 1581.67C201.07 1579.63 210.274 1576.4 219.963 1575.31C219.757 1574.37 221.202 1574.13 221.187 1575.13C265.992 1568.37 314.601 1576.26 355.178 1551.58C346.764 1507.17 337.328 1462.94 326.98 1418.93C281.099 1250.08 380.006 1086.01 361.011 916.946C360.899 916.073 362.292 915.922 362.49 916.742C400.454 1088.88 293.13 1260.25 347.561 1431.94C352.519 1453.33 357.818 1474.65 362.215 1496.18L362.351 1496.77C364.773 1507.62 377.124 1572.77 360.566 1567.11C357.407 1569.19 353.862 1570.77 350.332 1572.18C355.525 1592.62 372.948 1606.48 386.048 1621.18C427.777 1602.74 474.72 1623.15 518.138 1619.26C530.855 1618.69 543.295 1615.66 555.812 1613.64C565.81 1404.36 510.388 1200.6 478.325 995.563C477.514 995.728 476.704 995.881 475.892 996.027C476.204 997.866 475.535 999.889 473.392 1001.34C462.34 1010.18 439.723 1012.42 442.465 992.241C446.316 977.805 466.641 977.569 473.263 989.974C474.575 989.479 475.91 989.016 477.265 988.582C476.472 983.28 475.702 977.977 474.946 972.67C431.206 927.777 399.757 859.686 397.252 795.151L393.636 795.715V795.715C390.583 796.197 388.329 794.508 388.012 791.323C387.688 788.05 387.531 784.845 387.591 781.684C386.758 777.994 387.24 773.754 387.634 770.175C383.259 740.542 405.474 710.372 433.687 703.288C430.649 697.845 429.24 690.681 428.257 684.75C424.118 671.339 422.594 656.946 424.201 643.037C424.242 641.363 424.314 639.693 424.432 638.027C425.373 624.734 428.929 611.415 438.508 601.849C445.577 594.791 454.937 591.449 463.996 594.362C470.863 577.512 474.905 559.47 474.917 541.212ZM303.544 2789.5C277.067 2795.44 249.841 2793.44 222.973 2792.54C214.571 2808.83 209.252 2826.77 205.16 2844.6C201.101 2871.87 185.519 2863.57 194.565 2840.67C200.218 2822.89 209.908 2806.97 221.164 2792.48C197.434 2791.74 173.37 2791.94 150.725 2799.53C150.272 2841.92 128.772 2878.24 106.434 2912.39C88.3664 2944.19 98.2374 2995.54 136.401 3005.39C189.272 3023.03 245.158 3023.9 300.05 3027.17C301.332 3021.61 307.656 3019.54 312.72 3020.16C326.88 3022.65 341.457 3014.92 349.74 3003.27C383.328 2949.28 325.961 2881.72 309.695 2829.74L309.16 2828.46C304.673 2817.83 295.623 2799.8 303.544 2789.5ZM763.074 2738.16C756.804 2737.48 750.41 2738.05 744.246 2739.3C739.554 2740.25 734.936 2741.48 730.331 2742.73C737.344 2749.32 744.149 2756.47 750.105 2764.1L750.95 2765.19C757.565 2773.84 765.478 2781.41 768.717 2792.19C769.781 2795.73 765.77 2798.56 762.796 2796.86C753.052 2791.3 747.353 2781.06 741.367 2771.81C735.685 2763.03 731.158 2753.32 727.773 2743.43L725.67 2744C717.958 2746.09 710.223 2748 702.189 2748.59C683.314 2756.23 665.006 2769.3 647.383 2777.21C633.24 2801.78 630.364 2830.49 631.078 2858.44C620.581 2879.24 606.511 2812.28 641.044 2780.27L639.828 2780.78C621.138 2788.52 600.573 2792.48 580.871 2785.27C581.236 2786.02 581.241 2788.66 579.765 2787.61C575.809 2782.73 566.691 2801.6 565.582 2804.08C541.007 2854.69 571.363 2911.04 623.95 2922.97L625.487 2923.29C653.04 2929.01 799.398 2960.39 872.14 2959.8C904.704 2956.95 977.296 2964.83 992.194 2929.01C1003.74 2885.8 955.962 2848.85 927.42 2824.53C908.909 2809.75 888.893 2796.77 867.972 2785.88C840.532 2771.6 808.423 2761.7 784.476 2741.48C783.594 2742.35 782.253 2742.73 780.799 2742C779.539 2741.36 777.779 2741.99 776.367 2741.72C774.86 2741.44 773.475 2740.79 772.026 2740.28C769.117 2739.24 766.14 2738.49 763.074 2738.16ZM860.55 2885.24C847.175 2886.23 844.133 2856.44 851.567 2864.64C852.438 2867.77 853.944 2871.03 855.993 2873.57L856.481 2874.15C858.959 2877 867.355 2883.11 860.55 2885.24ZM244.762 2804.65C245.029 2804.15 245.829 2804.37 245.811 2804.94C245.599 2811.79 245.108 2817.8 246.78 2824.56C248.384 2831.05 251.402 2836.68 255.021 2842.2C257.654 2846.22 251.484 2849.7 248.789 2845.94C241.013 2835.1 238.213 2816.85 244.762 2804.65ZM697.979 2751.5C698.165 2750.7 699.44 2750.66 699.606 2751.5C703.971 2765.89 705.254 2781.09 708.641 2795.76C709.22 2804.11 723.089 2831.43 710.228 2833.41C698.295 2833.59 697.567 2804.7 695.637 2795.64L695.465 2794.07C693.951 2779.89 693.201 2765.07 697.979 2751.5ZM570.933 1560.07C569.846 1570.62 574.451 1625.98 561.274 1624.7C525.41 1647.28 471.955 1630.56 432.362 1627C417.728 1625.3 403.079 1624.63 388.407 1623.62C411.977 1642.22 437.595 1708.61 383.255 1692.28C376.154 1700.54 381.313 1714.23 381.953 1723.99C384.659 1746.81 374.164 1764.87 350.968 1767.79C329.808 1770.65 308.281 1770.52 287.015 1772.35C279.598 1850.87 269.971 1929.23 257.259 2007.04C246.07 2075.98 222.414 2141.24 202.223 2207.73C154.603 2371.51 113.986 2542.06 122.189 2714.11C123.271 2727.35 125.549 2740.53 130.065 2753.01C134.205 2764.46 141.492 2774.73 149.038 2784.06C150.497 2785.87 150.946 2787.92 150.67 2789.8C151.393 2791.93 150.715 2794.6 150.845 2796.88C197.829 2772.21 253.025 2790.42 302.328 2775.61C302.706 2770.82 304.423 2765.54 306.366 2761.15C347.806 2703.63 378.89 2638.8 402.079 2571.48C450.15 2432.85 466.433 2285.88 495.718 2142.53C525.226 1999.98 569.274 1858.66 643.292 1733.46C643.836 1732.53 645.06 1733.34 644.668 1734.28L640.922 1743.49C600.585 1842.82 561.67 1943.2 535.636 2047.59C590.986 2269.75 450.644 2471.52 554.368 2707.13C558.774 2718.1 563.541 2728.93 568.614 2739.6C571.92 2748.96 582.964 2762.6 582.152 2771.72C621.471 2779.86 654.271 2751.43 687.004 2734.12L687.788 2733.77C697.51 2729.46 714.125 2720.39 725.443 2722.24C733.139 2717.56 740.527 2712.37 747.165 2706.41C747.805 2703.99 748.517 2701.71 749.203 2699.77C806.279 2488.76 788.929 2266.48 818.403 2051C834.355 1906.51 863.75 1762.87 908.453 1625.39C896.72 1629.43 783.423 1636.18 797.976 1612.11C794.085 1595.27 790.62 1578.33 787.501 1561.32C774.554 1562.24 761.777 1563.31 748.843 1564.12C754.882 1578 759.489 1592.8 764.645 1606.99C770.976 1620.61 767.974 1646.98 748.3 1643.53C731.369 1638.3 721.647 1609.04 726.655 1592.77C727.132 1591.33 729.447 1590.62 730.168 1592.3C734.171 1601.62 736.427 1611.2 742.009 1619.77L742.783 1620.93C744.265 1623.19 748.119 1629.51 750.875 1628.96C756.614 1617.34 733.81 1580.75 731.609 1565.11L729.793 1565.2V1565.2C740.409 1589.96 711.914 1607.79 692.509 1592.66C681.663 1607.99 670.79 1622.96 660.293 1638.48L659.475 1639.67C655.075 1645.99 650.101 1652.62 642.625 1655.12C634.73 1657.77 626.333 1654.1 623.233 1646.11C617.488 1628.48 636.228 1601.83 646.797 1588.5C649.905 1579.78 656.172 1572.61 663.325 1567.06L660.187 1567.09C630.344 1567.37 599.866 1566.77 570.933 1560.07ZM207.202 2793.82C207.806 2793.82 207.806 2794.78 207.202 2794.78C206.598 2794.78 206.598 2793.82 207.202 2793.82ZM267.722 2630.43C268.34 2629.29 270.159 2630.07 269.779 2631.32C256.668 2673.76 245.442 2716.78 235.712 2760.15C230.041 2789.77 211.474 2780.82 219.793 2754.65C230.433 2711.35 246.729 2669.54 267.722 2630.43ZM600.343 2643.34C600.288 2642.27 601.798 2642.16 602.093 2643.1C610.452 2669.99 621.732 2696.26 637.568 2719.43C642.504 2726.6 649.409 2733.25 651.838 2741.87C652.98 2745.92 648.678 2748.57 645.365 2746.97C636.992 2742.94 631.722 2733.15 627.017 2725.35L626.756 2724.92C611.752 2700.3 601.848 2672.45 600.343 2643.34ZM319.68 2700.75C320.79 2699.33 322.797 2701.16 322.035 2702.62L321.687 2703.32C318.161 2710.55 297.387 2754.46 294.549 2737.09C300.03 2723.46 310.775 2712.18 319.68 2700.75ZM765.64 2720.38L765.311 2720.93V2720.93C766.07 2721.74 766.851 2722.54 767.644 2723.32C766.963 2722.36 766.291 2721.38 765.64 2720.38ZM533.079 2057.67C532.53 2059.82 531.997 2061.98 531.458 2064.13C533.044 2069.45 534.459 2074.83 535.713 2080.26C535.015 2072.73 534.158 2065.2 533.079 2057.67ZM340.735 1575.73C302.626 1587.72 262.156 1583.6 222.871 1584.86L222.74 1584.91V1584.91C231.555 1635.21 230.16 1687.92 246.82 1736.5L247.298 1737.85C255.024 1759.58 259.616 1765.18 283.501 1761.22C302.476 1759.8 321.466 1758.56 340.437 1757.08L343.039 1756.87C351.272 1756.15 360.638 1754.8 366.146 1748.09C378.187 1731.69 364.236 1709.91 370.813 1692.08C380.41 1670.41 390.47 1689.45 402.799 1682.76C410.604 1677.34 401.837 1660.06 398.75 1654.12C386.096 1632.5 364.613 1617.79 350.993 1596.65L350.178 1595.47C346.478 1590.09 341.866 1582.8 340.735 1575.73ZM985.897 1550.7C978.253 1556.33 969.668 1560.46 960.648 1562.36C961.454 1576.38 962.029 1590.41 962.322 1604.45C962.401 1608.21 959.757 1611.08 956.499 1612.29C944.283 1616.84 931.748 1620.51 919.023 1623.3C913.724 1635.15 910.843 1647.78 908.085 1660.43L907.002 1665.39C902.881 1682.71 897.123 1699.59 893.251 1716.98C910.663 1722.66 925.286 1707.22 937.226 1696.34C972.823 1658.1 984.224 1602.01 985.897 1550.7ZM680.974 1566.8C678.76 1567.08 676.227 1566.34 674.213 1567.35L673.01 1568.9C660.511 1584.89 646.248 1601.12 639.504 1621.26C636.469 1626.99 630.607 1650.84 643.015 1636.69C657.045 1617.93 668.584 1597.16 682.333 1578.17C681.032 1574.57 680.168 1570.58 680.974 1566.8ZM161.144 1502.77C161.61 1533.67 161.898 1564.54 161.94 1595.44C162.716 1601.52 158.873 1612.94 167.606 1613.76C183.069 1616.09 199.703 1613.1 214.942 1616.67C216.606 1616.44 218.27 1616.28 219.917 1616.19C219.352 1610.9 218.942 1605.59 218.567 1600.29C218.361 1597.38 218.627 1592.46 217.673 1588.6C212.841 1589.85 207.304 1589.7 202.505 1590.1L200.469 1590.27C196.062 1590.62 191.679 1590.85 187.298 1590.53C183.959 1591.71 179.873 1590.57 178.759 1586.04C171.96 1558.5 166.107 1530.71 161.144 1502.77ZM693.119 638.456C693.939 640.333 694.673 642.258 695.387 644.186C697.863 650.867 700.266 657.576 702.607 664.309C705.477 672.567 708.289 680.846 711.013 689.155L712.618 693.72C717.177 706.649 721.864 719.528 727.431 732.078C790.445 1019.9 747.403 1320.85 811.777 1608.52C856.844 1616.56 902.898 1613.41 946.344 1598.69L946.328 1597.93C946.013 1584.92 943.65 1537.16 943.456 1534.32C938.535 1462.55 927.203 1391.29 914.168 1320.64C900.151 1323.51 885.85 1324.76 871.615 1325.94L867.427 1326.28C863.241 1326.65 859.364 1327.39 856.05 1324.28C852.105 1317.1 864.716 1316.84 869.049 1317.33L874.442 1317.39C887.632 1317.53 900.864 1317.84 913.961 1319.53C885.507 1158.26 842.468 996.313 850.168 831.193C850.237 830.445 851.214 830.457 851.297 831.193C864.643 1071.58 939.703 1302.64 959.322 1542.17C1006.28 1527.69 1007.01 1468.39 998.273 1427.52C981.199 1331.2 963.058 1235.07 945.389 1138.85C924.091 1027.08 908.057 913.826 876.439 804.445L875.369 800.775C857.77 740.604 834.229 670.04 769.408 650.625C744.934 642.666 718.84 640.025 693.119 638.456ZM707.207 1566.17C702.656 1566.32 698.104 1566.45 693.552 1566.56C693.895 1571.82 697.89 1574.91 700.786 1578.8C701.855 1580.47 701.343 1583.08 699.842 1584.4C705.965 1587.43 717.56 1585.6 716.864 1576.72C716.306 1570.7 709.135 1571.36 707.207 1566.17ZM684.696 1566.73L683.711 1566.75V1566.75C683.953 1567.15 684.207 1567.56 684.474 1567.96C684.533 1567.55 684.603 1567.14 684.696 1566.73ZM451.874 647.129C455.791 665.876 458.823 684.735 461.266 703.67C484.456 709.53 497.153 731.611 509.515 750.68L509.759 751.145C512.559 756.328 521.544 768.729 520.818 775.989C522.387 776.593 523.548 778.121 522.833 780.161C522.097 782.259 520.834 783.625 519.081 784.302C533.932 817.952 541.482 854.665 547.312 890.955C553.328 924.219 550.028 967.337 516.545 983.799C525.471 985.676 534.575 984.198 542.998 980.96C540.406 966.461 559.504 961.651 567.101 972.306C577.359 987.235 558.027 1003.92 545.579 990.594C544.535 989.406 544.264 988.062 544.49 986.823C531.94 993.967 516.131 992.872 502.851 989.007C498.77 990.189 494.706 991.346 490.585 992.519C502.635 1070.3 518.343 1147.42 532.597 1224.8L533.888 1231.84C553.539 1339.06 570.3 1447.48 570.909 1556.82C641.702 1549.05 713.582 1553.33 784.291 1543.13C743.66 1304.28 769.412 1059.36 730.682 820.321C728.064 837.427 724.34 854.39 719.599 870.961C714.404 890.037 704.656 908.834 706.244 929.095C760.035 941.38 748.103 1017.9 692.294 1010.33C645.547 1008.58 641.334 955.713 672.89 936.08C676.212 932.465 679.998 930.054 684.845 928.143C686.832 927.359 689.185 926.46 691.604 925.88C690.023 904.661 701.449 886.125 706.828 866.347C722.191 816.158 726.867 784.454 715.06 736.027C713.668 731.703 712.546 727.259 711.453 722.825C702.536 701.903 689.499 683.187 677.056 664.361C671.654 708.766 656.632 751.731 633.543 789.68C626.256 800.002 620.936 814.435 608.68 819.344C596.39 822.007 586.355 807.179 576.993 800.755C527.39 757.603 481.807 706.893 451.874 647.129ZM807.112 1449.42C810.722 1437.72 825.037 1439.4 832.087 1446.78C839.342 1453.91 839.683 1465.92 832.359 1473.19C822.596 1484.07 802.926 1477.82 803.757 1462.23C803.479 1458.62 806.26 1456.85 808.001 1454.18C806.923 1452.93 806.406 1451.27 807.112 1449.42ZM809.756 1455.6C809.598 1456.07 809.486 1456.54 809.432 1457.05C810.222 1457.55 810.876 1458.45 811.052 1459.28C811.598 1461.84 813.39 1465.55 816.035 1466.5L816.278 1466.58C820.685 1468.08 826.268 1460.63 821.287 1458.05C819.622 1457.18 819.181 1457.66 817.272 1457.58L815.58 1457.25C813.547 1456.85 811.637 1456.43 809.756 1455.6ZM422.599 1363.89C447.02 1363.44 471.982 1360.97 496.32 1363.5C521.444 1378.37 358.863 1369.56 349.118 1367.85L348.87 1367.8C348.155 1367.72 348.14 1366.71 348.87 1366.65C373.392 1364.52 398.003 1364.36 422.599 1363.89ZM796.433 1319.64C789.136 1308.1 805.422 1296.32 809.533 1311.74C815.414 1321.77 795.843 1333.31 796.433 1319.64ZM782.508 1172.2C776.818 1165.02 781.95 1150.87 791.942 1156.21L792.325 1156.47C797.44 1160.17 802.655 1168.47 797.766 1174.19C793.625 1178.44 785.223 1177.88 782.508 1172.2ZM771.973 1054.33C771.545 1046.7 781.266 1039.85 787.162 1045.76C791.623 1049.85 791.713 1057.79 787.84 1062.25L787.789 1062.18V1062.18C786.246 1063.7 784.155 1064.34 782.035 1063.65C776.412 1065.63 771.715 1059.65 771.973 1054.33ZM689.84 937.368L687.86 938.48C675.469 945.499 669.091 950.506 664.675 963.502C661.119 977.181 667.772 991.489 681.386 995.255C731.95 1009.63 750.106 955.781 709.289 939.902C702.933 937.818 696.369 938.127 689.84 937.368ZM467.099 992.422L465.315 991.8C460.438 990.125 455.388 988.806 452.894 993.541C450.941 997.251 454.547 997.518 457.342 996.901C460.896 996.115 463.874 993.994 467.099 992.422ZM561.112 976.443C557.931 972.031 553.459 972.467 550.085 975.065C549.541 976.419 549.426 978.037 549.927 980.064C550.608 982.818 552.096 985.143 554.777 986.151C555.538 986.437 556.299 986.542 557.048 986.642C561.105 986.146 564.396 980.997 561.112 976.443ZM489.142 983.071L489.466 985.23V985.23L491.966 984.594V984.594C491.007 984.12 490.073 983.597 489.142 983.071ZM462.675 715.133C467.537 756.663 469.881 798.517 472.865 840.294C475.963 883.638 480.95 926.75 487.167 969.695C492.771 974.058 498.868 977.961 505.486 980.584C571.876 955.758 526.236 837.78 513.639 784.337C511.757 783.555 510.775 781.816 509.952 779.398C508.98 776.54 508.119 773.635 507.262 770.727L506.243 768.805C495.274 747.987 484.616 724.227 462.675 715.133ZM694.457 974.925C686.823 966.932 702.24 959.173 705.997 968.389C709.828 975.912 696.186 985.769 694.457 974.925ZM453.126 712.658C440.485 711.098 429.816 713.917 421.153 719.642C417.116 722.797 413.502 726.638 410.45 731.152C400.148 746.391 398.463 766.075 402.142 783.834C402.252 784.36 402.262 784.909 402.193 785.444C405.845 786.512 406.129 793.32 401.858 794.289L401.257 794.412V794.412C412.175 853.272 432.72 911.318 472.654 956.147C460.977 875.518 458.002 793.926 453.126 712.658ZM768.148 920.668C777.813 911.832 791.562 932.636 778.965 937.516C769.988 941.078 759.728 927.174 768.148 920.668ZM751.642 800.595C752.179 799.511 753.64 800.318 753.441 801.374L753.292 802.222C753.145 803.108 752.979 804.277 752.847 805.587C763.741 799.582 774.678 812.63 765.627 822.216C760.789 827.163 752.596 826.312 749.556 819.796C746.741 813.757 748.867 806.198 751.642 800.595ZM760.044 812.344C757.826 811.534 755.188 813.146 753.676 814.783L753.533 814.942C753.428 815.062 753.316 815.168 753.2 815.261C755.273 824.262 766.14 815.977 760.044 812.344ZM462.455 598.013C447.736 603.997 438.074 618.593 435.757 634.412C435.166 648.367 436.43 662.375 440.302 675.767C440.57 677.701 441.318 679.707 442.2 681.737C443.612 682.056 444.929 682.958 445.854 684.634C448.302 689.068 450.39 693.624 452.095 698.36C450.764 680.616 449.176 662.895 447.127 645.213C440.083 644.479 443.394 633.462 445.174 629.435C445.376 628.241 442.399 615.8 444.549 618.068C445.324 620.779 446.085 623.497 446.833 626.22C452.842 617.402 458.131 607.929 462.455 598.013ZM658.388 622.611L659.013 623.346C659.117 623.468 659.222 623.589 659.33 623.709C662.449 625.194 664.134 629.563 667.108 631.665C671.7 636.498 689.091 644.837 681.973 652.723C687.22 660.481 692.301 668.315 697.437 676.082L697.087 675.013V675.013C695.034 668.82 692.908 662.652 690.866 656.457C688.954 650.655 687.412 644.516 684.792 638.996C684.619 638.631 684.423 638.296 684.236 637.947C681.912 637.822 679.591 637.701 677.279 637.582C676.551 637.545 676.558 636.477 677.279 636.429C679.223 636.301 681.169 636.174 683.114 636.051C680.522 632.108 677 629.362 672.468 627.506L669.421 626.249C665.828 624.773 662.112 623.336 658.388 622.611Z" fill="black"/>
<path fill-rule="evenodd" clip-rule="evenodd" d="M641.156 586.563C601.338 586.563 549.814 555.958 519 537.647C518.741 537.486 518.312 537.23 517.853 536.955C517.291 536.618 516.676 536.251 516.379 536.061L514.947 535.146L511.086 534.893C507.371 534.655 503.606 534.263 499.563 533.692L498.389 533.526L497.232 533.778C496.917 533.847 496.571 533.933 496.21 534.025C495.975 534.085 495.645 534.171 495.439 534.213H495.431C495.237 534.136 494.762 533.914 493.941 533.313L492.848 532.514L491.528 532.207C483.201 530.28 477.157 528.033 471.933 524.921L470.916 524.314L469.751 524.099C458.58 522.036 446.303 498.812 439.707 486.335C438.663 484.361 437.702 482.541 436.831 480.95L433.824 475.457L428.176 478.165C420.391 481.898 412.212 483.789 403.868 483.791C375.278 483.793 347.528 461.513 337.884 430.813L337.848 430.7C333.413 417.42 333.303 403.213 333.221 390.662C333.968 372.507 331.499 352.327 307.894 339.959C291.404 330.118 284.203 317.874 287.612 305.466C292.055 289.306 312.902 277.119 336.104 277.119C337.296 277.119 338.507 277.151 339.706 277.211L345.835 277.526L346.601 271.44C347.855 261.465 348.919 258.545 355.764 254.985L359.33 253.13L359.32 249.111C359.268 228.486 352.373 209.409 345.706 190.96C335.986 164.061 326.803 138.654 339.972 111.333C355.135 82.9778 380.647 59.5828 413.759 43.668C444.737 28.78 480.803 20.9102 518.06 20.9102C547.962 20.9102 577.118 26.1388 602.376 36.0281L602.542 36.092C666.889 59.3087 741.66 116.972 753.826 188.732C758.145 219.134 753.389 250.264 748.762 273.996L748.68 274.413C748.31 274.896 747.544 275.665 747.055 276.156C746.206 277.01 745.327 277.89 744.565 278.923L742.674 281.479L743.496 284.552C752.519 318.289 755.79 349.144 753.219 376.259L753.07 377.822L753.642 379.282C757.473 389.095 756.847 398.767 756.124 409.965C755.775 415.357 755.415 420.932 755.562 426.811C755.634 465.987 745.601 505.131 728.033 534.209C713.722 557.897 687.341 586.205 642.934 586.544C642.283 586.558 641.718 586.563 641.156 586.563" fill="#8FA7DF"/>
<path fill-rule="evenodd" clip-rule="evenodd" d="M752.158 376.402C744.189 332.348 753.387 266.039 722.098 231.702C714.728 199.879 707.568 174.954 671.026 168.701C601.167 159.026 525.848 190.797 479.856 243.489C428.605 294.547 400.837 503.634 486.566 531.054C491.415 532.563 498.406 530.143 500.661 525.321C522.834 482.527 534.93 436.195 546.703 389.838C583.141 399.03 619.094 382.593 654.92 377.535C675.301 374.147 696.142 375.055 716.039 380.68C724.052 382.945 733.851 387.777 741.48 382.775C745.908 384.718 752.863 382.172 752.158 376.402" fill="#D08B5B"/>
<path fill-rule="evenodd" clip-rule="evenodd" d="M757.896 410.506C757.254 405.192 756.156 399.512 752.477 395.392C749.623 385.19 734.608 386.495 726.239 383.34C701.104 378.04 675.052 376.065 649.652 380.672C632.099 382.867 615.27 388.052 598.189 392.35C581.957 396.298 563.788 391.758 548.444 398.871C505.338 376.572 466.372 348.14 427.256 319.602C402.81 302.784 376.383 287.798 357.818 264.088C359.757 258.728 352.99 252.389 349.346 258.43C343.311 270.32 349.253 288.37 362.923 291.648C366.563 296.675 370.754 305.041 377.712 305.132C387.996 314.417 395.89 326.328 409.434 331.402C426.662 342.383 443.626 353.67 460.874 364.603C460.874 364.601 478.344 375.631 478.344 375.631C483.372 378.805 489.684 384.525 495.975 382.646C510.302 391.405 525.331 398.965 540.029 407.077C536.79 435.398 535.528 464.18 522.543 490.292C520.218 499.514 502.421 518.513 507.071 525.526C505.575 525.622 498.4 526.69 500.052 528.215C507.794 528.89 514.42 533.861 521.289 537.112C560.683 554.993 621.417 601.115 664.847 576.956C688.423 576.614 702.638 557.843 717.379 542.433C734.095 525.968 742.113 503.595 747.528 481.273C753.444 458.217 760.011 434.514 757.896 410.506" fill="white"/>
<path fill-rule="evenodd" clip-rule="evenodd" d="M335.692 109.225C386.396 18.8403 512.122 -2.14683 603.652 31.9112C672.618 58.0983 743.219 112.02 757.778 187.993C761.883 216.703 758.208 246.512 752.693 274.804C752.123 277.735 749.35 279.765 746.461 280.193C755.225 311.858 760.295 344.662 757.123 377.484L757.139 377.522V377.522C759.733 377.156 761.979 377.766 763.052 380.319C763.872 382.275 763.137 385.1 762.979 387.13C762.757 390.005 762.565 392.883 762.332 395.757C762.085 398.807 761.416 401.588 760.485 404.332C760.126 412.069 759.35 419.833 759.572 426.591C758.634 491.048 734.442 571.47 663.763 588.604C605.451 599.85 549.706 561.266 502.33 532.028C501.225 533.789 499.84 535.408 498.855 536.608C494.41 542.022 487.033 535.222 489.796 529.601L489.681 529.534V529.534C499.191 518.214 507.064 505.869 513.552 492.834C516.825 479.334 523.655 466.994 528.086 453.699C530.938 445.142 532.992 436.328 533.498 427.304C533.856 420.953 533.403 414.602 533.334 408.242C532.961 407.729 532.578 407.224 532.181 406.727C523.205 406.267 512.873 398.686 504.563 395.663C482.115 384.88 460.344 372.689 439.41 359.203C437.379 401.773 424.36 448.629 450.701 486.497C456.111 495.588 462.495 504.065 469.531 511.954C472.048 514.958 472.641 517.312 473.801 520.864C475.051 524.695 470.809 529.583 466.752 527.909C452.685 523.533 437.579 493.366 431.49 480.039C406.28 496.648 372.457 486.093 353.234 465.456C334.609 446.651 327.727 419.969 328.415 394.114L328.438 393.331C329.284 361.985 323.726 354.567 297.586 338.471C275.861 323.847 278.157 296 299.734 282.494C312.202 274.982 328.936 271.101 343.397 273.964C341.144 265.474 343.911 253.093 353.96 252.144C353.102 247.004 352.906 241.544 353.575 236.324C347.965 192.96 314.182 152.958 335.692 109.225ZM695.909 384.017C647.058 373.259 599.349 407.261 550.889 396.299L549.36 396.988C547.838 397.688 546.36 398.467 545.159 399.792C543.712 401.389 542.796 403.31 542.538 405.458C542.372 406.827 542.495 407.735 542.137 408.716C542.361 412.776 542.412 416.839 542.305 420.895C543.181 429.492 541.569 438.788 539.486 446.948C534.016 476.132 521.163 504.225 504.714 528.504C533.43 539.58 559.84 555.865 588.421 567.269C671.899 604.887 732.689 546.384 743.523 464.326C746.786 443.095 747.384 421.566 747.886 400.124C747.927 398.25 747.999 396.365 748.053 394.475C729.654 394.726 713.453 387.389 695.909 384.017ZM344.978 279.114C324.223 278.961 295.395 288.643 294.447 310.647C295.871 329.457 319.651 332.287 330.255 344.786C358.22 376.909 330.141 423.134 369.216 456.454C385.333 471.325 406.846 475.018 425.683 462.904C421.137 442.551 422.853 421.765 426.399 401.154C426.409 395.855 426.611 390.559 427.083 385.272C427.53 380.269 428.172 375.315 428.939 370.357L429.42 367.293C430.064 363.052 430.625 358.558 432.587 354.743C420.18 346.551 408.119 337.777 396.49 328.578C396.347 330.702 396.244 332.825 396.161 334.947C396.605 338.95 396.461 343.1 395.948 346.935C396.007 367.509 398.026 388.023 398.962 408.583C398.978 412.065 394.1 412.514 393.08 409.377C388.626 395.666 388.27 381.241 388.844 366.934C389.049 361.83 389.452 356.718 390.066 351.628C389.213 346.203 389.099 340.846 388.479 335.341C387.894 330.146 386.381 325.11 385.656 319.952L373.252 309.984C362.372 301.245 350.204 292.489 344.978 279.114ZM355.968 262.706L355.364 262.077C353.57 260.218 350.799 257.488 349.828 257.996L349.745 258.051C349.598 258.171 349.413 258.137 349.305 258.023C342.148 271.283 355.957 286.392 366.099 294.338C415.487 335.314 469.831 370.719 529.015 395.839C531.079 396.398 534.018 398.099 535.818 400.097C536.156 400.058 536.482 399.995 536.789 399.902C537.119 399.729 537.433 399.524 537.711 399.276C478.316 365.372 420.494 325.865 371.235 277.999C366.858 275.092 363.118 271.972 360.233 268.123C360.156 268.094 360.08 268.067 360.003 268.029C357.98 267.014 356.755 264.924 355.968 262.706ZM692.864 178.914C653.321 163.063 606.571 170.591 567.205 184.042C516.71 202.107 477.175 241.18 452.455 288C451.584 290.245 450.722 292.492 449.896 294.755C450.523 300.142 447.69 306.261 446.471 311.338C445.47 315.51 445.17 319.528 444.881 323.781L444.816 324.891C444.777 325.486 444.716 326.045 444.544 326.565C476.469 349.717 510.101 370.421 543.443 391.304C595.617 393.509 643.312 360.08 695.877 369.103C713.076 371.747 729.645 378.479 747.153 379.041C753.557 318.474 731.059 260.632 708.545 205.463L705.869 198.909C702.87 191.489 699.811 183.448 692.864 178.914ZM622.001 51.5579C549.763 18.1491 461.152 17.2368 394.999 61.4582C348.626 91.0856 324.283 131.926 349.046 185.465C356.658 203.693 360.838 220.923 359.312 240.081L359.878 243.94C360.383 247.37 360.922 250.792 361.738 254.151C363.096 259.727 366.46 264.922 369.761 269.948C391.635 286.741 413.362 303.738 435.616 320.015C457.582 210.748 579.857 139.219 686.697 165.102C693.845 166.604 699.417 170.194 703.893 174.96C709.536 177.631 714.827 181.012 719.134 185.482C720.987 187.405 718.495 190.93 716.194 189.29C714.615 188.164 713.069 186.998 711.532 185.822C714.372 191.075 716.595 196.78 718.523 202.314C726.217 220.989 733.689 239.693 739.994 258.889L740.884 252.888C744.299 229.672 747.213 206.291 742.702 182.971C726.156 128.253 685.677 85.1669 635.544 58.3217C631.347 57.8683 627.166 57.241 622.93 57.0385C616.426 56.7271 609.929 56.9351 603.434 56.4607C602.886 56.42 602.833 55.7443 603.31 55.5495C608.82 53.2846 615.371 51.9211 622.001 51.5579ZM534.421 131.142C563.132 120.534 594.889 112.799 625.564 116.05C628.984 116.959 629.321 122.614 625.564 123.313C617.462 124.82 608.601 123.67 600.345 124.225C529.744 127.271 466.68 172.198 425.476 222.63C449.047 180.252 489.666 148.748 534.421 131.142ZM440.079 90.1771L442.414 89.0075C454.792 82.8458 469.017 76.5378 482.963 78.9055C486.954 79.5823 486.855 85.0486 484.012 86.9206C472.799 94.2984 458.751 96.7566 446.601 102.387L445.62 102.851C407.959 120.366 379.996 153.1 359.675 188.552C359.335 189.134 358.52 188.722 358.638 188.113C367.301 144.6 401.559 110.05 440.079 90.1771Z" fill="black"/>
<path fill-rule="evenodd" clip-rule="evenodd" d="M594.588 255.831L596.465 255.502L597.427 255.339C603.052 254.409 609.718 253.787 613.603 258.202C615.782 260.678 616.532 265.28 613.603 267.65C608.451 271.82 602.755 270.204 596.581 270.557C591.493 270.849 586.603 271.691 581.702 273.092C570.95 276.165 562.189 281.775 553.006 287.935C551.801 288.743 550.571 287.202 551.146 286.075C556.447 275.692 566.72 267.163 577.01 261.964C582.502 259.189 588.512 256.887 594.588 255.831ZM598.224 300C599.997 300 601.693 300.602 603.237 301.716C604.758 302.812 606.134 304.412 607.28 306.407C609.449 310.183 610.805 315.396 610.805 321.16C610.805 326.925 609.449 332.138 607.28 335.914C606.134 337.909 604.758 339.509 603.237 340.605C601.693 341.719 599.997 342.32 598.224 342.32C596.451 342.32 594.755 341.719 593.21 340.605C591.69 339.509 590.314 337.909 589.168 335.914C586.999 332.138 585.643 326.925 585.643 321.16C585.643 315.396 586.999 310.183 589.168 306.407C590.314 304.412 591.69 302.812 593.21 301.716C594.755 300.602 596.451 300 598.224 300ZM710.464 300C712.237 300 713.933 300.602 715.478 301.716C716.998 302.812 718.374 304.412 719.52 306.407C721.689 310.183 723.045 315.396 723.045 321.16C723.045 326.925 721.689 332.138 719.52 335.914C718.374 337.909 716.998 339.509 715.478 340.605C713.933 341.719 712.237 342.32 710.464 342.32C708.691 342.32 706.995 341.719 705.45 340.605C703.93 339.509 702.554 337.909 701.408 335.914C699.239 332.138 697.883 326.925 697.883 321.16C697.883 315.396 699.239 310.183 701.408 306.407C702.554 304.412 703.93 302.812 705.45 301.716C706.995 300.602 708.691 300 710.464 300ZM695.193 251.18L696.63 251.474L697.583 251.676C713.083 255.01 732.733 261.582 739.988 276.631C740.271 278.803 739.972 279.268 739.73 279.573L739.649 279.674C739.45 279.933 739.29 280.291 738.349 280.587C738.087 280.525 737.824 280.459 737.557 280.389C734.163 279.499 731.477 278.274 728.877 277.002L726.058 275.614C722.788 274.01 719.488 272.465 715.992 271.324C708.53 268.89 700.854 267.176 693.06 266.26C691.37 266.062 689.744 265.492 688.46 264.514C687.242 263.587 686.311 262.303 685.887 260.596C685.337 258.387 685.495 256.714 686.68 254.721C687.572 253.225 688.847 252.187 690.311 251.592C691.804 250.984 693.503 250.841 695.193 251.18Z" fill="black"/>
<path fill-rule="evenodd" clip-rule="evenodd" d="M756.09 317.432C753.262 325.128 748.958 333.14 743.695 339.617C722.401 357.649 701.71 347.665 691.204 323.226C687.212 305.955 697.811 287.351 709.042 274.646C725.262 258.389 751.733 266.921 759.191 286.247C759.644 288.751 759.918 291.249 760.049 293.739C759.894 301.83 758.919 308.745 756.09 316.432M551.41 301.911C579.462 268.544 631.942 266.76 630.603 318.115C624.577 383.119 523.106 367.164 551.41 301.911ZM764.913 274.076C763.93 272.411 762.839 270.8 761.648 269.259C761.208 268.997 760.955 266.673 759.337 266.501C737.71 242.642 699.717 256.179 685.989 279.953C683.482 282.959 681.437 286.478 679.929 290.196C666.403 287.715 650.634 288.197 638.054 293.306C625.58 260.734 587.815 257.826 562.928 271.743C547.449 279.356 537.412 295.299 522.358 304.057C486.969 306.604 448.988 298.675 414.238 307.552C386.832 313.25 409.742 327.127 414.338 317.866C447.101 308.186 485.916 316.366 519.933 314.185C523.47 320.168 530.253 325.064 537.013 324.855C544.314 389.576 638.698 378.844 641.954 321.311C645.647 315.472 650.24 309.884 656.814 306.246C659.331 305.725 661.762 305.048 663.984 304C667.782 303.464 673.634 305.074 677.128 308.236C689.097 380.052 758.052 371.688 770.375 308.774C770.62 308.524 771.305 307.586 771.831 306.081C776.049 300.504 786.375 298.431 784.725 289.016C783.256 279.599 771.364 279.711 764.913 274.076Z" fill="black"/>
</g>
</svg>
