<svg width="38" height="38" viewBox="0 0 38 38" fill="none" xmlns="http://www.w3.org/2000/svg">
<path fill-rule="evenodd" clip-rule="evenodd" d="M19 38C29.4934 38 38 29.4934 38 19C38 8.50659 29.4934 0 19 0C8.50659 0 0 8.50659 0 19C0 29.4934 8.50659 38 19 38ZM25.9972 14.2166C26.7033 14.1309 27.3748 13.9413 28 13.6607L27.9985 13.6629C27.5305 14.372 26.9416 14.991 26.2593 15.4908C26.266 15.6425 26.2698 15.7957 26.2698 15.9474C26.2698 20.6165 22.7621 26 16.3457 26C14.4503 26.0021 12.5943 25.451 11 24.4125C11.2763 24.4455 11.5543 24.4619 11.8326 24.4618C13.4032 24.4642 14.9291 23.9312 16.1645 22.9487C15.4367 22.9352 14.7313 22.6915 14.1471 22.2516C13.5628 21.8118 13.1289 21.1979 12.9062 20.4959C13.429 20.5968 13.9677 20.5761 14.4815 20.4352C13.692 20.2736 12.9821 19.8403 12.4721 19.2088C11.9621 18.5773 11.6835 17.7865 11.6836 16.9706V16.9251C12.1679 17.1978 12.7095 17.3494 13.2633 17.3672C12.7858 17.0442 12.3943 16.6067 12.1237 16.0936C11.8531 15.5805 11.7117 15.0077 11.712 14.4259C11.712 13.7797 11.8842 13.173 12.1837 12.6496C13.0596 13.7412 14.1522 14.634 15.3907 15.27C16.6292 15.9061 17.9859 16.2713 19.3727 16.3418C19.1972 15.5839 19.2735 14.7885 19.59 14.0791C19.9064 13.3697 20.4451 12.7859 21.1226 12.4185C21.8001 12.0511 22.5784 11.9205 23.3366 12.047C24.0948 12.1736 24.7906 12.5502 25.3159 13.1184C26.0971 12.963 26.8461 12.6731 27.5306 12.2613C27.2707 13.08 26.7257 13.775 25.9972 14.2166Z" fill="#A4A4A4"/>
</svg>
