<svg width="1100" height="1100" viewBox="0 0 1100 1100" fill="none" xmlns="http://www.w3.org/2000/svg">
<path d="M755.951 504.561L975.572 370.508L1075.11 566.557C1080.85 592.698 1077.11 614.37 1066.94 632.212C1056.64 650.295 1039.49 664.867 1017.89 676.086C975.34 698.184 916.61 706.693 863.543 703.897L755.951 504.561Z" fill="#21BB7A" stroke="black" stroke-width="10"/>
<path d="M693.368 664.256L696.874 728.692L697.131 733.421H701.866H887.165C946.735 733.421 1000.48 724.4 1044.79 691.099L916.842 930.526L916.806 930.592L916.773 930.66C907.699 948.955 890.772 964.69 871.056 975.435C851.331 986.185 829.338 991.654 810.52 989.995L810.301 989.975H810.081H700.388H695.554L695.391 994.806L693.038 1064.38L583.069 863.229L693.368 664.256Z" fill="#21BB7A" stroke="black" stroke-width="10"/>
<path d="M545.774 180.028L427.473 372.811L206.16 241.69L325.697 57.4503C345.247 39.6746 365.542 32.534 385.665 32.954C406.085 33.3801 426.859 41.6075 446.956 55.4658C486.567 82.7807 522.4 131.194 545.774 180.028Z" fill="#21BB7A" stroke="black" stroke-width="10"/>
<path d="M594.244 351.278L648.002 316.668L651.905 314.155L649.689 310.077L559.75 144.558C530.782 91.2431 496.899 47.5475 446.689 24.1719L713.798 22.2464L713.877 22.2458L713.956 22.2427C733.959 21.4667 755.615 28.9285 774.389 41.3332C793.16 53.7365 808.543 70.7498 816.277 88.4216L816.362 88.6167L816.464 88.804L869.705 186.794L872.053 191.115L876.412 188.84L937.148 157.135L818.27 353.238L594.244 351.278Z" fill="#21BB7A" stroke="black" stroke-width="10"/>
<path d="M385.976 582.998L329.448 552.42L325.277 550.165L322.803 554.209L229.91 706.062C204.645 706.354 178.792 705.872 154.898 703.043C130.083 700.106 107.751 694.676 90.4897 685.228C72.7581 675.522 49.8863 656.634 35.6195 633.163C21.4444 609.843 16.0317 582.584 31.6478 554.99L31.6896 554.916L31.7288 554.841L98.8099 426.336L100.736 422.646L97.4557 420.083L37.4678 373.216L271.684 371.218L385.976 582.998Z" fill="#21BB7A" stroke="black" stroke-width="10"/>
<path d="M52.7494 690.96C97.5112 726.471 149.818 733.47 190.936 731.018L491.864 733.128V990.899H335.449H335.39L335.33 990.9C275.471 992.32 219.993 982.923 190.801 946.013L52.7494 690.96Z" fill="#21BB7A" stroke="black" stroke-width="10"/>
</svg>
